<svg width="69" height="85" viewBox="0 0 69 85"  xmlns="http://www.w3.org/2000/svg">
<path d="M68.2043 40.6039C67.9747 39.955 67.468 39.5776 66.7628 39.5341C66.3802 39.5092 65.9914 39.5196 65.6046 39.5196C64.0887 39.5175 62.5748 39.5134 61.0589 39.5196H52.8898C52.1618 39.5196 51.4338 39.5196 50.7058 39.5216C48.2262 39.5216 45.7485 39.5217 43.2689 39.503C42.7953 39.4988 42.2886 39.3745 41.8584 39.1734C39.8875 38.2508 37.931 37.2971 35.9932 36.304C35.7264 36.1672 35.4513 35.7608 35.4327 35.4664C35.3686 34.3365 35.4182 33.2004 35.4017 32.0663C35.3955 31.6537 35.501 31.4609 35.9456 31.3179C37.0417 30.9634 38.1564 30.5985 39.1657 30.0574C41.4592 28.8217 43.3185 27.1175 44.1623 24.555C44.8551 22.4548 44.5077 20.3464 44.032 18.2565C43.5129 15.9967 42.8325 13.7618 42.5016 11.4771C42.0942 8.64713 42.5409 5.8234 43.5481 3.16344C44.3546 1.03631 43.3888 -0.0500594 41.2524 0.00177133C36.4544 0.113726 31.6501 0.0370162 26.85 0.0370162C26.6018 0.0370162 26.3495 0.0266501 26.1034 0.0453091C24.9308 0.142751 24.1759 1.1379 24.5399 2.25744C25.3733 4.82203 25.94 7.41978 25.9628 10.1336C25.9628 10.1772 25.9648 10.2186 25.969 10.2601C25.9462 10.6582 25.9069 11.0583 25.849 11.4584C25.6505 12.8413 25.3196 14.2055 24.9783 15.5676C24.9576 15.6256 24.939 15.6878 24.9225 15.7521C24.6495 16.7928 24.3868 17.8378 24.1635 18.891C23.7581 20.7983 23.5389 22.7223 24.1883 24.6193C25.0507 27.1424 26.881 28.8321 29.1477 30.0491C30.3203 30.6814 31.6129 31.0919 32.9179 31.6309C32.9179 32.8562 32.8951 34.1561 32.9303 35.4519C32.9427 35.9557 32.7359 36.1713 32.3057 36.3724C30.3865 37.2743 28.4941 38.2383 26.5708 39.1319C26.091 39.3537 25.5284 39.5009 25.0031 39.503C17.3325 39.5258 9.6597 39.5175 1.98901 39.5196C0.957016 39.5217 0.324169 39.9114 0.0884019 40.664C-0.157705 41.4477 0.104947 42.1028 0.940471 42.7206C1.98074 43.494 3.0541 44.2279 4.07369 45.0281C5.05811 45.7994 6.14802 46.1166 7.38269 46.1021C9.42393 46.0772 11.4672 46.1083 13.5106 46.0876C14.1434 46.0793 14.6418 46.0959 14.9396 46.8339C15.0947 47.2175 15.5849 47.4953 15.9654 47.7544C18.6292 49.5789 21.3467 51.3266 23.967 53.2112C26.9493 55.357 29.8508 57.6437 32.1899 60.5048C34.2828 63.0694 36.2496 65.7418 38.1771 68.439C40.8326 72.1605 43.8293 75.515 47.7257 77.9738C48.1 78.2102 48.1621 78.4279 48.0111 78.8467C47.3638 80.6462 47.8374 81.66 49.6056 82.3794C51.744 83.2523 53.8825 84.1272 56.0189 85H57.177C58.2152 84.5605 58.7695 83.7229 59.1355 82.6904C59.5223 81.5999 59.9835 80.5343 60.4136 79.4562C61.8406 75.8944 63.2739 72.3367 64.6864 68.7687C65.2262 67.4128 64.827 66.1378 63.5986 65.6132C61.3174 64.6388 59.0115 63.7287 56.6869 62.8621C55.6466 62.4744 54.5608 62.9802 54.0045 63.9526C53.8577 64.2117 53.7357 64.4854 53.6054 64.7446C52.228 64.361 51.9219 64.0583 51.8992 62.9533C51.8475 60.567 51.318 58.3155 50.2529 56.1718C48.7949 53.2361 49.1775 50.5098 51.3118 48.0198C51.651 47.6259 52.0377 47.2071 52.1908 46.7344C52.3831 46.1415 52.7161 46.0834 53.2269 46.0876C55.7934 46.1042 58.36 46.1311 60.9245 46.0731C61.731 46.0544 62.6534 45.9839 63.3111 45.5838C64.8622 44.6425 66.2995 43.5085 67.7514 42.4117C68.347 41.9639 68.4401 41.2756 68.2001 40.6039H68.2043ZM41.1408 2.53526C40.9526 3.23186 40.8161 3.87871 40.5906 4.49446C40.5224 4.6769 40.206 4.88422 40.0012 4.88422C36.1152 4.90703 32.2292 4.9091 28.3452 4.88215C28.1281 4.88215 27.7993 4.63958 27.7207 4.43433C27.4952 3.84761 27.3691 3.22564 27.1809 2.53526H41.1366H41.1408ZM31.7101 28.6268C31.6522 28.6061 31.5943 28.5833 31.5364 28.5605C31.4805 28.5418 31.4226 28.519 31.3647 28.4921C30.8477 28.2827 30.3265 28.0049 29.7991 27.6566C28.5645 26.8397 27.58 25.913 26.9555 24.8183C26.4736 24.0616 26.2647 23.251 26.2192 22.4175C26.1716 21.7976 26.2171 21.1363 26.364 20.4231C26.364 20.4169 26.364 20.4127 26.366 20.4086C26.4012 20.1971 26.4426 19.9856 26.4881 19.7741C26.5418 19.5191 26.6184 19.2019 26.7073 18.8391C26.7073 18.8371 26.7073 18.835 26.7073 18.8308C27.2698 16.571 28.3866 12.5324 28.3411 10.3182V10.314C28.3576 10.2103 28.3659 10.1025 28.368 9.98644C28.3783 9.13642 28.3701 8.28639 28.3701 7.38868H39.8813C40.0012 9.24837 39.9681 11.0811 40.2701 12.8558C40.6651 15.1923 41.3662 17.4729 41.8605 19.7949C42.2513 21.6359 42.394 23.5267 41.1863 25.1397C39.2381 27.7416 35.685 30.0594 31.708 28.6289L31.7101 28.6268ZM36.806 39.4781H31.5095C33.65 38.06 34.8805 38.0642 36.806 39.4781ZM56.0892 65.2027C58.2628 66.0714 60.3309 66.8966 62.4859 67.7549C60.5067 72.6954 58.5441 77.5903 56.5566 82.5412C54.3995 81.6787 52.3128 80.8432 50.1599 79.9828C52.1432 75.0402 54.0996 70.1598 56.0892 65.2027ZM48.6791 47.4953C46.6689 50.402 46.4207 53.5014 47.8436 56.6901C48.7329 58.6783 49.4608 60.681 49.4691 62.8849C49.4774 64.8938 50.4267 66.2269 52.2942 66.9194C52.4183 66.965 52.5299 67.05 52.6892 67.1391C51.5124 70.0748 50.3439 72.9856 49.1485 75.9711C47.3079 74.8744 45.6265 73.6346 44.3112 72.0506C41.9515 69.2082 39.662 66.2974 37.5174 63.2871C34.258 58.7135 30.3575 54.8179 25.8097 51.5588C23.5906 49.9686 21.3281 48.4365 19.0883 46.8754C18.8898 46.7386 18.6995 46.5934 18.3231 46.3177C20.991 46.863 23.3114 47.6985 25.4912 48.9072C28.6989 50.686 31.8404 52.5892 35.106 54.254C36.626 55.0294 38.3322 55.5912 40.0136 55.8525C42.6298 56.2547 44.7083 54.8884 44.9668 52.1414C45.1426 50.2859 45.7734 48.6252 46.8984 47.1097C47.6161 46.1415 48.4433 45.9259 49.6159 46.1933C49.2788 46.6639 48.9707 47.0744 48.6791 47.4932V47.4953ZM25.8221 46.1062C26.6121 46.1062 27.5304 45.8574 28.1529 46.1788C28.7299 46.4773 28.9926 47.3875 29.3917 48.0281C29.3421 48.0758 29.2945 48.1235 29.2469 48.1691C28.1053 47.5492 26.9637 46.9293 25.8242 46.3094C25.8242 46.241 25.8221 46.1746 25.8221 46.1062ZM37.5319 52.5664C33.9126 51.8657 32.496 49.1166 31.2034 46.1871C32.0865 46.2431 32.8062 46.6287 33.3356 47.2776C34.744 49.0025 36.1049 50.7648 37.5319 52.5664ZM35.6271 46.1829H44.5387C44.3029 46.5934 44.0341 46.9231 43.91 47.2983C43.4509 48.7019 43.0352 50.1179 42.6174 51.536C42.5078 51.903 42.4974 52.3073 42.3506 52.6556C42.0052 53.4786 41.3703 53.5533 40.8367 52.8691C39.1285 50.6798 37.4202 48.4842 35.6271 46.1829ZM60.1324 43.7013C42.6939 43.6474 25.2534 43.6494 7.81286 43.7013C6.28865 43.7054 5.33111 42.9383 4.33427 41.9494H5.37454C20.4864 41.9494 35.594 41.9494 50.7058 41.9494H64.1797C62.9285 43.1519 61.7414 43.7096 60.1324 43.7034V43.7013Z" />
</svg>
