<svg width="56" height="79" viewBox="0 0 56 79"  xmlns="http://www.w3.org/2000/svg">
<path d="M46.0683 6.6379C42.8988 3.91954 39.3814 2.0559 35.6169 1.10029C34.2517 0.753831 32.8258 0.527301 31.4454 0.310289C30.8332 0.213205 30.202 0.114217 29.5802 0.00380723C29.565 0.00190361 29.5479 0 29.5327 0H26.6009C26.5211 0.00951807 26.3937 0.0266506 26.3119 0.0361687C26.1845 0.0685301 26.0533 0.102795 25.9107 0.112313C22.3211 0.354072 18.8759 1.28684 15.6685 2.88778C8.58802 6.41899 3.80816 12.1298 1.45626 19.8604C-0.000137805 24.648 -0.367088 29.624 0.368714 34.6515C1.04367 39.2658 2.45634 43.0883 4.69036 46.3416C10.3467 54.5785 16.1267 62.9373 21.7146 71.0181C22.0245 71.4674 22.3363 71.9166 22.6462 72.3659C23.0018 72.8798 23.3573 73.3938 23.7128 73.9078C24.0684 74.4218 24.4524 74.9776 24.8213 75.5106C25.2377 76.1122 25.6579 76.7042 26.0838 77.2962C26.523 77.9092 26.9869 78.8172 27.7949 78.9771C28.603 79.137 29.2038 78.427 29.6031 77.8331C30.1126 77.0754 30.626 76.3292 31.145 75.5792C31.6641 74.8291 32.1831 74.081 32.7003 73.331C32.879 73.0721 33.0577 72.8132 33.2364 72.5562C38.8681 64.4202 44.6918 56.0062 50.3899 47.7122C51.6163 45.9266 52.5631 44.2933 53.2837 42.7152C55.5615 37.7334 56.4132 32.2358 55.8143 26.3708C54.9569 17.9815 51.7684 11.5264 46.0664 6.6379H46.0683ZM52.0954 39.3458C51.352 41.6301 50.2036 43.8497 48.4848 46.3282C43.7791 53.1146 39.0031 60.0228 34.3867 66.7026C34.2631 66.8816 34.1376 67.0624 34.0141 67.2413C33.3296 68.2293 31.9626 70.2072 31.9626 70.2072L29.5764 73.7365C29.5764 73.7365 28.5307 75.5145 28.0079 75.5145C27.5877 75.5145 27.3918 75.2061 27.234 74.9776C27.0249 74.675 26.8196 74.3704 26.6142 74.0658C26.2834 73.5747 25.9583 73.0778 25.637 72.581C25.4886 72.3525 25.3423 72.1222 25.192 71.8938C25.0418 71.6653 24.9088 71.3741 24.7205 71.1856C23.8916 69.9864 23.0626 68.7871 22.2355 67.5897C17.1876 60.2874 11.9666 52.7358 6.84453 45.3003C4.63903 42.0984 3.26629 38.4168 2.65027 34.0461C1.89355 28.6875 2.47915 23.4735 4.38996 18.545C7.0936 11.574 11.9799 6.70833 18.914 4.08325C26.0267 1.39154 33.0862 1.81034 39.8967 5.33012C45.3933 8.17031 49.3138 12.5562 51.5497 18.3642C54.202 25.2533 54.3846 32.3119 52.0954 39.3439V39.3458Z" />
<path d="M28.2703 17.7245H28.255C25.597 17.7245 23.0816 18.7791 21.1689 20.698C19.2543 22.6168 18.2048 25.141 18.2124 27.8042C18.2295 33.3132 22.7204 37.8134 28.2227 37.8362C28.236 37.8362 28.2493 37.8362 28.2626 37.8362C30.9302 37.8362 33.4418 36.7969 35.3374 34.9085C37.2406 33.0125 38.292 30.4921 38.2958 27.8137C38.3034 22.259 33.8049 17.736 28.2664 17.7265L28.2703 17.7245ZM33.6832 33.1743C32.2364 34.6324 30.3122 35.4358 28.2683 35.4377H28.2607C26.2283 35.4377 24.3079 34.6343 22.8535 33.1724C21.4009 31.7142 20.6042 29.7954 20.6118 27.768C20.6251 23.5858 24.0399 20.1574 28.2227 20.125C30.2438 20.1193 32.1603 20.8941 33.6167 22.3332C35.0826 23.7837 35.8964 25.7121 35.9059 27.7642C35.9154 29.8011 35.1263 31.7218 33.6832 33.1743Z" />
</svg>
