<svg width="71" height="75" viewBox="0 0 71 75" fill="none" xmlns="http://www.w3.org/2000/svg">
<path d="M47.8837 0C47.9662 0.0449999 48.0412 0.10875 48.1293 0.135C50.4675 0.836249 51.7181 2.4825 51.7256 4.94062C51.7387 9.20999 51.7293 13.4794 51.7293 17.7487C51.7293 22.5056 51.7293 27.2625 51.7293 32.2068C52.0143 31.95 52.2037 31.7943 52.3743 31.6218C55.7231 28.2768 59.0699 24.9281 62.4168 21.5831C64.1512 19.8506 66.0037 19.845 67.7268 21.5625C68.2799 22.1137 68.8331 22.665 69.3806 23.2218C70.9537 24.8193 70.9593 26.7337 69.3768 28.3181C63.7049 33.9975 58.0312 39.6768 52.3406 45.3393C51.8887 45.7893 51.7124 46.2374 51.7143 46.8712C51.7349 54.4837 51.6618 62.0962 51.7574 69.7068C51.7987 73.003 49.3874 75.0149 46.4812 74.9999C32.7431 74.9305 19.005 74.9699 5.26687 74.968C1.92938 74.968 0.0112547 73.0424 0.0112547 69.6937C0.0112547 51.7124 0.0206297 33.7331 4.71841e-06 15.7519C-0.00187028 14.0344 0.555004 12.6525 1.78688 11.4469C4.85625 8.44312 7.88625 5.39812 10.9012 2.34C11.9044 1.32375 12.93 0.384375 14.3475 0C25.5262 0 36.705 0 47.8856 0H47.8837ZM42.3656 41.6475H41.2931C35.6306 41.6475 29.97 41.6475 24.3075 41.6475C24.0394 41.6475 23.7694 41.655 23.5031 41.6287C22.8281 41.5593 22.4044 41.1168 22.3931 40.4981C22.3837 39.8737 22.785 39.4218 23.4619 39.3206C23.6775 39.2887 23.9006 39.2925 24.1181 39.2925C30.2681 39.2925 36.4181 39.2831 42.5681 39.3056C43.1156 39.3075 43.665 39.4987 44.3943 39.6375C45.8868 38.1375 47.5462 36.4875 49.1737 34.8075C49.3425 34.6331 49.3762 34.275 49.3762 34.0031C49.3856 24.3656 49.3856 14.7281 49.3837 5.08874C49.3837 3.24375 48.4837 2.34562 46.6481 2.34562C36.3487 2.34562 26.0512 2.34562 15.7519 2.34562C15.4931 2.34562 15.2344 2.34562 14.9231 2.34562C14.9231 2.71125 14.9231 2.97562 14.9231 3.24C14.9231 6.55874 14.9231 9.87749 14.9231 13.1944C14.9231 14.5331 14.5631 14.8987 13.2375 14.9006C9.91874 14.9025 6.6 14.9006 3.28125 14.9006C2.99813 14.9006 2.715 14.9006 2.39625 14.9006C2.38125 15.2194 2.36063 15.435 2.36063 15.6487C2.36063 33.7537 2.35875 51.8587 2.36063 69.9637C2.36063 71.6812 3.32063 72.6262 5.0475 72.628C18.9337 72.6299 32.82 72.628 46.7062 72.628C48.4518 72.628 49.3818 71.7149 49.3837 69.973C49.3893 63.0187 49.3875 56.0643 49.3837 49.1118C49.3837 48.9112 49.3499 48.7106 49.3218 48.3712C47.91 49.7868 46.6143 51.1068 45.2887 52.3968C45.0037 52.6743 44.6362 52.9406 44.2631 53.0362C42.1162 53.5874 39.96 54.1049 37.7981 54.5943C36.66 54.8512 36.0056 54.1462 36.2718 53.0043C36.7425 50.9887 37.1906 48.9656 37.725 46.9649C37.8731 46.4118 38.2106 45.8531 38.6062 45.4312C39.7668 44.19 41.0006 43.0143 42.3693 41.6493L42.3656 41.6475ZM61.0199 26.5237C54.2887 33.2587 47.535 40.0162 40.8337 46.7193C41.9231 47.8087 43.0687 48.9581 44.1318 50.0212C50.8462 43.3087 57.6018 36.5531 64.3331 29.8256C63.2474 28.7456 62.1112 27.6112 61.0199 26.5256V26.5237ZM12.5419 4.455C9.88124 7.11937 7.12875 9.87561 4.5 12.5062H12.5419V4.455ZM66.2456 28.2C66.8137 27.6075 67.3799 27.0393 67.9181 26.4468C68.3249 26.0006 68.3212 25.5075 67.9049 25.0743C67.2131 24.3543 66.5062 23.6475 65.7843 22.9575C65.3531 22.545 64.8543 22.53 64.4099 22.935C63.8043 23.4862 63.2324 24.0731 62.6662 24.6243C63.8718 25.83 65.0081 26.9643 66.2456 28.2018V28.2ZM41.6081 51.2812C40.9368 50.5968 40.2581 49.9049 39.5737 49.2093C39.3806 50.0343 39.1743 50.9099 38.94 51.9074C39.9431 51.6712 40.8262 51.4631 41.6062 51.2812H41.6081Z" />
<path d="M12.6562 20.94C13.68 20.94 14.7037 20.9269 15.7294 20.9437C17.1412 20.9662 17.9925 21.8287 17.9981 23.2462C18.0094 25.2693 18.0094 27.2925 17.9981 29.3156C17.9906 30.6825 17.1356 31.5731 15.7687 31.5918C13.7212 31.62 11.6719 31.6162 9.62436 31.5937C8.24062 31.5787 7.37062 30.7293 7.35187 29.355C7.32187 27.2831 7.31999 25.2112 7.35187 23.1393C7.37437 21.7987 8.24624 20.9681 9.58311 20.9437C10.6069 20.925 11.6306 20.94 12.6544 20.94H12.6562ZM9.72186 29.1975H15.6094V23.3362H9.72186V29.1975Z" />
<path d="M12.3675 55.9293C13.4156 55.9293 14.4637 55.9143 15.5119 55.9331C16.845 55.9574 17.7037 56.8162 17.7131 58.1437C17.7262 60.2156 17.7262 62.2874 17.7131 64.3574C17.7037 65.6493 16.8656 66.5399 15.5775 66.5605C13.4569 66.5943 11.3362 66.5943 9.21562 66.5605C7.98749 66.5418 7.12499 65.7299 7.09499 64.4924C7.04062 62.3249 7.03687 60.1537 7.09499 57.9862C7.12874 56.7168 8.01562 55.9518 9.29624 55.9293C10.32 55.9124 11.3437 55.9256 12.3675 55.9256V55.9293ZM15.3506 58.3218H9.41436C9.41436 60.1874 9.40311 62.0081 9.43686 63.8268C9.43874 63.9637 9.76499 64.1999 9.95249 64.2093C10.7044 64.2543 11.46 64.2281 12.2137 64.2281C13.2525 64.2281 14.2912 64.2281 15.3487 64.2281V58.3199L15.3506 58.3218Z" />
<path d="M17.8594 43.7943C17.8594 44.8181 17.8725 45.8418 17.8556 46.8656C17.835 48.1912 16.9744 49.0556 15.6469 49.0649C13.575 49.0799 11.5031 49.0799 9.43124 49.0649C8.12999 49.0556 7.24687 48.2456 7.21874 46.9406C7.17374 44.8218 7.17562 42.6993 7.21874 40.5806C7.24499 39.2943 8.07749 38.4787 9.35436 38.4581C11.475 38.4243 13.5956 38.4243 15.7162 38.4581C17.0212 38.4787 17.8387 39.3506 17.8556 40.65C17.8706 41.6981 17.8594 42.7462 17.8594 43.7943ZM15.4781 46.7024V40.8337H9.60186V46.7024H15.4781Z" />
<path d="M33.3731 21.8175C36.4687 21.8175 39.5643 21.8175 42.66 21.8175C42.8793 21.8175 43.1043 21.795 43.3162 21.8325C43.9518 21.9412 44.3306 22.3406 44.3362 22.9762C44.3418 23.6156 43.9631 24.015 43.3331 24.1387C43.1212 24.18 42.8962 24.1593 42.6768 24.1593C36.4612 24.1593 30.2456 24.1593 24.03 24.1593C23.9081 24.1593 23.7862 24.1631 23.6643 24.1593C22.8618 24.1256 22.3781 23.6681 22.3912 22.9593C22.4043 22.2862 22.8825 21.8456 23.6456 21.8194C24.0112 21.8062 24.3768 21.8175 24.7425 21.8175C27.6187 21.8175 30.495 21.8175 33.3712 21.8175H33.3731Z" />
<path d="M33.3018 59.1431C30.1575 59.1431 27.0131 59.1374 23.8687 59.1468C23.265 59.1468 22.7494 59.0231 22.4831 58.4193C22.1756 57.7237 22.6125 56.9418 23.3756 56.8199C23.5893 56.7862 23.8125 56.7993 24.0318 56.7993C30.2475 56.7993 36.4631 56.7993 42.6768 56.7993C42.8718 56.7993 43.0687 56.7899 43.2618 56.8106C43.9012 56.8762 44.3756 57.3674 44.3437 57.9731C44.3118 58.6162 43.9443 59.0118 43.3162 59.1206C43.0087 59.1731 42.6843 59.1412 42.3675 59.1412C39.345 59.1412 36.3225 59.1412 33.3 59.1412L33.3018 59.1431Z" />
<path d="M28.9462 63.3656C30.63 63.3656 32.3137 63.3581 33.9975 63.3693C34.8768 63.3749 35.3981 63.8099 35.4131 64.5093C35.4281 65.2199 34.86 65.7131 33.9675 65.7149C30.5756 65.7224 27.1837 65.7168 23.7918 65.7187C23.1806 65.7187 22.6706 65.5274 22.4531 64.9106C22.275 64.4006 22.395 63.9074 22.8562 63.6187C23.1243 63.4499 23.4956 63.3806 23.82 63.3768C25.5281 63.3543 27.2362 63.3656 28.9443 63.3656H28.9462Z" />
<path d="M28.845 28.38C30.5531 28.38 32.2612 28.3743 33.9693 28.3818C34.8881 28.3856 35.4281 28.8412 35.4131 29.565C35.3981 30.255 34.8525 30.7237 33.9993 30.7256C30.6075 30.735 27.2156 30.7331 23.8237 30.7256C22.905 30.7237 22.3837 30.2662 22.395 29.5218C22.4062 28.8018 22.8994 28.3856 23.7956 28.3818C25.4793 28.3725 27.1631 28.38 28.8468 28.38H28.845Z" />
<path d="M28.8768 48.1987C27.2175 48.1987 25.5581 48.2024 23.8987 48.1987C22.8993 48.1949 22.3819 47.7806 22.395 47.0137C22.4081 46.2787 22.9293 45.8531 23.8668 45.8531C27.2343 45.8474 30.6018 45.8456 33.9693 45.8531C35.055 45.8568 35.6737 46.6256 35.31 47.4787C35.0775 48.0262 34.6331 48.2024 34.0743 48.2006C32.3418 48.1949 30.6093 48.1987 28.8768 48.2006V48.1987Z" />
</svg>
