<svg width="97" height="97" viewBox="0 0 97 97" xmlns="http://www.w3.org/2000/svg">
<path fill-rule="evenodd" clip-rule="evenodd" d="M48.5 95.4098C74.4076 95.4098 95.4098 74.4076 95.4098 48.5C95.4098 22.5924 74.4076 1.59016 48.5 1.59016C22.5924 1.59016 1.59016 22.5924 1.59016 48.5C1.59016 74.4076 22.5924 95.4098 48.5 95.4098ZM48.5 97C75.2858 97 97 75.2858 97 48.5C97 21.7142 75.2858 0 48.5 0C21.7142 0 0 21.7142 0 48.5C0 75.2858 21.7142 97 48.5 97Z"/>
<path fill-rule="evenodd" clip-rule="evenodd" d="M41.3443 60.8941L62.8115 48.5L41.3443 36.1059V60.8941ZM63.6066 49.8771C64.6667 49.2651 64.6667 47.7349 63.6066 47.1229L42.1393 34.7288C41.0792 34.1167 39.7541 34.8818 39.7541 36.1059V60.8941C39.7541 62.1182 41.0792 62.8833 42.1393 62.2712L63.6066 49.8771Z" />
</svg>
