<svg width="113" height="119" viewBox="0 0 113 119" fill="none" xmlns="http://www.w3.org/2000/svg">
<g opacity="0.4">
<path d="M0 65.4711C1.61211 65.4656 2.68369 66.2334 3.21474 67.7747C4.22857 70.7144 5.24148 73.6541 6.25348 76.5939C6.32956 76.8139 6.33781 77.066 6.65681 77.2887C7.16556 75.8138 7.66514 74.3719 8.16014 72.9281C8.91639 70.7227 9.65889 68.5117 10.4371 66.3135C10.5471 66.0028 10.5013 65.4885 11.0275 65.4812C11.6994 65.472 12.3795 65.4711 13.0423 65.5628C13.2696 65.5939 13.1825 65.9789 13.1825 66.2063C13.1862 73.0482 13.1807 79.8911 13.1945 86.7331C13.1954 87.2519 13.0515 87.4261 12.5115 87.4444C10.5673 87.5114 10.5682 87.5343 10.5682 85.5763C10.5682 81.2478 10.5682 76.9202 10.5682 72.5917C10.5178 72.5798 10.4674 72.5688 10.417 72.5569C9.85047 74.3077 9.28397 76.0576 8.71839 77.8085C8.32331 79.0313 7.89981 80.2459 7.54873 81.4815C7.39381 82.0279 7.09131 82.1333 6.58898 82.1287C6.08298 82.1232 5.70807 82.0984 5.52198 81.4944C4.7859 79.1046 4.00949 76.7277 3.22574 74.3526C3.08457 73.9255 3.03141 73.4433 2.67941 73.0537C2.49149 73.4616 2.57399 73.8338 2.57399 74.1941C2.56666 78.2585 2.54374 82.3239 2.59049 86.3875C2.60058 87.2382 2.36866 87.5462 1.5235 87.4417C1.023 87.3793 0.508748 87.4289 0.000916664 87.4279L0 65.4711Z" fill="#24252D"/>
<path d="M61.5961 118.331C61.0324 118.136 60.4531 117.977 59.9067 117.74C57.2777 116.603 56.6407 113.524 58.6023 111.445C60.0919 109.866 62.0389 109.353 64.106 109.213C66.6534 109.042 69.0917 109.589 71.4182 110.587C72.1552 110.903 72.4724 110.713 72.8363 110.067C74.9739 106.269 76.3462 102.169 77.6662 98.0448C78.1786 96.4452 78.6791 94.8429 79.4592 93.0324C75.9768 94.6659 72.608 95.9575 70.2119 98.757C67.7735 101.607 68.3648 104.218 71.6987 105.91C71.8756 106 72.0874 106.033 72.1185 106.293C71.7574 106.736 71.3522 106.414 71.0149 106.294C68.055 105.24 66.9357 102.199 68.4702 99.4344C69.297 97.9448 70.5437 96.8604 71.9251 95.9181C74.0334 94.4799 76.3434 93.4358 78.7084 92.509C79.5371 92.1845 80.3034 91.7922 80.9341 91.1487C81.2146 90.8618 81.5125 90.5794 81.9122 90.4401C82.2797 90.3127 82.5767 90.3668 82.7867 90.7133C82.9966 91.0589 82.7949 91.2926 82.5492 91.4934C82.3402 91.6639 82.1267 91.8536 81.8819 91.9517C80.6875 92.4284 80.2292 93.4312 79.8524 94.5614C78.6672 98.1199 77.6799 101.746 76.249 105.221C75.4891 107.068 74.6916 108.9 73.6246 110.592C73.2405 111.201 73.378 111.43 74.0059 111.667C75.0812 112.073 76.1335 112.531 77.2738 112.739C78.372 112.94 79.4234 112.907 80.4043 112.286C80.6004 112.161 80.8754 111.831 81.0844 112.184C81.2604 112.482 80.9075 112.641 80.7049 112.806C79.4931 113.787 78.1034 113.859 76.6615 113.551C75.6339 113.331 74.6394 112.976 73.7135 112.482C72.9912 112.097 72.5704 112.193 72.0644 112.899C70.5199 115.054 68.5848 116.78 66.0392 117.687C65.2582 117.966 64.4341 118.121 63.6293 118.332L61.5961 118.331ZM71.8041 111.698C69.2182 110.531 66.6745 109.783 63.9382 110.009C62.1351 110.158 60.5026 110.772 59.277 112.178C57.7791 113.896 58.3557 116.26 60.4732 117.066C61.3285 117.391 62.2268 117.502 63.1572 117.436C67.0796 117.157 69.5913 114.778 71.8041 111.698Z" fill="#24252D"/>
<path d="M0 45.7509C0.972886 45.8591 1.56963 46.4109 1.79024 47.4064C2.35674 49.9456 2.92507 52.4847 3.49799 55.0221C3.56949 55.3392 3.68132 55.6472 3.9884 55.9791C4.31657 54.5619 4.64749 53.1456 4.97382 51.7285C5.34507 50.1152 5.71998 48.5027 6.08115 46.8876C6.34423 45.7106 6.33506 45.7088 7.74948 45.9434C7.27006 47.8409 6.79248 49.7311 6.31398 51.6222C5.7759 53.7516 5.22223 55.8773 4.70799 58.0122C4.58699 58.5145 4.40549 58.7565 3.83899 58.7575C3.23857 58.7575 3.13499 58.4375 3.01766 57.9636C2.16058 54.5216 1.28058 51.085 0.397832 47.6493C0.318082 47.3386 0.345582 46.9646 0 46.7684V45.7509Z" fill="#24252D"/>
<path d="M91.5729 30.4197C91.1943 29.3344 90.5251 28.3755 90.2382 27.2453C89.8954 25.8969 90.064 24.6777 91.0742 23.6767C92.0954 22.6647 93.3219 22.7435 94.5786 23.134C94.8655 23.223 95.1525 23.31 95.4595 23.4045C95.8189 22.6959 95.7556 21.9259 95.9344 21.2109C96.2323 20.022 96.5687 18.8532 97.2589 17.8284C98.6431 15.7723 100.951 15.7668 102.354 17.8046C102.999 18.7423 103.312 19.8102 103.531 20.9231C103.986 20.9194 104.257 20.5637 104.622 20.4125C105.935 19.8698 106.976 20.2502 107.525 21.5611C108.114 22.969 108.162 24.4623 108.023 25.9546C107.964 26.5963 107.895 27.039 108.742 27.248C109.615 27.4635 109.942 28.2518 110.009 29.1373C110.123 30.6562 109.737 32.0917 109.33 33.5253C109.265 33.749 109.206 33.9745 109.136 34.2275C110.016 34.5218 110.202 33.9763 110.332 33.3438C112.328 23.6483 109.839 15.2654 102.69 8.44085C97.0169 3.02611 90.0842 0.838035 82.2935 1.4577C78.9596 1.72262 75.7916 2.68145 72.8198 4.24344C72.6759 4.31861 72.4953 4.35161 72.4348 4.61469C72.9398 4.71919 73.4468 4.82461 74.0582 4.95111C73.3606 5.89252 72.5365 6.62677 71.7115 7.34818C71.1661 7.82485 70.9855 8.32535 71.1377 9.03576C71.3696 10.1211 71.5209 11.2229 71.7381 12.5072C70.5556 11.8967 69.5014 11.3925 68.4894 10.8132C67.9523 10.5061 67.516 10.5098 66.9907 10.8196C66.2051 11.2834 65.4635 11.6189 64.5634 12.047C63.1114 12.7382 62.6054 13.5237 62.0316 14.5559C57.792 22.1881 57.4235 30.0374 60.8591 38.0647C60.9627 38.3067 61.07 38.5468 61.1791 38.7943C59.8756 39.1537 59.7766 39.128 59.3356 37.9831C55.383 27.7137 56.8423 18.2821 63.7494 9.70859C64.743 8.47476 64.7595 8.33635 63.6155 7.20335C62.9418 6.53602 62.2635 5.87327 61.5906 5.20502C61.5466 5.16102 61.5301 5.08952 61.4394 4.91169C62.5935 4.74577 63.7045 4.57344 64.8191 4.43044C65.4617 4.34794 65.8898 4.11144 66.162 3.44319C66.5901 2.39178 67.1695 1.4027 67.7524 0.252287C68.3794 1.50262 68.9597 2.57236 69.4547 3.68061C69.7269 4.28927 69.9625 4.28469 70.5006 3.96203C74.9565 1.2872 79.7736 -0.116212 84.9885 0.00753789C95.3193 0.253204 103.249 4.80902 108.588 13.6108C112.492 20.0476 113.345 27.0491 111.462 34.3448C111.221 35.278 111.291 36.224 111.075 37.1416C110.701 38.7247 109.779 40.0327 108.911 41.3647C108.194 42.4637 107.446 43.5106 107.042 44.8168C106.523 46.4943 105.135 47.5806 103.781 48.6109C100.504 51.1033 96.8226 52.7102 92.8443 53.758C86.9886 55.3007 81.2109 55.3172 75.4698 53.285C73.8648 52.7166 72.344 51.986 71.0323 50.8805C70.8095 50.6935 70.3787 50.5203 70.7298 50.083C70.9874 49.7622 71.0763 49.259 71.695 49.3827C72.4971 49.5431 73.246 49.8539 74.0169 50.1023C75.8723 50.699 77.5983 50.7183 79.0687 49.1499C79.5765 48.6081 79.6333 48.3084 78.9999 47.8106C75.6358 45.1679 71.8041 43.968 67.5636 44.0697C62.3029 44.1953 57.8479 46.201 54.1877 49.9785C53.8292 50.348 53.4232 50.7971 52.9053 50.3214C52.3708 49.831 52.8521 49.4102 53.161 49.017C53.2233 48.9372 53.2921 48.8556 53.3755 48.8016C54.9302 47.8079 55.3262 46.3559 55.0622 44.6234C55.0117 44.2925 55.0548 43.9469 55.0548 43.6077C55.0548 41.8991 55.0557 41.8899 53.4103 41.7212C52.9832 41.6772 52.6779 41.5397 52.6651 41.075C52.6541 40.6707 52.9162 40.4507 53.2875 40.3985C53.6542 40.3472 54.0282 40.3334 54.3994 40.3334C63.2416 40.3297 72.0837 40.3252 80.9258 40.3417C81.6573 40.3435 82.1679 40.3142 82.3182 39.3911C82.4557 38.5477 83.1607 38.2535 84.0031 38.2397C84.5375 38.2306 85.0444 38.5771 85.6201 38.336C85.5046 37.6082 85.0893 37.0252 84.7492 36.4119C84.0911 35.2248 83.4723 34.0249 83.2331 32.6683C82.9452 31.0384 83.6868 29.4407 85.17 28.5112C86.5844 27.6248 87.953 27.7898 89.2262 28.7697C89.9733 29.3444 90.6415 30.0228 91.3455 30.6544C91.439 30.7479 91.5005 30.9862 91.6728 30.8203C91.7947 30.7029 91.6526 30.5434 91.572 30.4169L91.5729 30.4197ZM76.1592 52.0236C76.3764 52.1006 76.5918 52.1822 76.81 52.2537C80.8507 53.5801 84.9656 53.7625 89.1437 53.0815C94.3357 52.2354 99.1674 50.5267 103.311 47.1791C104.284 46.3926 105.368 45.6051 105.709 44.3585C106.089 42.9707 106.882 41.8652 107.65 40.7166C108.309 39.7321 108.983 38.754 109.443 37.6549C109.685 37.0774 109.97 36.4871 109.675 35.8408C109.328 35.7785 109.14 36.0123 108.916 36.1452C108.538 36.3707 108.162 36.4642 107.786 36.1672C107.426 35.8821 107.357 35.4989 107.467 35.0708C107.592 34.5795 107.704 34.0845 107.845 33.5978C108.182 32.4272 108.52 31.2584 108.669 30.0429C108.732 29.525 108.675 29.0685 108.308 28.5983C107.864 28.9989 107.707 29.4902 107.461 29.9247C107.224 30.3418 106.974 30.8194 106.372 30.5389C105.827 30.2849 106.018 29.833 106.138 29.3967C106.724 27.2471 106.865 25.0627 106.5 22.8645C106.27 21.4776 105.706 21.2696 104.58 22.0781C104.36 22.2357 104.161 22.4236 103.936 22.573C102.981 23.2065 102.342 22.9296 102.203 21.8076C102.056 20.6215 101.85 19.4582 101.105 18.4756C100.309 17.4223 99.3123 17.426 98.5139 18.4829C98.1655 18.9449 97.9272 19.4674 97.7319 20.0137C97.3075 21.2008 97.071 22.4291 96.9619 23.6795C96.8235 25.2699 96.5577 25.4367 95.0571 24.8125C94.7757 24.6951 94.4989 24.5631 94.2083 24.477C93.453 24.2524 92.6885 24.0351 92.0294 24.7153C91.3859 25.3799 91.3831 26.1416 91.6279 26.9813C91.9533 28.0978 92.5931 29.0667 93.0212 30.1337C93.4841 31.2869 93.4227 32.011 92.7975 32.4474C92.1073 32.9295 91.4418 32.7599 90.4802 31.8442C90.2107 31.5875 89.9568 31.3144 89.6974 31.0476C89.2244 30.5609 88.7331 30.0979 88.162 29.723C87.3571 29.1941 86.5789 29.2354 85.8016 29.7854C84.6136 30.625 84.2946 31.7846 84.8492 33.386C85.3057 34.7051 86.1077 35.8555 86.7036 37.1068C87.0464 37.8273 87.3168 38.6 86.765 39.3104C86.2333 39.9942 85.4514 39.8815 84.6997 39.7495C83.542 39.5451 83.4137 39.678 83.7107 40.7991C84.1635 42.505 84.9646 44.0826 85.5476 45.7408C85.8648 46.6419 86.0967 47.5531 86.0179 48.5211C85.9501 49.3598 85.4642 49.8374 84.6759 49.9309C83.8674 50.0271 83.4265 49.5514 83.2844 48.7777C83.2413 48.5449 83.1827 48.3139 83.1542 48.0801C83.1203 47.807 83.1093 47.5054 82.8142 47.3963C82.4823 47.2735 82.2073 47.4797 82.0121 47.7126C81.5125 48.3093 81.0468 48.9345 80.5647 49.5459C79.4418 50.9731 78.042 51.8834 76.1573 52.0245L76.1592 52.0236ZM67.7937 3.10036C67.3189 4.00878 67.1209 4.90894 66.5645 5.31044C65.9805 5.7321 65.052 5.67527 63.9566 5.89069C65.8128 6.94668 66.2033 8.35468 65.447 10.1788C66.9421 8.96518 68.3749 8.80843 69.9744 10.0771C69.2558 8.20526 69.8434 6.8871 71.4054 5.80177C69.3639 6.00344 68.3235 5.00886 67.7937 3.10036ZM84.0764 46.4402L84.2515 46.2716C83.6951 44.8434 83.1927 43.3896 82.5557 41.9981C82.2871 41.4105 81.5858 41.7982 81.0844 41.7332C80.7627 41.6919 80.7113 41.9412 80.7113 42.2007C80.7113 43.7342 80.7113 45.2678 80.7113 47.0131C81.7957 45.8756 82.8655 45.5813 84.0764 46.4402ZM56.3959 46.2046C57.1082 45.7894 57.6325 45.4145 58.21 45.1661C58.925 44.859 59.1697 44.4208 59.145 43.6242C59.0799 41.5388 59.1266 41.5562 57.022 41.7066C56.5224 41.7423 56.3877 41.9412 56.3922 42.3867C56.4032 43.5949 56.3959 44.804 56.3959 46.2046ZM79.307 46.223C79.307 44.9131 79.307 43.77 79.307 42.6278C79.307 42.4922 79.3015 42.3574 79.3052 42.2217C79.3153 41.8972 79.1777 41.7671 78.8367 41.713C76.8934 41.4068 76.6413 41.6057 76.6432 43.5362C76.6432 43.7397 76.6597 43.9441 76.6404 44.1449C76.6074 44.4877 76.7339 44.7004 77.0447 44.8727C77.7496 45.2641 78.4316 45.6968 79.307 46.223ZM60.5246 44.0257C61.2561 43.7993 61.9921 43.5683 62.7301 43.3419C63.3571 43.1494 63.094 42.6287 63.127 42.2318C63.1673 41.7515 62.8309 41.7057 62.4551 41.7176C60.0231 41.7946 60.4448 41.2437 60.4246 43.7957C60.4246 43.8543 60.4741 43.913 60.5246 44.0257ZM75.1279 43.9258C75.4928 41.7625 75.3938 41.6461 73.3166 41.7194C73.2827 41.7203 73.2488 41.7194 73.2158 41.7194C72.9179 41.7286 72.5402 41.6699 72.5924 42.1383C72.6355 42.5297 72.3083 43.0697 72.9142 43.2741C73.6402 43.5197 74.3854 43.7104 75.1279 43.9258ZM65.1464 42.8652C65.6331 42.8139 66.1694 42.7415 66.7093 42.7085C67.0338 42.6883 67.2208 42.5957 67.2006 42.2337C67.1832 41.922 67.087 41.7157 66.7267 41.7203C66.152 41.7277 65.5754 41.7377 65.0015 41.7148C64.5047 41.6956 64.4827 41.9926 64.4717 42.3684C64.458 42.8432 64.678 42.967 65.1473 42.8643L65.1464 42.8652ZM69.8984 41.7203C69.6279 41.7203 69.3566 41.7304 69.0871 41.7176C68.7094 41.7002 68.5353 41.8432 68.5389 42.2456C68.5426 42.6187 68.7342 42.6856 69.0449 42.7067C69.583 42.7442 70.1202 42.813 70.6564 42.8744C70.9855 42.912 71.2752 42.9184 71.2697 42.4555C71.2651 42.0622 71.2743 41.6855 70.7096 41.7185C70.4401 41.7341 70.1688 41.7203 69.8984 41.7203ZM84.2707 46.5924C84.2423 46.6456 84.1956 46.6951 84.1946 46.7446C84.1937 46.7959 84.2359 46.8491 84.2588 46.9013C84.2863 46.8518 84.3331 46.8041 84.3358 46.7537C84.3376 46.7024 84.2955 46.6492 84.2707 46.5924Z" fill="#24252D"/>
<path d="M82.7353 79.8407C82.7353 78.1779 82.7353 76.6012 82.7353 75.0255C82.7353 72.1114 82.7482 69.1973 82.7243 66.2833C82.7197 65.7094 82.8068 65.4491 83.4833 65.4491C85.3066 65.4491 85.3066 65.4124 85.3066 67.2586C85.3066 73.5607 85.3167 79.8636 85.2846 86.1657C85.2827 86.5755 85.6916 87.2428 84.8886 87.4215C83.6245 87.703 82.9434 87.4261 82.6134 86.5104C81.1009 82.3102 79.5939 78.1082 78.0851 73.9062C77.9962 73.6578 77.9045 73.4103 77.8073 73.1417C77.481 73.3902 77.6387 73.7028 77.6387 73.9603C77.6258 78.0945 77.6075 82.2277 77.6478 86.361C77.6561 87.1722 77.4948 87.4885 76.6129 87.4509C75.0427 87.383 75.0408 87.438 75.0408 85.9026C75.0408 79.4649 75.0555 73.0272 75.0234 66.5894C75.0189 65.7498 75.1518 65.439 76.1051 65.4234C77.1675 65.4069 77.6029 65.7333 77.9439 66.7453C79.3363 70.8785 80.8415 74.9732 82.3063 79.0826C82.3925 79.3246 82.4136 79.6024 82.7372 79.8407H82.7353Z" fill="#24252D"/>
<path d="M40.6403 87.35C40.577 87.3729 40.5138 87.4105 40.4487 87.4151C38.8879 87.5239 37.883 86.8407 37.4338 85.3655C36.7866 83.2315 36.1468 81.0947 35.5015 78.9598C35.2677 78.188 33.7791 77.6462 33.1383 78.1101C32.8395 78.3264 32.9724 78.6729 32.9715 78.9616C32.9614 81.4678 32.9376 83.974 32.9834 86.4792C32.9971 87.2199 32.8294 87.4774 32.042 87.4509C30.4626 87.3977 30.4607 87.4463 30.4607 85.8165C30.4607 79.3824 30.4772 72.9474 30.4406 66.5133C30.436 65.6764 30.6377 65.3959 31.4947 65.4491C32.7093 65.5243 33.9312 65.4674 35.1504 65.4684C38.0947 65.472 39.533 66.6399 39.9675 69.5713C40.1948 71.1077 40.1957 72.6742 39.8895 74.2207C39.6439 75.4627 39.1507 76.5609 38.0205 77.2255C37.5291 77.5142 37.7271 77.8259 37.8344 78.1614C38.6997 80.8656 39.5733 83.566 40.4359 86.2711C40.5468 86.6185 40.7475 86.9568 40.6394 87.3491L40.6403 87.35ZM32.966 71.7337C32.966 72.8154 32.9706 73.898 32.9632 74.9797C32.9605 75.3454 32.9834 75.5883 33.4747 75.647C36.3696 75.9926 37.3348 75.2262 37.5548 72.3351C37.575 72.0656 37.5786 71.7942 37.5731 71.5247C37.5071 68.4484 36.6977 67.7151 33.6388 67.87C33.0998 67.8975 32.9421 68.0744 32.9568 68.5887C32.9861 69.6364 32.966 70.686 32.966 71.7337Z" fill="#24252D"/>
<path d="M63.8282 76.3033C63.8566 78.3053 63.8264 80.1341 64.0235 81.9536C64.0821 82.4899 64.1545 83.0326 64.3012 83.5486C64.622 84.6734 65.3719 85.2353 66.4297 85.217C67.4371 85.2005 68.2126 84.5615 68.5005 83.4579C68.6105 83.0362 68.6765 82.5935 68.6875 82.159C68.7159 80.9746 68.6765 79.7876 68.7205 78.6041C68.7415 78.0248 68.5555 77.7929 67.978 77.8708C67.7781 77.8974 67.5682 77.8479 67.3702 77.88C66.5021 78.0202 66.2794 77.6371 66.327 76.8112C66.3949 75.6378 66.3417 75.6351 67.56 75.6342C68.5756 75.6342 69.5922 75.6488 70.6069 75.6277C71.0552 75.6186 71.3018 75.7167 71.2862 76.2364C71.2156 78.5693 71.4191 80.9086 71.1652 83.237C70.8856 85.8018 69.2439 87.4866 66.9146 87.6406C64.2288 87.8185 62.3689 86.4517 61.7025 83.8365C61.3468 82.4431 61.3615 81.0159 61.3175 79.6006C61.2139 76.2529 61.1231 72.897 61.6099 69.5704C62.0389 66.6344 64.0702 65.0522 66.9925 65.2474C69.4611 65.4124 71.5383 68.0075 71.1881 70.4642C71.1395 70.8043 71.0103 70.9463 70.6784 70.9308C70.5098 70.9225 70.3402 70.9308 70.1706 70.9326C69.2668 70.9381 68.7217 70.5085 68.5353 69.6438C68.2484 68.3109 67.6049 67.7014 66.4636 67.6803C65.2711 67.6583 64.5304 68.2578 64.2389 69.6034C63.7476 71.8703 63.8979 74.1822 63.8301 76.3024L63.8282 76.3033Z" fill="#24252D"/>
<path d="M102.293 105.696C101.305 106.473 100.388 107.174 99.2839 107.552C97.5019 108.163 96.3111 107.488 95.895 105.559C95.422 105.91 94.9856 106.247 94.5346 106.563C93.8957 107.012 93.2275 107.405 92.4657 107.618C90.7488 108.1 89.6103 107.379 89.3417 105.567C88.3838 106.072 87.6056 106.883 86.479 107.01C85.4166 107.129 84.8455 106.756 84.1122 105.306C83.4237 105.849 82.7564 106.401 82.0607 106.915C81.5446 107.297 80.9891 107.613 80.3676 107.817C79.6727 108.046 79.0118 108.058 78.4664 107.54C77.9018 107.002 77.9898 106.313 78.1942 105.64C78.9761 103.072 82.6968 100.375 85.3689 100.438C85.9556 100.452 86.5321 100.547 86.963 100.979C87.3856 101.402 87.5194 101.903 87.1454 102.443C87.0455 102.587 86.9107 102.702 86.7228 102.665C86.5202 102.624 86.4671 102.453 86.4854 102.278C86.5954 101.238 85.8987 101.143 85.181 101.256C82.4512 101.685 80.4574 103.155 79.2419 105.645C79.0338 106.072 78.8569 106.593 79.2437 106.976C79.6452 107.373 80.1549 107.113 80.572 106.913C81.9717 106.242 83.0681 105.186 84.0856 104.041C84.3101 103.788 84.5118 103.514 84.7474 103.272C84.9536 103.06 85.1709 102.776 85.5229 103.004C85.8932 103.244 85.6751 103.529 85.5486 103.801C85.4633 103.985 85.3744 104.168 85.3047 104.358C85.0948 104.935 85.0875 105.515 85.5321 105.976C86.0087 106.472 86.6165 106.363 87.1326 106.072C88.3105 105.409 89.3472 104.682 89.8651 103.258C91.1503 99.7232 93.3265 96.7706 96.2249 94.3607C96.6457 94.0115 97.1132 93.7346 97.6201 93.5421C98.2233 93.313 98.8393 93.2836 99.3159 93.7979C99.777 94.2956 99.6386 94.8795 99.3737 95.4149C98.6413 96.8934 97.5009 98.0631 96.379 99.2364C94.6923 101 92.8516 102.602 91.0073 104.197C90.2694 104.835 90.043 105.67 90.471 106.337C90.9688 107.112 91.759 107.111 92.4611 106.808C94.2486 106.038 95.8244 105.073 96.5568 103.042C97.764 99.6957 99.8953 96.9466 102.541 94.5944C103.122 94.0774 103.762 93.6191 104.55 93.4523C105.755 93.1975 106.498 94.0087 106.075 95.1665C105.672 96.2664 104.903 97.1419 104.131 97.9953C102.129 100.21 99.9448 102.236 97.6504 104.142C97.1709 104.539 96.8849 104.971 96.9051 105.605C96.9317 106.435 97.3818 106.895 98.2352 106.941C98.9484 106.979 99.5653 106.697 100.139 106.336C101.317 105.593 102.361 104.72 103.193 103.56C104.311 102.007 105.798 100.919 107.752 100.6C108.54 100.472 109.295 100.529 109.646 101.359C109.998 102.19 109.386 102.697 108.813 103.125C107.46 104.133 105.875 104.628 104.283 105.102C103.952 105.2 103.5 105.132 103.452 105.666C103.409 106.15 103.592 106.537 103.973 106.812C104.733 107.362 105.592 107.238 106.419 107.066C108.057 106.725 109.386 105.792 110.638 104.733C110.818 104.58 110.99 104.415 111.167 104.259C111.328 104.118 111.516 104.008 111.706 104.17C111.955 104.383 111.826 104.608 111.645 104.779C109.917 106.401 108.057 107.804 105.58 107.978C103.74 108.107 102.891 107.499 102.293 105.696ZM97.9052 102.807C100.38 100.704 102.771 98.5169 104.692 95.876C105.027 95.4158 105.679 94.7915 105.134 94.2956C104.626 93.8318 103.993 94.4652 103.561 94.8374C101.044 97.0034 99.106 99.6132 97.7429 102.646C97.6192 102.726 97.5257 102.875 97.6302 102.968C97.7741 103.097 97.8209 102.884 97.9043 102.808L97.9052 102.807ZM90.9532 102.837C91.3584 102.905 91.5353 102.678 91.7305 102.498C93.299 101.053 94.9031 99.6453 96.3285 98.0548C97.1627 97.1235 98.0299 96.2096 98.567 95.0583C98.6715 94.8337 98.8677 94.567 98.6303 94.3039C98.3599 94.005 98.0711 94.1783 97.7998 94.3084C96.8345 94.7732 96.0884 95.5111 95.3825 96.2912C93.606 98.2538 92.1385 100.428 90.9532 102.837ZM103.965 104.295C105.619 103.961 107.2 103.471 108.494 102.324C108.712 102.13 108.934 101.852 108.707 101.527C108.533 101.276 108.254 101.276 107.975 101.34C106.221 101.743 104.879 102.711 103.965 104.295Z" fill="#24252D"/>
<path d="M100.018 87.318C99.8879 87.3693 99.8274 87.4115 99.7633 87.416C98.1738 87.5303 97.2198 86.8123 96.9014 85.2619C96.8813 85.1629 96.8437 85.0676 96.8199 84.9686C96.6063 84.0931 96.8153 82.8621 96.1379 82.4257C95.4843 82.0041 94.3715 82.28 93.4612 82.2754C91.5729 82.2653 91.572 82.2726 91.2053 84.0968C91.0256 84.9915 90.8047 85.8815 90.6874 86.7845C90.6177 87.3216 90.3858 87.46 89.8963 87.4371C89.2574 87.4078 88.6166 87.4298 87.8485 87.4298C88.3866 85.0153 88.9072 82.6906 89.4206 80.3651C90.4481 75.7102 91.4895 71.0582 92.4804 66.3951C92.638 65.6554 92.9286 65.4216 93.6785 65.4491C95.2157 65.5059 95.2129 65.4629 95.5356 66.9405C96.3707 70.7722 97.2067 74.6048 98.0491 78.4346C98.7009 81.4 99.3627 84.3626 100.018 87.3161V87.318ZM94.035 70.4779C93.9452 70.5412 93.8535 70.5705 93.8444 70.6163C93.2614 73.5295 92.6857 76.4436 92.1091 79.3577C92.0248 79.7848 92.2503 79.882 92.6215 79.8765C93.4337 79.8646 94.2477 79.8426 95.058 79.8838C95.664 79.915 95.8326 79.6986 95.718 79.1184C95.1479 76.2465 94.5969 73.3728 94.035 70.4779Z" fill="#24252D"/>
<path d="M15.7629 87.3216C16.0819 85.8238 16.3881 84.3415 16.7154 82.863C17.9244 77.385 19.1464 71.9107 20.3472 66.4309C20.492 65.769 20.6937 65.3208 21.5077 65.4592C22.2218 65.5802 23.0513 65.1255 23.3199 66.4024C24.7692 73.2811 26.3119 80.1396 27.8189 87.0054C27.84 87.1016 27.8217 87.2061 27.8217 87.3455C27.092 87.5224 26.3495 87.3849 25.618 87.4307C25.1313 87.461 25.0964 87.1025 25.0341 86.7689C24.8049 85.5387 24.5666 84.3104 24.3567 83.0775C24.2568 82.4926 24.0157 82.2176 23.3593 82.2561C22.3134 82.3176 21.2593 82.3093 20.2115 82.2589C19.5644 82.2277 19.3416 82.456 19.249 83.0921C19.0694 84.3278 18.7476 85.5415 18.5487 86.7753C18.4671 87.2831 18.2829 87.4848 17.7723 87.4362C17.1389 87.3748 16.4917 87.5169 15.7629 87.3216ZM21.8908 70.3808C21.8432 70.3688 21.7964 70.3569 21.7488 70.3459C21.1557 73.3507 20.5644 76.3565 19.9668 79.3604C19.8788 79.8013 20.1043 79.8801 20.47 79.8746C21.2134 79.8636 21.9633 79.8132 22.6993 79.8875C23.6252 79.981 23.6783 79.5621 23.5298 78.8214C22.9633 76.0118 22.4344 73.1949 21.8908 70.3808Z" fill="#24252D"/>
<path d="M111.937 81.5375C111.937 82.555 111.884 83.5679 111.607 84.5524C111.176 86.0869 110.164 87.0365 108.628 87.4344C107.562 87.7112 106.49 87.7323 105.416 87.4765C103.497 87.0191 102.31 85.6973 102.066 83.7494C102.045 83.5816 102.043 83.412 102.032 83.2425C101.921 81.5806 101.921 81.6136 103.611 81.5897C104.299 81.5796 104.508 81.7639 104.553 82.4816C104.671 84.3553 105.542 85.2399 107.027 85.1876C108.162 85.1473 108.934 84.5185 109.181 83.4047C109.472 82.0948 109.433 80.7803 109.154 79.4759C108.96 78.5675 108.317 78.0349 107.51 77.6756C106.614 77.2768 105.717 76.8817 104.812 76.505C103.261 75.8597 102.441 74.7037 102.217 73.0437C101.997 71.4093 101.981 69.8014 102.573 68.2413C103.468 65.8845 105.826 64.8019 108.489 65.4381C111.038 66.0468 111.887 68.3687 111.841 70.5806C111.835 70.9106 111.716 71.0912 111.369 71.0866C111.133 71.0838 110.892 71.0628 110.659 71.0958C109.69 71.2323 109.198 70.9674 109.161 69.8454C109.117 68.5346 108.283 67.7765 107.147 67.7123C105.95 67.6445 105.198 68.2486 104.849 69.553C104.599 70.4871 104.644 71.434 104.767 72.3736C104.882 73.2398 105.379 73.8641 106.174 74.2317C106.817 74.5296 107.449 74.8733 108.122 75.0842C110.908 75.9559 111.973 77.9607 111.936 80.7253C111.932 80.9957 111.937 81.2671 111.937 81.5375Z" fill="#24252D"/>
<path d="M46.1916 105.89C45.2951 106.549 44.5141 107.364 43.4948 107.848C43.0346 108.067 42.5809 108.291 42.0675 108.352C40.567 108.527 39.7649 107.756 39.6063 105.822C38.5375 106.592 37.1276 106.432 36.343 107.771C35.6591 108.936 33.7186 109.321 32.6011 108.778C32.0557 108.513 31.6258 108.146 31.7083 107.452C31.789 106.772 32.2986 106.577 32.8587 106.512C33.6296 106.422 34.4079 106.348 35.1834 106.345C35.9855 106.342 36.1725 105.989 36.0331 105.257C35.8471 104.279 35.2576 103.473 35.0028 102.376C34.3868 103.062 33.8872 103.635 33.3675 104.191C33.1163 104.46 32.79 104.826 32.4361 104.463C32.1712 104.192 32.5406 103.915 32.735 103.703C33.8176 102.527 34.7535 101.246 35.5794 99.879C35.7187 99.6489 35.8975 99.4408 36.0716 99.2346C36.3494 98.9064 36.6721 98.6241 37.1084 98.9467C37.6153 99.3217 37.2798 99.6737 36.9901 99.9542C35.8461 101.062 35.7481 102.268 36.5345 103.624C36.8031 104.086 36.9892 104.613 37.0186 105.162C37.0552 105.848 37.3036 106.033 37.9755 105.741C39.1846 105.216 40.2177 104.528 40.907 103.357C41.6303 102.128 42.5039 101.003 43.5388 100.015C43.8312 99.736 44.1969 99.3592 44.5819 99.7277C45.0137 100.141 44.526 100.456 44.2684 100.726C43.118 101.931 42.0272 103.186 41.336 104.716C40.9721 105.522 40.357 106.493 41.2361 107.232C42.1088 107.965 42.986 107.218 43.7148 106.722C45.0109 105.84 46.0358 104.653 47.0313 103.451C47.6583 102.695 48.2697 101.927 48.8939 101.169C49.1249 100.889 49.4228 100.662 49.7629 100.933C50.1644 101.253 49.8088 101.531 49.6181 101.788C48.9938 102.631 48.354 103.463 47.7343 104.309C47.3347 104.855 47.0533 105.475 47.5162 106.083C48.0268 106.752 48.7344 106.54 49.3743 106.271C50.4834 105.804 51.4248 105.073 52.2388 104.206C53.8824 102.452 55.5242 100.691 56.4491 98.4096C56.5747 98.0997 56.7552 97.8009 56.9624 97.5378C57.2163 97.2142 57.5537 97.0703 57.9332 97.3627C58.2741 97.6258 58.2146 97.943 58.0102 98.2592C57.9185 98.4013 57.814 98.5352 57.7095 98.6681C57.0813 99.4674 57.2212 100.123 58.1293 100.634C59.3897 101.344 59.4621 101.687 58.5858 102.881C58.0056 103.672 57.2933 104.363 56.8167 105.23C56.5527 105.711 56.274 106.242 56.6553 106.748C57.088 107.323 57.7086 107.106 58.243 106.902C59.5355 106.411 60.5511 105.509 61.5356 104.572C61.7566 104.362 61.9665 104.139 62.2039 103.949C62.4074 103.786 62.654 103.751 62.8336 103.982C62.9895 104.182 62.8575 104.379 62.7145 104.519C61.2817 105.918 59.8389 107.303 57.8158 107.833C57.0275 108.039 56.3107 107.917 55.7845 107.282C55.2657 106.655 55.4178 105.944 55.7249 105.269C56.1521 104.331 56.8909 103.613 57.4941 102.799C57.825 102.354 58.3099 101.905 57.5958 101.343C56.7167 100.652 56.4262 100.652 55.7744 101.417C54.5241 102.885 53.3498 104.423 51.8291 105.638C51.1654 106.168 50.4743 106.649 49.6933 106.995C48.0616 107.717 47.1422 107.437 46.1898 105.889L46.1916 105.89ZM35.518 107.158C34.9001 107.158 34.3144 107.155 33.7277 107.16C33.5609 107.161 33.3849 107.156 33.23 107.205C32.9916 107.28 32.6277 107.276 32.647 107.631C32.6626 107.919 32.9348 108.061 33.2025 108.145C34.0284 108.406 34.9139 108.041 35.518 107.158Z" fill="#24252D"/>
<path d="M45.813 77.6481C45.813 74.8027 45.813 71.9574 45.813 69.1121C45.813 68.2938 45.3877 67.8844 44.537 67.8838C44.1988 67.8838 43.8596 67.8838 43.5214 67.8838C42.3123 67.8828 42.3049 67.8828 42.3132 66.6939C42.3233 65.2933 42.1574 65.4775 43.5764 65.472C46.0486 65.4628 48.5218 65.4968 50.9931 65.4528C51.7173 65.4399 51.9767 65.6654 51.8768 66.3658C51.8438 66.5977 51.8483 66.8424 51.8768 67.0762C51.9492 67.6793 51.7393 67.9864 51.0948 67.8856C51.0618 67.8801 51.027 67.8819 50.9931 67.8856C50.1644 67.9681 49.0828 67.5079 48.5676 68.0909C48.0708 68.6528 48.4255 69.7125 48.4237 70.5522C48.4108 75.8358 48.3962 81.1204 48.4374 86.404C48.4438 87.2611 48.2009 87.4875 47.3668 87.4527C45.8176 87.3885 45.8149 87.438 45.8149 85.8806C45.8149 83.137 45.8149 80.3935 45.8149 77.6499L45.813 77.6481Z" fill="#24252D"/>
<path d="M54.9127 76.4628C54.9127 73.0803 54.9283 69.6988 54.8999 66.3163C54.8944 65.6691 55.0557 65.4445 55.7405 65.45C57.5051 65.4647 57.506 65.4289 57.506 67.2045C57.506 73.5634 57.4877 79.9214 57.5271 86.2794C57.5326 87.1869 57.3291 87.5114 56.3739 87.4555C54.9182 87.3702 54.9146 87.4353 54.9146 86.0007C54.9146 82.8217 54.9146 79.6427 54.9146 76.4628H54.9127Z" fill="#24252D"/>
<path d="M50.5091 28.9531C50.554 21.045 52.5844 14.5633 56.5976 8.70579C56.7497 8.48304 56.9047 8.25662 57.0907 8.06321C57.3557 7.78821 57.6912 7.72129 58.0056 7.96054C58.3136 8.19429 58.3741 8.51512 58.1559 8.85704C57.9918 9.11371 57.8241 9.36762 57.6527 9.61879C54.2665 14.5963 52.369 20.0788 51.9703 26.094C51.7191 29.8826 52.1637 33.5813 53.1894 37.2223C53.3361 37.7439 53.6056 38.3644 52.831 38.556C52.0793 38.743 51.9923 38.0629 51.8383 37.5523C51.3964 36.093 51.0664 34.6043 50.8785 33.0955C50.6741 31.4537 50.5815 29.7973 50.5091 28.9531Z" fill="#24252D"/>
<path d="M92.419 5.80636C92.8773 6.93935 93.3411 7.88168 93.6363 8.87443C93.8994 9.75809 94.4338 10.1981 95.267 10.4713C96.2222 10.7838 97.1425 11.2009 98.2975 11.6593C96.983 12.1781 95.883 12.6328 94.7674 13.0425C94.2834 13.2203 93.9956 13.5054 93.8178 13.9922C93.4025 15.127 92.9378 16.2426 92.4254 17.5387C91.9716 16.381 91.5582 15.4249 91.2218 14.4413C90.9532 13.6576 90.5315 13.1351 89.6937 12.8793C88.7065 12.5778 87.7632 12.1323 86.5734 11.6583C87.8191 11.1597 88.8284 10.7023 89.8743 10.3558C90.5581 10.1293 90.9156 9.72601 91.1421 9.06326C91.4986 8.0201 91.9423 7.00719 92.418 5.80452L92.419 5.80636ZM92.4144 13.8382C92.7169 12.6603 93.4062 11.9416 94.6144 11.6519C93.3494 11.4145 92.7636 10.5803 92.3979 9.47943C92.133 10.6766 91.439 11.3678 90.2602 11.6657C91.451 11.9599 92.143 12.6401 92.4144 13.8382Z" fill="#24252D"/>
<path d="M37.8087 50.0134C37.8087 48.8236 37.8133 47.7447 37.806 46.6658C37.8032 46.2138 37.739 45.7968 38.4421 45.8078C39.0801 45.8178 39.0352 46.1845 39.0352 46.6062C39.0315 50.3947 39.0352 54.1842 39.0297 57.9728C39.0288 58.6484 38.3211 59.1104 37.9719 58.6521C37.6309 58.2047 37.5566 58.3587 37.2165 58.5558C35.7481 59.4101 34.0137 58.6759 33.6883 56.9865C33.3345 55.1522 33.3601 53.2694 33.6526 51.4342C33.9761 49.4029 35.8131 48.7631 37.8087 50.0134ZM37.795 54.2163C37.795 54.2163 37.7922 54.2163 37.7904 54.2163C37.7904 53.4051 37.8215 52.5929 37.7821 51.7844C37.7427 50.9814 37.3366 50.4534 36.4851 50.3645C35.6701 50.2792 35.0276 50.6835 34.8928 51.5672C34.6316 53.2731 34.6279 54.9955 34.902 56.706C35.0349 57.5365 35.584 57.9251 36.4025 57.9059C37.1918 57.8866 37.729 57.3357 37.7858 56.4456C37.8325 55.705 37.795 54.9597 37.795 54.2163Z" fill="#24252D"/>
<path d="M27.4926 56.3677C27.3826 57.949 26.6337 58.7217 25.1001 58.8812C23.55 59.0425 22.3904 58.3605 22.1173 56.9397C21.7579 55.0706 21.7625 53.163 22.1118 51.294C22.3703 49.9098 23.3346 49.325 24.903 49.38C26.3018 49.4286 27.1387 50.1151 27.4073 51.4342C27.9683 54.1943 27.8886 54.2933 25.1093 54.2933C25.0414 54.2933 24.9717 54.2823 24.9067 54.2951C24.3356 54.4042 23.4208 53.9569 23.2448 54.5307C22.9679 55.4336 23.0055 56.508 23.5995 57.366C24.2045 58.2395 25.8316 58.0828 26.1112 57.0763C26.3458 56.2311 26.7547 56.1899 27.4926 56.3677ZM24.7298 53.4417C26.4897 53.4417 26.6098 53.284 26.1717 51.558C26.1634 51.5259 26.1515 51.4938 26.1432 51.4617C25.9425 50.7119 25.4374 50.3058 24.6784 50.3296C23.9772 50.3516 23.5097 50.7284 23.2998 51.4434C22.8103 53.1062 23.0385 53.4408 24.7298 53.4417Z" fill="#24252D"/>
<path d="M41.2682 54.0595C41.2535 53.1117 41.2526 52.163 41.4864 51.2362C41.7953 50.0125 42.6524 49.3965 44.0402 49.3781C45.5059 49.3589 46.396 49.9584 46.7306 51.1941C46.7572 51.2912 46.7645 51.3939 46.7856 51.4929C47.3567 54.209 47.2907 54.2915 44.559 54.2915C44.5251 54.2915 44.4912 54.2878 44.4573 54.2915C43.833 54.3712 42.9072 53.9725 42.6404 54.4748C42.2417 55.2274 42.5121 56.2 42.7981 57.0341C43.0218 57.6868 43.6002 57.9407 44.2593 57.8995C44.8624 57.8619 45.373 57.6327 45.5628 56.969C45.6499 56.6629 45.6434 56.2925 46.1421 56.2815C46.7224 56.2687 47.0551 56.3411 46.8479 57.0671C46.5308 58.1745 45.6068 58.8546 44.229 58.8904C42.8449 58.9261 41.8246 58.2634 41.5093 57.0827C41.2453 56.0936 41.2462 55.0752 41.2664 54.0595H41.2682ZM44.097 53.5059C45.0476 53.5059 45.7085 53.7094 45.7085 52.6772C45.6929 51.1409 45.1283 50.3058 44.0851 50.3251C43.0786 50.3443 42.513 51.129 42.513 52.6259C42.513 53.6535 43.3664 53.5059 44.097 53.5059Z" fill="#24252D"/>
<path d="M70.5464 45.8545C71.0185 45.8912 71.4915 45.9251 71.9636 45.9654C72.3046 45.9948 72.7382 46.0213 72.6905 46.4687C72.6474 46.8647 72.2249 46.7794 71.9343 46.7483C70.7188 46.6181 69.5042 46.5658 68.2915 46.7547C66.9302 46.9664 65.6368 47.3441 64.7403 48.4945C63.5908 49.9703 63.7659 51.6909 65.1684 52.9202C65.8403 53.5087 66.6534 53.8533 67.4481 54.2273C67.9679 54.4712 68.5078 54.6747 69.0193 54.935C71.1789 56.0322 71.8188 57.9297 70.7949 60.1306C70.6766 60.3846 70.5712 60.6861 70.2284 60.5495C69.913 60.424 69.9589 60.1288 70.057 59.8538C70.1248 59.6631 70.1825 59.467 70.2339 59.2717C70.6748 57.6061 70.243 56.5153 68.7333 55.7031C67.7231 55.1596 66.6341 54.7599 65.6368 54.1952C64.326 53.4537 63.2956 52.4508 63.2205 50.8045C63.1371 48.9831 64.1958 47.3633 65.975 46.5723C67.1539 46.0488 69.122 45.7381 70.5464 45.8545Z" fill="#24252D"/>
<path d="M14.3623 51.4324C14.3623 52.9531 14.3788 54.4739 14.3568 55.9937C14.343 56.9205 14.6281 57.6034 15.642 57.7253C16.0581 57.7748 16.1333 57.9874 16.1168 58.3349C16.0948 58.8051 15.7602 58.7437 15.4605 58.7299C13.9663 58.6612 13.0707 57.7042 13.045 56.045C13.0111 53.8157 13.0359 51.5855 13.035 49.3552C13.035 48.544 13.0139 47.7327 13.0432 46.9224C13.0606 46.4494 12.7655 45.7857 13.7234 45.8087C14.6996 45.8325 14.3357 46.5282 14.3476 46.9737C14.3861 48.4596 14.3623 49.9456 14.3623 51.4324Z" fill="#24252D"/>
<path d="M17.6513 51.5662C17.6513 49.9098 17.6559 48.2543 17.6476 46.5979C17.6458 46.1616 17.6375 45.8078 18.2581 45.8078C18.8604 45.8078 18.8869 46.1268 18.8851 46.5814C18.875 49.6908 18.8979 52.8001 18.8695 55.9085C18.8604 56.8847 19.1473 57.5777 20.1886 57.7262C20.6029 57.7849 20.6809 57.9985 20.657 58.3441C20.6249 58.8125 20.2803 58.741 19.9851 58.7254C18.5267 58.6511 17.6604 57.7262 17.6531 56.2284C17.6458 54.6737 17.6513 53.1191 17.6513 51.5644V51.5662Z" fill="#24252D"/>
<path d="M69.4758 47.4046C69.9176 47.4046 70.0872 47.4019 70.2559 47.4046C70.5813 47.4101 70.9278 47.4844 70.9324 47.8584C70.9388 48.3424 70.5015 48.1874 70.2394 48.1838C69.5904 48.1746 68.9515 48.2204 68.3327 48.4093C67.3143 48.72 66.625 49.3571 66.4655 50.4525C66.3124 51.5094 66.8734 52.2171 67.7204 52.6873C68.6636 53.2108 69.6719 53.615 70.6299 54.1146C72.4705 55.0743 73.3395 56.5978 73.1562 58.4669C73.0957 59.0774 72.9178 59.6604 72.6887 60.2241C72.5998 60.4423 72.4412 60.6669 72.1469 60.5294C71.926 60.4267 71.937 60.1939 71.9746 59.9977C72.0186 59.7667 72.1094 59.5458 72.1744 59.3185C72.7556 57.2982 72.1964 55.9287 70.3723 54.8745C69.2604 54.2328 67.9899 53.901 66.9504 53.1191C65.4406 51.9833 65.2023 50.0455 66.4398 48.6797C67.318 47.7098 68.4977 47.4431 69.4776 47.4037L69.4758 47.4046Z" fill="#24252D"/>
<path d="M68.9102 26.2452C68.9175 26.5697 68.7241 26.7769 68.3776 26.8246C68.1448 26.8567 67.9 26.8759 67.669 26.8411C66.8789 26.721 66.5434 27.0198 66.6763 27.8265C66.7093 28.0245 66.6781 28.2316 66.679 28.4351C66.68 28.7954 66.4994 29.0246 66.1483 29.0566C65.789 29.0887 65.4819 28.8339 65.5286 28.5305C65.7495 27.095 65.1317 26.6192 63.7695 26.8044C63.4973 26.8411 63.2874 26.5532 63.2956 26.2471C63.303 25.9519 63.4735 25.7392 63.7741 25.6723C63.9043 25.6439 64.0473 25.6311 64.1775 25.6531C65.2151 25.8291 65.6579 25.445 65.4975 24.3624C65.4305 23.9105 65.5534 23.4082 66.1575 23.4439C66.7075 23.4769 66.6763 23.9554 66.6855 24.3734C66.712 25.5953 66.7185 25.5953 67.988 25.6494C68.6581 25.6778 68.8781 25.8107 68.9102 26.2452Z" fill="#24252D"/>
<path d="M81.7517 17.8156C81.6857 18.2748 81.3182 18.5058 81.0267 18.7698C80.6004 19.1558 80.4757 19.4546 80.979 19.9056C81.3704 20.2567 82.1532 20.6921 81.6023 21.276C80.9689 21.947 80.5454 21.0835 80.1577 20.7012C79.7562 20.3052 79.4647 20.2301 79.1044 20.7012C78.9825 20.8617 78.8221 20.9937 78.6745 21.133C78.361 21.43 78.0053 21.6912 77.6231 21.2962C77.2262 20.8855 77.5699 20.5674 77.8495 20.2603C78.6718 19.3556 78.6754 19.3492 77.7982 18.3738C77.5314 18.0778 77.2738 17.7808 77.6121 17.4123C77.9888 17.0016 78.3372 17.2207 78.647 17.5452C78.7176 17.6185 78.8028 17.6808 78.8606 17.7624C79.34 18.4426 79.813 18.504 80.3327 17.7908C80.4867 17.5791 80.704 17.3637 80.9405 17.2693C81.4282 17.0749 81.7142 17.2931 81.7517 17.8156Z" fill="#24252D"/>
<path d="M9.34905 54.0385C9.34905 52.757 9.36647 51.4746 9.33988 50.1931C9.3298 49.6907 9.45355 49.4616 10.01 49.4707C10.5636 49.4799 10.5774 49.7824 10.5765 50.1894C10.5691 52.8202 10.5655 55.452 10.5792 58.0828C10.582 58.5384 10.471 58.7492 9.9623 58.7483C9.45905 58.7483 9.33438 58.5466 9.34172 58.0855C9.36188 56.7362 9.34905 55.3878 9.34905 54.0385Z" fill="#24252D"/>
<path d="M67.7231 50.7394C67.7772 50.0244 68.0852 49.4313 68.847 49.1444C69.1055 49.0472 69.33 49.0986 69.4446 49.3525C69.5473 49.5807 69.3704 49.699 69.2035 49.8374C68.2227 50.6523 68.2951 51.3077 69.44 51.8357C70.0212 52.1043 70.6409 52.2895 71.2284 52.5461C71.8802 52.8303 72.5136 53.1649 73.0315 53.6608C73.2781 53.8973 73.8006 54.164 73.4908 54.5399C73.1003 55.0147 72.7932 54.4665 72.5118 54.2282C71.5859 53.4454 70.4584 53.0778 69.3539 52.6561C68.484 52.3243 67.7983 51.8256 67.724 50.7385L67.7231 50.7394Z" fill="#24252D"/>
<path d="M69.1806 58.6337C69.177 58.6896 69.1797 58.8262 69.1568 58.9573C69.078 59.4065 69.1064 60.1205 68.5555 60.0637C67.9092 59.9968 68.3354 59.3551 68.3666 58.9766C68.4748 57.6483 67.8386 56.7857 66.262 56.1486C65.9255 56.013 65.238 56.0496 65.3884 55.5565C65.5818 54.9185 66.1758 55.2934 66.5892 55.4483C68.3299 56.101 69.1788 57.1313 69.1815 58.6328L69.1806 58.6337Z" fill="#24252D"/>
<path d="M65.6487 45.5199C65.6276 45.8288 65.4333 45.9434 65.1986 46.0268C63.6605 46.5741 62.6943 47.6667 62.1874 49.1957C62.1021 49.4533 62.0041 49.8035 61.6896 49.7219C61.3422 49.6312 61.3211 49.2608 61.4339 48.9547C62.0664 47.2295 63.1132 45.8967 64.9392 45.3228C65.216 45.2358 65.5369 45.0744 65.6487 45.5199Z" fill="#24252D"/>
<path d="M9.91922 47.4953C9.27664 47.6273 9.14006 47.3212 9.12356 46.7235C9.10431 46.0241 9.50764 46.0947 9.95681 46.0855C10.4454 46.0754 10.7681 46.1158 10.7708 46.7675C10.7736 47.4385 10.4903 47.5888 9.91922 47.4953Z" fill="#24252D"/>
<path d="M93.6051 47.2579C97.0839 42.6517 99.073 37.4184 100.133 31.7901C100.483 29.9302 100.645 28.0465 100.912 26.171C101.389 28.3224 101.286 30.4885 100.988 32.6362C100.225 38.127 97.8658 42.8827 94.1945 47.0067C94.0625 47.1552 93.893 47.2717 93.7417 47.4027C93.6995 47.3514 93.6528 47.3037 93.6051 47.2579Z" fill="#24252D"/>
<path d="M93.7417 47.4027C93.6042 47.7126 93.4438 47.9931 92.913 47.95C93.1816 47.6814 93.3934 47.4697 93.6051 47.2579C93.6528 47.3037 93.6995 47.3514 93.7417 47.4027Z" fill="#24252D"/>
</g>
</svg>
