<svg width="137" height="43" viewBox="0 0 137 43" fill="none" xmlns="http://www.w3.org/2000/svg">
<g opacity="0.4">
<path d="M120.131 25.1155V39.4412C120.131 39.9495 120.333 40.4371 120.692 40.7966C121.052 41.156 121.539 41.358 122.048 41.358H126.9C127.976 41.358 128.266 40.4206 128.243 39.3447V24.7989C128.313 20.2553 131.397 16.7976 135.095 15.9616C135.526 15.872 135.913 15.6386 136.194 15.2998C136.475 14.9609 136.632 14.5367 136.64 14.0967V9.4641C136.641 9.18987 136.583 8.91875 136.469 8.66898C136.356 8.41921 136.191 8.1966 135.984 8.01614C135.778 7.83567 135.535 7.70155 135.272 7.6228C135.01 7.54405 134.733 7.52251 134.461 7.55961C126.433 8.71219 120.205 16.1323 120.131 25.1155Z" fill="#24252D"/>
<path d="M67.9455 28.6694L76.3673 9.92628C76.5189 9.58942 76.7645 9.30352 77.0748 9.10299C77.385 8.90246 77.7466 8.79584 78.116 8.79596H82.9489C83.2699 8.79743 83.5853 8.87949 83.8663 9.03459C84.1474 9.18969 84.3849 9.41288 84.5573 9.68368C84.7296 9.95448 84.8311 10.2642 84.8526 10.5845C84.8741 10.9047 84.8148 11.2253 84.6802 11.5167L71.4799 40.2422C71.3277 40.5738 71.0838 40.855 70.7771 41.0526C70.4703 41.2502 70.1135 41.3561 69.7486 41.3577H66.1622C65.7975 41.3555 65.4409 41.2494 65.1343 41.0518C64.8276 40.8543 64.5836 40.5734 64.4309 40.2422L51.1984 11.5117C51.0638 11.2203 51.0045 10.8998 51.026 10.5795C51.0475 10.2593 51.1491 9.94953 51.3214 9.67873C51.4937 9.40794 51.7313 9.18475 52.0123 9.02964C52.2933 8.87454 52.6088 8.79249 52.9298 8.79101H57.7776C58.147 8.7909 58.5085 8.89752 58.8187 9.09805C59.129 9.29857 59.3747 9.58447 59.5262 9.92134L67.9455 28.6694Z" fill="#24252D"/>
<path d="M49.895 27.7541H27.9266C29.4849 31.9736 32.9822 33.9498 36.3509 33.9498C39.1606 33.9498 41.5944 32.6983 43.4667 31.3132C44.3398 30.7864 45.0892 30.8532 45.7744 31.709L48.5223 35.137C49.2074 36.0596 49.0837 36.9178 48.2749 37.5758C44.2186 40.8727 39.8482 42.0575 36.2297 42.0575C26.7419 42.0575 19.6285 34.1427 19.6285 24.7217C19.6285 15.3626 26.6801 8.04391 35.6039 8.04391C44.2805 8.04391 50.8324 14.9693 51.4581 26.04C51.5175 27.1605 50.8942 27.7541 49.895 27.7541ZM42.7222 21.1626C42.3989 19.4667 41.4912 17.9379 40.1572 16.842C38.8232 15.7462 37.1473 15.1527 35.4209 15.1647C31.6762 15.1647 28.6785 17.6702 28.0008 21.1626H42.7222Z" fill="#24252D"/>
<path d="M115.115 27.7541H93.1465C94.7072 31.9736 98.2021 33.9498 101.571 33.9498C104.381 33.9498 106.814 32.6983 108.687 31.3132C109.56 30.7864 110.309 30.8532 110.997 31.709L113.742 35.137C114.427 36.0596 114.304 36.9178 113.495 37.5758C109.439 40.8727 105.068 42.0575 101.45 42.0575C91.9618 42.0575 84.8484 34.1427 84.8484 24.7217C84.8484 15.3626 91.9 8.04391 100.824 8.04391C109.5 8.04391 116.052 14.9693 116.678 26.04C116.742 27.1605 116.114 27.7541 115.115 27.7541ZM107.942 21.1626C107.619 19.4667 106.711 17.9379 105.377 16.842C104.043 15.7462 102.367 15.1527 100.641 15.1647C96.8961 15.1647 93.9009 17.6702 93.2207 21.1626H107.942Z" fill="#24252D"/>
<path d="M8.72847 20.2944V19.0578C8.72847 14.0665 11.7212 9.90635 15.6539 9.03326C16.0847 8.94524 16.4724 8.71252 16.7527 8.37374C17.033 8.03496 17.189 7.61049 17.1948 7.17082V1.92237C17.1959 1.64983 17.1388 1.38019 17.0274 1.13148C16.9159 0.882772 16.7526 0.660729 16.5485 0.480201C16.3443 0.299674 16.1039 0.164823 15.8434 0.0846671C15.5829 0.00451154 15.3083 -0.0191008 15.038 0.0154093C6.60386 1.20015 0.0519404 9.2336 0 18.9514V39.4407C0 39.9491 0.201953 40.4366 0.561432 40.7961C0.920911 41.1556 1.40847 41.3575 1.91685 41.3575H6.81162C7.06334 41.3575 7.3126 41.3079 7.54517 41.2116C7.77773 41.1153 7.98904 40.9741 8.16704 40.7961C8.34503 40.6181 8.48623 40.4068 8.58256 40.1742C8.67889 39.9417 8.72847 39.6924 8.72847 39.4407V27.6799H14.0017C14.5096 27.6792 14.9965 27.477 15.3555 27.1176C15.7144 26.7582 15.916 26.271 15.916 25.763V22.2113C15.916 21.7033 15.7144 21.2162 15.3555 20.8567C14.9965 20.4973 14.5096 20.2951 14.0017 20.2944H8.72847Z" fill="#24252D"/>
</g>
</svg>
