<svg width="237" height="54" viewBox="0 0 237 54" fill="none" xmlns="http://www.w3.org/2000/svg">
<path opacity="0.4" d="M0 19.7972C0 9.0002 6.85042 0.224604 16.2677 0.224604C18.5685 0.297824 20.8164 0.932514 22.8158 2.07338C24.8151 3.21424 26.5051 4.82668 27.7386 6.77021L27.0006 7.20337C25.8467 5.38054 24.2667 3.86578 22.3969 2.78972C20.5271 1.71366 18.4235 1.10861 16.2677 1.02676C8.45474 1.02676 5.03755 10.9735 5.03755 19.7491C5.03755 28.5247 8.39056 38.4554 16.2677 38.4554C18.4218 38.3739 20.5238 37.7708 22.3933 36.6977C24.2628 35.6246 25.8438 34.1137 27.0006 32.2948L27.7386 32.712C26.5107 34.6644 24.8231 36.2863 22.8234 37.4358C20.8237 38.5852 18.5729 39.2273 16.2677 39.3057C6.85042 39.3538 0 30.5782 0 19.7972ZM50.6001 22.2358V38.5035H46.1561V35.9045C45.3926 36.9321 44.3977 37.7653 43.2522 38.3367C42.1066 38.9081 40.8425 39.2016 39.5624 39.1934C34.0275 39.1934 31.7494 37.3966 31.7494 33.1933C31.7173 28.6691 36.0329 26.022 46.1561 26.022V20.808C46.2041 20.2192 46.1239 19.627 45.9212 19.0722C45.7185 18.5173 45.3981 18.0129 44.9819 17.5937C44.5658 17.1745 44.0637 16.8504 43.5104 16.6436C42.957 16.4369 42.3654 16.3524 41.7763 16.3961C40.5092 16.3512 39.2465 16.5688 38.0676 17.0354C36.8887 17.502 35.8191 18.2075 34.9259 19.1074L34.3484 18.5138C35.3281 17.5364 36.4995 16.7724 37.7889 16.2699C39.0783 15.7674 40.4578 15.5373 41.8405 15.5939C46.6695 15.5939 50.6001 17.6635 50.6001 22.2358ZM46.1561 33.7227V26.8081C37.3324 26.8081 36.5302 29.8884 36.5302 32.9205C36.5302 35.9527 37.1078 38.1827 40.7335 38.1827C42.6266 38.1827 46.1561 36.065 46.1561 33.7227ZM77.2958 21.5941V38.5035H72.8198V19.8935C72.8198 18.0967 72.0818 16.3961 69.6112 16.3961C66.3223 16.3961 61.9586 20.9042 61.9586 24.1449V38.5837H57.5147V16.717H61.9747V21.0165C62.7618 19.4052 63.9779 18.0422 65.4892 17.077C67.0006 16.1119 68.7488 15.5821 70.5417 15.5458C75.6915 15.5458 77.2958 18.4657 77.2958 21.5941ZM105.099 0.0160432V38.5196H100.703V34.4607C100.138 35.802 99.2024 36.9548 98.0064 37.7843C96.8104 38.6139 95.403 39.0859 93.9486 39.1453C90.8947 39.0654 87.9972 37.7773 85.8918 35.5637C83.7864 33.35 82.6452 30.3916 82.7184 27.3375C82.6714 25.8339 82.9214 24.3357 83.4542 22.9288C83.9869 21.5219 84.792 20.2339 85.8232 19.1386C86.8545 18.0433 88.0916 17.1622 89.4639 16.5457C90.8361 15.9291 92.3165 15.5894 93.8203 15.5458C95.3058 15.6279 96.7392 16.1215 97.9603 16.9714C99.1814 17.8214 100.142 18.9942 100.735 20.3587V0.0160432H105.099ZM100.703 31.7012V22.8133C100.484 21.1314 99.6928 19.5759 98.4632 18.4075C97.2335 17.2392 95.6396 16.529 93.9486 16.3961C88.3656 16.3961 87.5314 21.4978 87.5314 27.3375C87.5314 33.1772 88.3175 38.295 93.9486 38.295C95.662 38.1431 97.2703 37.4037 98.5011 36.2021C99.732 35.0005 100.51 33.4105 100.703 31.7012ZM117.003 38.5035H112.527V0H117.003V38.5035ZM141.565 32.7601L142.19 33.2414C141.398 34.9698 140.136 36.4403 138.547 37.4844C136.958 38.5286 135.107 39.1041 133.206 39.1453C127.463 39.1453 122.842 33.8831 122.842 27.3375C122.842 20.7919 127.463 15.5458 133.206 15.5458C134.446 15.5623 135.671 15.8256 136.808 16.3203C137.945 16.8151 138.972 17.5315 139.829 18.4276C140.686 19.3237 141.357 20.3815 141.801 21.5395C142.245 22.6974 142.453 23.9322 142.415 25.1717H127.735V27.2894C127.735 33.1451 128.104 38.2468 133.206 38.2468C134.971 38.1981 136.688 37.6591 138.164 36.69C139.641 35.721 140.818 34.3603 141.565 32.7601ZM127.784 24.4177H137.891C137.73 19.9416 136.88 16.3961 133.206 16.3961C128.955 16.3961 127.976 19.8935 127.784 24.4177ZM152.458 38.5035H147.998V0H152.458V38.5035ZM160.64 16.717H165.1V38.5196H160.64V16.717ZM192.646 42.7068C192.609 44.1789 192.28 45.6289 191.679 46.973C191.077 48.3171 190.215 49.5285 189.142 50.5371C188.069 51.5458 186.807 52.3316 185.429 52.8491C184.05 53.3666 182.583 53.6055 181.111 53.552C175.945 53.552 171.373 50.6321 171.373 45.9957C171.381 44.7908 171.717 43.6108 172.344 42.5821C172.971 41.5534 173.867 40.7148 174.934 40.156C173.821 40.0194 172.793 39.4906 172.034 38.6644C171.276 37.8382 170.837 36.7687 170.795 35.6479C170.826 35.0155 170.981 34.3955 171.252 33.8233C171.523 33.2511 171.904 32.7379 172.373 32.3132C172.843 31.8885 173.391 31.5606 173.988 31.3482C174.584 31.1358 175.217 31.0432 175.849 31.0756H177.116C175.666 30.4657 174.422 29.4488 173.537 28.1478C172.652 26.8467 172.162 25.3172 172.127 23.7438C172.239 21.4696 173.247 19.3323 174.931 17.7991C176.614 16.2659 178.836 15.4615 181.111 15.5618C182.726 15.5474 184.318 15.9508 185.731 16.733H192.149V17.5833H187.015C187.96 18.3114 188.727 19.2438 189.261 20.3107C189.794 21.3775 190.079 22.5512 190.095 23.7438C189.983 26.0181 188.975 28.1554 187.291 29.6886C185.608 31.2218 183.386 32.0261 181.111 31.9258H175.849C174.245 31.9258 172.127 32.7761 172.127 34.4286C172.137 34.6586 172.193 34.8843 172.294 35.0915C172.394 35.2988 172.536 35.4833 172.71 35.6337C172.884 35.784 173.088 35.897 173.308 35.9657C173.527 36.0343 173.759 36.0572 173.988 36.0329H185.731C187.528 36.0196 189.258 36.7109 190.551 37.9586C191.844 39.2063 192.596 40.9109 192.646 42.7068ZM191.475 44.4074C191.479 43.8619 191.375 43.321 191.169 42.816C190.962 42.311 190.658 41.852 190.273 41.4655C189.888 41.079 189.43 40.7728 188.926 40.5645C188.422 40.3562 187.881 40.2501 187.336 40.2522H178.079C177.316 40.2416 176.559 40.3821 175.851 40.6656C175.144 40.9491 174.499 41.37 173.954 41.9039C173.41 42.4379 172.977 43.0744 172.68 43.7767C172.382 44.479 172.227 45.2331 172.223 45.9957C172.223 49.7177 176.17 52.7017 181.32 52.7017C186.79 52.7017 191.475 47.9209 191.475 44.4074ZM177.036 23.7278C177.036 27.6584 177.565 31.0595 181.127 31.0595C184.689 31.0595 185.218 27.6584 185.218 23.7278C185.218 19.7972 184.673 16.3961 181.111 16.3961C177.549 16.3961 177.02 19.7972 177.02 23.7278H177.036ZM216.679 21.5941V38.5035H212.203V19.8935C212.203 18.0967 211.513 16.3961 208.994 16.3961C205.785 16.3961 201.341 20.9042 201.341 24.1449V38.5837H196.962V0.0802157H201.422V21.0165C202.209 19.4052 203.425 18.0422 204.936 17.077C206.448 16.1119 208.196 15.5821 209.989 15.5458C215.139 15.5458 216.679 18.4657 216.679 21.5941ZM229.641 17.5672V36.065C229.641 37.0757 230.123 38.2468 231.342 38.2468C232.306 38.1651 233.237 37.8514 234.053 37.3324L234.487 38.0864C233.383 38.7706 232.111 39.137 230.813 39.1453C227.732 39.1453 225.182 37.9741 225.182 34.5248V17.5672H221.46V16.717H225.182V9.32106H229.641V16.717H236.556V17.5672H229.641ZM162.838 9.49754C162.146 9.49333 161.483 9.21647 160.993 8.72696C160.504 8.23746 160.227 7.57476 160.223 6.88251C160.223 5.43862 162.838 2.29417 162.838 0.0802157C162.838 2.29417 165.517 5.43862 165.517 6.88251C165.513 7.23014 165.44 7.57354 165.303 7.8931C165.166 8.21267 164.968 8.50213 164.719 8.74496C164.47 8.98779 164.176 9.17924 163.853 9.30837C163.531 9.4375 163.186 9.50178 162.838 9.49754Z" fill="#24252D"/>
</svg>
