<svg width="190" height="81" viewBox="0 0 190 81" fill="none" xmlns="http://www.w3.org/2000/svg">
<g opacity="0.4">
<path d="M100.741 13.7736V13.2724C100.741 11.2383 100.738 9.20257 100.746 7.16842C100.746 6.92792 100.679 6.75414 100.51 6.57881C98.744 4.74791 96.9856 2.91081 95.2271 1.07371C95.1418 0.985269 95.0781 0.876657 94.9974 0.769596C94.8562 0.89838 94.7724 0.969753 94.6932 1.04733C92.8898 2.80685 91.0894 4.56793 89.2829 6.32124C89.1091 6.48881 89.033 6.65949 89.0346 6.90309C89.0439 9.02414 89.0392 11.1452 89.0392 13.2678V13.7395C88.9275 13.7519 88.8328 13.772 88.7381 13.772C84.0215 13.772 79.3065 13.772 74.5899 13.7783C74.3819 13.7783 74.2454 13.6991 74.1057 13.5641C73.0146 12.5152 71.9204 11.4695 70.8247 10.4237C70.7362 10.3383 70.6431 10.2592 70.5283 10.1553C70.356 10.2933 70.193 10.4237 70.0316 10.554C69.4744 11.0086 68.9204 11.4679 68.357 11.9179C68.2561 11.9986 68.1211 12.0855 68.0031 12.0855C67.0998 12.0808 66.1966 12.056 65.225 12.0358C65.3212 11.9396 65.3678 11.876 65.4283 11.831C66.3688 11.1421 67.314 10.4578 68.2514 9.76425C68.4004 9.65409 68.5494 9.61064 68.731 9.6122C69.3642 9.61995 69.9975 9.60599 70.6291 9.61995C70.8588 9.62461 71.0218 9.55789 71.1863 9.39497C72.1144 8.47952 73.0518 7.57649 73.9877 6.67035C74.0498 6.60984 74.115 6.55398 74.2066 6.47175C74.3074 6.56639 74.4052 6.65484 74.4999 6.74793C75.7213 7.94732 76.9443 9.14516 78.1627 10.3492C78.3101 10.4951 78.456 10.5819 78.6779 10.5819C81.8425 10.5742 85.0071 10.5773 88.1716 10.5757C88.257 10.5757 88.3439 10.5649 88.4681 10.5571C88.5115 9.6122 88.482 8.67347 88.4867 7.7363C88.4914 6.80844 88.4867 5.88058 88.4867 4.92324H89.0175V5.63078C89.0672 5.65405 89.0765 5.66026 89.0889 5.66336C89.0998 5.66646 89.1168 5.66801 89.123 5.66336C91.0646 3.78437 93.0046 1.90382 94.9695 0C96.8692 1.9814 98.7626 3.95349 100.655 5.92713C100.678 5.91627 100.703 5.90696 100.726 5.8961V4.73705H101.299V10.5525C101.446 10.5633 101.555 10.5773 101.662 10.5773C104.59 10.5773 107.519 10.5773 110.448 10.5819C110.662 10.5819 110.817 10.5183 110.969 10.3663C112.335 9.01172 113.713 7.66959 115.074 6.31193C115.287 6.10091 115.497 6.01713 115.791 6.02488C116.485 6.04505 117.18 6.03574 117.876 6.02799C118.059 6.02643 118.202 6.06833 118.343 6.19866C120.236 7.96905 122.138 9.73477 124.034 11.502C124.095 11.5595 124.147 11.6246 124.242 11.7286C124.113 11.7379 124.034 11.7503 123.953 11.7503C123.333 11.7425 122.712 11.727 122.093 11.727C121.894 11.727 121.737 11.6727 121.593 11.5315C121.033 10.9869 120.463 10.4516 119.903 9.90545C119.805 9.8108 119.738 9.68512 119.64 9.55168C119.481 9.70684 119.381 9.79684 119.288 9.89303C118.113 11.1048 116.937 12.3135 115.77 13.5331C115.602 13.7084 115.431 13.7814 115.188 13.7798C110.508 13.7736 105.831 13.7752 101.151 13.7752H100.734L100.741 13.7736Z" fill="#24252D"/>
<path d="M91.7072 22.4718C91.8329 22.4625 91.94 22.447 92.0486 22.447C93.6006 22.447 95.1511 22.4346 96.7031 22.4485C99.1382 22.4703 101.147 24.1646 101.573 26.5525C101.635 26.9047 101.646 27.2678 101.648 27.6278C101.656 29.513 101.631 31.3997 101.657 33.2849C101.684 35.1562 100.956 36.624 99.4331 37.7055C99.3943 37.7334 99.3602 37.7675 99.2981 37.8203C99.3695 37.8823 99.4253 37.9413 99.4905 37.9879C100.909 38.9917 101.639 40.3649 101.646 42.0996C101.659 44.5558 101.671 47.0135 101.643 49.4697C101.615 51.8359 100.083 53.7599 97.85 54.2906C97.5024 54.3728 97.1392 54.4178 96.7823 54.4209C95.193 54.4349 93.6053 54.4287 92.016 54.4271C91.9198 54.4271 91.8236 54.4116 91.7072 54.4007V22.4718ZM93.1086 53.0027C93.2405 53.009 93.3507 53.0183 93.4594 53.0198C94.538 53.0198 95.6182 53.026 96.6969 53.0198C98.6431 53.0074 100.212 51.4853 100.231 49.538C100.256 47.0337 100.239 44.5279 100.236 42.0236C100.236 41.3362 100.048 40.6985 99.6488 40.1353C98.9303 39.119 97.9649 38.5433 96.6984 38.5371C95.595 38.5309 94.4899 38.534 93.3864 38.5356C93.3011 38.5356 93.2173 38.5511 93.1071 38.562V53.0058L93.1086 53.0027ZM93.1055 37.1065C93.2173 37.1174 93.2778 37.1283 93.3399 37.1283C94.4449 37.1283 95.5484 37.1345 96.6534 37.1252C96.9126 37.1236 97.1749 37.0926 97.4295 37.0445C98.772 36.7947 100.254 35.451 100.242 33.5642C100.229 31.5177 100.242 29.4695 100.236 27.423C100.236 27.1763 100.209 26.9265 100.167 26.6844C99.9453 25.4028 98.6555 23.831 96.6286 23.8481C95.5608 23.8574 94.4946 23.8481 93.4268 23.8512C93.3213 23.8512 93.2142 23.8714 93.1055 23.8822V37.1065Z" fill="#24252D"/>
<path d="M44.0803 22.4702H46.2469C47.965 33.108 49.6831 43.735 51.4074 54.4054C50.934 54.4457 50.4824 54.4209 49.9811 54.4224C49.5915 51.9942 49.2019 49.5768 48.8155 47.1656C48.5439 47.0802 42.1108 47.0523 41.5179 47.1361C41.1299 49.5488 40.7388 51.9771 40.3492 54.4038H38.9214C40.6425 43.7489 42.3606 33.1204 44.0803 22.4702ZM45.1232 24.8814C44.0027 31.8373 42.8914 38.7357 41.7817 45.631C42.1806 45.7148 48.2149 45.7071 48.5035 45.6326C48.5004 45.2199 45.3033 25.2259 45.1232 24.8799V24.8814Z" fill="#24252D"/>
<path d="M124.011 22.4658H126.178C127.897 33.1129 129.615 43.7445 131.338 54.4025H129.909C129.519 51.9789 129.131 49.5584 128.74 47.1193H121.45C121.061 49.5475 120.674 51.9572 120.283 54.3948H118.854C120.575 43.7445 122.291 33.1145 124.012 22.4658H124.011ZM128.476 45.622C127.363 38.7158 126.25 31.8065 125.138 24.8972H125.051C123.936 31.8111 122.824 38.7266 121.709 45.6406C122.152 45.7197 128.166 45.7042 128.476 45.6235V45.622Z" fill="#24252D"/>
<path d="M188.597 22.4733H190V22.8643C190 31.7224 190.001 40.5806 189.998 49.4387C189.998 51.7738 188.434 53.7583 186.193 54.2967C183.301 54.9919 180.458 53.0492 180.067 50.1059C180.036 49.8731 180.036 49.6357 180.036 49.3999C180.036 40.5542 180.036 31.7085 180.036 22.8628C180.036 22.7402 180.036 22.6176 180.036 22.4702H181.439V22.9559C181.439 31.6899 181.439 40.4238 181.442 49.1578C181.442 49.5038 181.453 49.856 181.516 50.1927C181.813 51.7754 183.292 52.9717 184.903 53.0244C186.908 53.088 188.249 51.5442 188.49 50.3029C188.559 49.9398 188.594 49.5659 188.595 49.1966C188.601 40.4626 188.6 31.7286 188.6 22.9947C188.6 22.8348 188.6 22.6735 188.6 22.4733H188.597Z" fill="#24252D"/>
<path d="M135.26 22.4673H136.666V22.956C136.666 30.2377 136.666 37.5194 136.666 44.8011C136.666 46.3511 136.669 47.9028 136.666 49.4528C136.663 50.6444 137.158 51.594 138.092 52.3031C139.183 53.1301 140.405 53.2651 141.643 52.7313C142.88 52.1991 143.624 51.2309 143.788 49.8671C143.821 49.5971 143.818 49.3225 143.818 49.0494C143.818 40.3666 143.818 31.6823 143.818 22.9995C143.818 22.8288 143.818 22.6597 143.818 22.4673H145.202C145.21 22.6023 145.225 22.7326 145.225 22.8629C145.227 23.707 145.225 24.5495 145.225 25.3936C145.225 33.3828 145.225 41.3705 145.225 49.3597C145.225 51.2061 144.457 52.6662 142.915 53.6499C139.859 55.5987 135.875 53.7678 135.308 50.2209C135.265 49.9524 135.262 49.6762 135.262 49.4047C135.258 40.5606 135.26 31.7149 135.26 22.8707C135.26 22.7481 135.26 22.6271 135.26 22.4673Z" fill="#24252D"/>
<path d="M26.9987 47.0941V54.396H25.6252V22.4795C25.7199 22.4686 25.8238 22.4469 25.9294 22.4469C27.5047 22.4453 29.0815 22.4376 30.6568 22.4469C33.3542 22.4624 35.0848 24.5369 35.4324 26.2576C35.5054 26.6207 35.5566 26.9946 35.5566 27.3624C35.5643 32.2996 35.5566 37.2368 35.5643 42.174C35.569 44.7295 33.5483 46.6907 31.5058 47.0057C31.1519 47.06 30.7903 47.0864 30.4318 47.0895C29.4385 47.1003 28.4468 47.0941 27.4535 47.0941H26.9987ZM27.008 45.6511C27.112 45.6667 27.1834 45.6868 27.2548 45.6868C28.3831 45.6884 29.513 45.6946 30.6413 45.6868C32.6838 45.6713 34.1815 43.8994 34.1691 42.0607C34.138 37.1996 34.1613 32.3384 34.1535 27.4772C34.1535 27.1451 34.1178 26.8053 34.0356 26.4857C33.6321 24.9357 32.2383 23.879 30.5668 23.8542C29.4882 23.8387 28.408 23.8495 27.3293 23.8526C27.2253 23.8526 27.1198 23.8759 27.0096 23.8899V45.6511H27.008Z" fill="#24252D"/>
<path d="M10.7165 43.2697H12.1009C12.1009 43.4295 12.1009 43.5753 12.1009 43.7197C12.1009 45.6421 12.0946 47.5645 12.104 49.4885C12.1117 51.0774 13.2012 52.4831 14.7207 52.8989C16.9928 53.5211 19.237 51.8501 19.2572 49.4994C19.2758 47.428 19.2634 45.3566 19.2603 43.2852C19.2603 42.407 18.9453 41.6389 18.4036 40.9562C17.9178 40.3465 17.3219 39.8608 16.6514 39.4745C16.1144 39.1657 15.5588 38.8895 14.9954 38.6319C14.0502 38.2006 13.1702 37.6793 12.4407 36.9298C11.4707 35.9337 10.926 34.7343 10.7708 33.3596C10.7211 32.9174 10.704 32.469 10.7025 32.0237C10.6947 30.4736 10.6761 28.922 10.7056 27.3719C10.7444 25.3176 11.7191 23.7815 13.5566 22.9281C17.1263 21.271 20.6773 24.0112 20.6649 27.3533C20.6587 28.9158 20.6649 30.4798 20.6649 32.0423C20.6649 32.14 20.6649 32.2378 20.6649 32.3883C20.1962 32.424 19.7508 32.4193 19.2634 32.3867C19.2634 32.2223 19.2634 32.0888 19.2634 31.9554C19.2634 30.455 19.2681 28.953 19.2619 27.4526C19.2557 25.856 18.2608 24.486 16.7802 24.0158C14.4817 23.2866 12.1241 24.9794 12.1055 27.3844C12.0931 29.0585 12.0931 30.7343 12.1055 32.4084C12.1164 33.7708 12.5991 34.95 13.552 35.9306C14.3265 36.7266 15.2623 37.2774 16.2727 37.7149C17.0611 38.0563 17.8154 38.4551 18.4936 38.9873C19.5319 39.8034 20.2691 40.8181 20.5392 42.1308C20.609 42.4691 20.6571 42.8182 20.6587 43.1626C20.6696 45.3085 20.6758 47.4544 20.6618 49.6002C20.6447 52.1464 18.5185 54.3171 15.9685 54.418C13.5877 54.5126 11.5204 53.0681 10.8996 50.8524C10.7832 50.4397 10.7133 49.999 10.7087 49.5708C10.6885 47.5614 10.6994 45.5521 10.6994 43.5428C10.6994 43.459 10.7102 43.3752 10.718 43.2681L10.7165 43.2697Z" fill="#24252D"/>
<path d="M65.2654 32.3911H63.9011C63.8949 32.2437 63.8856 32.1118 63.8856 31.9799C63.8856 30.4795 63.8779 28.9776 63.8856 27.4772C63.8918 26.4097 63.5116 25.5113 62.7247 24.7991C61.6134 23.7921 60.3144 23.5687 58.9533 24.1257C57.5611 24.6967 56.8115 25.7999 56.7261 27.3236C56.7215 27.4104 56.7246 27.4973 56.723 27.5842C56.723 34.8287 56.7261 42.0731 56.7199 49.3176C56.7199 50.4673 57.1126 51.4308 57.9941 52.171C59.1178 53.1143 60.3998 53.2974 61.7205 52.7233C63.0398 52.1508 63.8204 51.1004 63.8654 49.631C63.912 48.0701 63.8794 46.5061 63.881 44.942C63.881 44.7962 63.881 44.6503 63.881 44.4828H65.2498C65.2607 44.5821 65.2809 44.686 65.2809 44.7915C65.2824 46.4036 65.2995 48.0173 65.2778 49.6294C65.2436 52.1896 63.1205 54.3091 60.5612 54.4254C57.7086 54.5558 55.8911 52.4689 55.4938 50.7543C55.3914 50.3106 55.3247 49.8482 55.3247 49.3936C55.3138 42.0871 55.3138 34.7806 55.32 27.4756C55.3216 25.1513 56.841 23.1684 59.0185 22.6051C61.7314 21.9022 64.4987 23.5283 65.149 26.2219C65.2266 26.5447 65.2731 26.8829 65.2762 27.2149C65.2902 28.8519 65.284 30.4904 65.2824 32.1273C65.2824 32.2003 65.2716 32.2732 65.2638 32.3927L65.2654 32.3911Z" fill="#24252D"/>
<path d="M169.169 52.9981C170.185 53.0447 171.197 53.0121 172.207 53.0183C173.21 53.0245 174.213 53.0183 175.242 53.0183V54.3977H167.811C167.738 54.1448 167.711 22.9916 167.789 22.4688H175.242V23.8481H169.172V37.1175C170.79 37.1469 172.397 37.1128 174.026 37.1376V38.5061C173.624 38.5542 173.218 38.5232 172.814 38.5279C172.417 38.5341 172.02 38.5279 171.622 38.5279C171.213 38.5279 170.803 38.5279 170.393 38.5279C169.997 38.5279 169.603 38.5279 169.169 38.5279V52.9981Z" fill="#24252D"/>
<path d="M71.087 37.1331H75.9433V38.5171C75.5382 38.5217 75.1347 38.528 74.7311 38.5295C74.3338 38.5311 73.9365 38.5295 73.5392 38.5295C73.1295 38.5295 72.7197 38.5295 72.31 38.5295C71.9142 38.5295 71.52 38.5295 71.0979 38.5295V52.9936C71.4905 53.0448 71.8956 53.0106 72.2991 53.0168C72.6964 53.023 73.0938 53.0168 73.4911 53.0168C73.9008 53.0168 74.3105 53.0168 74.7203 53.0168C75.1176 53.0168 75.5149 53.0168 75.9122 53.0168C76.3095 53.0168 76.727 53.0168 77.1585 53.0168V54.3962H69.7274C69.6545 54.1418 69.6281 22.9871 69.7057 22.4673H77.157V23.8482H71.087V37.1331Z" fill="#24252D"/>
<path d="M108.013 23.8499V37.1053C108.823 37.1596 109.624 37.1208 110.425 37.1286C111.227 37.1348 112.029 37.1286 112.853 37.1286V38.5157C112.456 38.5203 112.065 38.525 111.672 38.5281C111.263 38.5297 110.853 38.5281 110.443 38.5281C110.046 38.5281 109.649 38.5281 109.251 38.5281C108.854 38.5281 108.458 38.5281 108.083 38.5281C108.053 38.5591 108.044 38.5684 108.036 38.5762C108.028 38.5855 108.014 38.5933 108.013 38.6041C108.005 38.6522 107.994 38.7019 107.994 38.7515C107.994 43.442 107.994 48.131 107.994 52.8215C107.994 52.8696 108.01 52.9177 108.024 53.0015H114.092C114.115 53.4871 114.112 53.934 114.092 54.4041H106.605V22.5109C106.895 22.4224 113.727 22.4131 114.086 22.5031V23.822C113.931 23.8313 113.786 23.8468 113.642 23.8468C111.916 23.8484 110.192 23.8468 108.466 23.8468C108.32 23.8468 108.174 23.8468 108.008 23.8468L108.013 23.8499Z" fill="#24252D"/>
<path d="M7.51153 22.4845V23.839C6.9916 23.8592 6.4872 23.8468 5.98279 23.8483C5.48614 23.8514 4.9895 23.8483 4.49285 23.8483C3.98379 23.8483 3.47472 23.8483 2.96566 23.8483C2.47057 23.8483 1.97392 23.8483 1.48814 23.8483C1.39501 24.1307 1.36087 36.4691 1.44934 37.1053C2.24087 37.1596 3.04326 37.1208 3.84255 37.127C4.64495 37.1347 5.44889 37.127 6.27457 37.127V38.5033C5.47373 38.556 4.67288 38.5188 3.87359 38.5265C3.06965 38.5327 2.2657 38.5265 1.43692 38.5265V53.0092C1.94753 53.0216 2.45039 53.0139 2.95324 53.0154C3.46231 53.0154 3.97137 53.0154 4.48043 53.0154C4.97708 53.0154 5.47373 53.0154 5.97037 53.0154C6.47633 53.0154 6.98074 53.0154 7.50843 53.0154V54.3995H0.068036C-0.00801301 54.1015 -0.0266373 22.9375 0.0447557 22.5078C0.302391 22.4271 6.91711 22.396 7.51308 22.4798L7.51153 22.4845Z" fill="#24252D"/>
<path d="M151.567 53.0181H158.882C158.903 53.4867 158.894 53.9258 158.886 54.3618C158.605 54.4394 150.762 54.4658 150.218 54.396C150.144 54.1151 150.131 22.8565 150.209 22.4717H151.567C151.567 27.5811 151.567 32.6626 151.567 37.7457C151.567 42.8287 151.567 47.8901 151.567 53.0181Z" fill="#24252D"/>
<path d="M125.532 13.761V12.5352C125.672 12.5275 125.793 12.5166 125.912 12.5166C137.181 12.5259 148.449 12.5337 159.718 12.5476C160.525 12.5476 161.331 12.5756 162.138 12.5942C162.489 12.6019 162.517 12.6361 162.534 12.979C162.544 13.1869 162.558 13.3933 162.572 13.6431C162.42 13.657 162.29 13.6788 162.158 13.6803C161.637 13.6881 161.115 13.6927 160.595 13.6927C149.042 13.716 137.487 13.7377 125.934 13.7594C125.811 13.7594 125.69 13.7594 125.532 13.7594V13.761Z" fill="#24252D"/>
<path d="M27.6009 13.6198C27.6009 13.3653 27.5978 13.1078 27.6009 12.8486C27.604 12.6826 27.6987 12.6035 27.8616 12.5988C27.9361 12.5973 28.0106 12.5942 28.0851 12.5926C29.8467 12.574 31.6082 12.543 33.3698 12.5414C43.4082 12.529 53.4467 12.5244 63.4852 12.5166C63.6326 12.5166 63.7801 12.5166 63.957 12.5166V13.7067C63.4107 13.8324 28.082 13.7486 27.6009 13.6198Z" fill="#24252D"/>
<path d="M162.653 54.4084H161.294V22.4639C161.739 22.4329 162.188 22.4422 162.653 22.4577V54.4099V54.4084Z" fill="#24252D"/>
<path d="M80.0406 78.5981H79.1994C79.1994 78.4337 79.1994 78.2878 79.1994 78.1435C79.1994 75.6128 79.1994 73.0822 79.1979 70.5515C79.1979 70.3669 79.1916 70.1776 79.1513 69.9976C79.0209 69.4173 78.4886 69.0201 77.8973 69.0418C77.3013 69.0651 76.8093 69.4918 76.7146 70.0845C76.6867 70.2551 76.6851 70.4305 76.6851 70.6027C76.6836 73.0961 76.6851 75.5896 76.6851 78.083V78.5888H75.8719V68.221H76.6494C76.6696 68.3001 76.6913 68.3932 76.7193 68.5096C76.7783 68.4925 76.8388 68.4863 76.8885 68.4584C77.4146 68.1667 77.9687 68.1186 78.5445 68.2706C78.8766 68.3575 79.1575 68.5329 79.4058 68.7672C79.4757 68.8339 79.5471 68.899 79.6278 68.9751C79.7209 68.8882 79.8 68.8137 79.8807 68.7392C81.0153 67.6934 82.8684 68.19 83.3138 69.6655C83.3774 69.8765 83.4116 70.1046 83.4116 70.325C83.4116 72.9053 83.4038 75.4841 83.3976 78.0644C83.3976 78.235 83.3976 78.4042 83.3976 78.5966H82.5688C82.5642 78.4585 82.5549 78.3157 82.5549 78.173C82.5549 75.5802 82.5518 72.9875 82.5564 70.3948C82.5564 70.0457 82.4804 69.7322 82.2445 69.4685C81.8999 69.0837 81.3629 68.9285 80.8896 69.1132C80.4007 69.304 80.1011 69.6609 80.0685 70.2055C80.0546 70.4522 80.0437 70.7005 80.0437 70.9487C80.0422 73.3304 80.0437 75.7121 80.0437 78.0938V78.5997L80.0406 78.5981Z" fill="#24252D"/>
<path d="M130.449 9.08154C130.65 9.08154 130.798 9.08154 130.945 9.08154C137.175 9.09396 143.405 9.10792 149.635 9.12033C150.22 9.12033 150.322 9.22739 150.319 9.817C150.316 10.2251 150.296 10.2468 149.868 10.2515C147.522 10.2685 145.177 10.2902 142.832 10.2996C138.873 10.3151 134.915 10.3213 130.956 10.3306C130.809 10.3306 130.661 10.3306 130.478 10.3306C130.425 9.91786 130.466 9.52841 130.45 9.08154H130.449Z" fill="#24252D"/>
<path d="M28.7401 80.9937H27.9004V78.266C27.7514 78.3327 27.6521 78.3762 27.5543 78.4227C26.142 79.0775 24.5558 78.0798 24.5496 76.522C24.5403 74.4506 24.5419 72.3792 24.5496 70.3094C24.5543 68.7112 26.1575 67.7167 27.6025 68.4071C27.6785 68.4444 27.7546 68.4816 27.8601 68.5344C27.8849 68.418 27.9051 68.328 27.9268 68.224H28.7401V80.9953V80.9937ZM25.4063 73.4079C25.4063 74.2381 25.4063 75.0697 25.4063 75.8998C25.4063 76.1233 25.4001 76.3467 25.411 76.5686C25.442 77.2637 25.9806 77.768 26.6759 77.7571C27.3759 77.7462 27.8958 77.2156 27.8989 76.4817C27.9051 74.7827 27.9004 73.0852 27.9004 71.3862C27.9004 71.0138 27.9066 70.643 27.8989 70.2706C27.8865 69.712 27.5078 69.2202 26.9956 69.0836C26.4524 68.9393 25.9061 69.1472 25.5972 69.6127C25.4389 69.8517 25.4063 70.117 25.4063 70.3932C25.4094 71.3971 25.4063 72.401 25.4063 73.4048V73.4079Z" fill="#24252D"/>
<path d="M58.916 9.08154V10.3058C58.7919 10.3151 58.6832 10.329 58.5761 10.329C52.396 10.3042 46.2159 10.2778 40.0342 10.2499C39.9597 10.2499 39.8852 10.2484 39.8107 10.2437C39.6803 10.2359 39.6011 10.1677 39.5949 10.0358C39.5872 9.88683 39.581 9.73787 39.5934 9.59047C39.6229 9.24601 39.747 9.12964 40.0885 9.12344C40.4858 9.11568 40.8831 9.11878 41.2804 9.11723C47.0012 9.10482 52.7235 9.09396 58.4442 9.08154C58.5917 9.08154 58.7376 9.08154 58.916 9.08154Z" fill="#24252D"/>
<path d="M169.023 81.0001V78.2599C168.861 78.3344 168.763 78.3794 168.666 78.4244C167.27 79.0699 165.681 78.0924 165.67 76.5547C165.653 74.4601 165.656 72.3654 165.67 70.2707C165.681 68.7129 167.27 67.7308 168.686 68.3886C168.774 68.4305 168.861 68.474 168.981 68.5329C169.006 68.4197 169.024 68.3297 169.047 68.2195H169.806C169.886 68.4926 169.91 80.4679 169.828 81.0001H169.023ZM169.018 73.4081C169.018 72.3669 169.027 71.3258 169.015 70.2847C169.007 69.5865 168.47 69.0558 167.79 69.0419C167.112 69.0279 166.57 69.5384 166.521 70.2366C166.513 70.3483 166.515 70.46 166.515 70.5717C166.515 72.4678 166.515 74.3654 166.515 76.2615C166.515 76.398 166.515 76.5346 166.53 76.6695C166.591 77.1738 166.875 77.5214 167.342 77.6874C167.806 77.8519 168.248 77.7727 168.619 77.4236C168.897 77.163 169.02 76.8387 169.018 76.457C169.013 75.4407 169.018 74.4244 169.016 73.4081H169.018Z" fill="#24252D"/>
<path d="M104.656 68.2302C104.682 68.3187 104.705 68.3993 104.732 68.4893C104.775 68.4862 104.816 68.4971 104.842 68.4816C105.196 68.2814 105.573 68.1821 105.981 68.1899C107.072 68.2085 107.946 69.02 108.033 70.1061C108.041 70.193 108.044 70.2799 108.044 70.3668C108.044 72.3885 108.041 74.4103 108.047 76.4335C108.048 77.0464 107.865 77.5771 107.424 78.0131C106.797 78.6337 105.851 78.8013 105.05 78.4289C104.952 78.3839 104.854 78.3358 104.701 78.2613V80.9906H103.873V68.2333H104.656V68.2302ZM107.201 73.4452C107.201 72.6523 107.201 71.8579 107.201 71.065C107.201 70.7919 107.212 70.5188 107.196 70.2473C107.158 69.5661 106.631 69.0557 105.97 69.0402C105.306 69.0262 104.769 69.5149 104.702 70.1977C104.691 70.3078 104.691 70.4211 104.691 70.5312C104.691 72.4397 104.691 74.3498 104.691 76.2582C104.691 76.3948 104.693 76.5313 104.71 76.6663C104.771 77.1628 105.126 77.6004 105.588 77.7136C106.097 77.8378 106.548 77.726 106.9 77.3149C107.122 77.0573 107.201 76.7532 107.199 76.4196C107.198 75.4281 107.199 74.4366 107.199 73.4436L107.201 73.4452Z" fill="#24252D"/>
<path d="M12.8878 65.8176H13.7321V68.5422C13.8966 68.4646 14.0037 68.4103 14.1154 68.3622C15.4889 67.7571 17.0642 68.7268 17.0751 70.2226C17.0968 72.9518 17.0813 75.6811 17.0798 78.4104C17.0798 78.4585 17.0705 78.5066 17.0611 78.5857H16.223C16.223 78.4321 16.223 78.2863 16.223 78.142C16.223 75.6237 16.223 73.1054 16.223 70.5856C16.223 70.4615 16.2262 70.3374 16.2184 70.2132C16.1765 69.543 15.6333 69.034 14.9659 69.0402C14.3001 69.0464 13.7538 69.5647 13.7336 70.2334C13.7181 70.7423 13.729 71.2513 13.729 71.7587C13.729 73.8797 13.729 76.0023 13.729 78.1233V78.5888H12.8878V65.8145V65.8176Z" fill="#24252D"/>
<path d="M74.1662 74.3092H70.8868C70.8728 74.4318 70.8573 74.5156 70.8573 74.5978C70.8557 75.2309 70.8511 75.8624 70.8573 76.4955C70.8666 77.2232 71.3912 77.7538 72.0927 77.7585C72.7989 77.7631 73.3281 77.2464 73.3498 76.5187C73.3607 76.151 73.3514 75.7817 73.3514 75.3907H74.2081C74.1957 75.9198 74.2671 76.438 74.1631 76.9501C73.9489 78.0145 72.9991 78.7003 71.8925 78.6103C70.8495 78.5265 70.0161 77.6281 69.999 76.5265C69.9804 75.3612 69.9944 74.196 69.9944 73.0292C69.9944 72.1246 69.9866 71.2185 69.9975 70.3139C70.0099 69.2976 70.6555 68.4768 71.6023 68.2425C72.8749 67.929 74.1678 68.8553 74.1988 70.1509C74.2329 71.49 74.205 72.829 74.2034 74.1681C74.2034 74.1913 74.1926 74.2146 74.1677 74.3077L74.1662 74.3092ZM70.8806 73.4326H73.3514C73.3514 73.2852 73.3514 73.1642 73.3514 73.0431C73.3514 72.3977 73.3514 71.7538 73.3514 71.1083C73.3514 70.798 73.3622 70.4876 73.3421 70.1789C73.3064 69.6281 72.8873 69.1688 72.355 69.0695C71.5712 68.9221 70.8713 69.4729 70.8604 70.2704C70.8464 71.2619 70.8573 72.2549 70.8588 73.2464C70.8588 73.2945 70.8713 73.3441 70.8837 73.4326H70.8806Z" fill="#24252D"/>
<path d="M113.827 74.3079H110.578C110.561 74.4026 110.538 74.4724 110.536 74.5422C110.533 75.2125 110.527 75.8813 110.536 76.5515C110.546 77.0977 110.917 77.5725 111.416 77.7168C111.95 77.8704 112.509 77.6672 112.822 77.2048C112.967 76.9922 113.029 76.7579 113.026 76.5019C113.021 76.1435 113.026 75.7851 113.026 75.3972H113.884C113.87 75.9914 113.96 76.5733 113.796 77.1412C113.515 78.1063 112.559 78.7176 111.52 78.6074C110.544 78.5035 109.751 77.6672 109.68 76.6648C109.676 76.6152 109.675 76.5655 109.675 76.5159C109.675 74.4445 109.675 72.3731 109.675 70.3017C109.675 69.7167 109.877 69.2078 110.299 68.7982C110.943 68.1729 111.71 68.0239 112.532 68.3296C113.347 68.6322 113.842 69.2621 113.872 70.131C113.918 71.4809 113.881 72.8339 113.878 74.1853C113.878 74.2071 113.861 74.2288 113.827 74.3095V74.3079ZM112.982 73.4297C113.001 73.3785 113.018 73.3552 113.018 73.332C113.02 72.2784 113.03 71.2249 113.013 70.1713C113.01 69.9852 112.926 69.7819 112.827 69.619C112.538 69.1442 111.973 68.9425 111.435 69.0883C110.92 69.228 110.544 69.7105 110.539 70.2769C110.53 71.2559 110.536 72.235 110.539 73.2156C110.539 73.2854 110.561 73.3537 110.575 73.4297H112.985H112.982Z" fill="#24252D"/>
<path d="M61.3124 75.3908H62.138C62.1272 75.9199 62.197 76.4396 62.0946 76.9501C61.8835 78.0021 60.9554 78.6817 59.8612 78.6134C58.8384 78.5483 58.0112 77.7011 57.9352 76.6382C57.9305 76.5638 57.9305 76.4893 57.9305 76.4148C57.9305 74.4055 57.9321 72.3977 57.9305 70.3884C57.9305 69.7476 58.123 69.1905 58.601 68.7545C59.2621 68.1525 60.0335 68.0175 60.8468 68.3527C61.6631 68.6894 62.1194 69.3348 62.1349 70.2286C62.1567 71.5055 62.1411 72.7825 62.1396 74.0595C62.1396 74.12 62.1303 74.1805 62.1225 74.2953C61.0237 74.3139 59.928 74.2907 58.8307 74.3077C58.8121 74.3931 58.7919 74.4396 58.7919 74.4846C58.7903 75.1797 58.7779 75.8733 58.795 76.5684C58.8074 77.1084 59.1985 77.5863 59.6967 77.7197C60.2244 77.8609 60.7598 77.6654 61.0734 77.2185C61.213 77.0199 61.2813 76.7981 61.2829 76.556C61.2829 76.2705 61.2829 75.985 61.2875 75.7011C61.2875 75.6049 61.3046 75.5087 61.3155 75.3908H61.3124ZM58.809 73.4326H61.2844C61.2844 73.2371 61.2844 73.0649 61.2844 72.8942C61.2844 72.0253 61.2922 71.158 61.2798 70.2891C61.272 69.6777 60.8778 69.1936 60.3253 69.0742C59.5151 68.9004 58.8027 69.4621 58.7903 70.3061C58.7779 71.2728 58.7872 72.241 58.7872 73.2076C58.7872 73.2682 58.7981 73.3302 58.809 73.4311V73.4326Z" fill="#24252D"/>
<path d="M142.288 74.3079C142.27 74.4118 142.253 74.4708 142.253 74.5298C142.252 75.2125 142.239 75.8936 142.256 76.5763C142.274 77.2559 142.809 77.7556 143.487 77.7587C144.159 77.7602 144.704 77.2559 144.738 76.5872C144.752 76.3157 144.74 76.041 144.743 75.7695C144.743 75.6485 144.754 75.5275 144.761 75.3676H145.584C145.598 76.0472 145.686 76.6896 145.446 77.3087C145.084 78.235 144.075 78.7781 143.091 78.5903C142.118 78.4041 141.397 77.5585 141.392 76.5655C141.384 74.4568 141.383 72.3498 141.392 70.2411C141.397 69.1597 142.258 68.2628 143.318 68.1992C144.467 68.131 145.395 68.8633 145.564 69.9743C145.582 70.0968 145.598 70.221 145.6 70.3435C145.603 71.5709 145.601 72.7982 145.6 74.0271C145.6 74.1 145.589 74.1729 145.579 74.2986C144.487 74.3188 143.402 74.297 142.283 74.311L142.288 74.3079ZM144.699 73.4343C144.72 73.3738 144.735 73.3506 144.735 73.3273C144.738 72.2862 144.743 71.245 144.738 70.2039C144.738 69.9494 144.636 69.7213 144.476 69.5212C144.134 69.0945 143.577 68.93 143.071 69.1085C142.703 69.2388 142.243 69.6531 142.249 70.2784C142.258 71.245 142.249 72.2117 142.252 73.1799C142.252 73.2606 142.277 73.3428 142.294 73.4514C143.113 73.4514 143.912 73.4809 144.699 73.4343Z" fill="#24252D"/>
<path d="M132.721 74.3034H129.437C129.417 74.3918 129.392 74.4493 129.392 74.5067C129.389 75.1894 129.376 75.8705 129.393 76.5517C129.41 77.2623 129.977 77.7774 130.683 77.7588C131.326 77.7418 131.835 77.2592 131.877 76.6137C131.894 76.3422 131.884 76.0691 131.886 75.796C131.886 75.675 131.886 75.5524 131.886 75.3911C132.05 75.3818 132.181 75.3724 132.311 75.3693C132.434 75.3662 132.556 75.3693 132.704 75.3693C132.718 75.4873 132.736 75.5804 132.738 75.6735C132.743 75.9714 132.743 76.2693 132.738 76.5656C132.724 77.6238 131.889 78.5284 130.852 78.6122C129.716 78.7037 128.745 77.9667 128.569 76.8791C128.544 76.7208 128.532 76.5579 128.532 76.3981C128.529 74.4011 128.534 72.4058 128.529 70.4089C128.527 69.7696 128.712 69.2095 129.187 68.7688C129.854 68.1482 130.64 68.0147 131.462 68.3607C132.274 68.7021 132.724 69.3507 132.735 70.2475C132.75 71.4996 132.739 72.7518 132.738 74.0039C132.738 74.0877 132.729 74.1731 132.719 74.3049L132.721 74.3034ZM131.886 73.4283C131.886 73.2793 131.886 73.1568 131.886 73.0357C131.886 72.3158 131.886 71.5974 131.886 70.8774C131.886 70.6292 131.894 70.3809 131.872 70.1342C131.827 69.6191 131.423 69.18 130.919 69.0745C130.123 68.9085 129.406 69.4593 129.393 70.2785C129.378 71.27 129.39 72.263 129.392 73.2545C129.392 73.3026 129.406 73.3507 129.418 73.4283H131.887H131.886Z" fill="#24252D"/>
<path d="M50.4249 75.3848C50.4451 75.4205 50.4777 75.4515 50.4777 75.4825C50.473 75.9526 50.5056 76.4274 50.4451 76.8914C50.3085 77.9496 49.3121 78.6897 48.1931 78.6121C47.1672 78.5407 46.2981 77.6548 46.2919 76.6245C46.2779 74.4802 46.2795 72.3359 46.2919 70.1915C46.2981 69.1396 47.1719 68.2567 48.2211 68.1962C49.3463 68.1326 50.3008 68.8758 50.4544 69.9417C50.4761 70.0891 50.4901 70.2381 50.4901 70.3855C50.4932 71.5756 50.4917 72.7657 50.4901 73.9557C50.4901 74.0535 50.4761 74.1512 50.4668 74.2924H47.1843C47.1657 74.4274 47.1424 74.5205 47.1408 74.6152C47.1377 75.2343 47.1579 75.8549 47.1346 76.474C47.1083 77.1893 47.726 77.7789 48.3871 77.7618C49.101 77.7448 49.6241 77.2203 49.6365 76.4662C49.6427 76.1202 49.6365 75.7742 49.6365 75.3848H50.4249ZM49.6334 73.4328C49.6334 72.3095 49.6551 71.2311 49.6241 70.1559C49.6086 69.619 49.1616 69.1737 48.651 69.0713C47.8641 68.9161 47.1626 69.4545 47.1486 70.2552C47.1315 71.2466 47.1439 72.2397 47.1455 73.2311C47.1455 73.2901 47.1657 73.3506 47.1796 73.4328H49.6334Z" fill="#24252D"/>
<path d="M22.8859 78.5965H22.1052C22.0819 78.5034 22.0571 78.4025 22.0245 78.2738C21.936 78.3141 21.8709 78.3405 21.8088 78.3715C20.8745 78.8261 19.8781 78.6275 19.2107 77.8533C18.8987 77.4917 18.7311 77.0697 18.7171 76.5965C18.7047 76.1636 18.7078 75.7276 18.7296 75.2947C18.7746 74.3994 19.1952 73.7136 19.9479 73.2373C20.1559 73.1054 20.3933 73.0185 20.606 72.8912C20.935 72.6957 21.2733 72.508 21.5729 72.2721C21.9097 72.0068 22.0695 71.6298 22.0664 71.1922C22.0664 70.8943 22.0742 70.5964 22.0633 70.2985C22.0369 69.5708 21.5061 69.0402 20.8139 69.0402C20.1248 69.0402 19.5863 69.5708 19.5583 70.2954C19.5444 70.6802 19.5552 71.065 19.5552 71.4498C19.5552 71.5848 19.5552 71.7198 19.5552 71.8827H18.7482C18.7373 71.8253 18.7156 71.7663 18.7156 71.7089C18.714 71.2 18.7001 70.6911 18.7202 70.1837C18.7559 69.3117 19.3162 68.5685 20.1124 68.2969C20.9567 68.0099 21.8615 68.2613 22.4373 68.9502C22.7695 69.3474 22.9107 69.8066 22.9092 70.3249C22.9014 72.508 22.906 74.6927 22.906 76.8758C22.906 77.3226 22.906 77.7695 22.906 78.2164C22.906 78.3374 22.8936 78.4584 22.8859 78.598V78.5965ZM22.0338 73.1038C21.6877 73.2822 21.3695 73.439 21.0591 73.6096C20.8 73.7524 20.5346 73.8905 20.2987 74.0674C19.8843 74.3777 19.6127 74.7966 19.5847 75.3195C19.5583 75.799 19.5599 76.2862 19.6127 76.7625C19.6716 77.2885 20.1543 77.6935 20.6805 77.7431C21.4549 77.816 22.0571 77.2807 22.0649 76.4925C22.0742 75.4654 22.068 74.4366 22.0649 73.4079C22.0649 73.3148 22.0462 73.2217 22.0338 73.1023V73.1038Z" fill="#24252D"/>
<path d="M89.1587 74.3062H85.8715C85.8514 74.3915 85.8312 74.4381 85.8312 74.4846C85.8281 75.1673 85.8141 75.85 85.8312 76.5312C85.8514 77.2806 86.4411 77.802 87.1799 77.7554C87.7433 77.7197 88.2229 77.3008 88.3005 76.7391C88.3408 76.4459 88.3284 76.1449 88.3362 75.8485C88.3408 75.7026 88.3362 75.5583 88.3362 75.3861C88.5053 75.3784 88.6248 75.3706 88.7459 75.3675C88.8685 75.3644 88.9911 75.3675 89.1339 75.3675C89.151 75.4699 89.1758 75.5506 89.1758 75.6328C89.1789 75.968 89.1851 76.3031 89.1727 76.6383C89.137 77.6902 88.2663 78.5669 87.2172 78.6166C86.0966 78.6693 85.1468 77.909 85.0024 76.84C84.9822 76.6926 84.9745 76.5436 84.9745 76.3947C84.9729 74.3977 84.976 72.3993 84.9714 70.4024C84.9714 69.791 85.1374 69.2511 85.5798 68.8151C86.2301 68.1743 87.003 68.0331 87.8457 68.3325C88.6372 68.6134 89.1665 69.3736 89.1727 70.2224C89.1836 71.5133 89.1758 72.8027 89.1758 74.0936C89.1758 74.1433 89.1665 74.1914 89.1541 74.3093L89.1587 74.3062ZM88.3129 73.4528C88.3237 73.2883 88.3377 73.1689 88.3377 73.0479C88.3393 72.1945 88.3393 71.3395 88.3377 70.4862C88.3377 70.362 88.3315 70.2379 88.3144 70.1169C88.2151 69.4217 87.599 68.9578 86.9052 69.0556C86.2921 69.1409 85.8421 69.6359 85.8327 70.286C85.8188 71.2759 85.8281 72.2658 85.8296 73.2558C85.8296 73.3039 85.8452 73.352 85.8607 73.4482C86.6693 73.4652 87.4779 73.4575 88.3129 73.4544V73.4528Z" fill="#24252D"/>
<path d="M40.3787 74.2987H37.1257C37.1039 74.4104 37.0744 74.4911 37.0744 74.5733C37.0713 75.2188 37.0605 75.8643 37.076 76.5082C37.0946 77.2468 37.6192 77.7588 38.3254 77.7588C39.0253 77.7588 39.5546 77.2359 39.5779 76.5066C39.5903 76.1482 39.5794 75.7898 39.5794 75.3988H40.4051C40.4284 76.322 40.5851 77.2623 39.8107 78.004C39.1542 78.6339 38.3859 78.7782 37.5432 78.4694C36.7547 78.1808 36.2332 77.4205 36.2317 76.5703C36.2239 74.4616 36.2224 72.353 36.2317 70.2444C36.2364 69.1226 37.1132 68.2319 38.2214 68.1916C39.3901 68.1482 40.3647 68.9658 40.4051 70.114C40.4516 71.4639 40.4175 72.8169 40.4175 74.1684C40.4175 74.1917 40.4051 74.2165 40.3802 74.2972L40.3787 74.2987ZM39.5391 73.4329C39.5608 73.36 39.5732 73.3352 39.5732 73.3119C39.5763 72.7409 39.5794 72.1699 39.581 71.6005C39.581 71.1536 39.5934 70.7068 39.5763 70.2599C39.5515 69.6594 39.1371 69.1769 38.583 69.0698C37.9979 68.9565 37.4283 69.225 37.2002 69.7618C37.1148 69.9604 37.0822 70.1932 37.0791 70.4119C37.0667 71.3057 37.0729 72.1978 37.0744 73.0916C37.0744 73.1986 37.0931 73.3057 37.1039 73.4329H39.5406H39.5391Z" fill="#24252D"/>
<path d="M181.51 74.3002H178.242C178.217 74.3964 178.186 74.4647 178.186 74.5345C178.183 75.1924 178.169 75.8503 178.186 76.5066C178.207 77.2855 178.794 77.8099 179.548 77.7572C180.093 77.7184 180.57 77.3119 180.653 76.7673C180.7 76.4632 180.685 76.1497 180.694 75.841C180.698 75.6967 180.694 75.5524 180.694 75.3879H181.515C181.518 76.0132 181.625 76.6307 181.422 77.2296C181.102 78.1715 180.132 78.7409 179.12 78.6013C178.167 78.4694 177.407 77.6517 177.351 76.6804C177.332 76.3592 177.34 76.0349 177.34 75.7137C177.34 73.9402 177.346 72.1667 177.337 70.3933C177.334 69.7059 177.553 69.1256 178.082 68.6834C178.745 68.131 179.502 68.0302 180.278 68.3669C181.055 68.7036 181.512 69.3242 181.526 70.1931C181.546 71.4825 181.532 72.7734 181.53 74.0628C181.53 74.1233 181.52 74.1838 181.509 74.3018L181.51 74.3002ZM180.643 73.4344C180.667 73.3708 180.685 73.3475 180.685 73.3258C180.688 72.2986 180.689 71.2715 180.689 70.2443C180.689 70.1947 180.677 70.1466 180.669 70.0969C180.584 69.5818 180.281 69.2389 179.792 69.0946C179.286 68.9472 178.838 69.0837 178.484 69.4871C178.26 69.7431 178.181 70.0488 178.181 70.3793C178.181 71.3072 178.181 72.235 178.181 73.1629C178.181 73.2451 178.2 73.3274 178.214 73.4313H180.641L180.643 73.4344Z" fill="#24252D"/>
<path d="M154.801 68.2149H155.647V78.5936H154.826C154.809 78.4912 154.792 78.3966 154.77 78.2724C154.642 78.3345 154.533 78.3904 154.423 78.44C153.057 79.0529 151.469 78.0816 151.457 76.5905C151.435 73.8612 151.451 71.1319 151.451 68.4027C151.451 68.3546 151.46 68.3049 151.466 68.2382C151.732 68.1575 151.995 68.1839 152.309 68.2227V68.6649C152.309 71.2204 152.309 73.7759 152.312 76.3329C152.312 76.5284 152.318 76.7348 152.376 76.9194C152.559 77.5028 153.121 77.8318 153.749 77.7495C154.322 77.6751 154.774 77.1708 154.798 76.5734C154.805 76.4369 154.8 76.3003 154.8 76.1638C154.8 73.6704 154.8 71.1769 154.8 68.682C154.8 68.5361 154.8 68.3887 154.8 68.2165L154.801 68.2149Z" fill="#24252D"/>
<path d="M161.472 78.6029H160.637C160.637 78.4306 160.637 78.2739 160.637 78.1157C160.637 75.6114 160.637 73.1055 160.637 70.6012C160.637 70.4647 160.64 70.3282 160.629 70.1916C160.578 69.5493 160.072 69.0636 159.433 69.0403C158.789 69.0171 158.225 69.4981 158.148 70.1435C158.132 70.2785 158.137 70.4166 158.137 70.5516C158.137 73.0807 158.137 75.6114 158.137 78.1405V78.5967H157.31V68.2056H158.103C158.123 68.3018 158.145 68.4026 158.169 68.5267C158.273 68.4802 158.362 68.4414 158.449 68.3995C159.875 67.7184 161.48 68.7052 161.484 70.2816C161.494 72.9473 161.488 75.6145 161.486 78.2801C161.486 78.3763 161.475 78.4741 161.469 78.6013L161.472 78.6029Z" fill="#24252D"/>
<path d="M175.682 68.21V78.5964H174.878C174.858 78.5002 174.84 78.4087 174.818 78.3063C174.778 78.3094 174.737 78.3001 174.711 78.3156C174.38 78.5002 174.033 78.6119 173.649 78.6166C172.47 78.6321 171.529 77.743 171.495 76.5623C171.483 76.1278 171.492 75.6949 171.492 75.2605C171.492 73.0649 171.492 70.8694 171.492 68.6754C171.492 68.5296 171.492 68.3837 171.492 68.2131H172.342C172.347 68.3558 172.353 68.5001 172.353 68.6444C172.353 71.1999 172.353 73.7538 172.355 76.3093C172.355 76.4707 172.35 76.6352 172.381 76.7903C172.507 77.4032 173.089 77.8097 173.738 77.7523C174.335 77.6996 174.812 77.2015 174.84 76.5917C174.849 76.4055 174.843 76.2194 174.843 76.0332C174.843 73.577 174.843 71.1223 174.843 68.6661V68.21H175.682Z" fill="#24252D"/>
<path d="M33.7298 68.1882C33.913 68.1882 34.0465 68.1866 34.1815 68.1882C34.3025 68.1913 34.4236 68.1991 34.5648 68.2068V78.5886H33.7717C33.7485 78.5017 33.719 78.4009 33.6879 78.2876C33.4939 78.3698 33.317 78.4629 33.1308 78.5219C31.782 78.9455 30.4597 78.0052 30.379 76.5731C30.3744 76.4986 30.3759 76.4241 30.3759 76.3496C30.3759 73.7693 30.3759 71.189 30.3759 68.6087V68.2161H31.2233C31.2264 68.3558 31.2342 68.4985 31.2342 68.6428C31.2342 71.2231 31.2373 73.8035 31.2326 76.3838C31.2326 76.7608 31.3133 77.096 31.5803 77.3721C31.9574 77.7616 32.4184 77.8624 32.9119 77.684C33.407 77.5056 33.6957 77.1332 33.7252 76.5901C33.7329 76.4536 33.7298 76.3171 33.7298 76.1805C33.7298 73.6747 33.7298 71.1688 33.7298 68.663V68.1882Z" fill="#24252D"/>
<path d="M64.2022 68.2041H64.9751C65.0046 68.3096 65.0326 68.4089 65.0667 68.5362C65.5044 68.2786 65.9498 68.1622 66.4356 68.1948C67.3715 68.2553 68.1785 68.9753 68.3322 69.9031C68.3601 70.0738 68.3756 70.2476 68.3756 70.4214C68.3787 73.025 68.3772 75.6286 68.3756 78.2321C68.3756 78.3423 68.3663 78.4509 68.3601 78.5906H67.5189C67.5189 78.4308 67.5189 78.2849 67.5189 78.139C67.5189 75.5727 67.5158 73.0063 67.522 70.44C67.522 70.066 67.4506 69.7278 67.1852 69.4485C66.8127 69.0575 66.3549 68.9427 65.8582 69.1165C65.3632 69.2887 65.0683 69.6595 65.0279 70.1995C65.017 70.3345 65.0202 70.4726 65.0202 70.6091C65.0202 73.1134 65.0202 75.6177 65.0202 78.122V78.5921H64.2255C64.151 78.3439 64.1231 68.831 64.2022 68.2072V68.2041Z" fill="#24252D"/>
<path d="M10.6171 74.4289H11.4211C11.4382 74.5111 11.4676 74.5934 11.4676 74.6741C11.4707 75.2823 11.4832 75.8905 11.4661 76.4972C11.4366 77.5554 10.7987 78.3483 9.82405 78.5717C8.52966 78.8665 7.27563 77.8999 7.27097 76.5717C7.26011 73.6578 7.26166 70.7423 7.27097 67.8284C7.27408 66.7159 8.15873 65.8408 9.28239 65.7958C10.3843 65.7508 11.3528 66.5405 11.435 67.6313C11.494 68.3932 11.4459 69.1643 11.4459 69.9618H10.642C10.6342 69.8656 10.6202 69.7586 10.6187 69.6515C10.6156 69.0681 10.6264 68.4863 10.614 67.9029C10.6001 67.2667 10.1919 66.7872 9.58349 66.6647C8.93785 66.5328 8.25185 66.9936 8.14321 67.6437C8.11217 67.8253 8.11062 68.0146 8.10907 68.1992C8.10751 70.8788 8.10907 73.5569 8.10907 76.2365C8.10907 76.3607 8.10907 76.4848 8.12148 76.6074C8.18512 77.2963 8.70659 77.7711 9.38793 77.7602C10.0537 77.7493 10.5845 77.2435 10.6109 76.5577C10.6327 76.0007 10.6171 75.4421 10.6171 74.8835C10.6171 74.7485 10.6171 74.612 10.6171 74.4305V74.4289Z" fill="#24252D"/>
<path d="M91.6668 78.5981H90.8427V68.2194H91.6249C91.6497 68.3032 91.6777 68.3932 91.7118 68.5064C91.7646 68.4909 91.8127 68.4878 91.8499 68.4661C92.3745 68.1713 92.9301 68.1123 93.5044 68.269C94.3161 68.4909 94.909 69.1938 95.0005 70.0317C95.0161 70.1791 95.0207 70.328 95.0207 70.477C95.0207 73.0325 95.0207 75.588 95.0207 78.1434C95.0207 78.2877 95.0068 78.4336 94.999 78.5965H94.1842C94.1795 78.4569 94.1718 78.3141 94.1718 78.1714C94.1718 75.6407 94.1718 73.11 94.1718 70.5794C94.1718 70.4552 94.1764 70.3311 94.1671 70.207C94.119 69.5553 93.5867 69.0526 92.9395 69.0417C92.2876 69.0309 91.7475 69.5103 91.6808 70.1682C91.6637 70.328 91.6668 70.4909 91.6668 70.6507C91.6668 73.1318 91.6668 75.6128 91.6668 78.0938C91.6668 78.2521 91.6668 78.4103 91.6668 78.5981Z" fill="#24252D"/>
<path d="M118.868 68.2085H119.692V78.5872H118.909C118.883 78.4987 118.854 78.3979 118.818 78.2738C118.4 78.5034 117.984 78.6353 117.523 78.6182C116.51 78.581 115.652 77.8005 115.535 76.792C115.518 76.6446 115.514 76.4956 115.514 76.3467C115.514 73.7788 115.514 71.2109 115.514 68.6414V68.2147H116.363C116.363 68.3714 116.363 68.5173 116.363 68.6616C116.363 71.2171 116.363 73.7726 116.366 76.3296C116.366 76.5142 116.378 76.7051 116.428 76.8804C116.589 77.4545 117.125 77.8021 117.739 77.754C118.312 77.709 118.779 77.2621 118.85 76.6818C118.871 76.522 118.869 76.3606 118.869 76.1993C118.869 73.7058 118.869 71.2124 118.869 68.7174C118.869 68.5592 118.869 68.4009 118.869 68.2085H118.868Z" fill="#24252D"/>
<path d="M51.994 68.2072H52.8725C53.4141 70.8915 53.9558 73.5758 54.4959 76.2585C54.5285 76.2585 54.5611 76.2585 54.5952 76.2585C55.1462 73.5882 55.6677 70.9101 56.2217 68.2103H57.0971C56.4002 71.6812 55.708 75.1258 55.0065 78.6154H54.0877C53.3893 75.1429 52.6971 71.6983 51.9956 68.2041L51.994 68.2072Z" fill="#24252D"/>
<path d="M137.043 78.5719C136.741 78.6743 136.453 78.5983 136.176 78.5067C135.376 78.243 134.805 77.4734 134.768 76.6293C134.763 76.5176 134.765 76.4059 134.765 76.2941C134.765 72.9473 134.765 69.6005 134.765 66.2537V65.8208H135.605C135.639 66.2118 135.617 66.6044 135.62 66.9938C135.625 67.3755 135.62 67.7557 135.62 68.173H137.023V69C136.585 69.0869 136.126 68.9938 135.656 69.059C135.643 69.1661 135.623 69.2607 135.623 69.3554C135.622 71.7107 135.625 74.066 135.62 76.4214C135.62 77.0032 135.858 77.4299 136.39 77.6627C136.578 77.7449 136.795 77.7558 137.043 77.807V78.5719Z" fill="#24252D"/>
<path d="M96.6488 65.8174H97.507V68.1712H98.9039V69.0199C98.4646 69.0308 98.0146 69.0401 97.5319 69.0525C97.5226 69.1952 97.5102 69.3147 97.5102 69.4326C97.5102 71.7399 97.5086 74.0471 97.5102 76.3543C97.5102 77.2341 97.8997 77.6577 98.7921 77.7647C98.8278 77.7694 98.862 77.7865 98.9163 77.8051V78.5855C98.5966 78.66 98.3001 78.5917 98.0099 78.4847C97.2261 78.1945 96.6876 77.4451 96.6519 76.6072C96.6488 76.5328 96.6519 76.4583 96.6519 76.3838C96.6519 72.9967 96.6519 69.6111 96.6519 66.2239C96.6519 66.1013 96.6519 65.9803 96.6519 65.8174H96.6488Z" fill="#24252D"/>
<path d="M122.209 68.1806H123.612V68.9937C123.17 69.1023 122.707 68.9812 122.225 69.0712C122.215 69.1907 122.2 69.3102 122.2 69.4297C122.2 71.7353 122.2 74.041 122.198 76.3467C122.198 76.7439 122.271 77.1101 122.572 77.4003C122.776 77.5958 123.007 77.7261 123.292 77.7525C123.401 77.7633 123.508 77.7788 123.629 77.7944V78.595C123.446 78.595 123.264 78.6198 123.091 78.5903C122.119 78.4336 121.365 77.5833 121.362 76.5981C121.352 73.0775 121.357 69.5569 121.357 66.0363C121.357 65.9758 121.366 65.9153 121.374 65.8237H122.189C122.197 66.6026 122.204 67.3753 122.212 68.1806H122.209Z" fill="#24252D"/>
<path d="M139.121 78.6026H138.291V68.2146C138.403 68.2053 138.499 68.1928 138.595 68.1913C138.754 68.1882 138.913 68.1913 139.083 68.1913C139.111 68.3154 139.131 68.407 139.154 68.5125C139.384 68.424 139.595 68.3201 139.818 68.2658C140.04 68.2115 140.275 68.2053 140.532 68.1758V69.009C140.402 69.0276 140.281 69.0431 140.161 69.0633C139.579 69.161 139.165 69.6203 139.128 70.2115C139.12 70.348 139.121 70.4846 139.121 70.6211C139.121 73.127 139.121 75.6328 139.121 78.1371V78.6057V78.6026Z" fill="#24252D"/>
<path d="M95.82 13.6977C95.3979 13.6977 95.0145 13.6977 94.6312 13.6977C94.5458 13.6977 94.462 13.6869 94.3565 13.6807C94.3456 13.5876 94.3254 13.5053 94.3254 13.4231C94.3239 12.0841 94.3208 10.745 94.3254 9.40756C94.3285 8.8676 94.4418 8.34781 94.7026 7.87147C94.8003 7.69148 94.9338 7.53167 95.0673 7.34082C95.5174 7.79234 95.6974 8.31212 95.7921 8.86605C95.8278 9.07241 95.8433 9.28498 95.8433 9.49445C95.8479 10.7838 95.8464 12.0732 95.8433 13.3626C95.8433 13.4604 95.8293 13.5566 95.8169 13.6993L95.82 13.6977Z" fill="#24252D"/>
<path d="M163.168 68.2085H163.913C163.996 68.539 164 78.2365 163.918 78.5965H163.193C163.117 78.3358 163.089 68.7779 163.168 68.2085Z" fill="#24252D"/>
<path d="M98.0937 8.74618C98.5779 9.13719 98.8185 9.65077 98.834 10.2357C98.862 11.3498 98.8418 12.4638 98.8387 13.5779C98.8387 13.5996 98.8216 13.6229 98.803 13.671H97.3643C97.3518 13.5903 97.3301 13.5081 97.3301 13.4243C97.327 12.4095 97.3224 11.3932 97.3301 10.3785C97.3348 9.82765 97.5008 9.33114 97.8842 8.92151C97.9416 8.861 98.013 8.8129 98.0937 8.74463V8.74618Z" fill="#24252D"/>
<path d="M92.6259 13.6852H91.1872C91.1748 13.5797 91.1562 13.485 91.1546 13.3904C91.1531 12.4129 91.1515 11.4353 91.1546 10.4563C91.1562 9.88063 91.3083 9.35619 91.7102 8.92484C91.7677 8.86433 91.8391 8.81778 91.9229 8.74951C92.4087 9.14052 92.6477 9.65255 92.6632 10.2375C92.6911 11.35 92.6694 12.4656 92.6663 13.5797C92.6663 13.6014 92.6508 13.6247 92.6259 13.6867V13.6852Z" fill="#24252D"/>
<path d="M132.243 66.2706V67.1783C131.951 67.0852 131.684 67.0293 131.444 66.9176C130.905 66.6631 130.385 66.6585 129.845 66.9161C129.604 67.0309 129.334 67.0852 129.046 67.1783V66.269C129.541 66.103 130.044 65.9323 130.546 65.7679C130.602 65.7492 130.674 65.7492 130.728 65.7679C131.232 65.9323 131.735 66.103 132.243 66.2737V66.2706Z" fill="#24252D"/>
<path d="M60.3827 67.1099H59.481C59.6641 66.1898 59.841 65.2961 60.0242 64.376H60.9166C60.7707 65.2883 60.5674 66.1851 60.3827 67.1099Z" fill="#24252D"/>
<path d="M48.727 67.1051H47.8268C48.0131 66.1711 48.1931 65.2696 48.3747 64.3604H49.2625C49.115 65.2913 48.9117 66.1881 48.727 67.1051Z" fill="#24252D"/>
<path d="M163.145 67.0961V65.8439C163.404 65.7524 163.656 65.7927 163.949 65.8191C164.003 66.238 163.966 66.6508 163.971 67.0976H163.147L163.145 67.0961Z" fill="#24252D"/>
</g>
</svg>
