<svg width="86" height="85" viewBox="0 0 86 85"  xmlns="http://www.w3.org/2000/svg">
<linearGradient id="my-cool-gradient" x2="1" y2="1">
    <stop offset="0%" stop-color="#447799" />
    <stop offset="50%" stop-color="#224488" />
    <stop offset="100%" stop-color="#112266" />
  </linearGradient>
<path d="M81.4774 1.88851C81.1457 1.55879 80.816 1.23112 80.4862 0.899356C79.3087 -0.276161 79.024 -0.286401 77.7031 0.792863C75.907 2.26328 74.1929 3.06198 72.3047 3.30568C70.7053 3.51253 69.411 4.21906 68.5611 5.35157C67.7071 6.48818 67.3876 7.93812 67.6354 9.54166C67.7562 10.3178 67.7296 11.2865 66.4558 11.9111L66.1363 12.0668L65.8967 11.8026C65.8168 11.7125 65.7349 11.6224 65.6551 11.5302C65.4851 11.3377 65.311 11.1411 65.1308 10.9609L64.6229 10.4468C63.943 9.75669 63.2385 9.04196 62.5238 8.37024C62.0425 7.91559 61.5489 7.85006 61.0144 8.16544C60.6683 8.37024 60.2977 8.75525 60.4943 9.42288C60.57 9.68092 60.7687 9.97582 61.1045 10.324C61.8602 11.1083 62.6425 11.8784 63.3962 12.6259C63.6808 12.9085 63.9655 13.187 64.244 13.4655L64.5758 13.7952L61.5285 16.9122L61.1906 16.562C61.0759 16.4432 60.9591 16.3224 60.8424 16.1995C60.5864 15.9292 60.3202 15.6507 60.0519 15.3844C59.843 15.1776 59.6362 14.9666 59.4293 14.7578C58.8436 14.1659 58.2395 13.5556 57.6128 13.0047C57.1541 12.6013 56.4946 12.6279 56.0482 13.0682C55.6202 13.4901 55.5935 14.1434 55.9806 14.6574C56.1649 14.9032 56.3902 15.1264 56.6298 15.3639L56.7342 15.4663C57.4244 16.1565 58.1186 16.8426 58.7699 17.4897L59.8021 18.5116L45.4603 32.8513L45.1839 32.7591C44.6248 32.5728 44.0657 32.3905 43.5066 32.2062C42.0526 31.729 40.5473 31.2334 39.0769 30.7194C38.4912 30.5146 37.8256 30.2402 37.3464 29.7712C35.4357 27.8932 33.5127 25.9661 31.6511 24.1025C30.322 22.7713 28.9929 21.4402 27.6556 20.1152C24.1147 16.6029 20.07 15.3189 15.286 16.1954C14.7638 16.2917 14.1187 16.0213 13.7951 15.7039C11.9008 13.8485 9.99619 11.9418 8.151 10.0987C7.41374 9.36144 6.67648 8.62418 5.93922 7.88897C5.73853 7.68827 5.50301 7.46095 5.25112 7.29097C4.75142 6.95306 4.20052 7.00016 3.77865 7.4118C3.35677 7.82548 3.29738 8.38662 3.62301 8.87403C3.80937 9.1546 4.05512 9.40649 4.33364 9.68501C12.7056 18.0631 19.6625 25.02 26.2302 31.5775C26.3572 31.7044 26.519 31.8191 26.7238 31.9666C26.8425 32.0505 26.9716 32.1427 27.1129 32.2512L27.717 32.712L27.0371 33.052C26.05 33.5435 25.7141 34.1476 25.8759 35.1347C26.3346 37.9077 25.6076 40.5966 23.7174 43.1258C21.1534 46.554 17.9627 48.2395 14.2272 48.1494C13.0128 48.1187 11.8148 47.7726 10.6577 47.4388C10.3505 47.3507 10.0433 47.2606 9.73815 47.1787C9.05824 46.9964 8.61178 46.9083 8.13257 47.2319C5.23883 49.1918 3.14174 51.6104 1.90069 54.4161C-1.30843 61.674 -0.460583 68.6431 4.49543 75.7228C4.7207 76.0464 4.9685 76.3638 5.22859 76.6997C5.35761 76.8656 5.49073 77.0356 5.62589 77.2137L5.88393 77.5516L5.57469 77.8445C5.38219 78.0268 5.19378 78.2029 5.00946 78.3749C4.61216 78.7456 4.23739 79.0958 3.879 79.4562L3.54314 79.7941C2.97995 80.3573 2.39834 80.9389 1.8925 81.5513C1.56892 81.9424 1.60579 82.524 1.97646 82.9336C2.37376 83.3698 2.81817 83.4681 3.33629 83.2367C3.60867 83.1159 3.87695 82.8497 4.11451 82.6162C4.87839 81.8646 5.64842 81.0884 6.39182 80.3368L7.52433 79.1961L7.852 79.4378C7.9503 79.5095 8.03836 79.573 8.11823 79.6324C8.28207 79.7511 8.42337 79.8515 8.56059 79.9641C10.9526 81.9117 13.5698 83.2941 16.3387 84.0682C17.3319 84.3467 18.3784 84.5433 19.388 84.7338C19.8447 84.8198 20.3014 84.9058 20.7561 85H24.1474C24.1659 84.9939 24.1823 84.9857 24.2007 84.9795C24.3195 84.9324 24.4669 84.873 24.6369 84.8525C30.0578 84.1952 34.4199 81.6168 37.6065 77.1912C38.0407 76.5871 38.1062 76.0485 37.8338 75.2743L37.7949 75.1617C37.4017 74.0456 36.9962 72.8905 36.8959 71.6966C36.5457 67.5843 38.225 64.0987 41.8867 61.3361C44.4016 59.4376 47.0905 58.7086 49.8757 59.1632C50.7235 59.3025 51.4055 59.155 51.9789 57.9836L52.323 57.2812L52.7858 57.9119C52.8923 58.0553 52.9804 58.1884 53.0643 58.3092C53.2056 58.5161 53.3162 58.6778 53.4391 58.8007C61.4732 66.8491 69.626 74.9999 76.6361 82.01L76.6627 82.0366C76.886 82.2599 77.0948 82.4688 77.3242 82.6367C77.8485 83.0196 78.5018 82.9889 78.9175 82.5609C79.3148 82.1513 79.3455 81.5144 78.9912 81.0127C78.8458 80.8079 78.7025 80.6133 78.5489 80.5068C77.2751 79.616 76.8962 78.4036 77.4491 77.0028C77.4635 76.9659 77.4635 76.8554 77.4635 76.7755C77.4635 76.7038 77.4635 76.6321 77.4676 76.5625C77.742 72.354 76.3494 68.7926 73.212 65.6736C70.5107 62.9888 67.7747 60.2507 65.1287 57.6027C62.2145 54.6864 59.2 51.6698 56.2243 48.7167L56.1874 48.6798C55.1409 47.6415 54.0576 46.5663 54.0392 44.8133C54.0392 44.7437 53.988 44.6187 53.945 44.5082L53.9081 44.416C53.4432 43.2139 52.9763 42.0117 52.5421 40.8935L52.0875 39.7242L66.5562 25.2575L66.89 25.6016C67.0231 25.7388 67.1623 25.8842 67.3077 26.0337C67.6518 26.3921 68.0081 26.7628 68.3809 27.1294C68.5324 27.2789 68.684 27.4324 68.8355 27.584C69.3598 28.1083 69.9025 28.651 70.4718 29.122C70.9838 29.5439 71.4896 29.3329 71.8235 29.0831C72.276 28.7452 72.4051 28.2987 72.2064 27.7581C72.1102 27.4959 71.8583 27.2236 71.6289 26.988C70.8609 26.2016 70.0786 25.4234 69.3229 24.6718C69.0464 24.3954 68.772 24.123 68.5017 23.8547L68.1699 23.525L71.2705 20.3527L71.6084 20.7316C71.719 20.8565 71.8296 20.9835 71.9402 21.1125C72.1798 21.391 72.4296 21.6777 72.6897 21.9419L73.0993 22.3597C73.7506 23.0212 74.4223 23.7052 75.1247 24.3196C75.5937 24.7292 76.2347 24.7025 76.6853 24.254C77.1174 23.8219 77.146 23.183 76.7528 22.6628C76.5726 22.4252 76.3555 22.2082 76.1241 21.9788L75.9992 21.8539C75.3152 21.1678 74.6271 20.4817 73.9574 19.8162L72.9703 18.8332L73.1321 18.5239C73.7588 17.3279 74.6783 17.289 75.5794 17.4242C77.0969 17.6515 78.5448 17.3136 79.6568 16.4698C80.7648 15.6302 81.502 14.3236 81.7314 12.7897C81.8502 12.0033 81.9956 11.0244 82.44 10.2298C83.0052 9.21808 83.6687 8.25146 84.3118 7.31555C84.5493 6.9674 84.789 6.61925 85.0224 6.26905V5.72839C84.9528 5.63419 84.8852 5.53794 84.8176 5.44168C84.6128 5.15292 84.4183 4.8785 84.195 4.64708C83.296 3.72142 82.3621 2.7937 81.461 1.89465L81.4774 1.88851ZM53.7893 54.2625C53.9961 53.6665 54.1456 53.0419 54.3033 52.3784C54.375 52.0794 54.4467 51.7742 54.5266 51.463L54.715 50.7277L55.2925 51.2233C55.3601 51.2807 55.4236 51.3339 55.485 51.3851C55.6202 51.4978 55.7492 51.6022 55.8721 51.7251C61.1557 57.0047 66.4374 62.2843 71.717 67.57C74.0373 69.8924 75.1432 72.5997 75.094 75.8437L75.0776 76.9086L74.2974 76.1816C74.1745 76.0669 74.07 75.9706 73.9779 75.8867C73.8018 75.7249 73.6686 75.602 73.5417 75.475L69.2267 71.1621C64.3198 66.2552 59.2471 61.1825 54.2419 56.206C53.6459 55.6121 53.5149 55.0509 53.7873 54.2645L53.7893 54.2625ZM17.8193 19.7138L17.4404 19.3329C17.2991 19.1915 17.295 19.0216 17.293 18.9499C17.293 18.9294 17.293 18.9007 17.2889 18.8598L17.2541 18.3703L17.7435 18.3539C19.7853 18.2823 21.7391 18.8004 23.5454 19.8919L23.6826 19.9739C24.1167 20.2339 24.5652 20.5043 24.9359 20.8811C27.16 23.142 29.4045 25.45 31.5733 27.6843L34.1455 30.3282L33.3714 30.5392C33.1399 30.6027 32.9024 30.6682 32.6566 30.7358C31.86 30.9569 31.0367 31.1843 30.1889 31.3932C30.1254 31.4095 30.0558 31.4157 29.9841 31.4157C29.6953 31.4157 29.3676 31.2928 29.169 31.0942C25.3762 27.3096 21.5322 23.4492 17.8152 19.7158L17.8193 19.7138ZM50.5208 55.8353C50.2054 56.419 49.7876 56.6524 49.1262 56.6565C49.0606 56.6565 48.9951 56.6565 48.9296 56.6565C43.48 56.6565 39.2121 59.1734 36.2426 64.1438C34.209 67.5475 33.8588 71.242 35.2043 75.1289C35.4275 75.774 35.3312 76.2696 34.8827 76.7857C31.5856 80.5928 27.4774 82.5077 22.632 82.5077C20.9424 82.5077 19.1628 82.2762 17.295 81.8093C14.9993 81.2359 12.7589 80.1239 10.6351 78.4998C10.5307 78.42 10.4324 78.336 10.3136 78.2377C10.2583 78.1906 10.1969 78.1394 10.1293 78.0821L9.62961 77.6663L10.1785 77.3182C10.2849 77.2506 10.3833 77.1871 10.4775 77.1277C10.6679 77.0048 10.8379 76.8963 11.012 76.7919C12.0462 76.1693 13.0804 75.5488 14.1166 74.9282C16.0048 73.7957 17.893 72.6612 19.7792 71.5225C20.1663 71.2891 20.6393 70.9122 20.6987 70.4351C20.7561 69.9661 20.4018 69.4971 20.0925 69.1838C18.5463 67.6212 17.1496 66.2245 15.8246 64.9159C15.5236 64.6189 15.0669 64.279 14.6 64.3363C14.1269 64.3957 13.7603 64.8483 13.5371 65.219C12.1752 67.4737 10.8215 69.7326 9.44325 72.0325L7.38097 75.4689L6.95705 74.9364C4.58759 71.971 3.20113 68.8397 2.71782 65.3623C1.96418 59.9476 3.32605 55.2947 6.76454 51.5326C7.23352 51.0206 7.78851 50.523 8.51553 49.9721C8.86163 49.7099 9.43301 49.6874 9.78525 49.8164C13.4695 51.1619 17.4302 50.8035 20.9404 48.8027C24.7209 46.6483 27.4487 42.8411 28.2392 38.6183C28.3334 38.1186 28.3437 37.6005 28.3539 37.0516C28.3621 36.6502 28.3703 36.2345 28.4133 35.8208C28.4584 35.3928 28.6918 34.8296 29.0994 34.6084C33.4287 32.2533 37.9444 32.2308 42.9045 34.5408L43.009 34.59L43.7032 35.4972L43.1994 35.7553C43.1011 35.8065 42.9946 35.8515 42.8902 35.8945C42.7263 35.9642 42.5707 36.0276 42.4929 36.1055C39.8613 38.7145 37.1969 41.381 34.6206 43.9614L33.3468 45.2352C32.2696 46.3144 32.2634 46.7752 33.3161 47.832L33.4021 47.92C34.6964 49.2184 35.9886 50.5148 37.2891 51.807C38.2311 52.7429 38.7513 52.7388 39.7077 51.7845C41.6082 49.8881 43.5046 47.9897 45.403 46.0912L48.907 42.5872C49.0524 42.4418 49.2019 42.3025 49.3699 42.1428L50.0723 41.4731L50.3713 42.0035C51.1925 43.4678 51.725 45.0529 52.0015 46.853C52.495 50.0826 51.9974 53.1034 50.5208 55.8374V55.8353ZM12.1834 72.1594L14.9358 67.5679L17.5347 70.0603L12.8449 72.8701L12.1854 72.1615L12.1834 72.1594ZM38.3991 49.456L35.6466 46.6421L68.7986 13.4901L71.5572 16.2958L38.397 49.456H38.3991ZM81.8113 6.22195C81.6208 6.59877 81.4242 6.97149 81.2255 7.34627C80.7729 8.2023 80.306 9.08701 79.9374 9.98401C79.6998 10.5615 79.5872 11.2005 79.4664 11.8784C79.4254 12.1098 79.3844 12.3412 79.3394 12.5706C79.022 14.1516 77.9079 15.0916 76.3924 15.0916C76.2736 15.0916 76.1507 15.0854 76.0279 15.0731C73.0788 14.7926 70.2465 11.9623 69.968 9.01738C69.798 7.22953 70.8179 5.90247 72.5034 5.71611C74.6066 5.48469 76.5583 4.66961 78.6492 3.15414L78.9769 2.91658L81.9648 5.91885L81.8113 6.224V6.22195Z" />
<path d="M28.1327 52.6569C28.401 52.8986 28.8516 53.0767 29.2325 52.7818C29.4946 52.5791 29.7096 52.2698 29.9349 51.9422C30.0025 51.8439 30.0721 51.7435 30.1438 51.6452C29.9308 50.7851 29.3738 50.1298 28.6263 49.8717C27.7313 49.5625 26.8302 49.6956 25.6117 50.3161C24.1393 51.0677 22.8839 52.1163 21.8804 53.4331C21.2127 54.3096 20.1273 55.524 18.4317 55.9377C17.5306 56.1568 16.3755 56.2756 15.4253 55.2189C15.1427 54.9055 14.8314 54.7479 14.518 54.7479C14.2682 54.7479 14.0142 54.8482 13.7746 55.0509C13.2237 55.5138 13.191 56.1609 13.6825 56.7815C14.8252 58.2253 16.4308 58.7434 18.5873 58.3666C20.5021 58.0327 22.079 56.9903 23.8607 54.8851C24.4198 54.2236 25.1079 53.687 25.7735 53.1668C26.0152 52.9784 26.2548 52.79 26.4903 52.5955C27.0268 52.1511 27.5962 52.1715 28.1348 52.6569H28.1327Z" />
<path d="M34.0349 55.1431C33.4369 54.8728 32.7365 54.9977 32.3699 55.438C32.1201 55.7391 31.9009 56.1916 32.4334 57.0395C32.6382 57.3651 32.671 57.9078 32.5071 58.2703C31.8968 59.6281 30.8585 60.5763 29.8284 61.3996C27.7191 63.083 26.6336 65.0408 26.5108 67.3836C26.5067 69.153 27.0289 70.39 28.1573 71.2747C28.786 71.7683 29.4578 71.7519 29.9103 71.2358C30.4961 70.5682 30.0414 69.833 29.7158 69.4541C29.5151 69.2186 28.8679 68.3933 28.9744 67.6335C29.1383 66.4662 29.4578 65.5159 29.9226 64.8114C30.3568 64.152 30.963 63.6339 31.5507 63.1321C31.7473 62.9642 31.946 62.7942 32.1344 62.6222C34.0267 60.8896 34.9831 59.3086 35.237 57.4982C35.3804 56.4763 34.8971 55.5302 34.0369 55.1411L34.0349 55.1431Z" />
<path d="M21.393 62.4481C21.393 62.4481 21.3827 62.4481 21.3786 62.4481C21.0858 62.4522 20.7847 62.5915 20.5554 62.827C20.326 63.0625 20.197 63.3656 20.2011 63.6564C20.2052 63.9492 20.3444 64.2503 20.5799 64.4797C20.8155 64.709 21.1165 64.8421 21.4073 64.8339C22.0217 64.8237 22.5951 64.238 22.5849 63.6257C22.5808 63.3328 22.4415 63.0318 22.206 62.8024C21.9746 62.5771 21.6797 62.4481 21.393 62.4481Z" />
</svg>
