<svg width="97" height="89" viewBox="0 0 97 89"  xmlns="http://www.w3.org/2000/svg">
<path d="M74.2381 68.019L73.6778 67.0489C72.3037 64.6641 70.4071 63.5041 67.8858 63.5041C67.4611 63.5041 67.0075 63.5376 66.5406 63.6024C66.5139 63.6069 66.4872 63.6069 66.4561 63.6069C66.2293 63.6069 65.9958 63.5197 65.9536 63.4459C65.062 61.9529 64.1904 60.4285 63.3477 58.9534C63.1343 58.5779 62.9208 58.2046 62.7074 57.8336C62.7185 57.8112 62.7274 57.7911 62.7363 57.7732C62.7541 57.7352 62.7719 57.6995 62.7808 57.6883C62.9008 57.5654 63.0253 57.4469 63.1476 57.3262C63.241 57.2368 63.3344 57.1452 63.4256 57.0558C68.5061 52.0044 70.6606 45.8914 69.829 38.8887C69.1976 33.5826 66.6651 28.748 62.694 25.2724C58.7852 21.8505 53.7603 19.9663 48.5441 19.9663C47.1767 19.9663 45.796 20.0959 44.4374 20.3529C35.168 22.1008 28.4087 29.4387 27.2147 39.0452C26.6633 43.4841 27.4771 47.8828 29.5649 51.7652C31.5771 55.5068 34.6321 58.5399 38.3964 60.5381C41.6381 62.2569 45.0066 63.1286 48.4085 63.1286C50.4807 63.1286 52.6019 62.8045 54.7141 62.1652C54.9054 62.1071 55.0588 62.078 55.1833 62.078C55.4279 62.078 55.6257 62.1697 55.8681 62.6212C56.5996 63.9868 57.3978 65.3458 58.1694 66.6578L58.5696 67.3395C58.7897 67.715 58.8319 67.9318 58.5296 68.3073C56.5307 70.7771 56.3328 73.3363 57.9226 76.1347C59.748 79.3465 61.569 82.5092 63.2788 85.473C64.5706 87.7148 66.6162 89 68.8907 89C70.0669 89 71.2543 88.6714 72.4238 88.021C73.7423 87.2879 75.0652 86.5123 76.3437 85.7613L76.5127 85.663C80.0702 83.5754 81.0418 79.8964 78.9873 76.2934C77.4132 73.5285 75.7967 70.7257 74.2336 68.0167L74.2381 68.019ZM75.5255 83.211C73.7556 84.2906 72.297 85.1333 70.9341 85.8641C70.5383 86.0765 70.0758 86.2016 69.6311 86.3223C69.4333 86.376 69.2265 86.4318 69.0286 86.4944C67.5167 86.3447 66.4583 85.7189 65.7935 84.5856C64.0303 81.5817 61.9559 78.0211 59.9348 74.3935C58.9231 72.5764 59.4967 70.4486 61.2955 69.331C62.8341 68.3766 64.435 67.4468 66.0559 66.5684C66.6873 66.2264 67.341 66.0521 68.0014 66.0521C69.3288 66.0521 70.505 66.7606 71.2298 67.9944C73.1153 71.204 75.0319 74.5477 76.9262 77.9317C78.0313 79.9053 77.4687 82.0264 75.5255 83.211ZM44.0884 33.0864C45.2512 31.904 46.8165 31.2514 48.4974 31.2469H48.5108C50.1917 31.2469 51.757 31.8906 52.9176 33.0618C54.0716 34.2241 54.7053 35.7842 54.7008 37.4538C54.6941 40.8959 51.9326 43.6987 48.5486 43.6987H48.4841C45.1245 43.663 42.363 40.878 42.3274 37.4896C42.3096 35.8244 42.9344 34.2598 44.0884 33.0864ZM57.0354 35.4646C56.5974 33.4641 55.5235 31.7878 53.8448 30.478C52.3084 29.28 50.4674 28.6452 48.5219 28.6452C46.3185 28.6452 44.2173 29.4744 42.6053 30.9809C40.7176 32.7444 39.766 34.9527 39.7771 37.5477C39.786 39.5861 40.0173 40.1583 42.4919 43.9468C37.3825 44.89 34.4476 47.979 33.7672 53.1309C31.4526 50.6231 29.9251 46.7899 29.6583 42.798C29.3448 38.102 30.7611 33.4753 33.6471 29.7695C37.2469 25.1473 42.6765 22.4964 48.5419 22.4964C53.2289 22.4964 57.7158 24.2331 61.1777 27.3868C69.5355 34.9974 68.7729 46.6401 63.2877 53.2538C62.594 47.9812 59.7124 44.928 54.494 43.9312C56.8686 41.4323 57.7224 38.5848 57.0376 35.4601L57.0354 35.4646ZM36.3686 55.2565C36.4064 54.843 36.4175 54.4183 36.4264 54.0093C36.442 53.3656 36.4575 52.6995 36.5887 52.0759C37.2357 48.9669 39.786 46.7675 42.9344 46.5999C43.5636 46.5664 44.2373 46.5507 45.0511 46.5507C45.6292 46.5507 46.2206 46.5597 46.7898 46.5664C47.3123 46.5731 47.8504 46.5798 48.3818 46.582L48.533 46.5909C49.1267 46.5909 49.7292 46.582 50.3117 46.5731C50.8943 46.5641 51.4946 46.5552 52.086 46.5552C52.9109 46.5552 53.5935 46.5708 54.2317 46.6066C57.6846 46.801 60.564 49.8319 60.6463 53.3656C60.6818 54.8653 60.6996 55.6163 60.3995 56.1595C60.0971 56.7026 59.4456 57.0937 58.1471 57.8693C55.2611 59.5948 51.9349 60.5068 48.5263 60.5068C44.3641 60.5068 40.2885 59.1277 37.0445 56.6266C36.5042 56.2109 36.3152 55.8242 36.3686 55.252V55.2565ZM58.6652 60.5448L60.6263 59.4138C60.8219 59.7535 61.0154 60.091 61.2088 60.4241C62.0292 61.8478 62.8052 63.1911 63.5634 64.5724C63.6034 64.6574 63.4989 65.006 63.3944 65.0731C62.8297 65.4419 62.2382 65.7727 61.6112 66.1236C61.4222 66.2287 61.231 66.3359 61.0354 66.4477L57.8959 60.9828L58.6652 60.5403V60.5448Z" />
<path d="M20.0197 23.5827C19.7529 23.5112 19.4861 23.4419 19.1748 23.3614C19.0903 23.3391 19.0036 23.3167 18.9124 23.2944C20.5178 21.4772 21.2648 19.5438 21.1981 17.3937C21.1248 15.0624 20.1909 13.1 18.4233 11.5578C17.0292 10.3419 15.2171 9.67134 13.3205 9.67134C11.5017 9.67134 9.73412 10.2949 8.34892 11.4259C6.78363 12.7022 5.83422 14.3003 5.52961 16.1778C5.09382 18.8532 5.83422 21.247 7.72636 23.2966C5.42511 23.871 3.70862 24.7561 2.48129 25.9988C1.19614 27.3019 0.437954 29.0051 0.164471 31.2067C-0.0934466 33.2965 0.00216098 35.44 0.113333 37.0716C0.264526 39.2575 1.92098 40.7931 4.14219 40.8042C7.33949 40.8199 10.4945 40.8288 13.5206 40.8288C16.5467 40.8288 19.5861 40.8199 22.4944 40.8042C24.809 40.7908 26.5121 39.043 26.5433 36.6469C26.5611 35.2813 26.5611 33.8061 26.5433 32.0068C26.5032 28.0172 23.8818 24.6332 20.0197 23.5849V23.5827ZM8.62908 25.8424C10.1032 25.8223 11.644 25.8133 13.2138 25.8133C14.7835 25.8133 16.3177 25.8223 17.9497 25.8401C21.1626 25.8759 23.8485 28.5312 23.9396 31.761C23.9841 33.3747 23.973 34.9818 23.9552 36.4905C23.9396 37.7555 23.3571 38.2964 22.0075 38.3031C20.9402 38.3076 19.7863 38.3099 18.3766 38.3099C17.5272 38.3099 16.6801 38.3099 15.8308 38.3099C14.9814 38.3099 14.1343 38.3099 13.2849 38.3099C12.4956 38.3099 11.7063 38.3099 10.917 38.3099C10.0076 38.3099 9.10044 38.3099 8.19106 38.3099C7.04822 38.3099 5.90537 38.3099 4.76475 38.3054C3.19946 38.3009 2.67028 37.7779 2.66583 36.2357V35.4534C2.65916 34.2889 2.65471 33.0864 2.66806 31.904C2.70363 28.605 5.37842 25.8849 8.6313 25.8424H8.62908ZM13.3072 12.1791H13.3205C16.2443 12.1858 18.7123 14.678 18.7101 17.6194C18.7057 20.5899 16.2844 23.0083 13.3116 23.0083V23.0865C13.3116 23.0865 13.3116 23.0865 13.3094 23.0865V23.0083C11.8775 23.0083 10.5257 22.4428 9.49844 21.4146C8.47121 20.3887 7.90868 19.0365 7.90868 17.606C7.91091 14.6646 10.3834 12.1791 13.3072 12.1791Z" />
<path d="M96.9593 31.8928C96.886 29.8566 96.19 27.9814 94.9471 26.4682C93.7065 24.9595 92.0078 23.918 90.0356 23.4553C89.8577 23.4128 89.682 23.3726 89.4619 23.3212L89.3219 23.2899C90.9316 21.4571 91.6609 19.6019 91.612 17.4741C91.5586 15.1384 90.6448 13.1648 88.8994 11.6092C87.4964 10.3575 85.6576 9.6691 83.7233 9.6691C81.9312 9.6691 80.1902 10.2726 78.8228 11.37C77.2597 12.6217 76.3037 14.1773 75.9768 15.9922C75.4743 18.7906 76.2036 21.2448 78.1491 23.2921C78.1336 23.2988 78.1202 23.3033 78.1069 23.31C78.0001 23.3547 77.9379 23.3793 77.8779 23.3905C73.8601 24.1705 71.232 26.8415 70.665 30.7149C70.4494 32.1923 70.4672 33.7256 70.4849 35.2075C70.4894 35.6523 70.4961 36.1127 70.4961 36.5642C70.4916 39.0519 72.2037 40.7953 74.6628 40.8065C77.6755 40.8199 80.7016 40.8266 83.6588 40.8266C86.6159 40.8266 89.8043 40.8199 92.8126 40.8042C95.1984 40.7931 96.9082 39.0787 96.9682 36.638C97.0127 34.8097 97.0105 33.301 96.9616 31.8906L96.9593 31.8928ZM92.408 38.3076H81.3264C80.4326 38.3076 79.5388 38.3076 78.6449 38.3076C77.5021 38.3076 76.357 38.3076 75.2142 38.3054C73.6 38.3009 73.0797 37.7846 73.0752 36.1753C73.0752 35.8825 73.073 35.5897 73.0708 35.2969C73.0641 34.1324 73.0575 32.9277 73.093 31.7476C73.1909 28.5245 75.8834 25.8759 79.0963 25.8401C80.6038 25.8245 82.1513 25.8156 83.6944 25.8156C85.2374 25.8156 86.7649 25.8245 88.3191 25.8401C91.6187 25.8737 94.3335 28.6005 94.3713 31.9174C94.3868 33.3837 94.3802 34.8745 94.3713 36.3161V36.3497C94.3646 37.7041 93.8087 38.2719 92.4547 38.3076C92.4391 38.3076 92.4235 38.3076 92.408 38.3076ZM83.701 23.006H83.6832C82.2536 23.0016 80.9062 22.4316 79.8923 21.4034C78.8762 20.3731 78.3203 19.0119 78.3292 17.5725C78.3448 14.6467 80.7994 12.1769 83.6899 12.1769H83.7588C86.6982 12.2171 89.1573 14.7227 89.1284 17.6485C89.0995 20.6033 86.6649 23.006 83.701 23.006Z" />
<path d="M40.0684 9.66016C40.5842 10.0938 41.1201 10.543 41.6092 11.0191C41.8494 11.2538 42.0117 11.7947 41.9472 12.1545C41.8294 12.8184 41.6626 13.4867 41.5003 14.1326C41.3358 14.7942 41.1645 15.4804 41.0445 16.1666C40.9644 16.6248 41.0845 17.4294 41.4625 17.7021C41.6537 17.8384 41.9205 17.8675 42.1117 17.8675C42.4408 17.8675 42.8032 17.7848 43.0567 17.6485C44.1328 17.0785 45.2534 16.3901 46.4852 15.5385C46.7476 15.3575 46.9722 15.2725 47.19 15.2725C47.4079 15.2725 47.6436 15.3597 47.9327 15.5542C49.0066 16.2806 50.1517 16.9936 51.4279 17.7356C51.6992 17.8921 51.9882 17.9748 52.2661 17.9748C52.6174 17.9748 52.9376 17.8429 53.1644 17.606C53.3934 17.3668 53.5113 17.0316 53.4979 16.6672V16.6516L53.4935 16.636C53.3912 16.2046 53.2911 15.7687 53.1955 15.3463C52.9687 14.3427 52.7331 13.3034 52.4351 12.3065C52.2417 11.6606 52.3662 11.2784 52.9132 10.8425C53.4935 10.3799 54.0649 9.88591 54.6185 9.40983C54.9632 9.11256 55.3211 8.80411 55.6747 8.50684L55.688 8.49567C56.1972 8.071 56.8931 7.48763 56.4373 6.7344C56.146 6.25385 55.3967 5.90964 54.8097 5.818C53.6002 5.63025 52.3618 5.59225 51.1989 5.57214C50.5274 5.56096 50.2117 5.34639 50.0005 4.75856C49.4646 3.27444 48.9755 2.08983 48.4619 1.03262C48.2528 0.601246 47.697 0 47.2656 0C47.2523 0 47.2367 0 47.2234 0C46.7387 0.0447023 46.1606 0.5856 45.9249 1.06168C45.6136 1.69198 45.349 2.35357 45.0934 2.99282C44.8488 3.60747 44.5953 4.24001 44.3018 4.84126C44.1551 5.14523 43.6859 5.47379 43.3391 5.5185C42.6876 5.6012 42.0139 5.64143 41.3647 5.67719C40.6709 5.71742 39.9528 5.75765 39.2524 5.85376C38.7566 5.92082 38.0784 6.34549 37.9472 6.79251C37.8094 7.26189 38.2029 7.97712 38.5276 8.29227C39.0212 8.77059 39.5548 9.21984 40.0706 9.65346L40.0684 9.66016ZM49.9493 8.00618C50.434 8.00618 50.9299 8.06429 51.5035 8.13358C51.6925 8.15593 51.8859 8.17828 52.0905 8.20063C51.926 8.34368 51.7725 8.48002 51.6258 8.60966C51.1611 9.01868 50.7609 9.37183 50.3473 9.69816C49.6492 10.248 49.4424 10.8895 49.6914 11.7165C49.8493 12.2372 49.9649 12.7849 50.0783 13.3123C50.1228 13.518 50.1672 13.7236 50.2139 13.9292L50.1761 13.9605C50.0071 13.8577 49.8359 13.7571 49.667 13.6543C49.2223 13.3906 48.762 13.1179 48.3351 12.8184C47.9505 12.5479 47.5791 12.4161 47.2012 12.4161C46.8187 12.4161 46.4385 12.5524 46.0339 12.8296C45.6181 13.1179 45.1778 13.3772 44.6687 13.6767C44.5108 13.7683 44.3485 13.8644 44.1751 13.9672C44.2129 13.7974 44.2462 13.6342 44.2796 13.4755C44.3863 12.957 44.4797 12.5077 44.6242 12.0853C45.0044 10.9655 44.7398 10.134 43.7949 9.46794C43.4302 9.2109 43.09 8.90246 42.6965 8.54261C42.5698 8.42861 42.443 8.31239 42.3052 8.18946C42.5208 8.16934 42.7254 8.14699 42.9211 8.12687C43.5369 8.06206 44.0661 8.00841 44.5909 7.99724C45.4269 7.97936 45.9583 7.61503 46.2629 6.84392C46.4652 6.32761 46.6831 5.80906 46.9344 5.21005C47.0144 5.01783 47.0989 4.81444 47.19 4.59986C47.2768 4.79655 47.359 4.98207 47.4369 5.15864C47.6837 5.71519 47.8971 6.19574 48.0661 6.68076C48.3818 7.58374 48.9732 8.00394 49.9271 8.00394H49.956L49.9493 8.00618Z" />
</svg>
