<svg width="79" height="85" viewBox="0 0 79 85"  xmlns="http://www.w3.org/2000/svg">
<path d="M77.5613 34.1834C74.5196 18.7248 65.0687 8.45043 49.4667 3.64714C46.7568 2.81347 46.6789 2.95481 45.3701 5.30627L45.3414 5.35953C45.3188 5.40049 45.2984 5.44146 45.2758 5.48242C45.2533 5.52544 45.2308 5.56845 45.2062 5.61147C44.7146 6.48405 44.3131 7.2112 43.9731 7.82979C42.7291 10.0911 41.016 11.9442 38.8339 13.3889C38.33 13.7228 37.7483 14.1079 37.0703 14.5646C35.194 15.8285 33.8196 17.5388 32.9819 19.6486C32.7647 20.1975 32.5353 20.7444 32.308 21.2913C31.8 22.508 31.2756 23.7657 30.8741 25.0418C30.2187 27.1372 29.1085 28.5075 27.3838 29.3535C26.8943 29.5931 26.4416 29.9209 26.0053 30.2383C25.8271 30.3674 25.6509 30.4964 25.4707 30.6193C23.281 32.1146 21.8267 34.1465 21.1447 36.6537C20.9357 37.4259 20.735 38.2001 20.5363 38.9764C20.1369 40.5311 19.7231 42.139 19.2254 43.6896C18.7235 45.2545 18.1746 46.3586 17.4987 47.1656C15.0448 50.0967 12.4741 53.0135 9.98749 55.8341C9.10467 56.8357 8.22184 57.8373 7.35131 58.8348C7.35131 58.8348 7.34517 58.8369 7.34107 58.8389C2.52958 50.4859 1.4788 40.2157 4.455 30.6439C7.43324 21.0742 14.0882 13.2312 22.7239 9.11204L22.8386 9.24313C24.8214 11.5393 27.6993 12.1005 30.1716 10.6749C32.5722 9.29024 33.6312 6.39392 32.6889 3.79052C31.757 1.21579 29.0757 -0.381897 26.4518 0.0789731C23.5596 0.584907 21.624 2.91998 21.6362 5.89004C21.6362 6.36525 21.4212 6.482 21.0934 6.6602L20.9869 6.71756C8.01087 13.9809 0.972864 25.0213 0.0716057 39.5254C-0.903391 55.2011 8.15425 70.2439 22.6071 76.9522C23.9734 77.5872 24.4199 77.4499 25.2536 76.141C25.7697 75.334 26.29 74.529 26.8123 73.724C28.0618 71.7986 29.3522 69.8077 30.5321 67.7962C31.3903 66.3296 32.6418 65.2829 34.4628 64.5066C37.0088 66.3071 38.5328 66.2293 41.1423 64.1605C42.2136 65.1703 43.6515 65.666 45.0136 65.4919C45.9907 65.3669 47.3713 64.8466 48.4548 63.1076C50.5052 64.5763 52.4531 64.4902 54.2474 62.8536C54.2966 62.8946 54.3458 62.9335 54.3949 62.9745C54.5608 63.1097 54.7308 63.251 54.9111 63.376C55.8779 64.0519 57.07 64.2957 58.1822 64.0458C59.2597 63.8041 60.1568 63.1383 60.7078 62.1715C61.8364 60.1949 63.1371 57.528 63.1965 54.4248C63.2006 54.2446 63.2252 54.0664 63.2518 53.8779C63.26 53.8226 63.2682 53.7653 63.2744 53.71C65.0523 53.413 66.2833 52.4646 66.9347 50.8874C67.5553 49.3839 67.371 47.8702 66.3857 46.3872C68.2477 44.4577 68.4832 42.3439 67.0863 40.103C68.94 38.1981 69.1756 36.0883 67.7827 33.827C69.0793 32.3092 69.6016 30.7791 69.2923 29.3985C68.9625 27.9237 67.6987 26.6558 65.6381 25.7321C65.7139 23.5178 65.8225 21.0271 67.7335 18.9685C75.7158 29.9209 77.6044 41.5983 73.3459 53.6772C69.2882 65.1846 60.9618 72.8945 48.5941 76.5937L48.4855 76.4319C48.4057 76.3111 48.3504 76.2271 48.2909 76.1431C46.6093 73.7486 43.7519 72.9231 41.1813 74.0907C38.713 75.2091 37.3386 78.0112 37.9818 80.6064C38.6332 83.2303 40.8986 85 43.5532 85C43.6536 85 43.756 84.998 43.8584 84.9918C46.6503 84.8505 48.8338 82.7407 49.1676 79.8608C49.2229 79.3753 49.4216 79.2422 49.8722 79.107C59.4297 76.2619 67.4959 70.1764 72.5839 61.9708C77.6986 53.7223 79.4683 43.8535 77.5654 34.1793L77.5613 34.1834ZM58.9278 59.4104C58.7373 59.818 58.5387 60.24 58.3215 60.6394C57.9938 61.2416 57.5104 61.4424 56.8877 61.2355C56.263 61.0286 56.0418 60.5841 56.2138 59.8774C56.6194 58.1999 57.0475 56.5059 57.4612 54.8673C57.6087 54.2794 57.7583 53.6936 57.9037 53.1098L60.3637 53.5748C60.3289 55.1766 60.2121 56.8644 59.403 58.4354C59.2371 58.757 59.0794 59.0909 58.9299 59.4125L58.9278 59.4104ZM50.2328 59.7955C50.2676 59.691 50.2962 59.5845 50.327 59.478C50.3905 59.2445 50.4519 59.0253 50.5666 58.8451C51.5826 57.2372 52.0517 55.4019 52.0844 52.8988C52.0988 51.848 52.1848 50.7809 52.2667 49.7465C52.3179 49.1054 52.3712 48.4417 52.4081 47.7883C52.4388 47.2332 52.3036 46.7764 52.0168 46.4651C51.7813 46.209 51.4535 46.0657 51.0705 46.0554C50.2553 46.0329 49.6981 46.6228 49.6224 47.6039C49.5486 48.5544 49.481 49.5048 49.4134 50.4552C49.3151 51.848 49.2127 53.288 49.0918 54.7013C49.0488 55.2114 48.9075 55.7357 48.6965 56.1782C47.9079 57.8312 47.0353 59.5784 46.0296 61.5181C45.9108 61.7455 45.5974 62.3518 45.2881 62.4255C44.7371 62.5566 43.9874 62.6058 43.5389 62.3477C43.2091 62.1572 42.8998 61.3727 43.0063 60.9938C43.3443 59.7976 43.8256 58.6362 44.4381 57.5424C45.2062 56.1679 45.5708 54.6645 45.5503 52.9439C45.538 51.8665 45.5892 50.7665 45.6384 49.7055C45.665 49.1115 45.6937 48.5154 45.7101 47.9214C45.7428 46.7949 45.2615 46.1169 44.3889 46.0575C44.0079 46.0308 43.6741 46.1394 43.418 46.3688C43.078 46.674 42.8855 47.1861 42.8588 47.8477C42.8301 48.5748 42.8097 49.304 42.7871 50.0312C42.7503 51.2745 42.7113 52.5609 42.6417 53.8226C42.611 54.3572 42.4594 54.9451 42.2157 55.4777C41.3287 57.4031 40.3374 59.4698 39.1882 61.7988C38.8687 62.444 38.4386 62.8372 37.9408 62.9356C37.5189 63.0195 37.0764 62.8803 36.6586 62.5361C36.8552 61.9606 37.0498 61.3911 37.2444 60.8217C37.6971 59.4903 38.1252 58.2347 38.5799 56.9565C39.8212 53.4785 39.9912 49.7997 40.1571 46.2439L40.196 45.4061C40.323 42.7638 40.3517 40.0723 40.3783 37.4689C40.3906 36.285 40.4029 35.101 40.4234 33.9192C40.4234 33.8024 40.4357 33.6857 40.4459 33.5361C40.45 33.487 40.4541 33.4317 40.4582 33.3743C40.9129 33.3743 41.3656 33.3764 41.8162 33.3784C42.8895 33.3825 43.9997 33.3886 45.0874 33.3682C47.2627 33.3272 48.9751 32.0204 49.5548 29.9577C50.1774 27.7455 49.3909 25.5477 47.5986 24.4867C46.8428 24.0401 45.9456 23.7677 45.1365 23.739C42.7482 23.6592 39.9318 23.5977 37.1543 23.7554C36.3534 23.8005 35.5709 24.0995 34.8151 24.3904C34.5693 24.4846 34.3174 24.5809 34.0695 24.6669C34.1863 24.3535 34.301 24.036 34.4157 23.7165C35.4788 20.769 36.5766 17.7231 39.8355 16.1091C43.7273 14.1837 45.8084 10.7671 47.4798 7.36073C47.8758 6.55369 48.5245 6.28468 49.4257 6.55369L49.4564 6.56189C55.6792 8.41561 62.0126 12.3668 65.6217 16.6437C65.4005 17.0615 65.167 17.4753 64.9396 17.8747C64.3764 18.8661 63.8458 19.8001 63.5017 20.8263C63.1556 21.8566 63.0122 22.932 62.8606 24.0709C62.7992 24.5235 62.7377 24.9926 62.6619 25.4576C60.4846 25.22 58.8643 25.9062 57.8463 27.4936C56.7751 29.165 56.8263 30.9286 57.9979 32.7373C56.1216 34.888 55.9455 36.4427 57.2789 39.044C55.4314 40.949 55.2081 43.0587 56.6153 45.3201C55.3453 46.5695 55.0811 48.0812 55.0811 49.9575C55.0811 54.2855 54.1758 57.782 52.3159 60.6476C51.9062 61.2785 51.4023 61.4587 50.7756 61.2006C50.1672 60.9508 49.9951 60.5063 50.2328 59.7996V59.7955ZM37.5926 26.5227C39.6635 26.4797 41.7712 26.4899 43.8072 26.5002L44.7064 26.5043C46.1197 26.5104 46.9042 27.2273 46.9124 28.5219C46.9206 29.8123 46.1279 30.5599 44.7371 30.5702C43.7806 30.5763 42.8261 30.5763 41.8695 30.5743C40.9908 30.5743 40.112 30.5722 39.2333 30.5763C38.541 30.5804 38.1108 30.7135 37.8364 31.0065C37.5578 31.3035 37.4533 31.7541 37.4984 32.4669C37.9081 39.1321 37.6336 45.9714 36.6832 52.7923C36.4251 54.6481 35.7655 56.4854 35.1264 58.2634C34.8909 58.9229 34.6451 59.603 34.4259 60.2748C34.1289 61.1822 33.4448 61.895 32.4513 62.3334C30.6242 63.1404 29.2068 64.4759 27.9922 66.5324C26.927 68.3349 25.7636 70.1354 24.6391 71.8765C24.1639 72.6118 23.6866 73.3512 23.2094 74.0989C17.2897 71.1739 12.5827 67.0404 8.8261 61.4649L9.39962 60.8012C9.85025 60.2789 10.2968 59.7648 10.7454 59.2507L12.9166 56.7681C15.01 54.3736 17.175 51.8972 19.3176 49.4741C20.6244 47.9952 21.499 46.3504 21.9865 44.4475C22.4392 42.6859 22.9226 40.9019 23.3917 39.1772C23.5514 38.5852 23.7132 37.9933 23.873 37.4013C24.3769 35.5353 25.4502 34.038 27.0643 32.9524C29.9811 30.9921 32.9962 28.9663 36.0687 26.9672C36.4763 26.703 37.058 26.5309 37.5906 26.5207L37.5926 26.5227ZM61.4637 31.709C60.46 31.5636 59.8537 30.7811 59.9561 29.7652C60.0524 28.8148 60.8799 28.1593 61.8897 28.2453C62.918 28.3314 63.9605 28.4502 64.9867 28.5976C65.929 28.7328 66.6049 29.544 66.5271 30.4432C66.4452 31.3874 65.6381 32.1207 64.7205 32.0716C64.3477 32.0306 63.9892 31.9958 63.641 31.961C62.8831 31.8852 62.1683 31.8135 61.4616 31.7111L61.4637 31.709ZM57.8791 48.5789C57.9815 47.6941 58.7701 47.0407 59.6632 47.098C60.8082 47.1677 61.9122 47.2865 62.9466 47.4483C63.8807 47.5957 64.5402 48.4192 64.4521 49.3225C64.36 50.2606 63.5693 50.9058 62.5247 50.9058C62.5103 50.9058 62.496 50.9058 62.4837 50.9058C62.1744 50.869 61.861 50.8362 61.5415 50.8034C60.798 50.7256 60.0278 50.6436 59.2679 50.5228C58.3502 50.3753 57.7664 49.558 57.8811 48.5789H57.8791ZM59.9581 44.2447C59.0876 44.1075 58.469 43.2922 58.5509 42.391C58.6329 41.4836 59.3682 40.8076 60.247 40.8076C60.2818 40.8076 60.3166 40.8076 60.3514 40.8097C61.5272 40.8814 62.6619 41.0084 63.725 41.1886C64.6283 41.3422 65.2203 42.1186 65.1322 43.0383C65.0421 43.9784 64.2903 44.6175 63.26 44.6318C62.9466 44.597 62.6291 44.5642 62.3055 44.5294C61.5374 44.4495 60.7426 44.3676 59.9581 44.2447ZM60.7713 37.9871C59.7963 37.8478 59.1245 36.9978 59.2412 36.0494C59.3518 35.1441 60.1896 34.4599 61.1031 34.5234C62.1171 34.5931 63.1597 34.7098 64.2944 34.8757C65.294 35.0232 65.9187 35.82 65.8143 36.8175C65.718 37.7188 64.913 38.3968 63.9687 38.3497C63.6185 38.3107 63.2764 38.2759 62.9405 38.2411C62.1908 38.1633 61.48 38.0895 60.7713 37.9892V37.9871ZM27.3347 8.58767H27.3326C25.7226 8.58767 24.4568 7.3341 24.4506 5.73232C24.4445 4.15102 25.7329 2.85853 27.3183 2.85034H27.3306C28.0905 2.85034 28.8135 3.15144 29.3645 3.69834C29.9135 4.24524 30.2187 4.9601 30.2207 5.71388C30.2228 6.46971 29.9258 7.18662 29.383 7.73147C28.834 8.28247 28.1069 8.58562 27.3347 8.58767ZM46.4208 79.2504C46.4413 80.8051 45.1345 82.1365 43.5696 82.159C42.0088 82.1897 40.663 80.8829 40.6385 79.3241C40.6262 78.5744 40.917 77.8555 41.4578 77.3024C42.0047 76.7412 42.7277 76.4299 43.4938 76.4217H43.5184C45.0997 76.4217 46.4004 77.6855 46.4208 79.2483V79.2504Z" />
</svg>
