<svg width="182" height="90" viewBox="0 0 182 90" fill="none" xmlns="http://www.w3.org/2000/svg">
<path d="M85.6482 89.5104L85.7003 89.5252C85.7746 89.3653 85.7151 89.4248 85.6482 89.5104Z" fill="url(#paint0_linear_63_415)"/>
<path d="M0.0280907 24.5309C0.0429669 25.8699 0.269829 27.1978 0.749588 28.4588C2.11076 32.0705 5.32031 34.7821 8.91292 36.1844C12.5092 37.5941 16.4663 37.8173 20.3193 37.5755C17.701 37.5941 15.0494 37.4602 12.539 36.7052C10.0324 35.9538 7.65588 34.5255 6.16082 32.3718C3.04425 27.8711 3.42731 19.5503 5.60668 15.6596C7.59637 12.1185 10.9696 10.5339 14.9266 9.71563C16.5742 12.1631 17.9168 14.8152 19.0734 17.5677C20.6503 21.1572 22.1342 24.7875 23.592 28.4364C31.257 47.3656 42.0832 65.3015 57.9338 78.3648C58.3355 78.6922 58.7371 79.0083 59.1462 79.3133C66.9376 85.1792 77.2022 90.2081 87.1916 88.75C88.1511 88.6124 89.0028 88.2888 89.9214 88.0284C86.7974 88.9211 83.3945 88.6793 80.3374 87.7271C74.2084 85.8152 68.8455 81.8352 65.5095 76.4455C62.4897 71.6844 60.6376 66.2389 58.54 61.0017C55.0924 52.3945 50.3506 43.3186 41.6815 39.0002C40.4914 38.4311 39.2455 37.9698 37.9736 37.676C38.7546 37.6574 39.5319 37.5941 40.3018 37.4788C45.6163 36.7052 51.035 33.3129 52.0763 27.7148C53.9842 19.7809 48.4019 11.6498 40.6774 9.64868C36.8579 8.61091 31.112 8.61835 27.1884 8.61835C23.2053 8.61835 21.0854 8.57743 17.2139 8.81177C17.0577 8.81921 16.8977 8.83036 16.7378 8.84152C15.0717 7.03379 13.1117 5.31533 11.1741 3.87584C9.03193 2.26896 6.65917 0.9671 4.17484 0C6.51785 1.19028 8.68234 2.71904 10.5716 4.54537C12.0555 5.94022 13.3498 7.46527 14.5027 9.09446C13.0708 9.31391 11.665 9.65984 10.315 10.188C7.37323 11.3337 4.78105 12.7992 2.91408 15.3471C1.08802 17.8355 -0.00538081 21.4808 0.0280907 24.5309ZM85.6482 88.7649C85.7152 88.6793 85.7747 88.6198 85.7003 88.7797L85.6482 88.7649ZM17.2064 9.35483C18.1064 9.25068 19.0064 9.18745 19.8879 9.13909C20.5275 9.10561 21.1672 9.07958 21.8032 9.05726C25.9536 8.9122 30.7847 9.02378 34.2583 9.38087C35.7385 9.53337 37.2075 9.8607 38.617 10.3331C40.2199 10.8687 41.7968 11.661 43.0687 12.7843C46.6874 15.9869 47.9779 21.0865 47.8961 25.7732C47.844 28.8754 46.9812 32.0891 44.6084 34.1981C42.4365 36.1249 39.5579 37.1478 36.7054 37.4379L36.0881 37.5011C36.2703 37.5495 36.4563 37.5904 36.6385 37.6611C36.8096 37.7318 36.9769 37.8173 37.1443 37.9029C37.6873 38.193 38.2154 38.5054 38.736 38.8328C39.253 39.1638 39.7588 39.5135 40.2497 39.878C40.7443 40.2425 41.2241 40.6293 41.6927 41.0273C42.1613 41.4253 42.6113 41.8419 43.0539 42.266C43.4964 42.6937 43.9167 43.1326 44.3332 43.5827C51.0796 50.8843 54.0697 60.4661 58.2313 69.3187C61.6157 76.6017 66.4728 82.5903 74.5208 86.548C68.6224 84.1302 62.9285 79.9271 58.2983 75.5342C46.4717 64.4237 37.5943 50.6165 31.1157 35.8422C30.4165 34.2056 29.4942 32.1523 28.8508 30.5008C26.7904 25.6765 24.916 20.6067 22.1081 16.0613C20.654 13.744 19.185 11.6201 17.3849 9.55197C17.3291 9.48874 17.2696 9.42178 17.2139 9.35483H17.2064Z" fill="url(#paint1_linear_63_415)"/>
<path d="M79.3485 45.7983C79.295 49.2302 79.1236 49.682 79.1236 51.4786C75.82 51.3657 74.2512 51.3119 71.3974 51.3119H68.2597C66.5249 51.3119 64.8437 51.3657 64.1155 51.4248V51.1989C66.3 50.9192 66.3536 49.8488 66.3536 42.3127V29.263C66.3536 22.5661 66.2411 22.0067 64.1155 21.614V21.3881C65.0097 21.4419 66.9158 21.501 69.0415 21.501C74.1923 21.501 76.2644 21.501 78.9523 21.3343C78.9523 21.3343 79.0058 22.2326 79.0058 23.4698C79.0058 24.5402 78.9523 26.1701 78.8934 26.7887H78.5561C78.5561 23.1901 77.0997 22.9641 72.9555 22.9641C71.724 22.9641 70.546 23.0179 70.0427 23.1901V35.1746H72.0024C75.1936 35.1746 75.8093 34.6098 76.2591 31.6298H76.5375C76.484 32.867 76.4251 34.2172 76.4251 35.9062C76.4251 38.1009 76.4786 38.3806 76.5375 39.7899H76.2591C75.8682 37.2563 75.2525 36.6378 72.0024 36.6378H70.0427V49.6336C70.4336 49.7466 71.6651 49.8595 73.009 49.8595C77.3192 49.8595 78.4437 49.8057 79.0005 45.8091H79.3378L79.3485 45.7983ZM69.9945 18.8491L69.3788 18.3435L75.4292 9.79077L77.3353 12.0392L69.9999 18.8491H69.9945Z" fill="#1A1A1A"/>
<path d="M106.115 44.1092C106.061 44.9537 105.89 46.6428 105.89 47.4281C105.89 47.9929 105.89 48.6653 105.944 49.1709C102.865 51.0859 100.064 51.8712 97.1517 51.8712C89.0292 51.8712 83.9373 44.2222 83.9373 36.3418C83.9373 28.4615 88.8097 20.6457 96.9857 20.6457C100.402 20.6457 103.481 21.9421 105.944 22.7274C105.89 23.7978 105.831 25.4277 105.831 26.7241C105.831 27.4018 105.885 28.5798 105.885 28.8595H105.606C104.932 24.4164 101.125 21.8829 97.0928 21.8829C92.2204 21.8829 88.301 26.1001 88.301 36.5086C88.301 46.9171 92.6112 50.5749 97.5961 50.5749C100.734 50.5749 104.653 48.3802 105.826 44.1038H106.104L106.115 44.1092Z" fill="#1A1A1A"/>
<path d="M119.72 51.4194C118.767 51.3656 117.198 51.3065 115.635 51.3065C113.954 51.3065 112.556 51.3602 111.55 51.4194V51.1935C113.343 50.8546 113.788 50.5749 113.788 46.0726V26.7187C113.788 22.2164 113.338 21.9367 111.55 21.5978V21.3719C112.556 21.4257 113.959 21.4848 115.635 21.4848C117.204 21.4848 118.773 21.4311 119.72 21.3719V21.5978C117.927 21.9367 117.482 22.2164 117.482 26.7187V46.0726C117.482 50.5749 117.932 50.8546 119.72 51.1935V51.4194Z" fill="#1A1A1A"/>
<path d="M136.576 51.4195C135.794 51.3657 134.225 51.3065 132.935 51.3065C131.537 51.3065 130.022 51.3603 129.24 51.4195V51.0806C130.975 50.7417 131.034 50.2361 131.034 42.9259V23.0663C126.108 23.0663 124.876 23.0663 123.923 25.7129H123.586C123.811 24.0238 124.089 22.7866 124.368 20.1455H124.705C125.208 21.4419 125.824 21.4957 132.431 21.4957C140.104 21.4957 140.886 21.4419 141.898 20.4844H142.235C142.069 21.2159 141.619 24.3089 141.56 25.2126H141.223C141.223 23.0771 140.104 23.0771 134.728 23.0771V42.9367C134.728 50.2522 134.782 50.7578 136.576 51.0913V51.4302V51.4195Z" fill="#1A1A1A"/>
<path d="M163.508 51.4194C162.892 51.4194 160.708 51.3065 159.251 51.3065C157.682 51.3065 155.332 51.4194 154.657 51.4194V51.1397C156.28 50.9138 156.895 50.4619 156.895 49.2839C156.895 48.4394 156.617 47.256 156.114 45.3464L154.716 40.1718C154.042 40.118 152.698 40.118 151.413 40.118C150.128 40.118 148.725 40.118 148.05 40.1718L146.872 44.2222C146.256 46.3577 145.807 47.9338 145.807 49.058C145.807 50.2414 146.481 50.973 148.045 51.1397V51.4194C147.37 51.4194 146.026 51.3065 144.291 51.3065C142.947 51.3065 141.491 51.4194 140.875 51.4194V51.1397C142.61 50.747 143.617 50.4619 145.801 43.2056L152.521 20.5919H153.083L160.531 47.5949C161.313 50.4081 161.821 50.8008 163.497 51.1397V51.4194H163.508ZM151.525 28.015L148.5 38.5903C149.062 38.6441 150.01 38.6441 151.413 38.6441C152.815 38.6441 153.763 38.6441 154.325 38.5903L151.525 28.015Z" fill="#1A1A1A"/>
<path d="M181.595 45.7983C181.595 49.2302 181.429 49.682 181.429 51.4787C177.622 51.3657 176.165 51.3119 173.199 51.3119C170.961 51.3119 167.765 51.3657 166.87 51.4249V51.1989C169.055 50.9192 169.108 49.2302 169.108 46.0243V25.885C169.108 22.792 168.718 21.8346 166.87 21.5548V21.3289C167.652 21.3827 169.783 21.4957 171.127 21.4957C172.359 21.4957 174.377 21.3827 175.105 21.3289V21.5548C173.595 21.7808 172.808 21.8937 172.808 25.885V49.6229C173.199 49.7358 174.099 49.8488 175.443 49.8488C179.421 49.8488 180.428 49.795 181.268 45.7983H181.605H181.595Z" fill="#1A1A1A"/>
<path d="M38.4179 65.0608H40.1528C41.7323 65.0608 42.4391 65.8784 42.4391 67.5674V68.2614C42.4391 69.832 42.0482 71.08 40.0778 71.08H39.2318V76.2493H38.4126V65.0554L38.4179 65.0608ZM39.2372 70.3592H40.0296C41.4271 70.3592 41.6091 69.477 41.6091 68.2667V67.632C41.6091 66.6638 41.3789 65.787 40.0992 65.787H39.2372V70.3646V70.3592Z" fill="#404040"/>
<path d="M54.5721 70.8756V76.2547H53.7529V65.0608H55.4021C57.0619 65.0608 57.7633 65.8139 57.7633 67.5513V68.1215C57.7633 69.5039 57.351 70.257 56.6282 70.4937C57.3724 70.725 57.6723 71.3059 57.6723 72.7905C57.6723 73.7588 57.6562 75.5285 57.7847 76.2547H56.9762C56.8424 75.5446 56.8584 73.6297 56.8584 72.8658C56.8584 71.3543 56.6336 70.8756 55.461 70.8756H54.5721ZM54.5721 70.1494H55.5306C56.6925 70.1494 56.928 69.3479 56.928 68.1645V67.589C56.928 66.4593 56.58 65.787 55.3699 65.787H54.5721V70.1494Z" fill="#404040"/>
<path d="M73.4623 67.6589V73.5866C73.4623 75.4317 72.7234 76.3945 71.2242 76.3945C69.559 76.3945 69.0557 75.2434 69.0557 73.592V67.675C69.0557 65.943 69.7678 64.9263 71.283 64.9263C72.9001 64.9263 73.4623 66.1581 73.4623 67.6643V67.6589ZM69.8909 67.6804V73.6135C69.8909 75.0982 70.4317 75.6415 71.267 75.6415C72.1023 75.6415 72.627 75.1035 72.627 73.5382V67.6912C72.627 66.298 72.129 65.674 71.2509 65.674C70.3193 65.674 69.8909 66.2765 69.8909 67.6804Z" fill="#404040"/>
<path d="M85.0005 65.0608H86.7728C89.209 65.0608 89.3268 66.7391 89.3268 68.3098V72.8174C89.3268 74.5387 89.0805 76.2547 86.6496 76.2547H85.0005V65.0608ZM85.8197 75.5177H86.5747C88.0739 75.5177 88.4915 74.727 88.4915 73.0487V68.1591C88.4915 66.6853 88.2238 65.7977 86.6014 65.7977H85.8197V75.5177Z" fill="#404040"/>
<path d="M101.588 65.0608V73.8879C101.588 74.8884 101.947 75.6307 102.905 75.6307C103.864 75.6307 104.217 74.9852 104.217 73.904V65.0662H105.047V73.861C105.047 75.5661 104.287 76.3999 102.884 76.3999C101.481 76.3999 100.769 75.593 100.769 73.904V65.0715H101.588V65.0608Z" fill="#404040"/>
<path d="M120.639 73.1348V73.4737C120.639 74.996 120.355 76.3892 118.572 76.3892C116.789 76.3892 116.479 74.9583 116.479 73.3607V67.632C116.479 65.7978 117.234 64.9156 118.578 64.9156C120.296 64.9156 120.586 66.2119 120.586 67.6159V68.0086H119.74V67.6051C119.74 66.6208 119.627 65.6687 118.551 65.6687C117.544 65.6687 117.319 66.5078 117.319 67.6482V73.3823C117.319 74.7754 117.635 75.6307 118.594 75.6307C119.632 75.6307 119.788 74.6894 119.788 73.4845V73.1241H120.639V73.1348Z" fill="#404040"/>
<path d="M133.013 65.8192H131.203V65.0608H135.62V65.8192H133.832V76.2547H133.013V65.8192Z" fill="#404040"/>
<path d="M147.293 65.0608V76.2547H146.474V65.0608H147.293Z" fill="#404040"/>
<path d="M163.195 67.6589V73.5866C163.195 75.4317 162.456 76.3945 160.951 76.3945C159.286 76.3945 158.783 75.2434 158.783 73.592V67.675C158.783 65.943 159.495 64.9263 161.016 64.9263C162.633 64.9263 163.195 66.1581 163.195 67.6643V67.6589ZM159.624 67.6804V73.6135C159.624 75.0982 160.164 75.6415 161 75.6415C161.835 75.6415 162.365 75.1035 162.365 73.5382V67.6912C162.365 66.298 161.867 65.674 160.989 65.674C160.057 65.674 159.629 66.2765 159.629 67.6804H159.624Z" fill="#404040"/>
<path d="M174.739 76.2547V65.0608H175.756C176.463 67.4706 178.166 73.5759 178.391 74.7108H178.423C178.369 73.1186 178.337 71.5426 178.337 69.7298V65.0608H179.13V76.2547H178.139C177.379 73.6243 175.703 67.4545 175.424 66.2711H175.408C175.478 67.6159 175.531 69.59 175.531 71.6125V76.2547H174.734H174.739Z" fill="#404040"/>
<defs>
<linearGradient id="paint0_linear_63_415" x1="85.7664" y1="89.3223" x2="85.6558" y2="89.752" gradientUnits="userSpaceOnUse">
<stop offset="0.2" stop-color="#BDA66B"/>
<stop offset="0.435" stop-color="#FFE7AB"/>
<stop offset="0.63" stop-color="#BDA66B"/>
<stop offset="1" stop-color="#574D31"/>
</linearGradient>
<linearGradient id="paint1_linear_63_415" x1="122.909" y1="-91.2112" x2="37.5376" y2="296.858" gradientUnits="userSpaceOnUse">
<stop offset="0.2" stop-color="#BDA66B"/>
<stop offset="0.435" stop-color="#FFE7AB"/>
<stop offset="0.63" stop-color="#BDA66B"/>
<stop offset="1" stop-color="#574D31"/>
</linearGradient>
</defs>
</svg>
