<svg width="160" height="82" viewBox="0 0 160 82" fill="none" xmlns="http://www.w3.org/2000/svg">
<g opacity="0.4">
<path d="M92.2592 8.01254C92.0173 8.13382 91.9371 8.37157 91.8075 8.5673C90.9535 9.84252 90.0982 11.1165 89.2723 12.405C89.0718 12.7172 88.846 12.8505 88.4477 12.824C87.9172 12.7892 87.3211 12.9237 86.8694 12.7472C86.407 12.5659 86.264 11.9895 85.9887 11.5836C85.2938 10.5594 84.6189 9.52432 83.9306 8.49645C83.8117 8.31994 83.7328 8.1134 83.4281 7.90807V8.51686C83.4281 11.3027 83.4281 14.0885 83.4281 16.8743C83.4281 17.5107 83.4228 17.5143 82.7492 17.5179C82.0276 17.5215 81.3059 17.5179 80.5843 17.5131C80.5321 17.5131 80.4813 17.4914 80.4279 17.4782C80.2849 17.2825 80.3424 17.0604 80.3424 16.849C80.3383 12.7424 80.3397 8.63574 80.3397 4.52789C80.3397 4.3838 80.3424 4.23971 80.345 4.09562C80.349 3.92631 80.4346 3.83505 80.6364 3.83625C81.7322 3.83865 82.8281 3.84105 83.9226 3.83505C84.2768 3.83265 84.3369 4.09802 84.4639 4.29254C85.4368 5.7827 86.4003 7.27767 87.3666 8.77023C87.5136 8.99718 87.6659 9.22292 87.8196 9.45587C88.115 9.39703 88.1577 9.15808 88.2687 8.98877C89.283 7.43737 90.3013 5.88717 91.285 4.32016C91.5121 3.95873 91.7554 3.80503 92.2245 3.82544C93.0504 3.86147 93.8803 3.83625 94.7089 3.83505C95.5468 3.83505 95.4626 3.79903 95.4626 4.55551C95.4639 5.99644 95.4626 7.43737 95.4626 8.8783C95.4626 11.544 95.4626 14.2097 95.4626 16.8755C95.4626 17.5095 95.4572 17.5131 94.7824 17.5167C94.1943 17.5203 93.6063 17.5203 93.0183 17.5167C92.3888 17.5119 92.3821 17.5095 92.3808 16.9115C92.3768 15.5186 92.3808 14.1257 92.3808 12.7328C92.3808 11.2919 92.3835 9.85093 92.3768 8.41C92.3768 8.27911 92.4543 8.11941 92.2592 8.01254Z" fill="#24252D"/>
<path d="M66.6012 31.2367C66.5852 35.2977 63.0784 38.4209 58.536 38.4185C53.9614 38.4161 50.4359 35.2557 50.4506 31.1707C50.4653 27.0616 53.9654 23.9576 58.5694 23.9696C63.1666 23.9816 66.6173 27.1036 66.5999 31.2367H66.6012ZM63.4139 31.053C63.4419 30.6639 63.3484 30.1668 63.188 29.6829C62.5639 27.8001 60.7945 26.5981 58.6175 26.5717C56.3803 26.5453 54.5868 27.698 53.9106 29.6073C53.6139 30.4442 53.5618 31.2895 53.7382 32.1613C54.3008 34.9303 57.3639 36.5165 60.2893 35.5343C62.2111 34.8895 63.4179 33.2048 63.4139 31.0518V31.053Z" fill="#24252D"/>
<path d="M50.2019 10.653C50.2019 8.5625 50.1992 6.47315 50.2032 4.3826C50.2032 3.84586 50.2139 3.83865 50.822 3.83745C52.693 3.83505 54.5666 3.78222 56.4349 3.85306C59.7813 3.98034 62.362 5.28679 63.689 8.14223C65.568 12.1816 62.6693 16.6833 57.8155 17.3858C57.1807 17.477 56.5445 17.5263 55.9004 17.5227C54.1898 17.5131 52.4792 17.5227 50.7685 17.5179C50.2166 17.5167 50.2046 17.5071 50.2032 16.9967C50.1992 14.8822 50.2019 12.7688 50.2019 10.6542V10.653ZM53.2783 10.6663C53.2783 11.9643 53.285 13.2623 53.273 14.5592C53.2703 14.8582 53.3598 15.0022 53.7193 14.9854C54.1457 14.9662 54.5747 14.9854 55.0023 14.9806C55.8028 14.971 56.61 15.0407 57.3998 14.8714C59.8201 14.3514 61.218 12.4914 61.0563 10.4021C60.8785 8.1038 59.065 6.50917 56.5539 6.3939C55.6465 6.35307 54.7364 6.37469 53.8276 6.37949C53.2904 6.38309 53.2823 6.3939 53.2797 6.91744C53.2743 8.16744 53.2783 9.41625 53.2783 10.6663Z" fill="#24252D"/>
<path d="M1.78636 31.1527C1.78636 29.0645 1.78369 26.9764 1.7877 24.8882C1.7877 24.3443 1.79839 24.3359 2.40646 24.3347C4.22266 24.3311 6.03885 24.3178 7.85504 24.3419C9.6004 24.3659 11.2522 24.7381 12.6728 25.6831C15.204 27.3654 16.2731 29.6457 15.7105 32.4231C15.1572 35.15 13.2355 36.8671 10.3261 37.6993C9.58838 37.9106 8.81993 38.0139 8.03947 38.0139C6.16982 38.0139 4.30017 38.0187 2.43052 38.0163C1.79706 38.0163 1.79037 38.0079 1.78904 37.4171C1.78636 35.3289 1.78904 33.2408 1.78904 31.1527H1.78636ZM4.86815 31.1923C4.86815 32.4639 4.87884 33.7367 4.86146 35.0083C4.85612 35.371 4.96303 35.5319 5.39737 35.5139C6.46249 35.4682 7.53296 35.5751 8.59675 35.437C11.1052 35.1116 12.8011 33.2384 12.6755 30.9293C12.5552 28.6983 10.6107 26.968 8.11564 26.8923C7.20821 26.8647 6.29945 26.9019 5.39202 26.8755C4.96036 26.8635 4.85344 27.0112 4.86013 27.3762C4.88151 28.6478 4.86815 29.9195 4.86815 31.1923Z" fill="#24252D"/>
<path d="M84.5441 31.1346C84.5441 29.0441 84.5441 26.9536 84.5454 24.863C84.5454 24.6096 84.4599 24.3167 84.949 24.3299C87.2717 24.3887 89.6024 24.1978 91.9198 24.4499C95.0857 24.7934 97.6744 26.8815 98.388 29.6241C99.377 33.4233 96.6761 37.1217 92.3728 37.8554C91.8209 37.949 91.2676 38.0187 90.7023 38.0163C88.8847 38.0115 87.0659 38.0175 85.2484 38.0175C84.508 38.0175 84.5454 38.0835 84.5454 37.4051C84.5454 35.3145 84.5454 33.224 84.5454 31.1334L84.5441 31.1346ZM87.6192 31.1503C87.6192 32.4459 87.6205 33.7415 87.6178 35.0372C87.6178 35.2905 87.6045 35.5223 88.0147 35.5091C89.1601 35.4718 90.3107 35.5847 91.452 35.4226C93.5729 35.1224 95.488 33.547 95.4172 31.041C95.3517 28.7547 93.4473 27.004 90.9843 26.8983C90.0247 26.8575 89.0625 26.8995 88.1016 26.8755C87.7034 26.8647 87.6085 27.0016 87.6125 27.3354C87.6299 28.607 87.6192 29.8786 87.6192 31.1503Z" fill="#24252D"/>
<path d="M46.0057 30.7468C46.13 30.9185 46.3452 30.9773 46.5243 31.0746C49.1182 32.4927 48.8002 35.8645 46.5416 37.1409C45.5647 37.6933 44.4889 37.9647 43.3543 37.9935C41.7252 38.0343 40.0934 38.0163 38.4643 38.0151C37.9057 38.0151 37.895 38.0031 37.8937 37.4963C37.8896 34.9975 37.8923 32.4999 37.8923 30.0011C37.8923 28.296 37.8896 26.5897 37.8937 24.8846C37.895 24.3431 37.9057 24.3239 38.5151 24.3347C40.223 24.3647 41.9363 24.2362 43.6403 24.4355C44.2283 24.504 44.7856 24.6601 45.3215 24.8858C47.9168 25.9785 48.1373 29.1245 46.2556 30.4862C46.1567 30.5583 46.0391 30.6195 46.0057 30.7456V30.7468ZM40.9781 33.8496C40.9781 34.3539 40.9794 34.8582 40.9781 35.3626C40.9781 35.5475 41.0169 35.7108 41.2708 35.7024C42.0954 35.676 42.9306 35.8105 43.7432 35.6039C44.7268 35.353 45.2279 34.6937 45.1718 33.7679C45.117 32.8554 44.5156 32.2129 43.5079 32.1097C42.7943 32.0364 42.0673 32.0737 41.347 32.058C41.0717 32.052 40.9728 32.1721 40.9768 32.4099C40.9861 32.8902 40.9795 33.3705 40.9795 33.8508L40.9781 33.8496ZM40.9781 28.254C41.0489 28.6707 40.8458 29.2014 41.0904 29.7045C41.7519 29.779 42.4134 29.8018 43.0656 29.6601C43.8781 29.4848 44.2951 28.9781 44.3004 28.1976C44.3058 27.4195 43.8888 26.9259 43.075 26.729C42.4976 26.5885 41.9109 26.6654 41.3283 26.6438C41.0342 26.6329 40.9741 26.789 40.9768 27.0088C40.9808 27.3918 40.9768 27.7737 40.9768 28.254H40.9781Z" fill="#24252D"/>
<path d="M77.5237 31.9956C79.098 34.0009 80.6215 35.9401 82.137 37.871C82.0061 38.1111 81.7936 38.0115 81.6319 38.0139C80.83 38.0247 80.0268 37.9911 79.2277 38.0295C78.7599 38.0523 78.51 37.8878 78.2668 37.5492C77.1816 36.0362 76.0684 34.5388 74.9565 33.0403C74.8135 32.8481 74.7413 32.554 74.4433 32.5263C74.0196 32.4879 73.588 32.4987 73.163 32.5239C72.9478 32.5371 72.9946 32.7341 72.9933 32.8686C72.9893 33.6611 72.9906 34.4536 72.9906 35.2473C72.9906 36.0158 72.9772 36.7855 72.9973 37.5528C73.0053 37.8782 72.9238 38.0379 72.5148 38.0247C71.7945 38.0007 71.0715 38.0055 70.3498 38.0235C70.001 38.0319 69.866 37.919 69.8874 37.6092C69.9061 37.3462 69.8901 37.0809 69.8901 36.8167C69.8901 32.949 69.8901 29.0813 69.8901 25.2136C69.8901 25.0455 69.8995 24.8774 69.8901 24.7093C69.8727 24.4367 69.997 24.3215 70.3097 24.3299C72.1246 24.3767 73.9435 24.2386 75.757 24.4307C76.3183 24.4908 76.8568 24.624 77.374 24.8246C79.9106 25.8128 80.7926 28.7631 79.1622 30.7744C78.7439 31.2895 78.1732 31.639 77.5264 31.9944L77.5237 31.9956ZM72.9906 28.3548C72.9906 28.8592 72.9906 29.3623 72.9906 29.8666C72.9906 30.0527 73.0307 30.204 73.2926 30.1932C73.9835 30.1644 74.6812 30.2725 75.3654 30.1092C76.2902 29.8882 76.758 29.3227 76.7633 28.4149C76.7687 27.5251 76.2809 26.9451 75.3534 26.7314C74.6678 26.5741 73.9715 26.6666 73.2793 26.6474C73.0146 26.6401 72.9906 26.8071 72.9906 26.986C72.9906 27.4423 72.9906 27.8986 72.9906 28.3537V28.3548Z" fill="#24252D"/>
<path d="M128.503 38.0187C127.579 38.0187 126.672 38.0043 125.766 38.0259C125.429 38.0343 125.295 37.8902 125.195 37.6428C124.833 36.7399 124.443 35.8465 124.103 34.9363C123.971 34.5809 123.774 34.4512 123.356 34.456C121.699 34.4752 120.041 34.474 118.383 34.456C117.972 34.4512 117.758 34.5689 117.623 34.9231C117.286 35.8081 116.888 36.675 116.562 37.5624C116.427 37.9286 116.217 38.0367 115.811 38.0259C114.935 38.0019 114.059 38.0187 113.186 38.0187C113.15 37.7317 113.286 37.5444 113.369 37.3462C115.105 33.2168 116.844 29.0885 118.582 24.9591C118.758 24.5428 119.098 24.3343 119.602 24.3335C120.484 24.3335 121.369 24.3599 122.248 24.3227C122.731 24.3022 122.942 24.4595 123.108 24.8582C124.31 27.7581 125.54 30.6495 126.76 33.5434C127.317 34.8667 127.872 36.1923 128.431 37.5156C128.487 37.65 128.571 37.7761 128.504 38.0187H128.503ZM120.935 27.1469C120.885 27.1505 120.837 27.1529 120.788 27.1565C120.131 28.7787 119.475 30.401 118.81 32.046H122.922C122.242 30.371 121.588 28.7583 120.935 27.1469Z" fill="#24252D"/>
<path d="M47.5145 17.5191C46.4721 17.5191 45.5647 17.5095 44.6572 17.5239C44.3392 17.5287 44.1855 17.4254 44.0799 17.154C43.7191 16.2258 43.3141 15.3108 42.9587 14.3814C42.8344 14.0572 42.6539 13.9384 42.2677 13.9432C40.5838 13.9612 38.8986 13.9588 37.2147 13.9432C36.8392 13.9396 36.6427 14.0332 36.5171 14.3718C36.1777 15.2808 35.7794 16.173 35.4279 17.0784C35.3077 17.3894 35.1473 17.5407 34.7477 17.5275C33.8683 17.4986 32.9863 17.5191 32.1016 17.5191C31.988 17.2981 32.115 17.1348 32.1858 16.9667C33.9525 12.7712 35.7193 8.5757 37.49 4.3802C37.7186 3.83745 37.7252 3.83744 38.4081 3.83624C39.2902 3.83384 40.1722 3.83384 41.0556 3.83624C41.8628 3.83864 41.7278 3.7702 42.0111 4.44023C43.3222 7.53463 44.6185 10.6326 45.9202 13.7306C46.4373 14.9614 46.9572 16.1922 47.5158 17.5191H47.5145ZM41.8053 11.5752C41.1197 9.88814 40.4555 8.25749 39.7285 6.46954C38.9975 8.27911 38.3413 9.90856 37.6678 11.5752H41.8053Z" fill="#24252D"/>
<path d="M0.020929 17.5191C-0.0592561 17.1768 0.110469 16.9691 0.201345 16.7518C1.9133 12.6679 3.62792 8.58531 5.35725 4.50748C5.69269 3.71737 5.5096 3.84465 6.41836 3.83745C7.3004 3.83024 8.18244 3.83265 9.06447 3.83745C9.68457 3.83985 9.68724 3.84345 9.93983 4.44264C11.3377 7.76158 12.7343 11.0805 14.1308 14.4007C14.5545 15.4069 14.9754 16.4132 15.4392 17.5179C14.3767 17.5179 13.4025 17.5155 12.4282 17.5191C12.1489 17.5191 12.0874 17.3438 12.0126 17.1564C11.6491 16.2547 11.2602 15.3613 10.9167 14.4535C10.7764 14.0837 10.5907 13.9288 10.1216 13.9372C8.49248 13.9684 6.86072 13.9696 5.23162 13.9372C4.72913 13.9264 4.53 14.0993 4.38433 14.4967C4.07562 15.3385 3.69073 16.1586 3.38737 17.0027C3.23769 17.417 2.99713 17.5491 2.52538 17.5299C1.69947 17.495 0.872227 17.5203 0.0195926 17.5203L0.020929 17.5191ZM9.73936 11.5824C9.03507 9.85573 8.37488 8.23348 7.65722 6.47195C6.93021 8.2695 6.26868 9.90496 5.58978 11.5824H9.73936Z" fill="#24252D"/>
<path d="M145.436 24.3335C146.455 24.3335 147.417 24.3527 148.378 24.325C148.803 24.313 149.058 24.4391 149.295 24.7561C150.173 25.9317 151.084 27.088 151.984 28.2504C152.151 28.4653 152.324 28.6755 152.507 28.9036C152.914 28.5446 153.169 28.1195 153.475 27.7304C154.246 26.7506 155.015 25.7684 155.758 24.7705C155.989 24.4595 156.232 24.3106 156.665 24.3239C157.645 24.3539 158.627 24.3335 159.608 24.3335C159.683 24.6385 159.456 24.7753 159.329 24.941C157.932 26.759 156.522 28.5674 155.127 30.3854C154.603 31.0674 154.603 30.8332 155.144 31.5405C156.613 33.4581 158.095 35.3686 159.57 37.2838C159.72 37.4783 159.862 37.6789 159.999 37.8674C159.878 38.1063 159.664 38.0127 159.498 38.0151C158.75 38.0259 157.999 37.9851 157.254 38.0319C156.681 38.0679 156.332 37.8998 156.013 37.4651C155.055 36.1647 154.044 34.8943 153.047 33.6166C152.896 33.4233 152.787 33.1952 152.536 33.0499C152.315 33.1471 152.224 33.3513 152.095 33.5182C151.056 34.857 150.011 36.1923 148.999 37.5492C148.729 37.9106 148.435 38.0487 147.954 38.0307C147.007 37.9959 146.055 38.0199 145.073 38.0199C145.124 37.6933 145.331 37.5276 145.475 37.3378C146.988 35.359 148.497 33.3777 150.036 31.4168C150.316 31.0614 150.3 30.826 150.03 30.4802C148.629 28.6947 147.255 26.8923 145.882 25.0899C145.721 24.8798 145.493 24.6961 145.435 24.3359L145.436 24.3335Z" fill="#24252D"/>
<path d="M130.455 29.0417C130.455 27.6488 130.451 26.2559 130.457 24.863C130.459 24.3479 130.469 24.3407 131.022 24.3347C131.69 24.3275 132.358 24.3491 133.025 24.3263C133.402 24.313 133.578 24.4163 133.534 24.7705C133.517 24.9134 133.532 25.0587 133.532 25.2028C133.532 27.6524 133.532 30.102 133.532 32.5516C133.532 32.8878 133.542 33.2216 133.609 33.5554C133.901 35.0336 135.006 35.8489 136.696 35.8189C138.339 35.7888 139.412 34.9423 139.63 33.4858C139.679 33.1543 139.698 32.8157 139.699 32.4807C139.705 30.0311 139.702 27.5815 139.702 25.132C139.702 24.9639 139.706 24.7958 139.703 24.6276C139.701 24.4199 139.806 24.3299 140.044 24.3311C140.846 24.3383 141.648 24.3347 142.448 24.3335C142.678 24.3335 142.793 24.4247 142.789 24.6348C142.786 24.7549 142.79 24.875 142.79 24.9951C142.79 27.5647 142.789 30.1344 142.79 32.704C142.79 33.4053 142.693 34.0969 142.467 34.7646C141.872 36.5297 140.607 37.6933 138.603 38.1808C137.339 38.4882 136.067 38.5086 134.8 38.2252C132.455 37.7005 131.113 36.31 130.622 34.2182C130.495 33.6779 130.447 33.1279 130.453 32.572C130.463 31.3952 130.457 30.2184 130.455 29.0417Z" fill="#24252D"/>
<path d="M30.9402 6.24501C30.141 6.80337 29.3833 7.33291 28.6362 7.85525C28.3315 7.81923 28.2527 7.58147 28.0936 7.43498C26.6904 6.14415 25.0052 5.75629 23.1021 6.25462C21.1964 6.75414 20.1499 7.98973 19.7544 9.69603C19.5673 10.5078 19.61 11.3219 19.8787 12.1192C20.4159 13.7186 21.5572 14.7981 23.3761 15.1752C25.1989 15.5534 26.8173 15.1427 28.1203 13.8855C28.4179 13.5989 28.7462 13.5785 29.1053 13.8243C29.7174 14.2458 30.3254 14.672 30.9308 15.0935C29.0826 17.4783 25.4101 18.4917 22.0664 17.5779C18.7146 16.6617 16.5242 13.9888 16.4815 10.7659C16.4387 7.54905 18.585 4.79087 21.8793 3.82665C25.2524 2.83961 28.9663 3.81104 30.9388 6.24501H30.9402Z" fill="#24252D"/>
<path d="M19.141 31.1395C19.141 29.0729 19.1383 27.0064 19.141 24.9411C19.141 24.3443 19.149 24.3359 19.7865 24.3347C22.3257 24.3311 24.8662 24.3311 27.4054 24.3347C28.0188 24.3347 28.0228 24.3443 28.0322 24.8858C28.0389 25.2941 28.0389 25.7024 28.0322 26.1106C28.0242 26.6342 28.0202 26.6414 27.3974 26.6426C25.9006 26.6462 24.4038 26.6414 22.907 26.645C22.2629 26.6474 22.2575 26.6534 22.2522 27.2417C22.2455 27.9142 22.2482 28.5866 22.2522 29.2602C22.2562 29.9003 22.2589 29.9027 23.0166 29.9039C24.2194 29.9063 25.4235 29.9207 26.6249 29.8955C27.0593 29.8858 27.1769 30.0251 27.1528 30.3902C27.1234 30.8213 27.1515 31.2547 27.1448 31.687C27.1368 32.2009 27.1314 32.2093 26.5808 32.2129C25.3513 32.219 24.1218 32.2154 22.8923 32.2141C22.2014 32.2141 22.2522 32.1925 22.2535 32.8121C22.2535 33.6287 22.2682 34.4464 22.2468 35.2629C22.2375 35.6051 22.3564 35.7204 22.7467 35.7156C24.2702 35.6976 25.7937 35.706 27.3172 35.7096C28.0255 35.7108 28.0282 35.7144 28.0349 36.322C28.0389 36.7303 28.0095 37.1409 28.0429 37.5468C28.0763 37.9466 27.8825 38.0271 27.4816 38.0247C24.8889 38.0127 22.295 38.0211 19.7023 38.0163C19.1557 38.0163 19.145 38.0019 19.1437 37.4819C19.1383 35.3674 19.1423 33.2528 19.1423 31.1395H19.141Z" fill="#24252D"/>
<path d="M115.692 9.49429C115.692 10.0707 115.672 10.6698 115.7 11.2678C115.717 11.6329 115.542 11.7133 115.179 11.7085C113.976 11.6953 112.773 11.7037 111.572 11.7037C110.691 11.7037 110.773 11.6881 110.771 12.3906C110.771 13.1831 110.786 13.9756 110.765 14.7681C110.755 15.1163 110.899 15.2208 111.278 15.2172C112.748 15.2016 114.216 15.2112 115.687 15.2112C115.951 15.2112 116.216 15.2112 116.514 15.2112V17.4866C116.345 17.4987 116.216 17.5167 116.086 17.5167C113.493 17.5179 110.902 17.5203 108.31 17.5167C107.697 17.5167 107.687 17.5071 107.687 16.9691C107.684 12.7664 107.684 8.56249 107.687 4.35978C107.687 3.85065 107.7 3.83865 108.257 3.83745C110.85 3.83264 113.441 3.84585 116.034 3.82544C116.484 3.82184 116.575 3.97914 116.559 4.32976C116.538 4.78486 116.534 5.24355 116.559 5.69865C116.579 6.04087 116.456 6.16214 116.063 6.15374C115.076 6.13213 114.086 6.14653 113.098 6.14653C112.51 6.14653 111.922 6.16334 111.335 6.14053C110.94 6.12492 110.75 6.21258 110.765 6.61123C110.793 7.37853 110.793 8.14823 110.765 8.91672C110.75 9.31778 110.954 9.39943 111.341 9.39463C112.517 9.38262 113.693 9.38622 114.867 9.39343C115.129 9.39463 115.403 9.33459 115.695 9.49429H115.692Z" fill="#24252D"/>
<path d="M67.5528 10.6122C67.5528 8.56969 67.5515 6.52718 67.5528 4.48466C67.5528 3.84345 67.5581 3.83624 68.2223 3.83624C70.7348 3.83384 73.2486 3.83384 75.7611 3.83624C76.3986 3.83624 76.4012 3.84345 76.4066 4.42942C76.4106 4.78966 76.4066 5.14989 76.4066 5.51012C76.4066 6.19816 76.448 6.14413 75.729 6.14533C74.2589 6.14533 72.7889 6.14773 71.3175 6.14533C70.5851 6.14413 70.6239 6.12972 70.6252 6.78054C70.6279 7.50101 70.6426 8.22267 70.6185 8.94314C70.6065 9.29616 70.7615 9.39943 71.1331 9.39583C72.3893 9.38262 73.6455 9.38742 74.9031 9.39222C75.5486 9.39463 75.5513 9.40183 75.5566 9.98541C75.5606 10.3937 75.5339 10.8043 75.5646 11.2102C75.5927 11.5836 75.451 11.7181 75.0261 11.7109C73.85 11.6917 72.6739 11.7037 71.4979 11.7037C70.5023 11.7037 70.6319 11.6665 70.6266 12.4686C70.6225 13.2131 70.6199 13.9588 70.6266 14.7032C70.6319 15.1992 70.6413 15.2076 71.2146 15.21C72.7381 15.2148 74.2616 15.2148 75.7865 15.21C76.44 15.2088 76.4079 15.204 76.4052 15.7551C76.4026 16.2114 76.3879 16.6689 76.4106 17.124C76.4266 17.4518 76.2676 17.5239 75.9348 17.5227C73.3154 17.5131 70.6947 17.5095 68.0753 17.5263C67.6397 17.5287 67.5394 17.3882 67.5421 17.0267C67.5568 14.8882 67.5488 12.7496 67.5488 10.611L67.5528 10.6122Z" fill="#24252D"/>
<path d="M101.895 31.1779C101.895 29.1137 101.893 27.0484 101.895 24.9843C101.895 24.3419 101.9 24.3359 102.567 24.3347C105.078 24.3323 107.589 24.3323 110.1 24.3347C110.742 24.3347 110.744 24.3419 110.751 24.929C110.755 25.2893 110.751 25.6495 110.751 26.0097C110.751 26.693 110.808 26.6437 110.077 26.6437C108.609 26.6437 107.139 26.6413 105.67 26.6437C104.979 26.6449 104.975 26.6497 104.972 27.273C104.968 27.9454 104.968 28.6178 104.972 29.2891C104.976 29.8966 104.98 29.9002 105.687 29.9026C106.889 29.9062 108.092 29.9002 109.293 29.905C109.893 29.9074 109.896 29.9147 109.902 30.4598C109.908 30.8441 109.906 31.2283 109.902 31.6125C109.896 32.2045 109.894 32.2105 109.257 32.2129C108.055 32.2177 106.853 32.2165 105.651 32.2129C104.877 32.2105 104.971 32.2345 104.971 32.8529C104.971 33.6455 104.994 34.438 104.962 35.2293C104.947 35.6195 105.107 35.7168 105.514 35.7132C107.036 35.6964 108.559 35.7048 110.081 35.7072C110.74 35.7084 110.744 35.7132 110.751 36.2812C110.756 36.7615 110.747 37.2418 110.751 37.7221C110.754 37.9334 110.652 38.0271 110.417 38.0175C110.257 38.0103 110.096 38.0175 109.936 38.0175C107.532 38.0175 105.127 38.0187 102.723 38.0175C101.8 38.0175 101.895 38.0943 101.893 37.2994C101.891 35.2593 101.893 33.218 101.893 31.1779H101.895Z" fill="#24252D"/>
<path d="M103.128 10.6915C103.128 12.7796 103.131 14.8666 103.127 16.9547C103.127 17.5071 103.116 17.5131 102.517 17.5179C101.824 17.5239 101.129 17.5107 100.435 17.5227C100.124 17.5275 99.9956 17.4158 100.014 17.142C100.024 16.9991 100.014 16.8538 100.014 16.7097C100.014 12.6787 100.014 8.64775 100.014 4.61675C100.014 4.47266 100.022 4.32856 100.014 4.18447C100.002 3.94672 100.109 3.83264 100.386 3.83504C101.186 3.84225 101.988 3.83985 102.789 3.83624C103.025 3.83624 103.127 3.93591 103.127 4.14124C103.127 4.30935 103.128 4.47746 103.128 4.64557C103.128 6.66167 103.128 8.67656 103.128 10.6927V10.6915Z" fill="#24252D"/>
<path d="M6.53729 63.5567C7.23222 63.5567 7.79085 63.5483 8.35081 63.5591C8.94017 63.5699 9.37584 63.3418 9.69391 62.9083C9.76741 62.8087 9.85027 62.7126 9.91174 62.6069C10.012 62.434 10.1764 62.3307 10.3648 62.4136C10.5465 62.4929 10.4476 62.6646 10.3942 62.7954C10.1095 63.4931 9.8222 64.1896 9.53086 64.886C9.49478 64.9725 9.45068 65.0649 9.38386 65.1322C9.31035 65.2054 9.19676 65.2162 9.08717 65.1826C8.96155 65.1442 8.94952 65.0505 8.95353 64.9508C8.95754 64.8308 8.96556 64.7107 8.96689 64.5906C8.96957 64.2328 8.7397 64.0563 8.37219 64.0467C7.7855 64.0322 7.19748 64.0527 6.60945 64.0491C6.38894 64.0479 6.26065 64.1403 6.19115 64.3168C5.88511 65.0841 5.56036 65.8454 5.28105 66.6199C5.08995 67.1507 5.22626 67.3308 5.82898 67.3896C7.41264 67.5445 8.86132 67.2911 10.0427 66.2369C10.2712 66.0327 10.4877 65.7337 10.9742 65.9571C10.5666 66.5419 10.1697 67.1038 9.78211 67.6718C9.65381 67.8603 9.47607 67.9059 9.24353 67.9059C6.86471 67.9011 4.48722 67.9023 2.1084 67.9011C1.9801 67.9011 1.81171 67.9263 1.77964 67.7763C1.74355 67.6057 1.88922 67.5229 2.0536 67.4761C2.10439 67.4616 2.15651 67.4448 2.20863 67.4424C3.34057 67.3704 3.86579 66.7124 4.21192 65.831C4.69971 64.5882 5.23695 63.361 5.7488 62.1254C5.83166 61.9237 5.89714 61.7148 5.96129 61.5082C6.21922 60.6833 6.17244 60.6052 5.2717 60.3002C5.13806 60.2546 4.92022 60.2726 4.94561 60.0601C4.96699 59.8812 5.12202 59.8391 5.29575 59.8391C7.53425 59.8391 9.77409 59.8391 12.0407 59.8391C12.0473 60.4623 11.8602 60.9895 11.7547 61.5274C11.7226 61.6931 11.625 61.7832 11.4286 61.7664C11.2535 61.752 11.2268 61.6367 11.2161 61.513C11.2081 61.417 11.2134 61.3197 11.1987 61.2248C11.0945 60.5632 10.898 60.3843 10.1777 60.3579C9.64446 60.3387 9.10989 60.3579 8.57532 60.3591C8.09421 60.3603 7.75476 60.562 7.58771 60.9643C7.24425 61.7904 6.91416 62.6225 6.53729 63.5555V63.5567Z" fill="#24252D"/>
<path d="M12.6873 67.7366C12.3051 66.8625 12.3438 66.782 13.5319 65.9151C13.0682 65.7073 12.6592 65.46 12.5162 64.9905C12.3545 64.4573 12.4374 63.9434 12.6753 63.4451C13.2967 62.1446 14.6679 61.5755 16.2128 61.9933C16.5068 62.0726 16.7928 62.0366 17.0828 62.0546C17.4489 62.0774 17.8218 62.0137 18.1867 62.0954C18.1154 62.4756 17.7198 62.711 16.9999 62.8015C17.0026 63.1929 17.0494 63.5952 16.905 63.9902C16.5455 64.9773 15.8559 65.6401 14.7146 65.8922C14.4073 65.9595 14.0865 65.9883 13.8553 66.2309C13.5092 66.5935 13.5626 66.8781 14.0691 67.0534C14.4915 67.1987 14.9338 67.296 15.3641 67.4208C15.745 67.5313 16.1272 67.643 16.464 67.8423C17.0681 68.2013 17.1883 68.7213 16.7914 69.2688C16.599 69.533 16.3424 69.7455 16.047 69.9136C14.5436 70.7686 12.9158 70.9547 11.2065 70.5909C10.7014 70.4828 10.2323 70.2571 10.1414 69.7311C10.0545 69.2268 10.3633 68.8606 10.7749 68.5604C11.3215 68.1605 11.9857 67.9696 12.6886 67.7366H12.6873ZM13.4063 70.0133C13.5667 70.0133 13.727 70.0193 13.8861 70.0133C14.45 69.9881 15.006 69.9124 15.4817 69.6158C16.0404 69.2676 16.0083 68.9122 15.3895 68.6816C14.8496 68.4811 14.2856 68.3322 13.7364 68.1521C12.996 67.9107 12.0779 68.2217 11.713 68.8425C11.4458 69.2964 11.6075 69.6747 12.1474 69.88C12.5536 70.0349 12.9813 70.0145 13.4076 70.0121L13.4063 70.0133ZM15.8132 63.0272C15.7744 62.8483 15.8426 62.5205 15.4724 62.3788C15.1062 62.2383 14.7988 62.386 14.5262 62.6057C14.4861 62.6369 14.4514 62.6742 14.418 62.7126C13.858 63.3718 13.6375 64.1307 13.6883 64.9412C13.7203 65.4552 14.1507 65.6353 14.6572 65.3987C14.9525 65.2606 15.145 65.0325 15.3053 64.7779C15.6287 64.2652 15.753 63.7044 15.8118 63.0272H15.8132Z" fill="#24252D"/>
<path d="M6.53589 76.9754C6.95151 76.9754 7.2188 76.9574 7.48207 76.979C8.30798 77.045 8.94946 76.8061 9.3437 76.1204C9.39181 76.0352 9.44928 75.9487 9.52545 75.8839C9.62702 75.7974 9.77269 75.771 9.89163 75.8334C9.99053 75.8863 9.97983 75.9991 9.94108 76.094C9.62969 76.8589 9.3143 77.6238 9.00425 78.3887C8.9401 78.5472 8.81849 78.6276 8.64208 78.6084C8.42558 78.5844 8.45231 78.4331 8.44429 78.283C8.40687 77.5289 8.3347 77.4689 7.5235 77.4413C6.73501 77.4149 6.21024 77.7279 5.9492 78.3803C5.76076 78.8534 5.55896 79.3253 5.40394 79.808C5.21951 80.3856 5.35716 80.5813 6.00934 80.7542C6.21381 80.8082 6.42764 80.8287 6.63344 80.8779C6.75639 80.9079 6.90875 80.9427 6.86999 81.1048C6.83925 81.2381 6.72298 81.297 6.57464 81.297C6.12026 81.2982 5.66588 81.2994 5.21149 81.2994C4.16909 81.2994 3.12802 81.2994 2.08561 81.297C1.96266 81.297 1.79828 81.3246 1.78091 81.1565C1.76621 81.022 1.87045 80.9283 2.00676 80.8935C2.21124 80.8407 2.42105 80.807 2.62954 80.765C3.2483 80.6413 3.69332 80.3195 3.93254 79.796C4.6796 78.1545 5.39859 76.5023 5.98929 74.8092C6.22717 74.1295 6.11224 73.9782 5.37587 73.7465C5.32509 73.7309 5.27297 73.7213 5.22352 73.7033C5.08186 73.654 4.88675 73.6432 4.95223 73.4319C4.995 73.2962 5.12062 73.259 5.26228 73.2566C5.42265 73.2542 5.58302 73.2542 5.74339 73.2542C7.42728 73.2542 9.10983 73.253 10.7937 73.2554C11.0316 73.2554 11.2748 73.217 11.5475 73.3214C11.5488 73.8846 11.347 74.4321 11.2428 74.9917C11.2174 75.131 11.1038 75.1826 10.9527 75.1802C10.779 75.1766 10.7509 75.0709 10.7202 74.9449C10.5189 74.1467 9.96469 73.7517 9.05771 73.7597C8.87061 73.7609 8.68351 73.7681 8.49775 73.7777C8.08346 73.7993 7.78276 73.9842 7.63576 74.3277C7.27359 75.173 6.92879 76.0244 6.53722 76.9718L6.53589 76.9754Z" fill="#24252D"/>
<path d="M41.486 80.3568C42.0045 80.2175 42.2477 79.7288 42.7636 79.4466C42.5511 80.5057 41.2735 81.5263 40.2538 81.5431C39.6711 81.5528 39.3784 81.1709 39.6444 80.6726C40.072 79.8729 40.5478 79.0936 40.9995 78.3047C41.2561 77.8568 41.5087 77.4077 41.7586 76.9562C41.8294 76.8289 41.9176 76.6788 41.7866 76.5599C41.665 76.4495 41.4726 76.4651 41.3309 76.5287C40.4141 76.937 39.5321 77.3813 39.1405 78.3143C38.7917 79.1452 38.4336 79.9713 38.0781 80.7999C38.0113 80.956 37.9565 81.1217 37.8589 81.2622C37.6598 81.5491 37.3003 81.6272 36.9475 81.4831C36.6174 81.3486 36.5198 81.1325 36.6454 80.765C36.7002 80.6053 36.7911 80.4552 36.8673 80.3027C37.2589 79.5138 37.6531 78.7261 38.0447 77.9372C38.1743 77.6743 38.3106 77.4113 38.3414 77.1195C38.3614 76.931 38.4095 76.7148 38.1783 76.602C37.9391 76.4843 37.7801 76.6584 37.6331 76.7857C37.4994 76.9009 37.3979 77.0462 37.2722 77.1699C37.1961 77.2444 37.0985 77.2768 36.9368 77.1543C37.2108 76.5863 37.5235 76.0172 38.0447 75.5705C38.7049 75.0037 39.3624 75.197 39.5455 76.01C39.619 76.3366 39.6176 76.6764 39.6537 77.0474C39.9678 76.9766 40.0854 76.7148 40.2685 76.5359C40.6494 76.1649 41.0115 75.7758 41.4873 75.4984C42.0072 75.1946 42.5524 75.1622 42.9119 75.4216C43.3249 75.7206 43.3008 76.1229 43.2126 76.5431C43.1418 76.8805 42.9694 77.1771 42.8063 77.4785C42.3185 78.3851 41.8241 79.2893 41.3336 80.1947C41.2801 80.2463 41.228 80.3099 41.2868 80.3736C41.3483 80.4384 41.4231 80.3928 41.4886 80.358L41.486 80.3568Z" fill="#24252D"/>
<path d="M17.8915 49.5341C18.3352 49.4945 18.4955 49.2327 18.7267 49.049C19.0916 48.7572 19.4765 48.505 19.9749 48.4474C20.5803 48.3766 20.9358 48.6119 21.0641 49.1523C21.1844 49.6578 21.1483 50.1645 20.9773 50.6448C20.412 52.2322 19.3482 53.4858 17.7658 54.366C17.1765 54.6938 16.5497 54.8451 15.8668 54.5725C15.0703 54.2543 14.8444 53.8185 15.1518 53.0848C15.8387 51.4505 16.5363 49.8211 17.2299 48.1892C17.3155 47.9887 17.3916 47.7834 17.4852 47.5852C17.691 47.1458 17.7324 46.7495 17.1912 46.4685C17.0789 46.4097 16.9667 46.3172 17.0161 46.1779C17.0669 46.0314 17.2246 46.0591 17.3489 46.0459C17.977 45.9786 18.6065 45.915 19.3909 45.8333C18.8604 47.1446 18.3766 48.3393 17.8915 49.5341ZM19.8654 50.4167C19.868 49.7274 19.4658 49.4681 18.8737 49.7586C18.0746 50.1513 17.3489 50.6376 17.0335 51.4709C16.8624 51.9236 16.658 52.3655 16.4789 52.817C16.2544 53.385 16.5444 53.7464 17.2086 53.7452C17.5453 53.7452 17.8327 53.6239 18.0852 53.439C19.1771 52.6333 19.6689 51.5478 19.864 50.4167H19.8654ZM17.9823 49.7574C17.9636 49.7418 17.9423 49.7106 17.9289 49.713C17.8915 49.7202 17.8581 49.7418 17.822 49.7574C17.8393 49.7731 17.8607 49.8055 17.8741 49.8031C17.9115 49.7959 17.9449 49.7743 17.9823 49.7574Z" fill="#24252D"/>
<path d="M10.358 52.0701C9.88087 52.8362 9.43718 53.5435 9.00017 54.2543C8.8986 54.4188 8.76229 54.4897 8.5498 54.4885C6.33268 54.4801 4.11556 54.4789 1.89978 54.4705C1.85969 54.4705 1.8196 54.4164 1.77817 54.3876C1.79153 54.0838 2.07084 54.061 2.29269 54.0394C3.26827 53.9445 3.80819 53.415 4.12625 52.6333C4.71161 51.1924 5.30364 49.755 5.89033 48.3153C5.93577 48.2036 5.96116 48.0848 5.99457 47.9683C6.19637 47.273 6.11485 47.1277 5.3865 46.8936C5.28627 46.8612 5.18202 46.8396 5.07912 46.8131C4.99359 46.7915 4.94147 46.7375 4.94013 46.663C4.93746 46.5622 4.98424 46.4637 5.08848 46.4277C5.18336 46.3953 5.29562 46.3953 5.4012 46.3941C6.68282 46.3917 7.96578 46.3905 9.24741 46.3953C9.39041 46.3953 9.59755 46.3364 9.62161 46.5502C9.64032 46.7219 9.50534 46.8035 9.32759 46.8299C9.30087 46.8335 9.27547 46.842 9.24875 46.8444C8.03127 46.9452 7.47265 47.6693 7.10914 48.6203C6.58927 49.9796 6.0066 51.3196 5.49074 52.6801C5.05507 53.8257 5.3571 54.1355 6.70153 53.9818C7.44191 53.8977 8.06735 53.5819 8.60727 53.1328C8.94003 52.8554 9.25676 52.5624 9.56681 52.2646C9.75792 52.0797 9.94502 51.9296 10.358 52.0689V52.0701Z" fill="#24252D"/>
<path d="M20.7793 79.5246C20.4412 80.2043 20.1338 80.7782 19.6086 81.2273C18.9564 81.7845 18.3243 81.5972 18.0664 80.8046C17.9661 80.496 18.0209 80.185 17.9702 79.8488C17.6908 79.8897 17.624 80.1214 17.489 80.2727C17.1536 80.6473 16.8382 81.0364 16.3999 81.3198C16.0551 81.5431 15.6849 81.6368 15.2759 81.4483C14.859 81.2561 14.7494 80.9235 14.7788 80.5429C14.7988 80.2811 14.8296 80.0133 14.9151 79.7648C15.586 77.7919 16.9224 76.3534 19.1155 75.6353C19.6955 75.4456 20.3958 75.5405 20.8234 74.9977C20.9103 74.8872 21.1335 74.9016 21.2631 75.0013C21.4315 75.131 21.2724 75.2643 21.2163 75.3844C20.6697 76.5287 20.1178 77.6706 19.5685 78.8138C19.4309 79.0996 19.2852 79.3841 19.2705 79.7023C19.2611 79.8933 19.2224 80.1142 19.4656 80.2055C19.6621 80.2799 19.8051 80.1238 19.9574 80.0302C20.1913 79.8861 20.2608 79.5643 20.782 79.5258L20.7793 79.5246ZM18.8669 76.3894C18.5274 76.3702 18.2388 76.4975 17.9808 76.6716C17.032 77.314 16.4065 78.1605 16.0992 79.1872C16.031 79.413 16.0323 79.6651 16.0551 79.9005C16.0938 80.2835 16.3437 80.418 16.7166 80.2163C17.4289 79.8284 18.0731 79.3493 18.4205 78.6469C18.7119 78.0573 18.9364 77.4413 19.1769 76.8325C19.3199 76.4687 19.2598 76.3954 18.8669 76.3882V76.3894Z" fill="#24252D"/>
<path d="M20.7125 66.2861C20.3544 66.698 20.1205 66.9766 19.8732 67.2455C19.602 67.5421 19.3253 67.8387 18.9364 68.0188C18.2348 68.3442 17.5519 68.014 17.5011 67.3104C17.4837 67.0738 17.5038 66.8265 17.5666 66.5971C18.0798 64.7179 19.3106 63.3406 21.2123 62.4424C21.5932 62.2623 22.0075 62.1434 22.4311 62.111C22.796 62.0834 23.1047 62.0174 23.3372 61.746C23.4001 61.6727 23.4936 61.6115 23.5872 61.5719C23.7114 61.519 23.8518 61.5251 23.968 61.5971C24.1244 61.6944 24.0201 61.806 23.9694 61.9105C23.6099 62.6586 23.2504 63.4055 22.8909 64.1535C22.6476 64.6591 22.4031 65.1646 22.1639 65.6725C22.0489 65.9175 21.9687 66.1697 21.9834 66.4398C21.9915 66.5839 21.9888 66.74 22.1705 66.8037C22.3429 66.8637 22.4699 66.7616 22.6049 66.6824C22.8668 66.5299 22.963 66.1997 23.3546 66.1156C23.4589 66.4482 23.2116 66.662 23.0793 66.8913C22.8575 67.2744 22.5995 67.6442 22.2133 67.9168C21.636 68.3238 21.0854 68.1797 20.8381 67.5529C20.7686 67.3752 20.7379 67.1807 20.7165 66.9922C20.6965 66.8145 20.7125 66.6331 20.7125 66.2873V66.2861ZM18.74 66.1552C18.7827 66.4686 18.7052 66.7112 18.9538 66.8505C19.2425 67.0126 19.471 66.8349 19.6728 66.6932C20.2595 66.2789 20.8649 65.8682 21.1549 65.2174C21.4115 64.6399 21.6427 64.0515 21.8752 63.4655C22.0316 63.0729 21.9193 62.9468 21.4582 62.9936C21.3019 63.0092 21.1322 63.0416 21.0025 63.1149C19.6982 63.8401 18.9658 64.9016 18.74 66.1564V66.1552Z" fill="#24252D"/>
<path d="M35.9665 60.496C35.7901 60.9823 35.611 61.4722 35.4159 62.0077C35.9759 62.1554 36.5158 61.9789 37.0156 62.1254C36.9096 62.5481 36.6477 62.7622 36.2298 62.7678C35.4654 62.7782 34.9557 63.1056 34.7009 63.75C34.2853 64.8019 33.8724 65.8538 33.4233 66.9957C34.0087 66.9177 34.3829 66.6619 34.7811 66.4422C35.1754 66.226 35.3852 65.7914 35.897 65.6665C35.579 66.9105 33.9191 68.1449 32.6148 68.1449C32.0695 68.1449 31.825 67.8939 31.9346 67.4124C31.9813 67.2035 32.0829 67.0029 32.1644 66.8012C32.691 65.4984 33.2202 64.1967 33.7454 62.9011C33.5129 62.6922 33.263 62.787 33.0398 62.7714C32.8433 62.757 32.6562 62.7546 32.6362 62.5241C32.6175 62.3115 32.7458 62.1938 32.9676 62.2155C34.1036 62.3223 34.5112 61.5622 34.9803 60.8694C35.1927 60.5548 35.4106 60.2438 35.9679 60.496H35.9665Z" fill="#24252D"/>
<path d="M25.545 73.8726C25.3579 74.3853 25.1761 74.8776 24.9677 75.448H26.5219C26.4907 75.9099 26.2684 76.1448 25.855 76.1528C25.0532 76.1696 24.5217 76.5067 24.2607 77.1639C23.9119 78.0441 23.5644 78.9254 23.2143 79.8056C23.1528 79.9617 23.0646 80.1106 23.1114 80.3507C24.099 80.2403 24.6656 79.4958 25.4969 78.9819C25.1093 80.3171 23.5658 81.4819 22.2467 81.5431C21.6306 81.5719 21.3553 81.2753 21.5224 80.7254C21.6199 80.4024 21.7736 80.095 21.9006 79.7792C22.355 78.6528 22.8107 77.5277 23.2624 76.4002C23.2798 76.3582 23.2651 76.3053 23.2651 76.2429C23.0405 76.076 22.7639 76.1793 22.51 76.154C22.3309 76.136 22.2039 76.0844 22.1986 75.9007C22.1933 75.7266 22.2908 75.6365 22.4792 75.6173C22.5327 75.6125 22.5862 75.5981 22.6383 75.6005C23.5003 75.6341 23.9894 75.185 24.3435 74.5498C24.4384 74.3793 24.5841 74.2328 24.691 74.0671C24.8915 73.7573 25.1641 73.7309 25.5437 73.8726H25.545Z" fill="#24252D"/>
<path d="M35.7045 47.1085C35.5228 47.5997 35.341 48.092 35.1339 48.6515H36.6774C36.6734 49.3588 36.6734 49.3516 36.0426 49.3756C35.647 49.39 35.1579 49.2255 34.8799 49.4561C34.6153 49.6746 34.5458 50.0925 34.4109 50.4287C34.0487 51.3293 33.6972 52.2335 33.3431 53.1364C33.2923 53.2649 33.1773 53.385 33.2856 53.5927C33.7507 53.5123 34.1289 53.2625 34.5271 53.0416C34.9147 52.8278 35.1245 52.3968 35.6377 52.2671C35.3196 53.4979 33.7239 54.6986 32.4142 54.7395C31.7527 54.7599 31.5028 54.4621 31.73 53.8665C32.0855 52.9383 32.4744 52.0209 32.8446 51.0975C33.0611 50.5596 33.2709 50.0192 33.4967 49.4489C33.2161 49.3264 32.9515 49.378 32.6989 49.3744C32.5038 49.3708 32.3955 49.3072 32.3942 49.1295C32.3929 48.9818 32.4009 48.7992 32.6214 48.8233C33.8335 48.9541 34.2665 48.1412 34.761 47.4099C34.9775 47.0893 35.2167 46.884 35.7058 47.1073L35.7045 47.1085Z" fill="#24252D"/>
<path d="M49.6674 80.3376C50.5321 80.1406 51.092 79.5042 51.8752 78.9579C51.517 80.2991 49.9374 81.4891 48.621 81.5419C47.9835 81.5671 47.7149 81.2429 47.9421 80.6582C48.4259 79.4142 48.9364 78.1798 49.4335 76.9394C49.5231 76.716 49.6527 76.5023 49.658 76.2501C49.4282 76.076 49.1515 76.1769 48.8976 76.1505C48.7119 76.1312 48.6023 76.0736 48.5996 75.8923C48.5983 75.7206 48.6758 75.6221 48.8749 75.6149C48.9284 75.6125 48.9805 75.5957 49.0339 75.5981C49.8558 75.6257 50.353 75.2307 50.6924 74.5991C50.8194 74.3637 51.0092 74.156 51.1789 73.9398C51.3272 73.7501 51.5651 73.7477 51.7576 73.8162C52.0208 73.9086 51.8431 74.1055 51.799 74.246C51.6801 74.6303 51.4488 74.9857 51.3954 75.46H52.9189C52.8753 75.9099 52.6614 76.1405 52.2774 76.1517C51.0305 76.1877 51.0265 76.1865 50.6016 77.2672C50.2207 78.2374 49.8505 79.2112 49.475 80.1827C49.3814 80.3928 49.4696 80.4192 49.6674 80.3352V80.3376Z" fill="#24252D"/>
<path d="M36.3982 53.05C36.5198 51.4782 37.192 50.1333 38.467 49.043C38.8198 48.7404 39.2341 48.5219 39.7192 48.4354C40.2965 48.3321 40.926 48.5663 41.1853 48.971C41.4165 49.3324 41.3724 50.2053 41.1037 50.4923C40.9768 50.628 40.7897 50.6616 40.6119 50.7145C39.7259 50.9762 38.8438 51.2476 37.9565 51.5046C37.7106 51.5754 37.5569 51.6631 37.4981 51.9237C37.3471 52.5865 37.4914 53.2433 37.9124 53.4282C38.5619 53.7128 39.0269 53.3526 39.4947 53.026C39.7259 52.8651 39.8649 52.6105 40.1442 52.5036C40.2057 52.4796 40.3019 52.4868 40.3634 52.5132C40.4422 52.5481 40.4462 52.6297 40.4008 52.6982C39.9397 53.4078 39.4386 54.0911 38.606 54.4945C37.474 55.0445 36.4837 54.551 36.3982 53.409C36.3888 53.2901 36.3982 53.1689 36.3982 53.0488V53.05ZM37.8095 50.8862C38.5124 50.7157 39.0684 50.5632 39.6337 50.4491C39.941 50.3879 40.0079 50.2258 39.9999 49.988C39.9825 49.4128 39.4225 49.1427 38.8759 49.4693C38.3681 49.7731 38.0968 50.2402 37.8095 50.8862Z" fill="#24252D"/>
<path d="M25.4555 52.464C24.9075 53.3778 24.3556 54.1271 23.4161 54.5473C22.3496 55.024 21.37 54.5149 21.3286 53.4426C21.2578 51.5994 22.0703 50.0804 23.6099 48.8857C24.1057 48.5002 24.7004 48.2781 25.3913 48.4882C25.9579 48.6611 26.264 49.0214 26.28 49.5593C26.3001 50.2365 26.0769 50.5439 25.4154 50.7433C24.5814 50.9942 23.7529 51.2596 22.9096 51.4865C22.5755 51.5766 22.4325 51.7339 22.3991 52.0317C22.3416 52.5408 22.2668 53.0608 22.7973 53.4126C23.1942 53.6756 23.7662 53.5135 24.389 53.0536C24.6643 52.8506 24.818 52.488 25.4555 52.464ZM22.7813 50.8249C23.4629 50.7601 24.0576 50.556 24.6696 50.4167C24.8714 50.371 24.9022 50.2377 24.9129 50.0937C24.9316 49.8211 24.8955 49.5617 24.5868 49.4152C24.2968 49.2771 24.0135 49.3131 23.7622 49.4885C23.2878 49.8211 22.9884 50.263 22.7826 50.8237L22.7813 50.8249Z" fill="#24252D"/>
<path d="M56.7172 79.3313C56.1946 80.1947 55.6293 80.9355 54.6952 81.3642C53.6648 81.8385 52.6852 81.3654 52.6304 80.3304C52.5302 78.4043 53.3681 76.8241 55.0333 75.6173C55.5024 75.2775 56.061 75.1094 56.6837 75.3003C57.2504 75.4732 57.5578 75.8347 57.5751 76.3714C57.5965 77.039 57.3667 77.3584 56.7091 77.5566C55.9006 77.8003 55.0947 78.0561 54.2782 78.2758C53.8946 78.3779 53.6942 78.564 53.6835 78.9182C53.6781 79.1092 53.6447 79.3037 53.6688 79.491C53.7717 80.2739 54.3664 80.5537 55.1549 80.1923C55.4663 80.0494 55.7229 79.838 55.9688 79.6135C56.1305 79.4658 56.2548 79.2521 56.7145 79.3325L56.7172 79.3313ZM54.051 77.691C54.7393 77.5253 55.346 77.3728 55.9554 77.2348C56.1545 77.1891 56.1919 77.0606 56.2066 76.9165C56.2334 76.6452 56.1946 76.3918 55.9086 76.2249C55.5906 76.0388 55.2952 76.1084 55.0266 76.3018C54.5588 76.6392 54.2648 77.0799 54.0523 77.691H54.051Z" fill="#24252D"/>
<path d="M40.7121 65.9307C40.3433 66.6451 39.8648 67.2371 39.2073 67.7078C38.9547 67.8891 38.6674 68.0164 38.3547 68.0884C37.641 68.2518 36.9982 67.948 36.7684 67.3199C36.616 66.9057 36.6133 66.4794 36.6815 66.0423C36.8779 64.7947 37.4459 63.7068 38.3614 62.7654C38.7877 62.3259 39.2942 61.9729 39.9437 61.8384C40.521 61.7195 41.1398 61.9393 41.4231 62.3403C41.6637 62.6826 41.6503 63.5483 41.395 63.8629C41.2601 64.031 41.0409 64.0598 40.8404 64.1199C40.0065 64.3648 39.1793 64.6374 38.3333 64.8464C37.8535 64.964 37.6865 65.2054 37.7105 65.6148C37.7185 65.7577 37.6998 65.903 37.7105 66.0459C37.768 66.8072 38.3092 67.1146 39.083 66.8192C39.4572 66.6763 39.7432 66.4218 40.0279 66.1684C40.1869 66.0255 40.3059 65.7938 40.7121 65.9319V65.9307ZM38.1115 64.264C38.7609 64.1079 39.3463 63.9578 39.937 63.8293C40.207 63.7705 40.2618 63.6168 40.2604 63.4066C40.2591 63.1461 40.1508 62.9407 39.8956 62.8074C39.6336 62.6694 39.3717 62.703 39.1432 62.8555C38.6393 63.1929 38.3039 63.6372 38.1115 64.2652V64.264Z" fill="#24252D"/>
<path d="M30.34 79.3289C29.8175 80.1634 29.2843 80.8935 28.3849 81.3294C27.3371 81.8373 26.4751 81.4483 26.2426 80.4036C26.1504 79.9905 26.2199 79.5895 26.3014 79.1884C26.5393 78.0008 27.1206 76.9622 28.0361 76.082C28.4223 75.7098 28.8687 75.406 29.434 75.2775C30.0233 75.1418 30.6394 75.3111 30.9521 75.693C31.2328 76.0352 31.2435 76.9358 30.9655 77.2804C30.8305 77.4485 30.61 77.4785 30.4095 77.5385C29.5476 77.7931 28.6922 78.0669 27.8249 78.2998C27.4521 78.3995 27.297 78.5868 27.305 78.9182C27.3104 79.1584 27.2783 79.4021 27.3171 79.6363C27.412 80.2079 27.8556 80.4456 28.4771 80.2943C28.9087 80.1899 29.2175 79.9269 29.5329 79.6663C29.72 79.5126 29.8389 79.2508 30.3414 79.3313L30.34 79.3289ZM27.7167 77.6226C27.845 77.6226 27.9265 77.637 27.9986 77.6202C28.4864 77.5037 28.9662 77.3596 29.458 77.266C29.8095 77.1987 29.8656 77.0066 29.8416 76.746C29.7935 76.2141 29.2576 75.9535 28.7537 76.2393C28.1978 76.5551 27.8984 77.039 27.7167 77.6226Z" fill="#24252D"/>
<path d="M25.5023 66.9946C26.2053 66.9045 26.526 66.3593 27.0379 66.1096C27.2624 66.2597 27.1261 66.3918 27.0592 66.5022C26.6115 67.2395 26.0155 67.8291 25.0787 68.0729C24.7526 68.1569 24.4385 68.1821 24.194 67.93C23.9708 67.6994 24.0496 67.446 24.1579 67.1879C24.945 65.3075 25.7255 63.4247 26.5073 61.5418C26.5821 61.3629 26.653 61.1828 26.7331 61.0051C26.9403 60.5428 26.9884 60.1189 26.4057 59.8319C26.3122 59.7863 26.2507 59.7023 26.2601 59.5462C26.9122 59.3084 27.6352 59.3588 28.3288 59.2616C28.532 59.2328 28.5988 59.378 28.5333 59.5474C28.4718 59.7059 28.3997 59.8596 28.3342 60.0169C27.4361 62.1662 26.5394 64.3168 25.64 66.4662C25.5758 66.6187 25.4796 66.7616 25.5036 66.9958L25.5023 66.9946Z" fill="#24252D"/>
<path d="M10.8364 77.2564C11.097 76.5804 11.4285 76.0676 11.8829 75.6269C12.1595 75.3592 12.4816 75.1178 12.9333 75.2811C13.3649 75.4372 13.4705 75.7902 13.4999 76.1625C13.5186 76.393 13.5039 76.6248 13.5039 76.9826C13.8928 76.6704 13.949 76.3258 14.1427 76.0604C14.3472 75.7794 14.5143 75.4756 14.8778 75.3231C15.4725 75.0722 15.9349 75.3159 15.9977 75.9199C16.0511 76.4266 15.8828 76.7136 15.4671 76.6656C14.1374 76.5119 13.6282 77.3657 13.1792 78.1954C12.7248 79.0323 12.4228 79.9341 12.0472 80.8071C11.9711 80.9848 11.8976 81.1721 11.7759 81.3246C11.5541 81.6032 11.2347 81.6008 10.9126 81.4855C10.5745 81.3642 10.5144 81.1133 10.5972 80.8311C10.6507 80.6474 10.7469 80.4733 10.8324 80.2979C11.2521 79.443 11.6784 78.5904 12.094 77.7331C12.233 77.4473 12.3693 77.1543 12.3199 76.8325C12.2784 76.5623 12.0806 76.5023 11.8 76.62C11.4659 76.7605 11.3764 77.1711 10.8364 77.2588V77.2564Z" fill="#24252D"/>
<path d="M31.6005 77.2612C31.9145 76.5887 32.2273 76.0472 32.7084 75.5981C32.9716 75.3519 33.2777 75.1418 33.696 75.2631C34.1129 75.3844 34.2252 75.717 34.2894 76.0532C34.3415 76.321 34.3415 76.5971 34.3776 77.0198C34.6542 76.5575 34.8413 76.2237 35.0498 75.9007C35.2248 75.6281 35.4373 75.3844 35.7928 75.2775C36.314 75.1202 36.6976 75.3231 36.7697 75.813C36.7911 75.9547 36.7724 76.1 36.7738 76.2441C36.7751 76.5359 36.6334 76.7208 36.2913 76.6572C35.42 76.4951 34.9161 76.9394 34.4404 77.4893C34.2078 77.7583 34.0207 78.0369 33.8898 78.3539C33.557 79.162 33.2189 79.9677 32.8781 80.7734C32.8019 80.9512 32.7284 81.1373 32.6068 81.291C32.3903 81.5659 32.0803 81.5804 31.7488 81.4663C31.4067 81.3486 31.3359 81.1109 31.4201 80.8251C31.4735 80.6414 31.5564 80.4636 31.6432 80.2883C32.0228 79.5234 32.4063 78.7597 32.7912 77.996C32.9235 77.7343 33.0492 77.4713 33.1053 77.1855C33.1481 76.9694 33.2109 76.7328 32.9743 76.5959C32.7124 76.4446 32.5413 76.668 32.3569 76.7953C32.1578 76.9334 32.0776 77.2095 31.6005 77.2588V77.2612Z" fill="#24252D"/>
<path d="M26.7587 50.3518C27.0728 49.731 27.3895 49.1102 27.9962 48.6636C28.5869 48.2289 29.2124 48.4426 29.3674 49.1222C29.4302 49.3972 29.4262 49.6854 29.4569 50.0216C29.7683 49.9292 29.7884 49.6974 29.8939 49.5317C30.0917 49.2195 30.2534 48.8833 30.5728 48.6491C30.9256 48.391 31.4188 48.3694 31.6767 48.5903C31.936 48.8112 32.0001 49.4885 31.797 49.7479C31.6807 49.8955 31.5097 49.8751 31.3653 49.8559C30.0316 49.677 29.5291 50.5644 29.0827 51.3881C28.6056 52.2683 28.2902 53.2193 27.9013 54.1379C27.7637 54.4645 27.598 54.7599 27.1182 54.7323C26.6331 54.7046 26.3832 54.4297 26.5034 54.007C26.5556 53.8233 26.6638 53.6528 26.7507 53.4775C27.1636 52.6453 27.5819 51.8156 27.9882 50.981C28.1272 50.6965 28.2635 50.4035 28.2301 50.0805C28.198 49.7635 27.9735 49.6638 27.6848 49.8487C27.5138 49.958 27.3761 50.1105 27.2291 50.2498C27.1209 50.3518 27.0353 50.4887 26.76 50.3542L26.7587 50.3518Z" fill="#24252D"/>
<path d="M12.8464 49.5906C12.1863 49.6626 11.9858 50.2582 11.478 50.4395C11.2668 50.2834 11.4138 50.1621 11.4833 50.0516C11.9617 49.2976 12.6126 48.726 13.5761 48.4966C13.8688 48.427 14.1735 48.3694 14.3847 48.6191C14.5624 48.8293 14.4983 49.0742 14.394 49.3048C13.8488 50.4995 13.2968 51.6919 12.7636 52.8903C12.67 53.1016 12.4963 53.2997 12.5364 53.6023C13.1859 53.5003 13.4879 52.9635 14.0305 52.6093C13.8394 53.6516 12.6794 54.6566 11.7158 54.7239C11.1813 54.7611 10.93 54.4825 11.1078 53.989C11.2962 53.4667 11.5381 52.9599 11.7559 52.446C12.0793 51.6871 12.4028 50.927 12.7248 50.1681C12.7983 49.9964 12.928 49.8343 12.8438 49.5917L12.8464 49.5906Z" fill="#24252D"/>
<path d="M29.6197 63.026C29.0972 63.1425 28.9194 63.7141 28.3515 63.8425C28.6695 62.8843 29.5222 62.135 30.5098 61.9009C30.7998 61.8324 31.0911 61.7544 31.329 61.9885C31.5642 62.2215 31.4693 62.4724 31.3517 62.7258C30.8826 63.7417 30.4202 64.7599 29.9552 65.777C29.7841 66.1528 29.6117 66.5275 29.4273 66.9321C29.8255 67.0474 30.0153 66.7724 30.2545 66.6187C30.4844 66.471 30.602 66.1985 30.8746 66.1108C31.1152 66.2549 30.9749 66.3858 30.908 66.4962C30.4737 67.2095 29.8937 67.7823 29.0023 68.044C28.7177 68.1281 28.4276 68.2146 28.1791 67.9912C27.9278 67.7655 28.0321 67.4989 28.135 67.2527C28.6522 66.0231 29.1801 64.7959 29.7013 63.5676C29.7574 63.4355 29.7908 63.2962 29.8362 63.1593C29.8496 63.1029 29.8964 63.0152 29.8723 62.9948C29.7908 62.9251 29.6999 62.9696 29.6224 63.0248L29.6197 63.026Z" fill="#24252D"/>
<path d="M45.6583 76.4158C45.101 76.5203 44.9153 77.1279 44.2043 77.284C44.7535 76.2117 45.4779 75.5129 46.662 75.2847C47.258 75.1694 47.5587 75.4564 47.3609 75.9715C47.1097 76.6272 46.7916 77.2624 46.4989 77.906C46.1287 78.7189 45.7545 79.5306 45.3416 80.43C46.1047 80.3424 46.3613 79.7384 46.8611 79.5174C47.1177 79.6747 46.9439 79.8008 46.8811 79.9065C46.4535 80.6258 45.8708 81.1985 44.9767 81.4615C44.6921 81.5455 44.4088 81.6272 44.1508 81.4087C43.8782 81.1793 44.0011 80.9307 44.1067 80.6798C44.6827 79.3133 45.256 77.9456 45.8294 76.5779C45.8721 76.5215 45.9149 76.4567 45.8548 76.399C45.7933 76.3402 45.7211 76.381 45.6583 76.4158Z" fill="#24252D"/>
<path d="M76.1714 0.044203C75.2145 0.93878 74.3726 1.72409 73.532 2.51059C73.4144 2.62107 73.2807 2.6763 73.1097 2.6763C72.3198 2.6739 71.5287 2.6751 70.5705 2.6751C71.1091 2.08672 71.6156 1.63283 71.9898 1.10329C72.5938 0.245934 73.3823 -0.117901 74.5076 0.0333965C74.9967 0.0982383 75.5059 0.044203 76.1714 0.044203Z" fill="#24252D"/>
<path d="M41.9738 46.0411C41.9217 46.1023 41.8709 46.1875 41.796 46.25C41.2481 46.7051 40.6988 47.1566 40.1442 47.6057C40.0667 47.6681 39.9692 47.7173 39.8716 47.7486C39.774 47.7798 39.6591 47.7906 39.5709 47.7185C39.464 47.6309 39.5428 47.5504 39.5936 47.4688C39.881 47.0113 40.1603 46.5478 40.4596 46.0963C40.6213 45.8525 41.6945 45.7096 41.907 45.8898C41.939 45.9174 41.9444 45.9714 41.9725 46.0422L41.9738 46.0411Z" fill="#24252D"/>
<path d="M39.7591 61.0483C40.0144 60.4744 40.422 59.9496 40.7668 59.3973C40.8724 59.2292 41.9134 59.1367 42.1179 59.2556C42.2208 59.3156 42.2409 59.4345 42.1647 59.5005C41.4965 60.0733 40.8897 60.7097 40.0839 61.1384C40.0037 61.1816 39.8754 61.1732 39.7591 61.0483Z" fill="#24252D"/>
<path d="M58.2191 72.6226C58.0039 73.008 56.5847 74.3253 56.2506 74.479C56.0875 74.5534 55.9031 74.5979 55.7053 74.4285C56.0234 73.9194 56.3481 73.4055 56.6662 72.8879C56.7785 72.7042 56.9241 72.6058 57.1727 72.619C57.4881 72.6358 57.8062 72.6226 58.2191 72.6226Z" fill="#24252D"/>
<path d="M14.6961 47.2707C14.2404 47.2803 13.8716 46.9717 13.8622 46.5718C13.8529 46.196 14.2391 45.8273 14.656 45.8153C15.0824 45.8033 15.4672 46.1383 15.4793 46.5334C15.4926 46.9416 15.1532 47.261 14.6975 47.2695L14.6961 47.2707Z" fill="#24252D"/>
<path d="M8.71962 59.1979C9.06709 58.744 9.39585 58.319 9.72193 57.8915C9.80078 57.7882 9.89701 57.7054 10.044 57.7078C10.4342 57.7162 10.8325 57.6501 11.3697 57.7966C10.6882 58.3694 9.9812 58.7404 9.33571 59.1787C9.18202 59.2832 9.00027 59.3132 8.72096 59.1979H8.71962Z" fill="#24252D"/>
<path d="M48.3885 73.3658C48.3925 73.7657 48.033 74.0875 47.5853 74.0875C47.1403 74.0875 46.7781 73.7633 46.7768 73.3658C46.7768 72.9732 47.1523 72.6274 47.58 72.6298C48.005 72.631 48.3832 72.9768 48.3885 73.367V73.3658Z" fill="#24252D"/>
<path d="M32.437 59.9976C32.421 60.3987 32.0521 60.7001 31.5977 60.6845C31.1487 60.6701 30.7999 60.3363 30.8186 59.9388C30.8373 59.5534 31.2396 59.2159 31.6605 59.2352C32.0882 59.2544 32.453 59.6122 32.437 59.9988V59.9976Z" fill="#24252D"/>
</g>
</svg>
