<svg width="102" height="128" viewBox="0 0 102 128" fill="none" xmlns="http://www.w3.org/2000/svg">
<g opacity="0.4">
<path d="M13.8795 44.6853C9.97653 46.5217 6.30126 46.0341 3.06652 43.2795C0.945501 41.4753 -0.00982361 38.9954 7.61248e-05 36.169C0.0149257 31.229 0.00255106 26.2866 0.00255106 21.3466C0.00255106 17.4758 0.0124508 13.605 0.00255106 9.73425C-0.00734867 6.31142 1.36624 3.59394 4.16044 1.62884C5.59343 0.619072 7.22688 0.0374628 8.98656 0.0349879C18.2502 0.0176633 27.5164 -0.0516348 36.7801 0.0721119C42.8337 0.15131 47.108 6.2644 45.3904 12.0854C45.2617 12.5186 45.1033 12.9442 44.9572 13.3724C44.5068 13.3947 44.0588 13.4392 43.6084 13.4392C34.1467 13.4392 24.6851 13.4516 15.2234 13.412C14.2062 13.4071 13.9191 13.6818 13.9241 14.7064C13.9612 24.2497 13.9488 33.7931 13.9439 43.3364C13.9439 43.7869 13.9018 44.2348 13.882 44.6853H13.8795Z" fill="#F14C2C"/>
<path d="M43.9673 14.8224C43.7693 15.4338 43.2693 15.8149 42.8437 16.2455C40.2895 18.8269 37.723 21.3983 35.1615 23.9748C33.4934 23.9995 31.8252 24.0168 30.1571 24.0515C29.8626 24.0564 29.4122 23.9475 29.4666 24.4648C29.5087 24.8707 29.9072 24.7346 30.1621 24.7395C31.506 24.7717 32.8499 24.7841 34.1913 24.8014C33.4562 25.5711 32.7335 26.3556 31.9812 27.108C26.8135 32.2856 21.6384 37.4582 16.4609 42.6258C16.1168 42.9674 15.8372 43.3956 15.3447 43.5663C15.0972 43.1877 15.211 42.7644 15.211 42.3635C15.2036 33.5899 15.2259 24.8162 15.1813 16.0426C15.1764 14.9561 15.456 14.6591 16.5549 14.6641C25.2469 14.7086 33.9388 14.6839 42.6308 14.6888C43.0788 14.6888 43.5391 14.6121 43.9673 14.8249V14.8224Z" fill="#F14C2C"/>
<path d="M13.8795 44.6853C13.9018 44.2348 13.9414 43.7866 13.9414 43.3362C13.9438 33.7928 13.9587 24.2495 13.9216 14.7061C13.9166 13.6815 14.2037 13.4068 15.2209 13.4117C24.6826 13.4513 34.1442 13.4414 43.6059 13.439C44.0564 13.439 44.5043 13.3944 44.9548 13.3722C45.9843 13.3919 47.0139 13.4291 48.041 13.4291C65.3457 13.4315 82.6505 13.439 99.9527 13.4093C100.911 13.4093 101.18 13.6271 101.18 14.617C101.151 42.8783 101.158 71.1396 101.158 99.4008V100.366C100.643 100.656 100.141 100.527 99.6582 100.527C71.5603 100.534 43.4599 100.534 15.362 100.532C13.7161 100.532 13.9463 100.69 13.9463 99.0618C13.9414 81.8833 13.9463 64.7023 13.9414 47.5238C13.9414 46.5783 13.9018 45.6307 13.8795 44.6853ZM43.9648 14.8225C43.5366 14.6096 43.0763 14.6863 42.6283 14.6863C33.9364 14.6839 25.2444 14.7086 16.5524 14.6616C15.4535 14.6566 15.1739 14.9536 15.1788 16.0401C15.2234 24.8138 15.2011 33.5874 15.2085 42.361C15.2085 42.762 15.0947 43.1877 15.3422 43.5639C15.3174 44.2222 15.2679 44.8805 15.2679 45.5364C15.263 63.1282 15.263 80.72 15.2679 98.3119C15.2679 98.5841 15.1739 98.8836 15.3744 99.136H99.8686V97.807C99.8686 70.5753 99.8612 43.3436 99.8958 16.1119C99.8958 14.9561 99.5765 14.7012 98.4653 14.7012C81.121 14.7358 63.7742 14.7235 46.4298 14.7309C45.6081 14.7309 44.7865 14.7878 43.9648 14.82V14.8225Z" fill="#24252D"/>
<path d="M80.4725 121.487C79.2252 121.133 78.0075 120.775 77.7872 119.359C77.5472 117.829 78.5792 116.946 79.7251 116.119C79.3638 115.58 78.8069 115.196 78.5718 114.565C78.0768 113.233 78.6163 111.645 79.9924 110.84C81.7422 109.816 83.5909 109.682 85.4051 110.662C85.9545 110.959 86.3109 111.026 86.7836 110.583C87.2514 110.145 87.8602 110.018 88.5062 110.046C89.214 110.073 89.6991 110.358 89.7981 111.098C89.8797 111.711 89.6397 112.164 88.9987 112.283C88.2587 112.422 87.8181 112.088 87.6845 111.343C87.6548 111.184 87.5706 111.038 87.489 110.825C86.8653 111.004 86.254 110.991 86.843 111.969C88.026 113.941 86.9643 116.171 84.6502 116.718C83.3855 117.018 82.1109 116.988 80.8735 116.552C80.079 116.273 79.5717 116.537 79.3737 117.312C79.1435 118.211 79.6682 118.651 80.48 118.713C81.3808 118.785 82.2916 118.743 83.1974 118.753C83.4449 118.753 83.6924 118.753 83.9374 118.765C86.2367 118.901 87.5459 119.747 87.9815 121.364C88.4814 123.222 87.6696 125.262 85.9273 126.4C84.0661 127.615 82.0565 127.672 80.0072 126.999C78.9207 126.64 78.1411 125.92 78.0372 124.707C77.9332 123.485 78.6312 122.717 79.6038 122.118C79.8761 121.95 80.2399 121.918 80.4725 121.49V121.487ZM83.1479 121.5C81.267 121.5 80.1953 122.425 80.1731 124.074C80.1483 125.801 81.2546 126.917 82.997 126.925C84.9472 126.932 86.3926 125.623 86.4173 123.826C86.4396 122.138 85.5461 121.502 83.1504 121.502L83.1479 121.5ZM84.6799 113.639C84.6502 113.013 84.6502 112.56 84.6007 112.11C84.4943 111.152 84.0686 110.469 83.0019 110.41C82.0144 110.355 81.3388 110.924 81.1457 112.003C80.9551 113.068 80.9972 114.142 81.2175 115.191C81.3982 116.052 81.9253 116.52 82.8757 116.518C83.8285 116.518 84.3433 116.04 84.5265 115.181C84.6453 114.622 84.6453 114.038 84.6849 113.637L84.6799 113.639Z" fill="#24252D"/>
<path d="M20.5668 120.396H14.6467C14.9314 120.027 15.2432 120.121 15.5154 120.128C15.9609 120.141 16.2035 120.015 16.201 119.51C16.1886 116.634 16.196 113.758 16.196 110.961C15.7159 110.573 15.1467 110.961 14.5923 110.446H19.0274C19.062 110.823 19.0942 111.182 19.1288 111.553C19.609 111.62 19.7104 111.157 19.9728 110.951C21.7349 109.565 25.0068 110.078 25.9597 111.922C26.0092 112.018 25.9894 112.164 25.9696 112.283C25.581 114.367 25.9102 116.47 25.7815 118.559C25.7196 119.554 25.7196 120.413 27.0956 120.373H21.4726C21.8587 119.898 22.3957 120.307 22.8388 119.945C22.8388 117.436 22.8982 114.847 22.814 112.263C22.7695 110.936 21.5072 110.419 20.3886 111.169C19.5298 111.743 19.1734 112.622 19.1511 113.607C19.1066 115.542 19.1585 117.48 19.0991 119.416C19.062 120.599 20.1559 119.824 20.5692 120.401L20.5668 120.396Z" fill="#24252D"/>
<path d="M46.4397 120.037C45.4102 121.269 43.0713 121.02 41.8933 119.492C40.6236 121.175 38.9184 120.921 37.2082 120.492C36.3568 120.28 35.748 119.742 35.6193 118.807C35.4782 117.765 35.8371 116.951 36.7405 116.391C37.629 115.842 38.6437 115.632 39.6188 115.32C41.725 114.644 42.2125 113.8 41.725 111.642C41.5171 110.724 40.9701 110.303 40.0371 110.437C39.1312 110.568 38.9852 111.164 39.0545 111.971C39.1857 113.513 38.9803 113.778 37.8294 113.808C36.4756 113.842 35.8346 112.847 36.5548 111.687C37.5077 110.155 39.104 110.026 40.7028 110.053C42.1853 110.078 43.6059 110.291 44.3657 111.825C44.685 112.471 44.685 113.181 44.6899 113.879C44.6998 115.443 44.6899 117.008 44.6924 118.572C44.6949 120.381 44.8013 120.468 46.4373 120.037H46.4397ZM41.7819 114.901C41.1335 115.211 40.6137 115.439 40.1138 115.703C38.7427 116.431 38.2427 117.827 38.812 119.257C39.0248 119.794 39.3614 120.168 39.9702 120.213C40.5568 120.257 41.0072 120.015 41.3216 119.525C41.6656 118.988 41.772 118.384 41.7794 117.763C41.7893 116.859 41.7794 115.956 41.7794 114.901H41.7819Z" fill="#24252D"/>
<path d="M71.5306 119.7C71.4192 120.354 70.8747 120.552 70.3649 120.646C69.3081 120.839 68.2414 120.861 67.197 120.49C66.301 120.17 65.7145 119.589 65.6279 118.626C65.5437 117.688 65.9372 116.943 66.7317 116.431C67.6821 115.817 68.7884 115.612 69.8377 115.268C71.6964 114.664 72.4364 113.04 71.6469 111.221C71.3054 110.432 70.6594 110.298 69.9021 110.483C69.0606 110.691 69.0062 111.31 69.0854 112.03C69.2462 113.495 68.8874 113.901 67.5732 113.8C66.6352 113.728 66.1723 113.119 66.3877 112.206C66.5832 111.377 67.1549 110.862 67.9098 110.538C69.5383 109.838 71.2138 109.847 72.8547 110.407C74.1243 110.837 74.696 111.862 74.7034 113.189C74.7133 115.124 74.6936 117.059 74.7158 118.995C74.7233 119.658 74.6936 120.388 75.5969 120.613C74.3594 120.767 73.0947 121.079 72.1741 119.812C71.986 119.552 71.7286 119.698 71.4935 119.73C71.8919 118.183 71.8177 116.614 71.7756 114.919C71.0678 115.265 70.4268 115.522 69.8476 115.879C68.7166 116.574 68.3033 118.322 68.9616 119.475C69.4046 120.25 70.0432 120.393 70.8475 120.039C71.0826 119.935 71.1494 119.497 71.5281 119.7H71.5306Z" fill="#24252D"/>
<path d="M100.396 114.579H93.5724C93.456 116.008 93.4214 117.379 93.909 118.705C94.2802 119.71 94.9979 120.324 96.1017 120.425C97.4976 120.554 98.5866 120.007 99.3959 118.898C99.6483 118.552 99.8265 118.151 100.106 117.653C100.044 119.584 98.3168 120.811 95.9483 120.769C92.5527 120.707 90.2733 118.542 90.298 115.399C90.3228 112.488 92.8472 110.033 95.8047 110.045C98.5494 110.055 100.349 111.77 100.393 114.579H100.396ZM93.5773 114.226C94.1985 114.226 94.7257 114.226 95.2528 114.226C96.6866 114.226 97.3392 113.521 97.2105 112.112C97.1363 111.275 96.8764 110.555 95.9235 110.432C95.0177 110.315 94.3223 110.691 93.956 111.553C93.6144 112.355 93.4857 113.196 93.5773 114.223V114.226Z" fill="#24252D"/>
<path d="M52.7038 111.822C51.7781 114.503 52.3994 117.262 52.1939 119.935C52.7978 120.307 53.4166 119.945 54.1912 120.368H47.7316C48.1969 119.901 48.7686 120.309 49.2339 119.967V110.902C48.8231 110.575 48.2687 110.934 47.8554 110.392C49.1918 110.392 50.5308 110.352 51.8648 110.414C52.3053 110.434 52.1444 110.934 52.1543 111.236C52.1667 111.622 52.137 112.001 52.7161 111.847L52.7038 111.825V111.822Z" fill="#24252D"/>
<path d="M34.1467 120.406H28.2539C29.9443 120.401 29.5013 119.163 29.5112 118.223C29.5285 116.498 29.5285 114.773 29.5112 113.048C29.4914 111.058 29.0409 110.706 27.0511 111.058C26.8952 111.085 26.7269 111.038 26.4348 111.016C27.7837 110.013 29.1622 109.937 30.5704 110.407C31.7931 110.815 32.3945 111.763 32.4118 113.045C32.439 114.976 32.4959 116.909 32.4167 118.834C32.3747 119.837 32.6296 120.289 33.6691 120.141C33.7557 120.129 33.8596 120.242 34.1467 120.406Z" fill="#24252D"/>
<path d="M58.2204 120.173C58.6511 120.141 59.0842 120.106 59.5791 120.069V110.833C59.099 110.773 58.6461 110.716 58.1957 110.662C58.2006 110.565 58.2056 110.466 58.2105 110.37C59.5222 110.37 60.8364 110.34 62.1481 110.382C62.8065 110.405 62.5664 110.986 62.5689 111.34C62.5887 113.723 62.6283 116.109 62.5565 118.493C62.5243 119.596 62.5812 120.43 64.0043 120.374H58.213C58.213 120.307 58.2179 120.24 58.2204 120.176V120.173Z" fill="#24252D"/>
<path d="M52.7161 111.845C53.6888 110.276 54.9362 109.756 56.2974 110.352C57.2354 110.763 57.7279 111.882 57.3418 112.835C56.9706 113.748 56.2256 113.805 55.3866 113.609C54.758 113.463 54.5105 113.067 54.5402 112.444C54.5649 111.917 55.0352 111.219 54.2531 110.944C53.523 110.689 53.08 111.271 52.7038 111.82L52.7161 111.842V111.845Z" fill="#24252D"/>
<path d="M62.799 105.331C62.8015 106.212 62.0541 107.001 61.178 107.038C60.2647 107.078 59.4232 106.266 59.4183 105.341C59.4158 104.408 60.2325 103.613 61.1656 103.645C62.0541 103.675 62.7966 104.442 62.799 105.331Z" fill="#24252D"/>
<path d="M42.2373 89.0704C43.4599 89.0704 44.5241 89.0754 45.5908 89.068C45.9918 89.0655 46.3234 89.068 46.3061 89.6298C46.2912 90.1643 45.9299 90.0728 45.6205 90.0728C40.3885 90.0777 35.154 90.0753 29.922 90.0728C29.5656 90.0728 29.1573 90.1668 29.1894 89.5506C29.2216 88.9467 29.6399 89.0754 29.9814 89.0729C31.1719 89.063 32.3623 89.068 33.6394 89.068V61.3883C32.4044 61.3883 31.1397 61.3933 29.875 61.3858C29.5681 61.3858 29.1944 61.4824 29.187 60.9453C29.182 60.5097 29.3676 60.381 29.7785 60.381C33.8448 60.3884 37.9136 60.386 42.0566 60.386V65.0265C44.4598 61.5937 47.6401 59.7846 51.84 59.7821C56.0276 59.7821 59.448 61.0913 61.3512 65.0809C61.7719 65.0265 61.8214 64.6998 61.9675 64.4869C65.3259 59.5519 72.8398 58.1387 77.8244 61.4972C79.8365 62.8535 80.9329 64.7443 81.1705 67.1351C81.5813 71.246 81.2992 75.3692 81.3561 79.485C81.3982 82.6158 81.3635 85.7466 81.3635 89.068C82.5911 89.068 83.8063 89.0531 85.0215 89.0779C85.3754 89.0853 85.9001 88.8502 85.9223 89.558C85.9446 90.2831 85.4125 90.0654 85.0586 90.0654C79.9082 90.0753 74.7579 90.0753 69.6076 90.0654C69.2957 90.0654 68.8205 90.2732 68.7859 89.6397C68.7488 88.9665 69.2141 89.0729 69.6125 89.0704C70.355 89.0655 71.1024 89.0086 71.835 89.0853C72.721 89.1769 72.9215 88.8403 72.9166 87.9889C72.8794 82.4277 72.9067 76.8641 72.8918 71.3029C72.8869 69.5333 72.9982 67.7613 72.7705 65.9942C72.2953 62.3065 69.5903 60.7151 66.1872 62.2125C63.5217 63.3831 61.8561 65.3903 61.8338 68.3924C61.7818 75.2281 61.8165 82.0664 61.8165 89.068C62.9253 89.068 64.0192 89.068 65.1156 89.068C65.4893 89.068 65.8655 89.0036 65.863 89.5926C65.858 90.2188 65.4225 90.0678 65.0883 90.0678C60.0197 90.0753 54.9535 90.0753 49.8848 90.0678C49.5854 90.0678 49.2018 90.194 49.1745 89.652C49.1473 89.1224 49.4344 89.0556 49.8626 89.063C50.9689 89.0803 52.0751 89.068 53.32 89.068C53.32 88.5977 53.32 88.2017 53.32 87.8057C53.32 81.0492 53.32 74.2926 53.3151 67.536C53.3151 66.9619 53.2829 66.3827 53.2235 65.811C52.8845 62.5688 50.2437 60.8562 47.207 62.0491C43.9153 63.3435 42.4501 66.0437 42.3511 69.417C42.2076 74.3149 42.262 79.2202 42.2348 84.123C42.2274 85.7243 42.2348 87.3256 42.2348 89.068L42.2373 89.0704Z" fill="#24252D"/>
<path d="M34.1888 24.8015C32.8449 24.7817 31.501 24.7718 30.1596 24.7396C29.9047 24.7346 29.5062 24.8707 29.4642 24.4649C29.4097 23.9501 29.8601 24.059 30.1547 24.0515C31.8228 24.0169 33.4909 23.9996 35.159 23.9748C36.2702 23.9946 37.3938 24.1184 38.4902 24.007C39.5965 23.8956 40.0445 24.2916 40.391 25.3286C42.9105 32.897 45.4968 40.4455 48.0756 47.9941C48.2192 48.4123 48.2613 48.89 48.6102 49.234C48.9419 48.942 48.9765 48.5163 49.1052 48.1401C51.7064 40.5099 54.3224 32.8846 56.874 25.2395C57.1908 24.2916 57.5843 23.9699 58.5916 24.0119C62.46 24.1728 66.3407 23.6234 70.1991 24.0392C76.9358 24.7668 82.252 27.66 84.7071 34.3745C86.1624 38.3517 86.2045 42.4651 85.0215 46.5264C83.1752 52.8796 77.5719 57.3939 70.8871 57.8294C65.0017 58.2131 59.1114 57.5918 53.2186 57.7577C52.9389 57.7651 52.5627 57.8121 52.5974 57.3815C52.632 56.9607 53.023 57.0845 53.2854 57.082C54.4387 57.0721 55.5945 57.03 56.7453 57.0944C57.5472 57.1389 57.8294 56.8914 57.7997 56.0698C57.7427 54.5477 57.7823 53.0206 57.7823 51.4961C57.7823 43.3783 57.7823 35.2605 57.7823 27.1427C57.7823 26.6948 57.7823 26.2468 57.7823 25.7989C57.6833 25.7741 57.5843 25.7494 57.4853 25.7246C53.867 36.3223 50.2462 46.9199 46.509 57.8616C42.7867 47.0363 39.1733 36.5203 35.5129 25.8731C35.1788 26.4151 35.3 26.8235 35.2976 27.2096C35.2901 36.7282 35.3149 46.2468 35.2629 55.7653C35.258 56.8939 35.5698 57.1785 36.639 57.0993C37.921 57.0028 39.2129 57.0771 40.5073 57.0771C40.4801 57.8319 40.0915 57.7527 39.7846 57.7527C36.5697 57.7577 33.3572 57.7601 30.1423 57.7502C29.8577 57.7502 29.3701 57.9037 29.4122 57.3815C29.4518 56.8914 29.922 57.0944 30.2066 57.087C31.3179 57.0647 32.4341 57.0276 33.5428 57.0944C34.3546 57.1439 34.6021 56.8989 34.5897 56.0722C34.5402 53.1469 34.5724 50.2215 34.5699 47.2961C34.5675 40.1683 34.5699 33.038 34.5427 25.9102C34.5427 25.5439 34.8768 24.9772 34.1838 24.8015H34.1888ZM62.6654 24.7817C62.5911 24.8831 62.5491 24.9128 62.5491 24.945C62.5367 35.4065 62.5342 45.8681 62.507 56.3296C62.507 57.0177 62.8015 57.1365 63.3905 57.1637C65.4918 57.2577 67.593 57.3221 69.6868 57.1068C73.3818 56.7281 76.2008 54.9932 77.9704 51.6545C78.6658 50.3378 79.2821 48.9915 79.6187 47.5436C80.7274 42.8041 80.6656 38.0572 79.386 33.3672C78.2228 29.1103 75.5177 26.2691 71.1791 25.1455C68.3528 24.4129 65.4843 24.5168 62.6679 24.7792L62.6654 24.7817Z" fill="#24252D"/>
<path d="M68.244 106.687L67.2318 104.482V106.234C67.2318 106.395 67.2491 106.496 67.2838 106.536C67.3308 106.59 67.4075 106.618 67.509 106.618H67.603V106.689H66.6898V106.618H66.7838C66.8952 106.618 66.9744 106.583 67.0189 106.516C67.0462 106.474 67.061 106.38 67.061 106.234V104.521C67.061 104.405 67.0486 104.321 67.0214 104.269C67.0041 104.232 66.9694 104.2 66.9224 104.175C66.8754 104.15 66.7962 104.138 66.6898 104.138V104.066H67.4323L68.3826 106.118L69.3182 104.066H70.0606V104.138H69.9691C69.8577 104.138 69.7785 104.172 69.7315 104.239C69.7042 104.281 69.6894 104.375 69.6894 104.521V106.234C69.6894 106.395 69.7067 106.496 69.7438 106.536C69.7909 106.59 69.8676 106.618 69.9691 106.618H70.0606V106.689H68.9469V106.618H69.041C69.1523 106.618 69.2315 106.583 69.2761 106.516C69.3033 106.474 69.3182 106.38 69.3182 106.234V104.482L68.3059 106.687H68.2416H68.244Z" fill="#24252D"/>
<path d="M73.2904 105.811H72.2757L72.0975 106.224C72.053 106.326 72.0307 106.402 72.0307 106.452C72.0307 106.492 72.0505 106.526 72.0876 106.558C72.1247 106.591 72.2089 106.608 72.3351 106.618V106.69H71.5085V106.618C71.6174 106.598 71.6891 106.573 71.7213 106.543C71.7881 106.482 71.8599 106.355 71.9391 106.167L72.8623 104.009H72.9291L73.8423 106.19C73.9166 106.365 73.9834 106.479 74.0428 106.531C74.1022 106.583 74.1863 106.613 74.2928 106.62V106.692H73.2582V106.62C73.3622 106.615 73.434 106.598 73.4711 106.568C73.5082 106.539 73.5255 106.501 73.5255 106.459C73.5255 106.402 73.5008 106.313 73.4488 106.19L73.2904 105.813V105.811ZM73.236 105.667L72.7905 104.608L72.3351 105.667H73.236Z" fill="#24252D"/>
<path d="M76.8939 106.615V106.687H75.7703V106.615H75.8644C75.9733 106.615 76.05 106.583 76.0995 106.521C76.1292 106.479 76.1465 106.38 76.1465 106.224V104.531C76.1465 104.398 76.1391 104.311 76.1218 104.269C76.1094 104.237 76.0822 104.21 76.0426 104.185C75.9856 104.155 75.9262 104.138 75.8644 104.138H75.7703V104.066H76.8939V104.138H76.7999C76.6935 104.138 76.6143 104.17 76.5648 104.232C76.5326 104.274 76.5153 104.373 76.5153 104.529V106.222C76.5153 106.355 76.5227 106.442 76.54 106.484C76.5524 106.516 76.5796 106.543 76.6217 106.568C76.6761 106.598 76.7355 106.615 76.7974 106.615H76.8939Z" fill="#24252D"/>
<path d="M80.3588 104.007V104.912H80.2871C80.2648 104.739 80.2227 104.601 80.1633 104.497C80.1039 104.393 80.0173 104.311 79.9059 104.252C79.7945 104.192 79.6807 104.16 79.5619 104.16C79.4283 104.16 79.3169 104.202 79.2303 104.284C79.1436 104.365 79.0991 104.46 79.0991 104.563C79.0991 104.643 79.1263 104.717 79.1832 104.781C79.2624 104.878 79.453 105.006 79.7525 105.167C79.9975 105.299 80.1658 105.4 80.2549 105.469C80.344 105.539 80.4133 105.623 80.4628 105.717C80.5123 105.811 80.5345 105.912 80.5345 106.016C80.5345 106.214 80.4578 106.385 80.3044 106.529C80.1509 106.672 79.9529 106.744 79.7104 106.744C79.6337 106.744 79.5619 106.739 79.4951 106.727C79.4555 106.719 79.3713 106.697 79.2476 106.655C79.1238 106.613 79.0422 106.593 79.01 106.593C78.9778 106.593 78.9531 106.603 78.9333 106.623C78.9135 106.642 78.9011 106.682 78.8912 106.741H78.8194V105.843H78.8912C78.9258 106.031 78.9704 106.172 79.0273 106.266C79.0842 106.36 79.1709 106.437 79.2872 106.499C79.4035 106.561 79.5322 106.593 79.6708 106.593C79.8317 106.593 79.9604 106.551 80.0519 106.464C80.1435 106.378 80.193 106.279 80.193 106.162C80.193 106.098 80.1757 106.034 80.141 105.967C80.1064 105.9 80.0495 105.841 79.9752 105.784C79.9257 105.744 79.7871 105.662 79.5644 105.536C79.3416 105.41 79.1808 105.311 79.0867 105.237C78.9927 105.162 78.9209 105.078 78.8714 104.989C78.8219 104.9 78.7971 104.799 78.7971 104.692C78.7971 104.504 78.8689 104.341 79.0149 104.207C79.161 104.073 79.3441 104.004 79.5668 104.004C79.7054 104.004 79.8539 104.039 80.0099 104.106C80.0816 104.138 80.1336 104.155 80.1633 104.155C80.198 104.155 80.2252 104.145 80.245 104.125C80.2648 104.106 80.2846 104.066 80.297 104.004H80.3687L80.3588 104.007Z" fill="#24252D"/>
<path d="M83.747 104.007C84.0886 104.007 84.3831 104.135 84.6306 104.395C84.8781 104.655 85.0043 104.977 85.0043 105.363C85.0043 105.749 84.8781 106.093 84.6281 106.355C84.3781 106.618 84.0712 106.749 83.7148 106.749C83.3584 106.749 83.0515 106.62 82.8041 106.365C82.5566 106.11 82.4353 105.776 82.4353 105.37C82.4353 104.964 82.5764 104.615 82.861 104.351C83.1085 104.123 83.4005 104.009 83.7445 104.009L83.747 104.007ZM83.7099 104.148C83.4748 104.148 83.2867 104.234 83.1456 104.408C82.9699 104.625 82.8808 104.942 82.8808 105.358C82.8808 105.774 82.9723 106.115 83.1555 106.345C83.2966 106.521 83.4822 106.608 83.7124 106.608C83.9598 106.608 84.1628 106.511 84.3212 106.321C84.4796 106.13 84.5613 105.826 84.5613 105.412C84.5613 104.964 84.4722 104.63 84.2964 104.41C84.1554 104.234 83.9598 104.148 83.7074 104.148H83.7099Z" fill="#24252D"/>
<path d="M86.6575 104.066H87.3703L88.9741 106.034V104.521C88.9741 104.361 88.9568 104.259 88.9196 104.219C88.8726 104.165 88.7959 104.138 88.6944 104.138H88.6028V104.066H89.5161V104.138H89.422C89.3107 104.138 89.2315 104.172 89.1869 104.239C89.1597 104.281 89.1449 104.375 89.1449 104.521V106.732H89.0756L87.348 104.62V106.234C87.348 106.395 87.3654 106.496 87.4 106.536C87.4495 106.59 87.5238 106.618 87.6252 106.618H87.7193V106.689H86.806V106.618H86.8976C87.009 106.618 87.0882 106.583 87.1352 106.516C87.1624 106.474 87.1773 106.38 87.1773 106.234V104.41C87.1006 104.321 87.0436 104.262 87.004 104.234C86.9644 104.207 86.9075 104.18 86.8308 104.155C86.7937 104.143 86.7367 104.138 86.66 104.138V104.066H86.6575Z" fill="#24252D"/>
<path d="M93.7309 106.687V106.615H93.8299C93.9413 106.615 94.0205 106.581 94.065 106.509C94.0922 106.467 94.1071 106.37 94.1071 106.222V104.529C94.1071 104.366 94.0898 104.262 94.0526 104.222C94.0031 104.165 93.9289 104.138 93.8274 104.138H93.7284V104.066H94.7951C95.1862 104.066 95.4856 104.111 95.6886 104.2C95.8915 104.289 96.0573 104.437 96.1811 104.645C96.3048 104.853 96.3667 105.093 96.3667 105.365C96.3667 105.729 96.2553 106.036 96.0351 106.281C95.7876 106.553 95.4064 106.692 94.8991 106.692H93.7284L93.7309 106.687ZM94.4783 106.496C94.6417 106.534 94.7803 106.551 94.8892 106.551C95.1886 106.551 95.4361 106.447 95.6341 106.237C95.8321 106.026 95.9311 105.742 95.9311 105.383C95.9311 105.024 95.8321 104.734 95.6341 104.526C95.4361 104.318 95.1837 104.212 94.8743 104.212C94.758 104.212 94.6268 104.232 94.4783 104.269V106.499V106.496Z" fill="#24252D"/>
<path d="M99.9653 104.138V104.066H100.893V104.138H100.794C100.69 104.138 100.611 104.18 100.557 104.267C100.53 104.306 100.517 104.4 100.517 104.544V105.608C100.517 105.87 100.49 106.076 100.438 106.219C100.386 106.363 100.285 106.489 100.131 106.593C99.9776 106.697 99.7697 106.749 99.5074 106.749C99.2203 106.749 99.005 106.699 98.8565 106.6C98.708 106.501 98.604 106.368 98.5422 106.199C98.5001 106.086 98.4803 105.87 98.4803 105.553V104.529C98.4803 104.368 98.458 104.262 98.4135 104.212C98.3689 104.163 98.2971 104.138 98.1982 104.138H98.0992V104.066H99.2327V104.138H99.1312C99.0223 104.138 98.9456 104.172 98.8986 104.239C98.8664 104.286 98.8491 104.383 98.8491 104.529V105.672C98.8491 105.774 98.859 105.89 98.8763 106.021C98.8936 106.152 98.9283 106.256 98.9778 106.328C99.0273 106.4 99.0966 106.462 99.1906 106.509C99.2847 106.556 99.396 106.581 99.5297 106.581C99.7004 106.581 99.8539 106.543 99.99 106.469C100.126 106.395 100.218 106.298 100.267 106.182C100.317 106.066 100.341 105.868 100.341 105.591V104.529C100.341 104.366 100.324 104.262 100.287 104.222C100.237 104.165 100.163 104.138 100.062 104.138H99.9628H99.9653Z" fill="#24252D"/>
</g>
</svg>
