<svg width="100" height="100" viewBox="0 0 100 100" fill="none" xmlns="http://www.w3.org/2000/svg">
<g opacity="0.4">
<path d="M100 46.6413V53.4798C99.9201 53.5272 99.9534 53.608 99.9472 53.6746C99.8775 54.42 99.8276 55.1672 99.7394 55.9101C99.3196 59.4521 98.5495 62.9169 97.3794 66.2875C94.4132 74.835 89.5193 82.0903 82.6524 87.9744C74.5087 94.9529 65.0684 98.9147 54.3791 99.8845C54.1023 99.9098 53.8144 99.8722 53.5486 99.9918H46.4025C46.3766 99.9091 46.3057 99.9344 46.2496 99.9301C44.7465 99.8105 43.2508 99.6329 41.7625 99.3857C36.8586 98.5725 32.1835 97.054 27.7365 94.8364C23.1613 92.5546 19.0336 89.636 15.3493 86.0903C11.3073 82.2013 8.00334 77.7617 5.45401 72.7678C2.07606 66.1519 0.283199 59.1179 0.0291897 51.6968C-0.0842512 48.3879 0.133383 45.0956 0.674693 41.8256C1.48851 36.9112 2.99777 32.2219 5.21849 27.7651C7.93059 22.3211 11.5194 17.5264 15.9732 13.3833C19.7087 9.9086 23.8758 7.06394 28.4813 4.86726C34.2421 2.1194 40.3081 0.534928 46.6793 0.113224C49.9241 -0.101327 53.159 -0.0125476 56.3834 0.393127C59.7885 0.821613 63.1165 1.59165 66.3601 2.71805C74.0765 5.39686 80.7455 9.70823 86.3707 15.6232C90.3559 19.8137 93.5137 24.5653 95.8467 29.8588C98.0674 34.8989 99.4133 40.164 99.8917 45.6517C99.9207 45.9816 99.8862 46.32 100 46.6413ZM39.104 67.4996C39.0936 67.486 39.0818 67.4731 39.0689 67.462C39.2101 67.0446 39.3882 66.6444 39.6256 66.2727C40.4024 65.0544 41.1817 63.838 41.9598 62.6204C44.7453 58.2591 47.5406 53.9039 50.1195 49.415C50.6855 48.4298 51.2502 47.4421 51.6738 46.3835C51.7515 46.19 51.863 45.9896 51.7804 45.7645C51.6078 45.2941 50.6966 45.0882 50.3464 45.4458C49.5196 46.288 48.6953 47.1326 47.8747 47.981C45.1485 50.7979 42.4234 53.6154 39.6996 56.4342C37.8667 58.3306 36.038 60.2301 34.2045 62.1253C32.8062 63.5711 31.4036 65.0125 29.9998 66.4533C29.9098 66.5458 29.8327 66.6882 29.6558 66.6512C29.7236 66.544 29.7834 66.449 29.8438 66.3541C32.1718 62.7085 34.3235 58.9619 36.2945 55.1105C38.0017 51.7751 39.4431 48.3348 40.395 44.7047C40.8186 43.0901 41.0899 41.4501 40.8544 39.7744C40.6429 38.2694 39.9468 37.1079 38.4394 36.5728C37.8543 36.365 37.2464 36.2867 36.6268 36.2799C33.6971 36.2485 30.8913 36.8545 28.1631 37.8927C24.1132 39.4341 20.6428 41.7892 17.9004 45.1684C17.0182 46.2553 16.2525 47.4168 15.8234 48.7689C15.5842 49.5235 15.4824 50.2942 15.6255 51.0753C15.8838 52.4884 16.8499 53.2356 18.1489 53.5969C20.1539 54.1542 22.1761 54.0803 24.1705 53.5605C27.1502 52.7843 29.6995 51.2677 31.7791 48.9797C32.6928 47.9742 33.5257 46.9119 34.1663 45.7091C34.3839 45.3003 34.5898 44.8817 34.535 44.3989C34.5189 44.2596 34.5861 44.0407 34.3962 44C34.2199 43.9618 34.1287 44.1585 34.0232 44.2793C33.977 44.3324 33.9529 44.4039 33.9153 44.4649C33.7316 44.7608 33.5621 45.0666 33.3605 45.3496C31.7106 47.6585 29.5534 49.3811 27.0694 50.7035C24.9887 51.8114 22.755 52.2948 20.3974 52.1752C19.7093 52.1407 19.0318 52.0396 18.3906 51.764C17.3881 51.3324 16.93 50.5617 17.0028 49.4748C17.0731 48.4249 17.5127 47.5186 18.078 46.6665C19.3585 44.7349 21.0114 43.1591 22.8783 41.8108C25.6046 39.8403 28.5275 38.2516 31.8204 37.4377C33.2495 37.0845 34.7014 36.8656 36.178 37.0358C37.3975 37.1763 38.2378 37.8305 38.6484 39.0062C38.85 39.5839 38.9283 40.1825 38.9363 40.7892C38.9573 42.4156 38.6219 43.9883 38.1718 45.5377C36.8963 49.9304 35.0448 54.0852 32.9375 58.1327C31.0824 61.6944 29.1601 65.2184 27.0892 68.6605C26.9258 68.9318 26.7661 69.2111 26.7291 69.5353C26.6946 69.8374 26.8395 70.0138 27.1422 70.0193C27.4924 70.0255 27.8216 69.9312 28.0633 69.6667C30.0781 67.4632 32.1471 65.3115 34.2119 63.1549C36.6953 60.5606 39.1805 57.9681 41.6663 55.3762C43.1503 53.8281 44.6306 52.2763 46.125 50.7381C47.1472 49.6857 48.1392 48.6024 49.2071 47.595C49.3291 47.4797 49.4734 47.2362 49.6485 47.3657C49.8205 47.4933 49.6374 47.7066 49.5659 47.8626C49.0591 48.9631 48.4123 49.9859 47.7804 51.0161C45.6855 54.4335 43.4277 57.7455 41.268 61.1216C39.8772 63.2961 38.4801 65.4687 37.3358 67.7893C37.1188 68.2302 36.8963 68.6734 36.8309 69.1679C36.7569 69.7296 37.1059 70.0027 37.6441 69.8196C38.0263 69.6895 38.3075 69.4188 38.58 69.1383C40.2113 67.4607 41.8383 65.7795 43.4734 64.105C45.4234 62.1074 47.3766 60.113 49.3334 58.1216C51.9592 55.4496 54.5893 52.7812 57.22 50.1141C57.3779 49.9545 57.5573 49.8145 57.7336 49.6746C57.8329 49.5956 57.9648 49.5365 58.0721 49.6271C58.1911 49.7276 58.0721 49.8336 58.0203 49.9243C55.8051 53.7788 53.5832 57.629 51.3741 61.4872C50.3969 63.1938 49.3606 64.867 48.4771 66.6253C48.0961 67.3843 47.7323 68.1537 47.6078 69.0088C47.4765 69.9083 47.9506 70.4608 48.8612 70.4534C49.3464 70.449 49.8162 70.343 50.278 70.1981C51.8637 69.7006 53.2996 68.8923 54.7213 68.0557C55.8175 67.4108 56.8668 66.6925 57.9334 66.002C58.2959 65.7678 58.3563 65.6679 58.2478 65.2308C58.2281 65.2326 58.2046 65.2289 58.1892 65.2382C58.1004 65.2893 58.0123 65.3411 57.926 65.3966C55.9956 66.6457 53.9956 67.7635 51.8495 68.6032C51.3341 68.8048 50.8106 68.9947 50.2434 68.9743C49.6423 68.9527 49.4752 68.7425 49.5801 68.1549C49.7576 67.1605 50.2027 66.2696 50.6812 65.3997C53.4987 60.2757 56.3298 55.1592 59.1553 50.0395C59.2737 49.825 59.3982 49.6098 59.4846 49.3811C59.6344 48.9859 59.5456 48.727 59.2096 48.4631C58.8261 48.1622 58.5764 48.1394 58.2077 48.378C57.8711 48.5963 57.5635 48.8527 57.2638 49.1178C55.6559 50.5408 54.1645 52.0821 52.6763 53.6265C50.818 55.555 48.9623 57.4853 47.1072 59.4169C44.8895 61.7258 42.7323 64.092 40.4505 66.3393C40.0282 66.7548 39.6225 67.195 39.1053 67.5027L39.104 67.4996ZM10.2481 66.0144C10.2241 66.2659 10.1963 66.4552 10.1902 66.6451C10.1476 68.0125 10.6236 69.2135 11.4806 70.2413C13.4793 72.6359 16.0355 74.0804 19.1286 74.5292C19.9196 74.6439 20.7241 74.6316 21.5114 74.4219C21.9523 74.3042 22.0077 74.1932 21.7987 73.7814C21.7112 73.6081 21.6144 73.438 21.5059 73.2777C20.853 72.3165 19.9442 71.6482 18.9196 71.155C18.4313 70.9201 18.1501 70.581 17.9794 70.1032C17.9448 70.007 17.9066 69.912 17.8727 69.8159C17.3425 68.3288 17.4035 66.7875 17.475 65.2493C17.5718 63.1802 17.7358 61.1099 17.3844 59.0495C17.1014 57.391 16.5638 55.838 15.4387 54.5377C14.1797 53.0821 12.3233 52.5322 10.6421 53.1246C10.2888 53.2492 9.96698 53.4385 9.61063 53.6512C9.56686 53.0864 9.5274 52.5729 9.48363 52.0001C9.88128 52.214 10.2179 52.3953 10.594 52.5975C10.4281 51.6925 10.1575 50.8712 9.70126 50.1444C9.3819 49.6357 9.54404 49.1524 9.51198 48.5648C10.3603 49.3768 11.2796 49.8373 12.409 49.9834C12.2648 49.7923 12.1507 49.6493 12.0447 49.5001C11.5792 48.849 11.2574 48.1419 11.1501 47.3379C11.0397 46.5118 11.1495 45.6998 11.258 44.8872C11.406 43.7769 11.4245 42.6788 11.0397 41.6073C10.9923 41.476 11.0249 41.3687 11.0669 41.2547C11.6717 39.619 12.3949 38.0395 13.274 36.5314C13.3832 36.3446 13.4608 36.3329 13.6433 36.4433C15.0848 37.3175 16.6427 37.5728 18.2858 37.2343C20.2389 36.8317 21.7735 35.7503 22.9923 34.2022C24.1378 32.7472 24.8031 31.0505 25.3937 29.3193C25.906 27.8187 26.3635 26.2983 27.07 24.8692C27.2624 24.4808 27.4985 24.2022 27.9332 24.0819C28.316 23.9759 28.6798 23.8014 29.0571 23.6707C29.4098 23.5486 29.7692 23.4438 30.1712 23.3174C30.0645 23.7459 29.956 24.1177 29.9215 24.503C29.8518 25.2829 29.8956 26.0468 30.3413 26.7237C30.5867 27.0967 30.8685 27.0832 31.1132 26.7133C31.3241 26.3958 31.4628 26.04 31.6065 25.6904C32.2378 24.1541 33.2976 23.0012 34.7008 22.1325C36.3907 21.0868 38.1805 20.2693 40.0886 19.6984C40.0109 19.5634 39.8735 19.532 39.7563 19.4777C36.85 18.1312 33.2501 18.974 31.2322 21.4672C31.1317 21.5918 31.046 21.7194 30.8629 21.7687C29.6669 22.0924 28.4942 22.4876 27.3561 22.9814C27.2538 23.0258 27.1934 23.0277 27.099 22.9352C26.8333 22.6756 26.5115 22.495 26.1631 22.36C25.16 21.9709 24.1372 21.9888 23.1064 22.212C22.0897 22.4321 21.152 22.8779 20.1921 23.257C18.9042 23.7656 17.5854 24.0474 16.1945 23.8483C15.9411 23.8119 15.6896 23.7669 15.3641 23.7145C17.0922 25.7188 19.2747 26.2761 21.8086 26.0604C19.4664 27.7459 17.4794 29.6621 15.758 31.8551C15.1495 32.6301 14.5792 33.4315 14.049 34.262C13.9923 34.3502 13.9701 34.5031 13.782 34.3896C12.991 33.9106 12.2654 33.0425 12.5083 31.8169C12.6267 31.2188 12.9029 30.7028 13.2518 30.2145C13.3209 30.1183 13.4442 30.0394 13.4368 29.8674C13.2173 29.9358 13.0798 30.0789 12.9343 30.1991C11.9738 30.992 11.3751 31.971 11.4793 33.2614C11.5638 34.3046 12.0866 35.1399 12.8412 35.8354C12.9775 35.9612 13.004 36.0432 12.9115 36.2084C12.5521 36.8527 12.242 37.5216 11.9423 38.1955C11.5268 39.1295 11.1785 40.0894 10.8381 41.0851C10.6667 40.8058 10.5009 40.5611 10.3289 40.32C10.1612 40.0851 10.012 40.1036 9.80175 40.2497C9.20804 40.6616 8.70557 41.1634 8.40594 41.82C7.40716 44.0111 7.74687 46.0919 9.09213 48.005C9.44848 48.5118 9.32025 48.9569 9.33997 49.4458C9.25551 49.3805 9.20372 49.3053 9.14947 49.2325C8.37511 48.2004 7.48978 47.2985 6.2333 46.8687C5.19198 46.5124 4.19753 46.6277 3.26349 47.2319C3.08408 47.3478 3.04216 47.4692 3.10997 47.6616C3.23266 48.0106 3.37816 48.3459 3.5699 48.6641C4.18643 49.6857 5.14143 50.2473 6.22097 50.6536C7.19754 51.0211 8.17905 51.3768 9.12542 51.8213C9.30853 51.907 9.37758 52.0075 9.3819 52.2103C9.39115 52.6302 9.42136 53.0507 9.47068 53.468C9.49534 53.6727 9.4528 53.7973 9.29127 53.9391C7.56561 55.4496 7.40161 58.0014 8.91889 59.6863C9.42875 60.2523 10.0539 60.6401 10.8603 60.8423C10.6328 60.3244 10.4146 59.8657 10.2734 59.3781C10.1316 58.8885 10.057 58.3947 10.1729 57.8787C11.3129 62.3855 13.3147 66.4539 16.3339 70.0582C16.2346 70.0538 16.1933 70.0606 16.1575 70.0489C15.1261 69.7129 14.0878 69.3954 13.1088 68.9201C11.872 68.3196 10.8782 67.4706 10.3424 66.1642C10.3283 66.1297 10.303 66.1001 10.2494 66.0156L10.2481 66.0144ZM50.8507 23.4161C50.9475 23.4235 51.0443 23.4352 51.1417 23.437C51.7928 23.4481 52.3483 22.9161 52.3668 22.2644C52.3859 21.6183 51.815 21.0437 51.1547 21.0437C50.4944 21.0437 49.9759 21.5751 49.9617 22.2391C49.9524 22.6972 50.2428 22.9808 50.495 23.3051C51.0375 24.0018 51.8082 24.1578 52.5591 23.691C53.8063 22.9155 54.1744 21.1645 53.3236 19.9635C52.5381 18.8544 51.3883 18.3168 50.1109 18.019C47.9432 17.5141 45.974 18.617 45.2829 20.7317C44.7052 22.4993 45.0732 24.1109 46.1885 25.5647C47.077 26.7231 48.2872 27.4401 49.6152 27.979C51.3193 28.6707 53.1121 29.0641 54.8871 29.5129C57.0104 30.0505 59.1436 30.5481 61.2065 31.3008C63.947 32.3008 66.2608 33.8607 67.8841 36.336C68.6603 37.5191 69.3003 38.7534 69.3952 40.2096C69.5389 42.4063 67.6874 44.2504 65.4907 44.1036C63.8465 43.9939 62.4131 43.3755 61.1399 42.3644C60.1868 41.6073 59.397 40.7127 59.0129 39.5271C58.6584 38.4328 58.8582 37.463 59.7164 36.664C60.2842 36.1356 60.9494 35.7824 61.7084 35.6258C62.5006 35.4624 63.2614 35.558 63.9574 35.9938C64.3514 36.2404 64.6424 36.5795 64.8391 37.061C64.7108 37.0191 64.6362 36.992 64.5598 36.971C63.889 36.7873 63.2293 37.1646 63.0555 37.8298C62.8896 38.4661 63.3002 39.1313 63.9562 39.2898C64.6091 39.4476 65.2448 39.0105 65.4001 38.3262C65.4692 38.0234 65.3397 37.7614 65.2978 37.4821C65.1202 36.2996 64.4242 35.5444 63.2879 35.2552C61.7404 34.8613 60.4445 35.4229 59.3347 36.4778C58.6467 37.1313 58.3699 37.9575 58.463 38.9057C58.5376 39.6696 58.8279 40.3558 59.2546 40.9791C60.6079 42.9569 62.4673 44.2473 64.7756 44.8361C67.3995 45.505 69.677 44.4945 70.8829 42.1918C71.6172 40.7898 71.6819 39.2997 71.3058 37.7935C70.484 34.5006 68.5025 32.0548 65.6782 30.2521C63.7478 29.0203 61.6103 28.2897 59.4081 27.7281C57.0943 27.1374 54.7379 26.7496 52.4044 26.2496C51.1713 25.9851 49.9383 25.7022 48.8396 25.0499C47.5221 24.2675 46.7101 23.1744 46.8316 21.5554C46.9278 20.278 47.7989 19.3069 49.0634 19.1497C50.2274 19.0048 51.3088 19.302 52.2632 19.9789C53.3853 20.7749 53.5295 22.1171 52.638 23.1726C52.1319 23.7718 51.4352 23.8859 50.8482 23.4161H50.8507ZM85.6456 70.3603C87.698 70.3603 89.7498 70.3615 91.8023 70.3596C92.5248 70.359 92.6783 70.2104 92.7295 69.4854C92.8485 67.8078 92.9743 66.1309 93.0822 64.4533C93.1118 63.9946 93.1555 63.5316 93.0667 63.0723C93.0341 62.904 92.9484 62.8023 92.7708 62.7665C92.5778 62.7277 92.4829 62.8417 92.4015 62.9755C92.2862 63.1648 92.2585 63.3812 92.2492 63.5963C92.1777 65.2153 92.0637 66.8313 91.9373 68.4466C91.8738 69.2548 91.6432 69.4953 90.8257 69.4965C88.2283 69.4996 85.6308 69.4953 83.0334 69.5021C82.8262 69.5021 82.756 69.4601 82.7566 69.2369C82.7646 66.4139 82.7646 63.5902 82.7566 60.7671C82.7566 60.5482 82.8225 60.4965 83.0303 60.4897C84.5075 60.4403 85.9841 60.4477 87.4613 60.4712C87.8756 60.478 88.1623 60.6617 88.3553 61.0143C88.5513 61.3713 88.629 61.7616 88.6666 62.1623C88.6956 62.478 88.703 62.7979 88.7572 63.1093C88.7887 63.2887 88.8923 63.4811 89.1185 63.4644C89.3491 63.4471 89.444 63.2622 89.4601 63.0538C89.478 62.8189 89.4718 62.5822 89.4699 62.3466C89.4625 61.158 89.3929 59.9706 89.4514 58.7807C89.4804 58.1869 89.4693 57.5908 89.4564 56.9958C89.4521 56.809 89.3818 56.6327 89.137 56.6142C88.8941 56.5963 88.7874 56.7301 88.7202 56.9372C88.6493 57.1573 88.6629 57.383 88.6543 57.6074C88.6333 58.1598 88.6339 58.7141 88.4847 59.2542C88.4243 59.4718 88.3072 59.568 88.0692 59.5754C86.3978 59.6278 84.727 59.6518 83.055 59.5791C82.8022 59.568 82.756 59.4958 82.7566 59.2646C82.764 56.6364 82.7652 54.0081 82.7547 51.3799C82.7535 51.1178 82.8281 51.0624 83.0784 51.0636C85.4397 51.0735 87.801 51.0691 90.1623 51.0698C90.2548 51.0698 90.3473 51.0685 90.4391 51.0778C90.9706 51.1326 91.137 51.3145 91.1383 51.849C91.1401 52.7319 91.1358 53.6148 91.1413 54.4977C91.1426 54.7017 91.1691 54.9064 91.1925 55.1099C91.2178 55.333 91.3417 55.4619 91.5723 55.4798C91.8238 55.4995 91.9151 55.338 91.9644 55.1327C91.9835 55.0531 91.9921 54.9711 91.9995 54.8891C92.0914 53.875 92.0248 52.8583 92.0415 51.8423C92.047 51.5038 92.0507 51.1635 92.0168 50.8275C91.9669 50.3373 91.7924 50.19 91.2936 50.1869C90.7807 50.1838 90.2677 50.2035 89.7548 50.2048C87.9483 50.2103 86.1413 50.2177 84.3349 50.214C82.8676 50.2116 81.3996 50.1931 79.9323 50.1857C79.6554 50.1844 79.378 50.1955 79.1092 50.2751C78.9434 50.3244 78.8404 50.4317 78.8453 50.608C78.8503 50.7886 78.9612 50.8737 79.1369 50.9064C79.3509 50.9465 79.5642 50.9545 79.78 50.9551C80.108 50.9551 80.4372 50.9477 80.7609 51.0192C81.3953 51.1592 81.6296 51.431 81.6308 52.0562C81.6345 53.8719 81.7233 55.6851 81.751 57.5001C81.809 61.277 81.7331 65.0538 81.7122 68.8307C81.7097 69.2345 81.5278 69.4564 81.1394 69.56C80.7701 69.6587 80.3928 69.6858 80.0112 69.6833C79.6931 69.6815 79.3749 69.6796 79.0611 69.7468C78.8903 69.7838 78.7794 69.8874 78.7726 70.06C78.7652 70.2468 78.9132 70.2943 79.063 70.3085C79.2972 70.3313 79.5328 70.3572 79.7677 70.3578C81.7276 70.3615 83.6875 70.3603 85.6469 70.3603H85.6456ZM45.6793 29.1911C45.1719 28.664 44.5997 28.2379 43.8914 28.0474C42.0837 27.5622 40.6756 28.934 41.104 30.7638C41.3802 31.9439 42.1324 32.7879 43.1386 33.3902C45.1885 34.6171 47.4216 34.8835 49.7514 34.5357C51.2354 34.3138 52.6578 33.8489 54.0906 33.426C55.2539 33.0826 56.4284 32.807 57.6565 32.8952C58.0881 32.926 58.5191 32.9648 58.9734 33.0018C58.8058 32.5148 58.5443 32.127 58.212 31.7867C57.0437 30.5924 55.5604 30.2552 53.9666 30.2774C52.6047 30.2965 51.2854 30.6109 49.9789 30.9661C48.3828 31.4001 46.7718 31.6553 45.1164 31.4254C44.3445 31.3181 43.6139 31.0894 43.0356 30.5289C42.4394 29.9513 42.6484 29.0857 43.4388 28.8606C43.675 28.7934 43.9185 28.7731 44.1694 28.8021C44.691 28.8619 45.1799 29.0333 45.6805 29.1917L45.6793 29.1911ZM74.243 52.7498C74.2312 52.7541 74.2189 52.7584 74.2072 52.7627C74.1517 52.6444 74.0968 52.526 74.0414 52.4076C73.6258 51.526 73.0469 50.7825 72.2097 50.2633C70.574 49.2492 68.881 49.2849 67.1936 50.0809C65.5129 50.8737 64.3724 52.2288 63.5259 53.8478C62.3859 56.0279 61.9759 58.3657 62.0555 60.8053C62.1134 62.6013 62.3761 64.3559 63.1103 66.0137C63.8644 67.7166 64.963 69.1075 66.7065 69.8868C69.4075 71.0945 72.4976 70.3726 74.2288 68.1297C75.005 67.1241 75.3965 65.9755 75.3811 64.7012C75.3786 64.486 75.378 64.1845 75.087 64.1648C74.7855 64.1438 74.7781 64.4478 74.7436 64.6599C74.6671 65.1253 74.5876 65.5883 74.4335 66.0366C73.2195 69.5588 69.2836 70.8498 66.3329 68.6827C65.0586 67.7468 64.32 66.4348 63.844 64.9638C63.1578 62.8423 63.0024 60.6604 63.246 58.4564C63.4531 56.5834 64.0049 54.8096 65.0136 53.2005C65.7133 52.0846 66.5894 51.1314 67.8323 50.632C69.283 50.0494 70.7183 50.0402 72.0191 51.058C72.7522 51.6314 73.2023 52.4089 73.5081 53.2745C73.9014 54.3898 74.0198 55.5501 74.0531 56.7221C74.066 57.1734 74.0512 57.6265 74.1529 58.0698C74.2072 58.3059 74.325 58.4897 74.6129 58.4712C74.8897 58.4533 74.968 58.264 74.9914 58.0328C75.0081 57.87 75.021 57.7054 75.0198 57.5421C75.0087 55.9107 74.9366 54.28 75.0179 52.6487C75.0506 51.9933 75.0555 51.3361 75.058 50.6795C75.0592 50.3558 74.8558 50.1326 74.595 50.1271C74.3176 50.1209 74.1486 50.312 74.1289 50.6622C74.1234 50.7646 74.1289 50.8675 74.1357 50.9699C74.1708 51.563 74.2078 52.1567 74.2442 52.7498H74.243ZM15.311 52.8546C15.2599 52.6123 15.2284 52.4625 15.197 52.3127C14.7808 50.3287 14.8801 48.4021 15.8554 46.5808C16.2463 45.8502 16.6748 45.1394 17.0694 44.4107C17.5737 43.4803 17.9732 42.5081 18.1656 41.4606C18.2032 41.2559 18.2291 41.1018 17.9177 41.0796C16.451 40.9741 15.2703 41.5654 14.3098 42.5999C12.8986 44.1197 12.3973 45.9557 12.6378 47.9951C12.8671 49.9366 13.8258 51.4921 15.311 52.8546ZM55.2737 43.6856C55.2644 43.6116 55.2663 43.5703 55.2546 43.534C54.8495 42.3206 54.7213 41.0777 54.8341 39.804C54.9814 38.1412 55.6226 36.7238 56.8779 35.6023C57.0844 35.418 57.2768 35.217 57.4907 35.0419C57.6683 34.897 57.6584 34.783 57.5117 34.6208C56.7879 33.8224 55.8859 33.582 54.8606 33.799C53.3569 34.1177 52.1904 35.5234 52.0049 37.1603C51.8273 38.7294 52.2539 40.1443 53.0721 41.4575C53.6294 42.3533 54.3415 43.1067 55.2737 43.6856ZM43.8081 20.4142C43.8334 20.3452 43.8568 20.3008 43.8661 20.2527C44.0806 19.1842 43.9536 18.1485 43.5295 17.154C42.7323 15.2847 41.2958 14.1367 39.3784 13.5609C38.2347 13.2175 37.0843 13.1614 35.9351 13.5541C35.6398 13.6552 35.3716 13.8007 35.1447 14.0134C34.8623 14.2785 34.8759 14.5295 35.1761 14.7588C35.3408 14.8846 35.5337 14.9567 35.7267 15.0258C36.4289 15.2773 37.1533 15.466 37.8395 15.7625C39.8574 16.6343 41.556 17.9487 43.0517 19.5394C43.3094 19.8137 43.5455 20.1084 43.8075 20.413L43.8081 20.4142ZM30.1397 36.2139C29.9085 34.1159 29.9381 32.077 29.8124 30.0468C29.7464 28.9833 29.4036 28.0024 28.7667 27.1387C28.5503 26.8452 28.3487 26.3711 28.025 26.3773C27.6329 26.3847 27.3117 26.7792 27.0534 27.1183C26.234 28.1954 26.1132 29.4032 26.4208 30.6775C26.8358 32.3983 27.7889 33.815 28.9597 35.1054C29.308 35.4895 29.6841 35.8422 30.1397 36.2139ZM44.0609 23.3433C43.8106 23.0998 43.5664 22.9303 43.2952 22.8069C41.8038 22.1294 40.4104 22.4173 39.1681 23.368C37.5695 24.5912 36.7803 26.294 36.551 28.2681C36.5085 28.6337 36.5214 29.0067 36.6299 29.3662C36.7976 29.9217 37.1447 30.0302 37.5929 29.6683C37.8013 29.5 37.9832 29.3033 38.1398 29.0875C38.6324 28.4069 39.1133 27.7182 39.6059 27.0376C40.2619 26.1306 40.9653 25.2632 41.7835 24.4956C42.4191 23.8988 43.1928 23.5603 44.0609 23.3433ZM45.7477 29.2571C45.7551 29.2509 45.7631 29.2453 45.7705 29.2392C45.7644 29.2318 45.7582 29.2194 45.7508 29.2188C45.744 29.2182 45.7354 29.2293 45.728 29.2355C45.7342 29.2429 45.7416 29.2497 45.7477 29.2571Z" fill="#24252D"/>
<path d="M45.7488 29.2575C45.7426 29.2501 45.7358 29.2433 45.7296 29.2359C45.737 29.2297 45.7457 29.2186 45.7525 29.2193C45.7592 29.2199 45.7654 29.2322 45.7722 29.2396C45.7648 29.2458 45.7562 29.2513 45.7488 29.2575Z" fill="#24252D"/>
<path d="M15.4039 67.8018C15.2708 67.7248 15.2048 67.5941 15.1228 67.4849C12.8867 64.5016 11.2658 61.2192 10.3293 57.6045C10.2781 57.4078 10.3065 57.2525 10.4064 57.0829C10.7818 56.443 11.4045 56.1014 11.9705 56.2457C12.3343 56.3381 12.6037 56.5749 12.8355 56.8542C13.587 57.7611 13.9557 58.8456 14.2381 59.9621C14.6567 61.6168 14.7831 63.3166 14.9816 65.0047C15.0809 65.8493 15.198 66.6915 15.3916 67.5207C15.4113 67.6058 15.452 67.6927 15.4039 67.8018Z" fill="#24252D"/>
<path d="M23.203 26.5252C22.5193 27.6078 21.9884 28.7669 21.4551 29.9254C21.1296 30.6325 20.8072 31.3409 20.3978 32.0043C19.6352 33.2404 18.6592 34.2299 17.2437 34.7059C16.4231 34.9821 15.5963 34.9827 14.7572 34.7941C14.4668 34.7287 14.4841 34.6406 14.6376 34.426C16.637 31.6251 19.0581 29.254 21.8867 27.2977C22.2986 27.0129 22.7221 26.7453 23.1401 26.4697C23.1611 26.4882 23.182 26.5067 23.203 26.5252Z" fill="#24252D"/>
<path d="M15.4366 67.8479C15.4422 67.8479 15.4502 67.8467 15.4533 67.8497C15.4576 67.8541 15.4588 67.8621 15.4613 67.8682C15.4496 67.8676 15.4385 67.8664 15.4268 67.8658C15.4298 67.8596 15.4335 67.8541 15.4366 67.8479Z" fill="#24252D"/>
<path d="M39.104 67.4996C39.0781 67.4983 39.052 67.4974 39.0262 67.4962C39.0403 67.4851 39.0547 67.4731 39.0689 67.462C39.0818 67.4731 39.0936 67.486 39.104 67.4996Z" fill="#24252D"/>
</g>
</svg>
