<svg width="122" height="109" viewBox="0 0 122 109" fill="none" xmlns="http://www.w3.org/2000/svg">
<g opacity="0.4">
<path d="M35.8264 29.6244C36.8664 29.5204 37.7534 30.2092 38.7324 30.2341C39.5591 30.2552 39.9223 30.7623 40.2351 31.2839C40.4687 31.6735 40.523 32.2379 40.4853 32.7105C40.3964 33.8303 40.2034 34.9419 40.0557 36.0573C39.902 37.2239 39.7611 38.3928 39.5945 39.5579C39.5418 39.9287 39.4197 40.2896 39.3383 40.6567C39.0451 41.9808 38.7557 43.3064 38.4648 44.6313C38.5522 44.6607 38.6397 44.69 38.7278 44.7187C39.0564 44.0276 39.3827 43.3343 39.7151 42.6447C40.0723 41.9054 40.4559 41.1782 40.789 40.4283C40.994 39.9671 40.9789 39.3808 41.5826 39.1765C41.465 38.2714 42.0061 37.5593 42.2993 36.7778C42.4311 36.4266 42.6708 36.1183 42.8328 35.7762C43.0175 35.3873 43.4191 35.1017 43.2202 34.5267C43.1471 34.3157 43.603 33.9585 43.7319 33.6336C44.3988 31.9553 45.0688 30.2823 46.1992 28.8429C46.4479 28.5263 46.6966 28.4804 47.087 28.6507C47.5671 28.8594 48.0916 29.0072 48.6108 29.0757C49.8136 29.234 50.2711 29.8263 50.0118 30.9914C49.7126 32.3404 49.3652 33.6826 49.1346 35.0437C48.9409 36.1877 48.8904 37.355 48.7683 38.5111C48.6952 39.2059 48.586 39.8985 48.5332 40.5949C48.5114 40.8775 48.6515 41.1736 48.6214 41.454C48.5189 42.4156 48.3546 43.3704 48.2529 44.3328C48.1994 44.8355 48.2589 45.3502 48.2122 45.8544C48.1165 46.8853 48.0057 47.9155 47.8602 48.9412C47.7366 49.8154 47.5565 50.6813 47.393 51.5985H46.9401C46.9401 52.5677 46.9702 53.4863 46.931 54.4012C46.8979 55.1737 46.7652 55.9416 46.7268 56.7133C46.7208 56.843 46.9468 57.0427 47.1081 57.112C47.7366 57.3818 47.8783 57.8174 47.7336 58.461C47.5369 59.3367 47.4179 60.2297 47.2506 61.113C47.026 62.2992 46.7758 63.4809 46.5617 64.6686C46.4811 65.1177 46.4743 65.5805 46.4246 66.0356C46.3417 66.7976 46.2294 67.5572 46.1744 68.3214C46.1518 68.6281 46.3085 68.9499 46.2769 69.2536C46.1782 70.1941 45.9445 71.1279 45.9197 72.0676C45.8842 73.3955 45.9897 74.7279 46.1729 76.0551V75.7476C46.2369 75.7212 46.3017 75.6948 46.3658 75.6684C46.5821 76.2457 46.8089 76.82 47.0132 77.4018C47.3734 78.4297 47.2272 79.432 46.8398 80.4208C46.5361 81.197 45.8873 81.454 45.1517 81.0787C44.9965 80.9988 44.8405 80.9189 44.634 80.8127C44.634 81.4826 44.6566 82.1021 44.6219 82.7178C44.6091 82.9439 44.4614 83.1617 44.3747 83.3833C44.2722 83.3833 44.1697 83.3833 44.068 83.3833C43.8668 83.2521 43.6663 83.121 43.3702 82.9273C43.4719 83.9621 43.5586 84.8528 43.6641 85.9275C43.4229 86.3902 43.2737 87.079 43.4787 87.8297C43.5201 87.9811 43.4455 88.1597 43.4568 88.324C43.5231 89.3309 43.655 90.337 43.6528 91.343C43.6505 92.1713 43.4734 92.998 43.4131 93.8285C43.389 94.1676 43.4945 94.5143 43.499 94.8579C43.5186 96.2288 43.539 97.6004 43.5262 98.9712C43.5179 99.813 43.7138 100.627 43.4787 101.513C43.3008 102.184 43.6641 102.997 43.8163 103.936C43.8366 103.652 43.8442 103.547 43.851 103.443C43.909 103.421 43.9663 103.399 44.0243 103.377C44.2489 103.964 44.4998 104.543 44.6935 105.141C45.05 106.245 44.8834 107.324 44.377 108.336C44.2557 108.579 43.8871 108.842 43.6271 108.847C42.3354 108.875 41.4439 108.169 41.5728 106.856C41.7122 105.43 41.5193 103.974 41.4989 102.53C41.4921 102.044 41.578 101.558 41.6097 101.072C41.6187 100.933 41.5743 100.792 41.575 100.653C41.578 100.111 41.6165 99.5673 41.5916 99.0262C41.5396 97.8905 41.4522 96.7556 41.3889 95.6206C41.3715 95.3093 41.3829 94.9951 41.3964 94.6831C41.4077 94.4118 41.471 94.1397 41.4582 93.8707C41.3768 92.117 41.2547 90.3656 41.1952 88.6112C41.1221 86.4309 41.0807 84.2484 41.0595 82.0667C41.052 81.2701 41.147 80.4728 41.1831 79.6747C41.1914 79.4953 41.156 79.3137 41.1349 79.1336C41.0942 78.7832 40.7897 78.4229 41.4024 78.1637C41.5939 78.0831 41.5871 77.4289 41.5931 77.0355C41.615 75.7272 41.5833 74.4174 41.6089 73.1091C41.6225 72.4347 41.7152 71.7617 41.7717 71.0887L41.5833 71.0261C41.3128 71.6358 41.0656 72.2576 40.7679 72.8537C39.9073 74.5795 39.1182 76.3512 38.1159 77.9919C37.6072 78.8246 36.9199 79.6822 35.8505 79.9641C35.5536 80.0425 35.2137 80.0915 34.922 80.0266C34.1164 79.8488 33.3311 79.5805 32.527 79.3921C31.9369 79.2534 31.4139 78.738 31.4079 78.0898C31.3974 76.9383 31.4041 75.7868 31.4109 74.6352C31.4109 74.5516 31.4607 74.4627 31.5036 74.3858C31.9776 73.5267 31.8081 72.6321 31.7191 71.7202C31.6739 71.2515 31.8744 70.7593 31.8209 70.2356C31.6408 70.7435 31.429 71.2424 31.2851 71.7594C30.493 74.6089 29.6942 77.4575 28.9496 80.3198C28.7182 81.2091 28.6527 82.1413 28.5012 83.0524C28.4537 83.3373 28.4409 83.6659 28.2834 83.8807C28.1711 84.0344 27.8455 84.0826 27.6134 84.0872C27.1733 84.0954 26.7302 83.996 26.2931 84.0193C25.7007 84.051 24.2553 83.4006 24.1513 82.9055C24.0699 82.5196 24.1505 82.078 24.2425 81.6808C24.6336 80.001 25.0564 78.328 25.4671 76.6527C25.7557 75.4748 25.972 74.272 26.3541 73.125C26.7272 72.0066 27.2811 70.95 27.7317 69.8558C27.8666 69.5294 27.9209 69.17 28.0098 68.8369C26.5749 68.6778 25.2508 69.3418 23.8302 69.4797C23.8325 69.5392 23.834 69.5988 23.8363 69.6583C24.0111 69.708 24.1859 69.7585 24.3615 69.8083C24.4007 69.8618 24.4392 69.9145 24.4783 69.968C24.3593 70.0253 24.2312 70.1459 24.1226 70.1301C23.1851 69.9952 22.2446 70.5039 21.2958 70.0894C21.1285 70.0163 20.8195 70.2657 20.7019 70.3147C20.5897 70.7013 20.396 71.0261 20.4352 71.32C20.4811 71.6614 20.7298 71.9765 20.8911 72.3028C20.8316 72.3314 20.772 72.3608 20.7132 72.3894C20.5037 71.8491 20.2942 71.308 20.084 70.7676C20.0388 70.7767 19.9928 70.7865 19.9476 70.7955C19.9815 71.2319 20.0259 71.6675 20.0455 72.1038C20.0538 72.2937 20.0666 72.5176 19.98 72.6698C19.7742 73.0315 19.7162 73.3119 20.0908 73.6156C20.2015 73.7053 20.2015 73.9833 20.1857 74.1695C20.1232 74.9111 20.0184 75.6489 19.9634 76.3904C19.9332 76.7951 19.94 77.2096 19.9868 77.6128C20.1006 78.5963 20.2483 79.576 20.3801 80.5579C20.3892 80.6258 20.402 80.7049 20.3771 80.7629C19.937 81.7977 20.2897 82.8369 20.3455 83.8754C20.3545 84.0397 20.252 84.2093 20.0403 84.3946C19.833 83.1662 19.6386 81.9363 19.4132 80.7109C19.2309 79.7199 19.0108 78.7357 18.8058 77.7484C18.3672 75.6391 17.9211 73.5304 17.493 71.4188C17.4011 70.9658 17.2956 70.8129 16.7364 70.9123C15.5803 71.1181 14.3926 71.1392 13.2207 71.265C12.9818 71.2907 12.755 71.4391 12.5244 71.5348C12.4287 71.5748 12.3134 71.6833 12.2448 71.6577C11.2892 71.3027 11.3178 72.195 11.1784 72.6163C10.6908 74.0956 10.3381 75.6187 9.89349 77.1131C9.75633 77.5736 9.2823 78.019 9.32827 78.4305C9.4059 79.1374 8.30787 79.1962 8.63419 79.9377C8.64022 79.9513 8.35535 80.093 8.18654 80.1857C8.15112 80.1065 8.10741 80.0093 8.04184 79.8639C7.91975 79.9973 7.76375 80.0998 7.70723 80.2414C7.45929 80.8662 7.1699 81.4872 7.02294 82.1375C6.54891 84.2349 5.96712 86.3013 5.19918 88.3059C4.94596 88.9661 4.45083 89.5359 4.04463 90.1327C3.97831 90.2299 3.79819 90.2488 3.53819 90.3611C3.239 90.8818 2.82527 91.5586 2.45448 92.2579C2.13872 92.8533 1.87043 93.4743 1.61419 94.0892C1.15072 95.0373 0.687992 95.9861 0.185326 97.014C0.100921 96.7887 -0.0294561 96.6222 0.00596411 96.5069C0.2215 95.8083 0.474717 95.1217 0.715876 94.4314C0.752804 94.3266 0.786717 94.2204 0.824398 94.1156C1.30069 92.7915 1.81993 91.4817 2.2397 90.1395C2.5615 89.1108 2.75518 88.0429 3.0099 86.9931C3.28573 85.8567 3.56231 84.721 3.84567 83.5868C3.9557 83.1451 4.09286 82.7095 4.19912 82.2664C4.22399 82.1632 4.17048 82.0418 4.12376 81.7389C3.98886 82.1187 3.91576 82.3229 3.84266 82.5272C3.80347 82.5151 3.76428 82.503 3.72509 82.491C4.80277 78.8676 5.88045 75.2449 6.96491 71.5966C6.69135 71.669 6.42155 71.7413 6.11483 71.8227C5.88196 70.5883 5.41245 69.4322 5.72671 68.1473C5.83297 67.7109 6.06433 67.5979 6.3786 67.5512C6.73807 67.4977 7.15935 67.4253 7.46984 67.558C8.34103 67.931 8.56938 67.3809 8.80978 66.7651C9.34335 65.4018 9.94926 64.0619 10.3977 62.6715C10.7164 61.6827 10.8106 60.6231 11.0398 59.6027C11.1061 59.3081 11.3879 59.0473 11.4075 58.7594C11.4889 57.5921 12.0579 56.5551 12.2531 55.4397C12.3691 54.7765 12.3134 54.0583 12.6924 53.4863C12.9856 53.0447 13.1567 52.4109 13.9721 52.4772C14.4439 52.5157 14.936 52.2089 15.4304 52.1155C15.6014 52.0831 15.8049 52.2248 15.9941 52.2866C15.9797 52.3431 15.9662 52.3996 15.9519 52.4561C15.8072 52.4456 15.6625 52.4358 15.5185 52.4252C15.5185 52.487 15.5185 52.5496 15.5185 52.6114C16.294 52.5669 17.0702 52.5224 17.8593 52.4772V53.3951C17.8902 53.3703 17.9211 53.3446 17.952 53.3198C18.0778 53.5202 18.2745 53.7071 18.3175 53.9242C18.5918 55.3169 18.8902 56.7081 19.0688 58.1143C19.252 59.5583 19.2942 61.0203 19.4276 62.4718C19.4766 63.0068 19.5828 63.5404 19.7102 64.0627C19.7961 64.4138 19.9295 64.6671 19.6763 65.0778C19.5029 65.3596 19.7682 65.9188 19.8541 66.3507C19.8926 66.5443 19.9717 66.729 20.087 67.0892C21.9545 67.1435 23.8928 67.2105 25.8326 67.2475C26.3036 67.2565 26.7769 67.1299 27.2494 67.1246C28.7001 67.1073 28.6504 67.1028 29.0777 65.7252C29.3302 64.9105 29.7703 64.1538 30.1252 63.3701C30.1885 63.2307 30.2714 63.095 30.3023 62.9481C30.5721 61.697 31.2549 60.6503 31.9535 59.614C32.3725 58.993 32.8338 58.3999 33.2324 57.7677C33.662 57.0864 34.2385 57.3479 34.7962 57.4647C35.4812 57.6079 36.1587 57.785 36.8453 57.9176C37.2161 57.9892 38.1845 59.1106 38.1468 59.5974C38.0428 60.9472 37.8996 62.2947 37.7361 63.6391C37.5906 64.8336 37.4007 66.0236 37.2236 67.2143C37.1686 67.5836 37.1015 67.9514 37.0239 68.3161C36.7631 69.5385 36.4933 70.7594 36.2333 71.9817C36.2077 72.1023 36.2296 72.2327 36.2296 72.3585L36.3969 72.412C37.3419 70.4202 38.2862 68.4284 39.2313 66.4366L39.2848 66.484C39.327 66.218 39.3111 65.9241 39.4219 65.6897C39.8311 64.82 40.3602 63.9994 40.6918 63.1041C40.9616 62.3761 41.2502 61.6526 41.5426 60.9359C41.9782 59.871 42.5253 58.8521 42.9888 57.7978C43.1742 57.3765 43.3385 56.9206 43.3799 56.4677C43.4742 55.4488 43.5133 54.4223 43.5209 53.3989C43.5262 52.6709 43.4176 51.9421 43.4131 51.2141C43.4116 50.9722 43.1569 50.5766 43.7409 50.4801C43.8675 50.459 43.9308 49.7597 43.9376 49.3715C43.9617 48.0633 43.9293 46.7535 43.9542 45.4452C43.967 44.7586 44.0544 44.0736 44.1087 43.3885C44.0469 43.3727 43.9851 43.3561 43.9241 43.3403C43.6565 43.9364 43.4033 44.5393 43.1192 45.1271C42.6708 46.0556 42.2013 46.9735 41.7431 47.8975C41.5645 48.2584 41.3617 48.6126 41.2253 48.9895C40.7724 50.2405 39.8447 51.1237 38.8876 51.9595C38.3849 52.3981 37.7451 52.5089 37.0473 52.2511C36.3796 52.0047 35.6696 51.8691 34.9748 51.6957C34.1006 51.4779 33.7592 51.0823 33.7524 50.2179C33.7441 49.1349 33.7471 48.0527 33.7577 46.9697C33.7592 46.8431 33.8202 46.7067 33.8843 46.5922C34.3402 45.7707 34.13 44.9154 34.0735 44.0525C34.0426 43.5769 34.2197 43.0878 34.1707 42.5603C34.0471 42.904 33.9077 43.2423 33.8022 43.5913C33.1721 45.672 32.5135 47.7452 31.9392 49.8418C31.6378 50.9421 31.5029 52.0876 31.2617 53.206C31.1389 53.7765 30.9339 54.3289 30.7914 54.8963C30.701 55.2558 30.6942 55.6387 30.5804 55.9883C30.5179 56.1813 30.2865 56.4872 30.1735 56.4699C29.1621 56.3162 28.1545 56.1263 27.1582 55.8949C26.5802 55.7608 26.3285 55.292 26.4468 54.7419C26.7068 53.5376 27.0437 52.3506 27.3308 51.1524C27.6895 49.6557 27.9744 48.1379 28.3979 46.66C28.7235 45.5251 29.2329 44.4444 29.6263 43.3282C29.9617 42.3787 30.2232 41.4027 30.5631 40.4547C30.9603 39.3469 31.4132 38.2586 31.8299 37.1576C32.1585 36.2909 32.4449 35.4077 32.7961 34.5516C33.0078 34.0361 33.2754 33.5349 33.5761 33.0654C34.2543 32.0058 34.9695 30.9696 35.6659 29.9213C35.6862 29.8904 35.6651 29.8316 35.6636 29.7864C35.7164 29.7337 35.7691 29.6801 35.8226 29.6274L35.8264 29.6244ZM13.0075 67.0334C14.1296 66.9438 15.1093 66.8661 16.0348 66.7923C16.0137 66.3703 15.9715 65.9889 15.982 65.6091C15.9963 65.1057 15.8087 64.9263 15.41 65.0831C15.1952 64.1433 14.9774 63.1907 14.7604 62.2389C14.7144 62.2404 14.6684 62.2419 14.6225 62.2434C14.0927 63.8147 13.5629 65.3853 13.0075 67.0334ZM45.7674 55.3659C45.7139 56.3953 45.8488 56.7284 46.2181 56.7329C46.1631 56.5189 45.9747 56.2039 46.0636 56.0607C46.4238 55.4819 46.454 55.4962 45.7674 55.3659Z" fill="#24252D"/>
<path d="M88.7789 40.327C88.7857 40.5267 88.7902 40.7264 88.7985 40.9254C88.809 41.1869 88.9017 41.477 88.8196 41.7046C88.537 42.4846 88.1933 43.2427 87.873 44.0099C87.9409 44.0378 88.008 44.0657 88.0758 44.0936C88.1315 43.9594 88.1873 43.8253 88.2461 43.6821C88.2702 43.7085 88.3132 43.7356 88.3102 43.756C88.2582 44.0868 88.2001 44.4169 88.1429 44.747C88.0366 44.7191 87.9296 44.6912 87.7788 44.6513C88.0901 45.9 87.6251 47.0387 87.2664 48.2347C86.8391 49.6621 86.6868 51.1701 86.3846 52.6366C86.1676 53.6895 85.8714 54.7272 85.6627 55.7815C85.4441 56.8825 85.2731 57.9828 84.7621 59.0108C84.4802 59.579 84.1667 59.8141 83.4606 59.7576C83.2209 59.7388 82.9655 59.9159 82.6889 60.0131C82.7092 60.3349 82.7303 60.668 82.7529 61.0312C82.3392 60.8459 81.9315 60.6914 81.5562 60.4788C81.4266 60.4057 81.3474 60.1977 81.3 60.035C81.1432 59.4984 81.0189 58.9528 80.8651 58.4162C80.8229 58.2685 80.7543 58.0786 80.6375 58.0092C79.8847 57.5646 79.8327 56.7906 79.6254 56.0603C79.2923 54.8847 78.9833 53.6812 78.4603 52.5877C78.1242 51.8853 77.8649 51.1957 77.6924 50.4489C77.614 50.1097 77.461 49.7774 77.2884 49.4714C76.8242 48.6462 76.9214 47.7268 76.8325 46.8443C76.7579 46.099 76.6282 45.3966 76.1474 44.8058C76.0698 44.7982 75.9929 44.7907 75.9153 44.7831C75.8859 45.0673 75.8912 45.3612 75.8189 45.634C75.7262 45.9844 75.5114 46.3085 75.4549 46.6612C75.3034 47.5987 75.3102 48.5716 75.0698 49.482C74.5302 51.5266 74.5219 53.6126 74.3892 55.6926C74.3696 55.994 74.2581 56.2895 74.1571 56.7273C74.2144 56.7107 74.0916 56.7755 73.968 56.777C73.191 56.7868 72.4117 56.8253 71.6385 56.7718C70.5797 56.6979 70.1049 56.1244 70.2978 55.0452C70.5118 53.8507 70.6317 52.6397 70.8261 51.4414C70.9663 50.5808 71.1901 49.7329 71.3235 48.8715C71.4117 48.3003 71.3883 47.7117 71.4471 47.1344C71.4788 46.8202 71.579 46.5127 71.6468 46.2022C71.8834 45.1117 72.1254 44.022 72.353 42.9292C72.4539 42.4469 72.5474 41.9616 72.6069 41.4732C72.7584 40.2185 72.879 38.9607 73.0372 37.7074C73.0666 37.4775 73.2739 37.2695 73.3033 37.0397C73.3771 36.4707 73.4223 35.8949 73.4321 35.3214C73.451 34.1857 73.5181 34.029 74.6568 34.0704C75.5694 34.1036 76.4745 34.3507 77.3834 34.4977C77.6705 34.5437 77.9705 34.5369 78.247 34.6168C78.5085 34.6921 78.7459 34.8496 78.9245 34.9371C79.3383 35.6703 78.8326 36.2959 78.764 36.9726C78.6969 37.6388 78.923 38.3352 79.0233 39.0172C79.0361 39.1054 79.0941 39.1965 79.0813 39.2779C78.7881 41.1243 79.8462 42.6783 80.1959 44.3852C80.5049 45.8932 80.9081 47.3824 81.306 48.87C81.4492 49.4059 81.7001 49.9138 81.8961 50.4195C82.7454 49.8234 82.2751 48.8444 82.514 48.0539C82.5382 47.9732 82.5449 47.8828 82.5871 47.8127C82.9428 47.2136 82.8539 46.5511 82.9255 45.9015C82.9873 45.3401 83.34 44.814 83.539 44.2631C83.6219 44.0348 83.6724 43.7838 83.6791 43.5412C83.6889 43.184 83.545 42.7928 83.6482 42.4748C83.8276 41.9216 84.2135 41.4348 84.3815 40.8801C84.5021 40.4822 84.4546 40.0127 84.4011 39.5862C84.2918 38.709 84.6091 37.9764 85.0274 37.2416C85.1962 36.9447 85.209 36.5611 85.3009 36.2182C85.4788 35.5535 85.6634 34.8911 85.8436 34.2272C86.1292 33.1743 86.362 32.1034 86.7155 31.074C87.0011 30.2428 87.4322 29.462 87.8663 28.5109C86.9597 28.5878 86.2791 27.9766 85.3522 28.5139C84.8819 28.7868 84.0251 28.4657 83.3634 28.321C82.3588 28.101 81.3731 27.792 80.3753 27.5403C80.0942 27.4694 79.7935 27.4227 79.5063 27.4408C78.816 27.4837 78.2357 27.2109 77.6381 26.9253C77.3442 26.7844 76.99 26.7618 76.6599 26.7075C75.9507 26.5914 75.2356 26.3872 74.5294 26.4121C73.8692 26.4355 73.3312 26.2365 72.7516 26.0066C72.2783 25.8182 71.7561 25.7135 71.2466 25.6637C69.8087 25.5236 68.367 25.4233 66.9261 25.3231C66.2162 25.2734 65.5048 25.2417 64.7934 25.2372C64.5417 25.2357 64.2892 25.3397 63.8415 25.4392C64.4897 25.5047 64.9268 25.5484 65.5274 25.6095C65.0782 25.8544 64.8047 26.0036 64.5319 26.1528C64.5605 26.2116 64.5884 26.2704 64.617 26.3292C62.7141 26.3292 60.809 26.2727 58.9091 26.3495C57.6475 26.4008 56.3942 26.6435 55.1372 26.7987C54.89 26.8296 54.6436 26.862 54.3956 26.8786C53.1951 26.9592 51.9946 27.0376 50.7941 27.1092C50.6923 27.1152 50.5876 27.0527 50.4836 27.0489C49.9018 27.0293 49.3516 26.9539 48.7819 27.3172C47.5701 28.0904 45.83 27.0851 45.726 25.663C45.6634 24.8076 45.5285 23.9455 45.3137 23.1157C45.0613 22.1375 45.7071 21.7328 46.3191 21.2859C47.2626 20.5964 48.1963 19.891 49.1768 19.258C50.4843 18.4139 51.8431 17.649 53.1597 16.8185C53.9955 16.2917 54.7762 15.6782 55.6165 15.1598C56.2134 14.7912 56.8705 14.5207 57.4968 14.1996C58.0115 13.9359 58.5323 13.6827 59.0289 13.388C59.9988 12.8122 60.9544 12.2108 62.0803 11.519C60.6906 11.3344 59.5549 11.5409 58.4079 11.7828C56.8276 12.1151 55.4319 12.8424 54.0535 13.6329C53.7264 13.8206 53.3202 13.9072 53.0489 14.1499C52.4249 14.7091 51.874 15.3489 51.2651 15.9262C51.0684 16.1123 50.7835 16.205 50.5529 16.3331C50.3208 15.4838 50.0887 14.7747 49.941 14.0474C49.846 13.5794 49.8151 13.0805 49.8626 12.6057C49.9206 12.0269 49.6305 11.3849 50.1414 10.8731C50.4971 10.5167 50.782 10.0585 51.1927 9.79245C52.8967 8.68689 54.7868 8.09982 56.7756 7.66573C57.7116 7.4615 58.6536 7.31756 59.5715 7.10579C60.393 6.91588 61.1903 6.48857 62.0434 6.64608C63.0706 6.83599 64.0804 7.15025 65.0699 7.49315C65.299 7.57228 65.5281 7.9702 65.5606 8.24527C65.7392 9.77286 65.8944 11.3057 65.9803 12.8409C66.0286 13.7098 65.5613 14.3941 65.1001 15.1409C64.4708 16.1598 63.4821 16.6399 62.632 17.3211C62.2785 17.6038 61.8203 17.8366 61.231 17.6904C60.8828 17.6045 60.396 17.8298 60.0478 18.0416C59.2618 18.5202 58.53 19.0861 57.7643 19.5993C56.8411 20.2181 55.9127 20.83 54.9714 21.4216C54.6896 21.5987 54.358 21.6974 54.049 21.8323C54.0633 21.8956 54.0784 21.9582 54.0927 22.0215C54.2818 22.0335 54.4718 22.0592 54.6609 22.0546C56.5352 22.0124 58.4124 21.873 60.2822 21.9416C62.7985 22.0343 65.3164 22.2106 67.8192 22.4857C72.1578 22.962 76.4368 23.7865 80.6473 24.9493C82.4801 25.4557 84.3137 25.9569 86.139 26.4875C86.9438 26.7211 87.7291 27.0225 88.5242 27.2916C88.8693 27.4084 89.2055 27.6186 89.3057 26.975C89.363 26.6058 89.638 26.2704 89.837 25.877C89.9485 26.0858 90.0344 26.2486 90.2198 26.5952C90.5778 24.8845 90.8973 23.3614 91.2312 21.7668C91.3533 21.815 91.5213 21.8813 91.6894 21.9476C91.6223 22.0351 91.556 22.1225 91.4339 22.283C91.6721 22.3199 91.8364 22.3448 92.0346 22.3757C91.6924 28.2841 89.9757 33.9008 88.6199 39.5862C88.6809 39.5997 88.742 39.614 88.803 39.6276C88.8882 39.3314 88.9726 39.036 89.0578 38.7398C89.0856 38.7421 89.1135 38.7451 89.1414 38.7474C89.0773 39.3262 89.0133 39.9049 88.9485 40.489C88.9274 40.4732 88.8422 40.4084 88.7563 40.3451C88.7209 40.1763 88.687 40.0059 88.6531 39.8356C88.5943 39.8379 88.5355 39.8401 88.4767 39.8424C88.3968 40.3812 88.3169 40.9201 88.2371 41.4597L88.4157 41.4876C88.5362 41.0994 88.6561 40.7113 88.7766 40.3232L88.7789 40.327ZM88.1526 28.5682C87.7675 30.1802 87.3915 31.7523 87.0162 33.3251C87.0946 33.3522 87.1729 33.3793 87.2513 33.4065C87.5837 31.7304 88.0313 30.0965 88.8837 28.569L88.1526 28.5682Z" fill="#24252D"/>
<path d="M74.4985 82.8985C74.9703 82.3243 75.4835 81.7779 75.9017 81.1667C76.3306 80.5397 76.531 79.6934 77.0736 79.2216C77.9313 78.4755 78.0903 77.3767 78.7406 76.5259C79.3654 75.7075 79.5327 74.5484 79.9427 73.5566C80.3662 72.5302 80.8726 71.5377 81.2841 70.5075C81.9533 68.8299 82.5736 67.1327 83.2179 65.4454C83.5744 64.5109 83.964 63.5885 84.2903 62.6434C84.4584 62.1558 84.3792 61.5296 84.6581 61.1445C85.3266 60.2213 85.1412 59.1338 85.4298 58.148C85.5873 57.6115 85.7237 57.0674 85.9121 56.5421C85.9445 56.4509 86.1925 56.4366 86.3779 56.3748C86.3869 56.2534 86.4005 56.0726 86.4012 56.0673C87.3214 55.5006 87.0697 54.6158 87.2882 53.9082C88.0396 53.8622 87.4246 54.5751 87.6161 54.6784H88.4827C88.4511 54.8773 88.3953 55.0763 88.3938 55.276C88.3915 55.5126 88.4646 55.7515 88.4556 55.9874C88.4262 56.7576 88.3848 57.5278 88.3267 58.2965C88.2808 58.9024 88.2046 59.5053 88.1376 60.1474C88.3719 60.0502 88.6817 59.9741 88.9319 59.8083C89.5355 59.4089 90.1987 59.2393 90.9026 59.13C91.4761 59.0411 91.5982 58.5716 91.6351 58.0652C91.6562 57.775 91.7045 57.4856 91.7617 57.1992C91.9411 56.3085 92.067 56.1555 92.9472 56.2504C93.9849 56.362 95.0106 56.5911 96.0506 56.7712C95.8645 57.4042 95.71 57.9295 95.56 58.4382C96.8871 58.4382 98.1268 58.5038 99.3567 58.4209C100.807 58.3236 102.219 58.5181 103.6 58.8745C104.406 59.0825 105.145 59.537 105.924 59.8595C107.108 60.3501 107.687 61.1995 107.636 62.5055C107.621 62.8944 107.854 63.287 107.88 63.6842C107.947 64.6722 107.466 65.3391 106.65 65.8976C105.189 66.8969 103.586 67.6151 101.986 68.3204C101.339 68.6061 100.882 69.0462 100.339 69.4026C99.7682 69.778 99.2505 70.4796 98.3514 70.3341C98.0507 70.2859 97.6867 70.564 97.3664 70.723C96.8411 70.9845 96.3279 71.2701 95.6255 71.6424C96.3385 71.8165 96.9143 71.8723 97.4139 72.0968C98.3401 72.5121 99.3462 72.6289 100.3 72.9673C102.666 73.8061 104.947 74.8815 107.378 75.5439C108.277 75.7888 109.206 76.0051 110.039 76.4068C113.378 78.0196 116.936 79.0422 120.395 80.3302C120.902 80.5193 121.43 80.6527 122.006 80.8298C121.344 80.9059 120.81 80.9692 120.277 81.0273C120.212 81.034 120.14 81.0235 120.077 81.0032C119.181 80.7153 118.291 80.4048 117.389 80.1425C116.982 80.025 116.513 80.083 116.137 79.9164C115.576 79.667 115.083 79.9014 114.556 79.9194C114.021 79.9383 113.482 79.6368 112.934 79.5411C112.672 79.4952 112.383 79.6007 112.092 79.7928C112.551 79.9534 113.01 80.1139 113.609 80.3234C113.379 80.3739 113.244 80.4515 113.144 80.4191C112.231 80.1184 111.33 79.7778 110.413 79.4929C109.818 79.3083 109.202 79.1847 108.589 79.0663C108.468 79.043 108.319 79.1666 108.219 79.2065C108.122 79.0792 108.05 78.881 107.932 78.8486C106.661 78.4974 105.385 78.1635 104.105 77.8462C103.653 77.7339 103.178 77.7106 102.728 77.5915C101.8 77.3451 100.826 77.1748 99.9709 76.7663C98.6385 76.1295 97.1856 76.3073 95.8215 75.9486C95.303 75.8122 94.7642 75.7519 94.2314 75.6766C93.8553 75.623 93.5576 75.6607 93.5516 76.1807C93.5425 76.9291 93.4725 77.6774 93.422 78.425C93.382 79.0128 93.315 79.5999 93.2923 80.1877C93.269 80.7869 93.2841 81.3875 93.2856 81.9874C93.2871 82.6656 93.3579 83.3552 92.8839 83.9393C92.8183 84.0199 92.7919 84.1435 92.7761 84.2513C92.6668 84.9785 92.5658 85.7065 92.4611 86.4398C92.2184 86.3514 92.0426 85.7937 91.9336 84.7667C91.8793 84.9936 91.8145 85.2197 91.7723 85.4488C91.7278 85.6899 91.7278 85.9409 91.6668 86.1768C91.5982 86.4405 91.4829 86.6915 91.3887 86.9462C91.7663 86.8987 92.1061 87.4429 91.8612 87.5966C91.3902 87.8928 91.5628 88.2839 91.4324 88.6117C91.2417 89.091 91.0134 89.5824 90.9659 90.0843C90.9101 90.6691 91.0684 91.2705 91.0676 91.8644C91.0669 92.4281 91.2154 93.0151 90.6569 93.5012C90.4519 93.6798 90.5341 94.1893 90.4602 94.7357C89.889 87.8001 89.8505 81.0589 90.3434 74.2997C90.2575 74.6908 90.1723 75.0812 90.0864 75.4723L89.9432 75.4844C89.8943 75.2583 89.846 75.0315 89.797 74.8039C88.7616 75.3646 87.6824 75.8876 86.6695 76.5176C85.9129 76.9879 85.2557 77.6156 84.5262 78.1341C84.0876 78.4461 83.5103 78.9963 83.1433 78.8968C82.0114 78.5885 81.7875 79.5163 81.4484 80.0491C80.4996 81.5412 79.333 82.8518 78.1626 84.145C77.6833 84.6748 76.8762 84.9047 76.0826 85.1066C75.1647 85.3403 74.3214 85.136 73.454 85.2008C71.7779 85.3259 71.01 84.8707 70.3988 83.3153C69.9632 82.2059 69.8743 81.0702 69.8358 79.9029C69.7914 78.5697 69.612 77.2388 69.5992 75.9064C69.5834 74.2183 69.6218 72.5249 69.7431 70.8413C69.8117 69.888 70.08 68.9467 70.2812 68.0047C70.5382 66.8004 70.7862 65.5923 71.1012 64.4031C71.2549 63.8243 71.5549 63.2855 71.7847 62.7271C72.0643 62.0496 72.2874 61.3427 72.6318 60.6998C73.0267 59.962 73.7931 59.8377 74.5158 60.2424C74.7171 60.3547 75.008 60.3057 75.225 60.4187C75.6214 60.5272 76.0171 60.641 76.4165 60.7398C76.4677 60.7526 76.5431 60.6576 76.5973 60.6682C76.846 60.7134 77.3472 62.0797 77.1671 62.2598C76.733 62.6954 76.271 63.1031 75.8264 63.5282C75.7194 63.6307 75.6041 63.7452 75.5475 63.8778C75.2559 64.5629 74.907 65.2359 74.7201 65.9503C74.4194 67.1041 74.1631 68.2775 74.0094 69.4584C73.7991 71.0742 73.6861 72.7035 73.5655 74.3298C73.5211 74.9297 73.5572 75.5379 73.5829 76.1408C73.6281 77.2109 73.7803 78.2841 73.7283 79.3482C73.6688 80.56 74.0102 81.6663 74.2558 82.8058C74.338 82.8367 74.4194 82.8684 74.5015 82.8993L74.4985 82.8985ZM83.6678 75.7497C83.9979 75.5929 84.1735 75.5484 84.2986 75.4437C84.8284 74.9983 85.2761 74.3841 85.8805 74.1128C86.7547 73.7201 87.5256 73.2582 88.2001 72.5807C88.4232 72.3568 88.7992 72.2415 89.1256 72.1737C90.2703 71.9378 90.5981 71.1752 90.6825 70.1073C90.7896 68.7575 91.0503 67.4206 91.2056 66.0739C91.3261 65.0249 91.3857 63.969 91.4867 62.7497H88.1044C88.0419 62.348 88.0064 62.1166 87.9703 61.8845C87.8753 61.892 87.7796 61.8996 87.6846 61.9071C87.6477 62.8356 87.6146 63.7648 87.5686 64.6925C87.5633 64.7943 87.4631 64.9827 87.4367 64.9774C86.763 64.8447 87.1563 65.3384 87.1209 65.5418C87.0734 65.8131 87.096 66.0988 87.1006 66.3776C87.1202 67.5389 86.2128 68.3672 86.0093 69.4697C85.8217 70.4871 85.3311 71.448 85.1306 72.4654C84.9761 73.2506 84.5119 73.8339 84.1825 74.5062C84.0115 74.8544 83.8841 75.2244 83.6693 75.7497H83.6678ZM94.9006 68.9663C95.6595 68.5277 96.3754 68.0755 97.1253 67.6912C97.9083 67.2895 98.7456 66.9918 99.5225 66.5796C101.089 65.7476 102.636 64.8771 104.176 63.9992C104.38 63.8824 104.677 63.5191 104.636 63.4528C104.487 63.2109 104.236 62.9938 103.976 62.8695C103.765 62.7693 103.481 62.8386 103.236 62.7956C102.049 62.5869 100.897 62.1905 99.6574 62.2885C98.2338 62.4007 96.805 62.4429 95.4469 62.5115C95.2593 64.7309 95.0837 66.8049 94.9006 68.9678V68.9663ZM90.9147 70.8406C90.9893 70.8511 91.0639 70.8617 91.1385 70.8722C91.2689 70.1842 91.3992 69.4961 91.5296 68.808C91.4791 68.7982 91.4286 68.7884 91.3781 68.7779C91.2236 69.4652 91.0692 70.1525 90.9147 70.8406Z" fill="#24252D"/>
<path d="M22.8512 29.094C22.6508 28.9629 22.4511 28.8325 22.1534 28.6381C22.2551 29.6758 22.3418 30.5659 22.4465 31.636C22.2031 32.0995 22.0592 32.7883 22.2611 33.5389C22.3018 33.6904 22.228 33.869 22.2385 34.0333C22.3049 35.0627 22.436 36.0914 22.4352 37.1201C22.4352 37.925 22.2551 38.7283 22.1963 39.5355C22.1715 39.8746 22.2755 40.2213 22.2807 40.5649C22.3011 41.889 22.338 43.2147 22.3041 44.5388C22.2815 45.4258 22.5242 46.2842 22.2626 47.2187C22.0765 47.8841 22.4473 48.7048 22.5958 49.6197C22.6161 49.3635 22.6244 49.2602 22.6319 49.157L22.8068 49.0891C23.0306 49.674 23.2718 50.252 23.4745 50.8436C23.8287 51.8753 23.6282 52.8746 23.28 53.8709C23.0668 54.4813 22.5709 54.678 22.0381 54.684C21.0704 54.6953 20.3251 53.5619 20.3665 52.5754C20.4268 51.1352 20.3078 49.689 20.2897 48.2451C20.2836 47.7605 20.3545 47.2744 20.3891 46.7898C20.3959 46.6941 20.3989 46.5984 20.3982 46.5027C20.3944 45.8945 20.4095 45.2856 20.3793 44.679C20.3251 43.5658 20.2407 42.4543 20.1781 41.3412C20.1608 41.0292 20.1623 40.7156 20.1744 40.4036C20.1849 40.1331 20.2535 39.8618 20.2414 39.5928C20.1593 37.7019 20.0462 35.8126 19.9769 33.9217C19.9083 32.0633 19.8571 30.2034 19.8435 28.3434C19.8367 27.3404 19.9302 26.3365 19.9664 25.3327C19.9724 25.1556 19.8933 24.9755 19.8993 24.7984C19.9098 24.4856 19.5187 24.0824 20.1842 23.8858C20.3477 23.8375 20.3696 23.1547 20.3763 22.7621C20.3989 21.4538 20.3665 20.1448 20.3929 18.8365C20.4065 18.159 20.4992 17.4822 20.4004 16.7392C20.2603 16.9916 20.1073 17.2373 19.9829 17.4965C19.3755 18.7656 18.7764 20.0378 18.1735 21.3091C18.0009 21.6731 17.7929 22.0243 17.658 22.4019C17.2081 23.6544 16.2751 24.5339 15.3195 25.3704C14.8161 25.8105 14.1733 25.9047 13.4777 25.6545C12.7866 25.4058 12.0586 25.2438 11.3359 25.1036C10.7043 24.9808 10.1859 24.3847 10.1889 23.7531C10.1941 22.6249 10.1874 21.4968 10.1972 20.3686C10.1987 20.242 10.2605 20.1063 10.3245 19.991C10.7805 19.1696 10.5679 18.315 10.5092 17.4528C10.4767 16.9781 10.6576 16.4882 10.6086 15.9614C10.4843 16.3073 10.3449 16.6487 10.2386 16.9999C9.60858 19.0799 8.95066 21.1531 8.37716 23.2489C8.07571 24.3492 7.94232 25.4947 7.70191 26.6131C7.57907 27.1836 7.37258 27.7353 7.23014 28.302C7.13971 28.6615 7.13443 29.0443 7.02064 29.3947C6.95809 29.5877 6.72597 29.8921 6.61217 29.8748C5.60157 29.7211 4.59397 29.5311 3.59768 29.2998C3.01966 29.1656 2.76795 28.6969 2.88702 28.1467C3.14626 26.9432 3.48313 25.7562 3.77026 24.558C4.12899 23.0613 4.41386 21.545 4.83739 20.0672C5.1622 18.9329 5.67316 17.853 6.06278 16.7346C6.4087 15.7414 6.67096 14.7187 7.02591 13.7299C7.40122 12.6862 7.8549 11.6703 8.25281 10.6341C8.59345 9.7478 8.88887 8.84496 9.23327 7.96096C9.37043 7.60977 9.56411 7.27516 9.7691 6.95638C10.5212 5.78299 11.3072 4.6307 12.0435 3.44751C12.4407 2.8092 13.0006 3.04809 13.4995 3.1325C14.229 3.25609 14.9397 3.48821 15.6639 3.64948C16.0799 3.74218 16.9767 4.88241 16.9308 5.41824C16.814 6.76571 16.6549 8.11018 16.4937 9.45388C16.3527 10.6235 16.1937 11.7901 16.0264 12.956C15.9729 13.3267 15.8591 13.6877 15.7838 14.0555C15.6451 14.7353 15.5275 15.4196 15.3783 16.0971C15.2351 16.7467 15.0625 17.3895 14.9028 18.0346C14.9894 18.0663 15.0761 18.0979 15.1635 18.1303C15.5027 17.4204 15.8395 16.7098 16.1809 16.0014C16.5276 15.2824 16.8863 14.5687 17.2247 13.8452C17.4365 13.3923 17.3807 12.7751 18.019 12.5942C17.8984 11.6665 18.4795 10.9415 18.7455 10.1269C18.848 9.81336 19.0665 9.5398 19.2173 9.24061C19.4207 8.83667 19.8752 8.54652 19.6574 7.94589C19.5933 7.76879 20.0003 7.45603 20.1133 7.17418C20.8082 5.43482 21.4834 3.68641 22.6877 2.21534C22.809 2.06763 23.1037 1.92218 23.2627 1.96815C24.1542 2.2274 25.0277 2.5492 25.9094 2.84235C26.4822 3.03227 26.6676 3.49499 26.5666 3.99992C26.2682 5.48606 25.8484 6.94884 25.5839 8.44026C25.3766 9.60386 25.3344 10.7961 25.2101 11.9748C25.1392 12.6477 25.0345 13.317 24.981 13.9907C24.9606 14.2499 25.0917 14.522 25.0639 14.779C24.9584 15.7632 24.8054 16.7422 24.6938 17.7264C24.6501 18.1153 24.6765 18.5117 24.6592 18.9036C24.6162 19.8825 24.7164 20.8999 24.4745 21.8284C24.2711 22.6106 24.6026 23.5308 23.8867 24.2068C23.7397 24.3455 23.8279 24.7328 23.8076 25.0079C23.6855 25.0011 23.5687 24.9943 23.5099 24.9906C23.4775 25.5754 23.4353 26.1014 23.4232 26.6274C23.4082 27.2499 23.4398 27.8747 23.4074 28.4957C23.3969 28.6984 23.2461 28.8936 23.1602 29.0925C23.0577 29.0925 22.9552 29.0925 22.8535 29.0925L22.8512 29.094Z" fill="#24252D"/>
<path d="M35.8264 29.6244C35.7736 29.6771 35.7209 29.7308 35.6674 29.7835C34.687 30.3292 33.7073 30.8755 32.7268 31.4204C31.6823 32.0015 30.6694 32.0429 29.6513 31.3194C29.3506 31.1062 28.9527 31.0157 28.5879 30.9102C27.5426 30.6065 27.0452 29.7127 26.9194 28.8362C26.7641 27.7518 26.9654 26.604 27.0965 25.4939C27.1937 24.6702 27.4258 23.8623 27.5848 23.1057C27.728 22.9625 27.9179 22.8623 27.9541 22.7229C28.2096 21.7243 28.3611 20.6934 28.6851 19.7189C29.132 18.376 29.6784 17.0639 30.2278 15.7571C30.6182 14.8279 31.1012 13.9379 31.5127 13.017C32.0463 11.824 32.5105 10.5978 33.0818 9.42444C33.448 8.67232 33.9545 7.98803 34.3998 7.27435C35.0065 6.30293 35.6147 5.33151 36.2236 4.3616C36.6155 3.7376 36.9561 3.07215 37.4189 2.50618C37.8786 1.94398 38.4385 1.45488 38.9992 0.987635C39.471 0.594244 39.936 0.120215 40.6466 0.217433C40.8742 0.248331 41.1252 0.25436 41.3204 0.357606C41.9941 0.713316 42.6075 1.11123 43.0951 1.76085C43.435 2.21453 44.0914 2.42781 44.5979 2.76166C44.7192 2.84155 44.8925 2.97042 44.8955 3.0812C44.9295 4.2885 45.1721 5.50183 44.5835 6.67748C44.3424 7.15905 44.3492 7.76044 44.2218 8.30229C44.047 9.04838 43.8412 9.78768 43.6694 10.5338C43.5601 11.0086 43.5044 11.4961 43.3906 11.9694C43.3016 12.3425 43.1607 12.7027 43.0235 13.1277C42.8638 13.087 42.6844 13.0705 42.5314 12.9974C41.5623 12.5346 40.6346 12.0184 39.8342 11.2761C38.8816 10.3928 38.8055 10.053 39.3722 8.77255C39.584 8.29476 39.7069 7.77702 39.8696 7.27737C39.7867 7.23517 39.7046 7.19221 39.6217 7.15001C39.1816 7.88027 38.7324 8.606 38.3051 9.3438C38.0662 9.75603 37.8642 10.1901 37.6419 10.6121C37.4023 11.0666 37.1566 11.5172 36.9177 11.9717C36.8235 12.1503 36.7715 12.3598 36.6479 12.5128C36.1173 13.1677 35.886 13.9831 35.3283 14.6621C34.7111 15.4142 34.5265 16.5213 34.1489 17.4716C34.1097 17.5711 34.0607 17.6879 33.9793 17.7452C33.286 18.2328 32.9657 18.8847 32.7381 19.7212C32.4035 20.9511 31.7727 22.0974 31.3266 23.3016C31.1932 23.6611 31.3183 24.1103 31.2188 24.4901C31.0168 25.2596 30.6815 25.9966 30.5157 26.7713C30.3559 27.5182 30.3416 28.2959 30.2632 29.0601C30.3356 29.1023 30.4072 29.1445 30.4795 29.1867C31.0063 28.8679 31.5542 28.5785 32.0561 28.2235C32.9212 27.6124 33.766 26.971 34.6048 26.3237C35.5695 25.5783 36.5092 24.8006 37.4784 24.0605C38.0398 23.6317 38.6563 23.276 39.2125 22.8419C40.058 22.1818 40.8652 21.4726 41.7009 20.8004C43.0364 19.7265 44.3431 18.6118 45.7404 17.6246C46.3794 17.1732 47.2046 16.9848 47.9424 16.6713C48.106 16.6019 48.2507 16.4821 48.418 16.4286C48.9086 16.2711 49.4067 16.1362 49.9071 15.99C49.6682 16.4165 49.5348 16.7587 49.3133 17.0285C48.8732 17.5628 48.4119 18.0881 47.9063 18.5591C47.4466 18.9872 46.7675 19.2472 46.454 19.7491C46.093 20.3278 45.5934 20.6911 45.1103 21.0898C44.5398 21.5608 43.8653 21.9089 43.3092 22.3935C42.8781 22.7696 42.5586 23.2738 42.2074 23.6996C41.9564 23.7802 41.6859 23.8676 41.3256 23.9837C41.6844 24.3876 41.5834 24.4886 41.1613 24.7365C40.4024 25.1834 39.4936 25.7366 39.1816 26.4714C38.9042 27.124 38.3322 26.8587 38.1016 27.2627C37.9298 27.5626 37.764 27.8784 37.5334 28.1301C37.2847 28.4014 36.9629 28.6071 36.6381 28.7993C36.3675 29.0736 36.097 29.3487 35.8265 29.623L35.8264 29.6244Z" fill="#24252D"/>
<path d="M51.2643 51.4806C51.3759 51.0081 51.4769 50.6923 51.5221 50.3683C51.6321 49.583 51.7127 48.794 51.8152 48.0079C51.8288 47.9009 51.8838 47.7894 51.9486 47.7012C52.4897 46.9664 52.6111 46.3492 52.3955 45.6393C52.6766 45.1389 52.9223 44.7018 53.11 44.3664C52.758 44.1961 52.4829 44.1245 52.29 43.958C51.8303 43.5616 51.3389 43.1712 50.99 42.6851C50.5755 42.1078 50.2726 41.4431 49.9756 40.792C49.8995 40.6255 49.9538 40.3135 50.0698 40.159C50.6388 39.4016 51.1995 38.6253 51.862 37.9531C52.3262 37.4829 52.969 37.195 53.4951 36.7775C54.0648 36.3253 54.5795 35.8045 55.141 35.3411C55.3768 35.1466 55.6723 35.0253 55.939 34.867C56.1116 34.7645 56.3799 34.6937 56.4349 34.5452C56.7726 33.6364 57.6015 33.4058 58.3567 33.0448C59.4924 32.5029 60.5987 31.8993 61.7419 31.3732C62.0359 31.2383 62.4187 31.2949 62.7608 31.267C62.8046 31.2632 62.8731 31.3039 62.8905 31.2866C63.4112 30.7432 63.9742 31.4659 64.571 31.2278C64.865 31.1102 65.4648 31.4689 65.7866 31.7644C66.8892 32.775 67.9571 33.8278 68.9865 34.913C69.8592 35.8332 70.0212 37.0729 70.2571 38.2493C70.5081 39.5033 70.484 40.7423 69.9956 41.9775C69.7296 42.6504 69.7296 43.4237 69.557 44.1396C69.4492 44.5857 69.2947 45.0372 69.0724 45.4366C68.0807 47.2144 66.8507 48.8196 65.4965 50.3374C64.4068 51.5583 63.2206 52.6495 61.8113 53.5003C60.9265 54.0347 60.1548 54.8388 59.209 55.1696C57.6942 55.7002 56.1327 56.0529 54.5984 54.8719C53.2705 53.85 52.0941 52.7369 51.2666 51.4791L51.2643 51.4806ZM54.0851 49.9892C54.1507 50.62 54.2577 51.2493 54.2698 51.8808C54.2833 52.5945 54.6323 52.6382 55.1553 52.4106C56.5691 51.7957 57.9603 51.14 59.1216 50.0917C59.4683 49.7782 59.8119 49.4579 60.1865 49.1798C60.353 49.0562 60.6499 49.0864 60.7848 48.947C61.072 48.65 61.2717 48.2702 61.543 47.9552C62.0238 47.3983 62.5498 46.8805 63.0224 46.3176C63.4994 45.7493 63.9877 45.1781 64.3736 44.5481C64.7512 43.9316 64.987 43.2307 65.3194 42.5849C65.813 41.6255 66.379 40.7159 66.4348 39.5734C66.4958 38.3284 66.7015 37.091 66.8108 35.8467C66.8899 34.9439 66.4378 34.3621 65.7889 34.4699C65.4799 34.5211 65.1785 34.6161 64.8717 34.6809C63.0751 35.063 61.5927 36.1211 60.0048 36.95C59.4615 37.2342 58.7832 37.4595 58.4562 37.9184C57.5096 39.2456 56.6226 40.6315 55.8727 42.0777C54.5953 44.542 54.1711 47.2272 54.0859 49.9885L54.0851 49.9892ZM53.0504 43.9316C53.899 43.3453 54.2735 42.6602 54.3105 41.7725C53.9992 42.502 53.0255 42.814 53.0504 43.9316Z" fill="#24252D"/>
<path d="M48.9259 79.0622C49.0126 78.7223 49.1294 78.3862 49.1792 78.041C49.293 77.2565 49.2658 76.4313 49.5085 75.6935C49.6637 75.2233 50.1461 74.8291 50.079 74.2699C49.972 73.3837 50.394 72.676 50.7497 72.0935C50.4068 71.8983 50.1054 71.7875 49.883 71.5885C49.3977 71.1544 48.8883 70.7226 48.5092 70.2019C48.1316 69.6826 47.8746 69.0662 47.6237 68.4685C47.5521 68.299 47.6184 67.993 47.736 67.8355C48.2914 67.0954 48.8355 66.3343 49.4844 65.6824C49.9675 65.1971 50.6254 64.8918 51.168 64.4608C51.7377 64.0086 52.2509 63.4856 52.8131 63.0236C53.0483 62.8307 53.349 62.7169 53.6172 62.5632C53.7732 62.4742 54.0061 62.4154 54.0672 62.2805C54.6407 61.0077 55.9701 60.8057 57.0025 60.2013C57.7682 59.7529 58.5904 59.3927 59.4134 59.0573C59.7148 58.9345 60.0916 58.997 60.4345 58.9759C60.5702 58.9676 60.7593 59.0159 60.8317 58.9443C61.0789 58.7008 61.2831 58.6895 61.5084 58.9533C61.5325 58.9812 61.5989 58.9932 61.638 58.9834C62.9041 58.6677 63.5485 59.6662 64.3255 60.3091C65.1168 60.9632 65.8244 61.7206 66.5464 62.4554C67.3023 63.2248 67.459 64.2754 67.7838 65.243C67.8471 65.4322 67.8795 65.6334 67.9097 65.8309C68.1049 67.1143 68.1644 68.3721 67.6663 69.6329C67.4002 70.3066 67.4213 71.0896 67.2035 71.789C67.0189 72.3806 66.7016 72.9368 66.3987 73.4831C65.9653 74.2639 65.5704 75.0868 65.0165 75.7764C64.0413 76.9897 63.0247 78.1857 61.9003 79.2574C60.8287 80.2793 59.6379 81.1919 58.4231 82.0443C57.359 82.7911 56.1065 83.1762 54.8208 83.3699C53.3927 83.5847 52.3572 82.7022 51.3888 81.8891C50.4121 81.0684 49.5974 80.0562 48.7112 79.1285C48.782 79.1067 48.8528 79.0856 48.9237 79.0637L48.9259 79.0622ZM51.6036 77.6348L51.7437 77.6755C51.8085 78.3056 51.9156 78.9356 51.9276 79.5671C51.9427 80.3471 52.3376 80.3049 52.8666 80.0834C54.398 79.4428 55.8419 78.6545 57.1035 77.5633C57.3906 77.3146 57.6454 77.0267 57.9453 76.7961C58.0727 76.6981 58.3379 76.7576 58.4367 76.6499C58.7163 76.3439 58.9258 75.9746 59.1933 75.6566C59.7811 74.9565 60.3961 74.279 60.9854 73.5804C61.363 73.1327 61.7707 72.6956 62.0661 72.1952C62.4226 71.5916 62.6592 70.9178 62.975 70.2885C63.4588 69.3262 64.0346 68.4188 64.0926 67.2778C64.1551 66.0328 64.3594 64.7954 64.4702 63.5512C64.5508 62.6423 64.1077 62.0605 63.4573 62.1645C63.1483 62.2142 62.8235 62.2542 62.5424 62.38C60.9281 63.102 59.3139 63.8262 57.723 64.5972C57.1382 64.8805 56.4976 65.191 56.0846 65.6651C54.5208 67.4632 53.3889 69.5658 52.6903 71.8116C52.1077 73.6836 51.951 75.6882 51.6051 77.6341L51.6036 77.6348ZM52.1756 69.5839L51.8651 69.4076C51.7166 70.2139 50.6457 70.498 50.715 71.4288C50.8183 71.4875 50.9215 71.5463 51.0248 71.6051C51.4084 70.9314 51.792 70.2576 52.1756 69.5839Z" fill="#24252D"/>
<path d="M22.8512 29.094C22.9537 29.094 23.0562 29.0941 23.1579 29.0941V30.5297C23.0999 30.5282 23.0411 30.526 22.9831 30.5245C22.8678 30.3541 22.7811 30.1537 22.6334 30.0195C22.1285 29.5621 22.8648 29.4204 22.8512 29.094Z" fill="#24252D"/>
<path d="M44.0726 83.3841C44.1751 83.3841 44.2776 83.3841 44.3793 83.3841V84.8145H44.2045C44.0892 84.6441 44.0025 84.4437 43.8548 84.3095C43.3499 83.8521 44.0862 83.7104 44.0726 83.3841Z" fill="#24252D"/>
</g>
</svg>
