<svg width="1440" height="536" viewBox="0 0 1440 536" fill="none" xmlns="http://www.w3.org/2000/svg">
<g clip-path="url(#clip0_366_539)">
<mask id="mask0_366_539" style="mask-type:luminance" maskUnits="userSpaceOnUse" x="0" y="0" width="1440" height="536">
<path d="M1440 0H0V536H1440V0Z" fill="white"/>
</mask>
<g mask="url(#mask0_366_539)">
<path d="M254.054 523.227C271.482 516.394 292.743 516.183 309.153 524.751C325.563 533.372 335.625 551.402 330.714 567.644C327.48 578.42 318.376 587.303 307.776 593.453C297.175 599.603 285.077 603.44 273.099 607.172C268.668 611.272 260.882 611.22 255.192 608.539C249.503 605.858 245.43 601.233 241.597 596.712C232.494 586.147 214.706 568.117 217.461 553.609C219.977 540.416 241.358 528.115 254.054 523.174V523.227Z" stroke="#BDA66B" stroke-opacity="0.2" stroke-miterlimit="10"/>
<path d="M186.199 570.115C180.749 555.239 179.85 538.471 187.456 524.383C201.171 499.047 237.225 489.849 269.207 489.849C289.629 489.849 310.531 492.582 328.558 501.097C346.585 509.613 361.258 524.594 364.672 542.308C368.744 563.859 355.389 585.726 336.403 599.814C317.358 613.901 293.342 621.575 269.686 628.303C257.588 631.773 244.711 635.084 232.314 632.456C210.514 627.83 192.427 586.883 186.319 570.167L186.199 570.115Z" stroke="#BDA66B" stroke-opacity="0.2" stroke-miterlimit="10"/>
<path d="M201.171 473.396C232.733 462.62 268.188 464.618 301.367 470.505C322.748 474.29 344.249 479.914 361.737 491.32C411.326 523.648 391.263 587.04 353.891 620.524C334.966 637.45 311.01 647.91 284.898 653.166C262.858 657.582 244.771 669.409 222.013 672.247C165.836 679.291 156.673 594.504 152.061 562.966C150.564 552.663 144.335 542.15 144.096 531.9C143.557 505.618 175.957 481.964 201.171 473.396Z" stroke="#BDA66B" stroke-opacity="0.2" stroke-miterlimit="10"/>
<path d="M193.266 447.219C235.548 433.447 282.862 437.442 326.282 448.165C353.352 454.841 380.782 464.775 398.689 483.804C420.669 507.247 423.963 541.257 413.362 570.114C400.666 604.702 371.679 635.873 335.505 653.534C303.703 669.093 269.805 681.341 235.069 691.013C218.959 695.481 199.255 702.84 182.306 703.418C165.357 703.996 164.039 693.273 159.967 679.081C152.54 653.009 145.054 626.937 137.628 600.917C131.279 578.735 120.799 555.186 117.026 532.741C110.617 494.79 156.912 458.993 193.266 447.166V447.219Z" stroke="#BDA66B" stroke-opacity="0.2" stroke-width="2" stroke-miterlimit="10"/>
<path d="M186.139 427.98C212.91 418.781 242.016 416.784 270.704 414.892C301.008 412.894 333.169 409.32 362.635 402.749C386.651 397.388 389.646 413.367 401.923 427.455C432.527 462.515 446.302 508.509 439.175 552.243C432.048 595.976 404.259 636.819 363.713 662.943C332.271 683.233 294.6 694.482 257.588 705.468C224.289 715.35 190.99 725.18 157.631 735.062C143.078 734.116 131.998 722.394 128.225 710.041C124.392 697.689 126.129 684.653 126.668 671.879C127.866 645.65 124.033 619.315 115.588 594.137C107.742 570.745 90.1946 551.822 95.7644 527.275C105.706 483.383 137.807 444.591 186.199 427.98H186.139Z" stroke="#BDA66B" stroke-opacity="0.2" stroke-miterlimit="10"/>
<path d="M85.703 481.911C94.5068 461.148 103.85 439.702 121.637 423.933C151.223 397.703 196.799 393.025 238.663 389.45C280.526 385.876 326.222 380.252 354.55 352.971C360.24 347.451 365.091 341.196 371.918 336.781C378.746 332.365 388.388 330.158 395.635 333.942C402.223 337.359 404.918 344.455 407.074 350.921C416.417 378.937 425.76 406.954 435.102 434.971C448.697 475.709 462.412 517.024 463.311 559.444C464.209 601.863 450.794 646.28 416.776 676.452C381.98 707.308 331.432 719.082 283.401 729.648C244.352 738.216 205.304 746.784 166.255 755.352C152.241 758.453 137.149 761.449 123.613 756.981C104.508 750.621 95.1656 731.119 94.5068 713.248C93.848 695.323 99.7173 677.767 101.095 659.895C103.61 627.83 90.6739 597.29 68.215 572.375C56.0573 558.866 55.0392 554.503 61.7469 538.26C69.5326 519.442 77.6777 500.729 85.703 481.964V481.911Z" stroke="#BDA66B" stroke-opacity="0.2" stroke-miterlimit="10"/>
<path d="M35.3352 540.835C56.8957 505.354 78.3963 469.821 99.9567 434.34C111.695 414.996 124.452 394.654 146.012 383.563C166.555 372.997 191.529 372.577 215.006 369.002C257.767 362.484 298.133 344.455 329.276 317.857C338.739 309.762 347.483 300.879 358.563 294.623C369.642 288.368 383.956 285.057 396.174 289.525C412.045 295.359 418.812 311.497 423.843 325.952C433.246 353.023 442.648 380.093 452.051 407.164C461.394 434.024 470.737 460.99 476.546 488.586C491.758 561.125 481.457 637.607 447.44 705.047" stroke="#BDA66B" stroke-opacity="0.2" stroke-miterlimit="10"/>
<path d="M0 536C38.6891 514.186 67.0171 478.705 77.1985 439.334C83.0677 416.573 84.5051 390.344 104.568 374.942C123.494 360.382 151.522 361.538 176.556 359.173C235.189 353.654 290.048 322.956 320.652 278.697C331.672 262.717 343.65 242.743 364.911 241.849C385.453 240.955 428.275 270.286 434.863 287.37C463.251 361.276 476.307 397.966 492.238 464.407C508.168 530.849 509.127 600.812 487.506 666.044" stroke="#BDA66B" stroke-opacity="0.2" stroke-miterlimit="10"/>
<path d="M-16.8291 529.535C32.4006 509.14 66.8375 463.671 69.2331 415.943C70.1315 398.018 67.2567 378.517 78.3963 363.431C91.3326 345.874 118.223 341.301 142 341.459C165.776 341.617 190.69 344.718 212.61 336.676C240.938 326.215 256.689 300.143 270.943 276.226C285.197 252.31 302.865 226.658 332.271 218.773C352.873 213.254 375.571 217.88 394.676 226.711C409.11 233.386 422.226 242.48 432.287 253.729C447.619 270.812 455.405 291.996 462.951 312.706C474.091 343.299 485.23 373.891 493.675 405.167C516.613 489.691 519.488 578.315 502.239 663.837" stroke="#BDA66B" stroke-opacity="0.2" stroke-miterlimit="10"/>
<path d="M-23.5369 515.868C18.9852 495.315 49.0501 456.05 54.6797 413.735C57.5545 392.079 55.1589 368.004 70.371 350.763C83.0078 336.413 104.628 330.841 125.111 328.423C145.593 326.005 166.854 325.795 185.839 318.699C218.839 306.398 237.764 276.594 256.39 249.681C275.016 222.821 299.75 194.699 335.265 190.284C362.635 186.919 389.107 198.694 413.422 210.205C434.324 220.14 446.422 231.021 457.621 250.365C474.75 279.959 483.014 320.013 495.172 350.815C507.45 381.986 514.337 418.256 523.56 450.478C541.946 514.764 508.408 583.413 528.411 647.332" stroke="#BDA66B" stroke-opacity="0.2" stroke-miterlimit="10"/>
<path d="M-17.3083 495.263C11.6785 483.278 33.778 459.151 40.9049 431.765C45.8758 412.684 43.8994 392.814 46.0555 373.366C48.2115 353.917 55.7577 333.259 74.144 322.22C94.0275 310.288 120.319 312.864 144.096 309.342C184.582 303.402 220.456 277.278 234.53 243.426C257.827 201.637 316.879 170.572 369.702 173.936C422.525 177.3 471.276 210.994 487.386 255.306C494.453 274.755 495.651 295.465 500.023 315.492C510.624 364.167 539.79 408.741 548.594 457.679C558.356 511.61 542.785 566.277 527.273 619.105" stroke="#BDA66B" stroke-opacity="0.2" stroke-miterlimit="10"/>
<path d="M-23.8962 449.952C-1.19786 442.278 7.30655 418.045 9.10326 396.757C10.9 375.468 9.34282 352.498 22.6384 334.626C34.6165 318.541 56.2368 310.236 77.3182 305.19C98.3995 300.143 120.559 297.41 140.023 288.632C176.017 272.442 196.56 239.063 222.013 211.467C260.522 169.678 316.819 138.14 378.027 135.669C410.547 134.355 444.146 142.292 470.677 158.797C497.208 175.303 510.324 193.753 514.996 221.191C519.308 246.475 515.954 272.337 518.769 297.778C522.003 326.899 533.142 354.863 544.282 382.459C555.422 410.056 566.681 437.967 570.095 467.088C573.508 496.209 568.418 527.117 549.193 551.034" stroke="#BDA66B" stroke-opacity="0.2" stroke-width="2.5" stroke-miterlimit="10"/>
<path d="M-21.6204 332.523C-20.3028 315.177 -1.73682 302.351 17.1885 297.41C36.1737 292.469 56.4166 292.994 75.821 289.525C123.434 280.957 160.745 249.313 193.565 217.827C226.325 186.341 259.265 152.384 304.362 136.51C330.115 127.416 358.143 124.893 385.094 119.059C412.045 113.276 439.474 103.184 455.824 83.4724C469.779 66.5992 473.731 45.1529 481.397 25.3886C489.063 5.62438 503.437 -14.7181 526.615 -19.3438" stroke="#BDA66B" stroke-opacity="0.2" stroke-miterlimit="10"/>
<path d="M-20.4824 273.02C15.6314 290.051 61.2078 284.111 97.2617 267.027C133.316 249.944 161.883 223.083 189.972 196.906C218.06 170.729 247.107 144.237 283.7 128.047C308.734 116.956 336.283 111.226 362.815 103.394C389.406 95.6145 415.997 85.2067 434.983 67.1246C453.968 49.0424 463.79 21.7614 452.83 -0.841309" stroke="#BDA66B" stroke-opacity="0.2" stroke-miterlimit="10"/>
<path d="M-22.5786 250.89C14.6731 267.658 61.0281 261.14 97.8007 243.531C134.573 225.922 163.86 198.694 193.026 172.306C222.193 145.919 252.737 119.479 290.827 104.183C312.028 95.6672 334.906 90.9364 357.065 84.5235C379.225 78.1106 401.264 69.7529 417.974 55.4554C434.683 41.1578 445.164 19.9218 440.013 -0.0527344" stroke="#BDA66B" stroke-opacity="0.2" stroke-miterlimit="10"/>
<path d="M-30.7236 225.607C6.52807 246.37 56.1771 248.735 95.8244 231.704C163.979 202.321 192.727 126.102 260.403 95.8775C282.562 85.9428 307.416 81.7902 331.432 76.1658C355.448 70.5414 379.884 62.867 397.791 47.7284C415.698 32.5898 425.52 8.14735 415.458 -11.8271" stroke="#BDA66B" stroke-opacity="0.2" stroke-miterlimit="10"/>
<path d="M-13.5352 177.721C-9.82196 200.639 12.6369 220.245 38.749 223.347C59.0518 225.765 79.5941 218.984 96.6628 209.049C149.965 178.036 175.718 118.112 231.356 90.411C253.036 79.6353 277.651 74.5365 301.547 68.4916C325.503 62.4467 349.759 54.8774 368.265 40.3171C386.771 25.7567 398.509 2.5232 391.263 -18.3975" stroke="#BDA66B" stroke-opacity="0.2" stroke-width="2.5" stroke-miterlimit="10"/>
<path d="M-26.8906 120.951C-14.8527 119.794 -3.71312 127.731 1.677 137.246C7.06712 146.76 8.08525 157.641 9.76218 168.154C11.4391 178.666 14.3138 189.6 22.3391 197.537C33.299 208.365 52.1045 210.994 67.9755 207.104C93.1892 200.954 111.037 181.4 124.332 161.636C137.628 141.871 148.588 120.215 167.753 104.603C186.318 89.4645 210.694 81.4221 234.47 73.6951C264.954 63.813 295.379 53.9309 325.863 44.0488C338.26 40.0013 350.897 35.9013 361.378 28.7525C371.798 21.6037 379.884 10.828 379.584 -0.841309" stroke="#BDA66B" stroke-opacity="0.2" stroke-miterlimit="10"/>
<path d="M4.19232 -0.210433C2.21594 13.3512 10.0017 26.9654 21.3808 36.3219C32.7599 45.6784 47.3732 51.3553 61.9864 56.0861C97.1419 67.3875 134.933 74.0106 172.065 69.9632C194.823 67.4401 216.743 61.0272 238.543 54.6143C270.344 45.2578 302.146 35.8488 333.948 26.4923C342.572 23.9692 351.436 21.2884 358.383 16.1897C365.39 11.0909 370.181 2.83831 368.025 -4.88867" stroke="#BDA66B" stroke-opacity="0.2" stroke-miterlimit="10"/>
<path d="M350.298 -5.4142C321.371 13.3513 291.186 17.9244 258.067 26.913C227.523 35.2181 199.674 52.4593 166.914 53.7734C146.491 54.5619 126.608 48.8323 107.203 43.1554C89.955 38.1092 72.527 33.0104 56.9555 24.8104C41.3841 16.6103 27.4895 4.88844 20.9016 -9.9873" stroke="#BDA66B" stroke-opacity="0.2" stroke-miterlimit="10"/>
<path d="M60.2495 3.83734C87.4397 30.3298 129.243 44.7851 169.729 41.6838C210.215 38.5825 248.544 18.0298 270.105 -12.1948" stroke="#BDA66B" stroke-opacity="0.2" stroke-miterlimit="10"/>
<path d="M215.245 -0.473145C193.984 18.5552 160.566 26.3873 131.339 19.186C118.583 16.0321 106.185 9.82949 99.3579 -0.210322" stroke="#BDA66B" stroke-opacity="0.2" stroke-miterlimit="10"/>
<path d="M39.0486 130.518C40.6057 139.454 42.2227 148.547 46.8343 156.642C51.4458 164.737 59.7706 171.676 69.9519 173.042C76.7794 173.936 83.8464 172.254 89.8953 169.363C104.089 162.635 113.732 149.073 114.51 134.933C115.229 120.793 107.024 106.548 93.5486 98.6636C82.6486 92.3033 63.0046 88.3609 50.6673 94.0905C36.1738 100.871 37.0123 118.533 39.0486 130.518Z" stroke="#BDA66B" stroke-opacity="0.2" stroke-miterlimit="10"/>
<path d="M579.258 554.713C605.37 495.946 601.477 427.454 568.897 371.263C559.434 354.915 547.337 338.567 547.037 320.222C546.618 291.785 574.946 266.396 569.855 238.274C566.801 221.506 552.427 208.208 537.694 197.116C523.021 186.025 506.851 175.46 498.107 160.321C489.303 145.183 490.92 123.631 507.27 114.59C521.045 106.968 539.311 110.963 553.865 117.429C574.287 126.522 591.835 139.874 610.88 151.07C624.176 158.902 638.549 165.683 654.241 168.679C684.605 174.514 717.664 179.665 748.568 174.566C764.558 171.938 780.429 166.997 796.6 168.469C812.77 169.941 829.539 180.874 828.641 195.119C827.802 208.681 811.872 217.722 796.839 221.033C781.807 224.345 765.517 224.555 752.101 231.441C736.17 239.641 727.846 255.463 720.419 270.286C711.376 288.421 702.153 307.502 704.189 327.214C707.124 355.861 732.637 378.149 756.593 397.755C772.284 410.633 791.329 424.458 812.53 421.462C826.605 419.464 838.163 410.108 845.111 399.174C852.058 388.241 855.052 375.783 857.927 363.536C864.395 336.465 870.804 309.394 877.272 282.324C880.805 267.553 885.417 251.258 899.671 242.795C915.721 233.281 936.982 237.433 956.267 239.378C975.552 241.323 999.567 237.801 1006.04 221.769C1010.11 211.624 1005.26 200.638 1001.96 190.336C998.669 179.98 997.891 167.102 1007.35 160.321C1014.9 154.855 1026.52 155.801 1034.9 160.164C1043.29 164.527 1049.28 171.728 1055.03 178.666C1069.76 196.538 1085.27 218.615 1076.17 239.168C1070.9 251.153 1058.26 259.458 1051.43 270.812C1039.99 289.84 1046.88 313.021 1054.67 333.364C1062.51 353.706 1071.14 375.941 1062.69 396.126C1055.03 414.365 1034.96 426.35 1014.6 433.972C994.237 441.594 972.258 446.22 953.153 456.102C928.538 468.822 909.972 490.269 902.545 514.448C895.119 538.628 898.892 565.383 912.906 587.25" stroke="#BDA66B" stroke-opacity="0.2" stroke-miterlimit="10"/>
<path d="M604.232 546.828C622.319 519.179 623.397 485.328 617.887 453.841C612.377 422.355 600.878 391.868 595.249 360.382C589.619 328.896 590.458 295.097 608.185 267.29C616.33 254.517 628.248 242.059 627.23 227.446C626.452 216.565 618.426 205.474 623.277 195.382C627.889 185.868 641.903 182.872 653.522 184.396C684.006 188.391 706.704 217.985 699.398 244.319C691.492 272.915 654.959 294.098 658.613 323.376C660.709 340.46 676.28 353.548 690.834 365.06C713.113 382.617 735.392 400.173 757.611 417.782C773.901 430.661 793.545 444.432 815.166 441.121C833.073 438.388 846.009 424.405 853.974 410.055C864.395 391.29 869.306 370.579 874.996 350.289C880.686 330 887.393 309.447 900.809 292.206C914.224 274.965 935.605 261.245 959.381 260.457C980.103 259.773 1000.17 268.972 1014.12 282.429C1028.08 295.885 1036.46 313.126 1041.61 330.735C1047.96 352.445 1049.22 377.202 1034.48 395.495C1013.7 421.357 971.838 423.564 939.138 436.916C912.128 447.954 890.148 468.034 878.589 492.108C867.03 516.183 866.072 544.042 875.954 568.695" stroke="#BDA66B" stroke-opacity="0.2" stroke-width="2.5" stroke-miterlimit="10"/>
<path d="M621.96 541.204C638.549 510.717 642.083 474.973 631.782 442.435C628.248 431.239 623.098 420.358 621.121 408.847C619.145 397.335 620.942 384.614 629.746 375.941C642.742 363.01 666.997 363.536 683.826 372.367C700.656 381.198 711.795 396.284 722.216 410.897C732.637 425.51 743.477 440.648 760.007 449.952C781.986 462.357 811.932 462.988 830.258 479.388C841.457 489.428 846.309 503.936 846.608 518.023C846.907 532.11 843.194 545.935 839.541 559.654" stroke="#BDA66B" stroke-opacity="0.2" stroke-width="2.5" stroke-miterlimit="10"/>
<path d="M650.827 551.612C657.415 519.863 656.277 486.958 647.593 455.629C644.538 444.538 640.466 433.395 641.185 421.988C641.903 410.582 648.791 398.597 661.128 394.917C670.591 392.079 681.251 394.76 689.396 399.753C697.541 404.747 703.77 411.843 709.819 418.782C724.192 435.339 738.506 451.897 752.88 468.455C763.001 480.124 773.362 492.267 777.495 506.512C784.083 529.377 771.566 555.397 748.388 567.224" stroke="#BDA66B" stroke-opacity="0.2" stroke-miterlimit="10"/>
<path d="M677.178 535.422C671.968 518.339 668.974 488.903 663.763 467.562C661.188 456.944 658.313 446.326 657.714 435.55C657.594 432.974 657.594 430.399 657.834 427.875C658.193 423.828 658.912 419.833 660.828 416.259C662.745 412.684 665.859 409.425 670.231 407.954C677.119 405.588 685.204 407.586 691.253 411.318C697.302 415.05 701.793 420.411 706.165 425.668C717.724 439.597 729.223 453.579 740.782 467.562C745.753 473.554 750.784 479.651 754.257 486.38C756.353 490.427 757.851 494.737 758.39 499.153C758.749 501.991 758.569 504.83 758.09 507.616C755.994 520.599 740.183 538.892 726.049 543.307" stroke="#BDA66B" stroke-opacity="0.2" stroke-miterlimit="10"/>
<path d="M679.933 479.493C677.598 466.93 675.202 454.367 672.866 441.857C672.148 438.02 671.429 434.078 672.148 430.24C672.866 426.403 675.262 422.566 679.275 420.884C683.647 419.097 689.037 420.253 692.99 422.776C696.942 425.299 699.697 428.874 702.452 432.396C711.196 443.802 719.88 455.156 728.624 466.562C732.218 471.293 735.871 476.077 737.907 481.491C739.943 486.905 740.063 493.055 736.889 497.996C732.876 504.251 712.214 520.494 703.59 519.232C686.641 516.814 682.09 490.795 679.993 479.493H679.933Z" stroke="#BDA66B" stroke-opacity="0.2" stroke-miterlimit="10"/>
<path d="M881.105 391.027C881.763 376.415 887.154 362.327 892.723 348.555C899.731 331.157 907.396 313.337 921.77 299.881C936.144 286.424 958.962 278.172 978.666 284.584C994.537 289.736 1005.08 302.929 1012.68 316.228C1023.58 335.309 1029.87 359.541 1016.04 377.098C1007.71 387.663 993.818 393.498 980.522 398.86C956.387 408.637 932.431 418.939 908.055 428.191C896.496 432.606 893.262 429.505 887.513 419.57C882.482 410.844 880.626 400.752 881.045 391.027H881.105Z" stroke="#BDA66B" stroke-opacity="0.2" stroke-miterlimit="10"/>
<path d="M922.609 350.237C922.968 344.192 926.322 338.462 931.053 334.047C938.779 326.846 950.877 322.956 961.657 325.794C972.437 328.633 980.343 339.146 977.408 348.66C971.179 368.634 920.992 379.515 922.609 350.237Z" stroke="#BDA66B" stroke-opacity="0.2" stroke-miterlimit="10"/>
<path d="M735.152 362.905C722.875 348.029 715.927 328.685 721.677 311.024C725.749 298.671 735.452 288.421 745.333 278.907C758.809 265.871 773.661 252.993 792.587 247.158C811.512 241.323 835.468 244.582 846.907 259.037C856.25 270.917 855.052 286.686 853.256 301.089C851.04 318.435 848.524 335.782 845.709 353.075C844.092 363.01 842.296 373.05 837.684 382.249C833.073 391.447 825.287 399.805 814.686 403.537C786.059 413.63 749.825 380.777 735.212 363.01L735.152 362.905Z" stroke="#BDA66B" stroke-opacity="0.2" stroke-width="2.5" stroke-miterlimit="10"/>
<path d="M753.718 290.103C763.42 278.486 778.153 268.657 794.504 269.288C815.585 270.076 831.396 288.368 834.151 306.713C836.906 325.058 829.839 343.351 822.891 360.855C816.543 376.887 807.2 390.711 785.58 386.822C773.602 384.667 767.194 379.568 759.707 371.525C736.111 346.242 730.301 318.067 753.658 290.103H753.718Z" stroke="#BDA66B" stroke-opacity="0.2" stroke-miterlimit="10"/>
<path d="M759.408 343.561C753.778 332.575 753.538 319.486 758.809 308.395C762.342 300.931 768.451 294.255 776.536 290.366C784.621 286.476 794.803 285.687 803.128 289.104C812.53 292.941 818.579 301.457 821.154 310.288C824.389 321.326 822.891 333.416 816.962 343.613C812.351 351.551 798.696 366.847 787.137 366.479C775.578 366.111 763.54 351.551 759.468 343.613L759.408 343.561Z" stroke="#BDA66B" stroke-opacity="0.2" stroke-miterlimit="10"/>
<path d="M785.64 341.091C781.747 336.097 778.333 330.315 778.992 324.27C779.651 318.225 785.939 312.391 792.707 313.6C799.953 314.861 802.948 323.219 800.373 329.264C797.797 335.309 791.509 339.461 785.58 343.299" stroke="#BDA66B" stroke-opacity="0.2" stroke-miterlimit="10"/>
<path d="M541.048 -14.6128C524.938 -5.88709 508.348 3.25913 497.628 16.9785C486.907 30.6978 483.613 50.3043 494.992 63.6031C501.041 70.6993 510.324 75.0622 519.308 79.1622C557.578 96.7713 595.848 114.433 634.117 132.042C667.416 147.391 704.129 163.265 741.081 156.905C761.145 153.436 780.07 143.554 800.432 144.552C823.49 145.709 842.475 160.427 857.747 175.671C873.019 190.914 887.393 207.893 908.295 216.513C929.196 225.134 959.142 221.139 968.125 202.478C976.33 185.448 965.61 164.79 975.971 148.442C988.368 128.941 1017.53 128.573 1037.9 137.929C1055.62 146.024 1069.76 165.578 1080.6 180.033C1093.95 197.853 1102.34 222.453 1096.59 243.689C1091.08 263.979 1070.78 279.959 1068.38 300.721C1065.87 322.378 1083.53 341.774 1087.43 363.221C1093.24 395.18 1067.66 425.404 1037.9 444.485C1008.13 463.566 972.976 475.814 944.888 496.787C916.799 517.76 896.496 552.4 910.391 582.362" stroke="#BDA66B" stroke-opacity="0.2" stroke-miterlimit="10"/>
<path d="M551.589 -26.0195C525.058 -0.683452 525.956 2.36529 518.17 21.2885C514.577 30.0142 518.35 39.7386 526.794 45.3105C546.019 58.0311 565.364 68.7542 584.469 82.3684C609.922 100.451 635.675 118.743 665.26 130.991C694.846 143.238 729.163 149.125 760.666 141.188C785.161 135.038 810.374 120.793 834.031 129.046C864.276 139.664 869.726 180.401 904.881 183.87C910.69 184.449 916.799 183.713 921.71 180.927C934.407 173.673 934.527 158.745 939.677 146.76C948.361 126.417 973.695 113.855 998.43 113.592C1023.16 113.329 1046.82 123.737 1065.45 138.034C1106.77 169.836 1125.34 222.663 1111.56 269.393C1106.35 287.16 1097.49 304.138 1093.89 322.325C1090.3 340.25 1105.99 354.495 1111.92 370.106C1117.85 385.718 1107.73 410.003 1098.57 423.617C1087.37 440.28 1070.3 453.474 1051.61 463.671C1033.53 473.553 1010.71 478.284 993.579 488.902C977.947 498.574 961.358 509.35 948.361 521.807C937.701 532.005 929.017 544.305 925.184 557.814C921.531 570.535 929.017 581.31 940.516 589.458" stroke="#BDA66B" stroke-opacity="0.2" stroke-miterlimit="10"/>
<path d="M1197.86 273.178C1211.76 258.407 1235.71 251.574 1256.86 256.304C1265.72 258.302 1274.22 262.297 1279.73 268.71C1286.74 276.805 1288.24 287.843 1286.2 297.883C1281.11 323.64 1258.77 369.686 1222.06 354.285C1185.35 338.883 1171.69 300.879 1197.8 273.178H1197.86Z" stroke="#BDA66B" stroke-opacity="0.2" stroke-width="2.5" stroke-miterlimit="10"/>
<path d="M1329.08 459.413C1328.78 452.685 1330.34 445.957 1331.3 439.281C1333.93 420.253 1331.3 400.646 1323.57 382.722C1320.82 376.256 1317.34 369.581 1318.6 362.8C1320.88 350.395 1338.31 344.087 1352.32 346.768C1373.04 350.71 1387.36 368.529 1391.43 386.822C1395.5 405.114 1391.43 423.932 1387.3 442.172C1384 456.785 1377.65 475.814 1359.03 480.965C1342.44 485.538 1329.8 473.658 1329.14 459.466L1329.08 459.413Z" stroke="#BDA66B" stroke-opacity="0.2" stroke-miterlimit="10"/>
<path d="M1062.15 -9.35645C1066.88 12.5104 1090.96 27.4913 1115.46 33.1682C1139.95 38.8452 1165.76 37.4785 1190.98 39.7388C1225.35 42.7875 1260.45 53.5632 1283.03 76.5339C1299.98 93.7751 1308.3 116.273 1313.09 138.665C1320.64 174.251 1319.92 211.204 1311.12 246.58C1308.6 256.725 1305.37 267.343 1308.9 277.278C1312.19 286.476 1320.7 293.362 1329.08 299.512C1354.48 318.12 1383.04 335.151 1398.32 360.908C1415.39 389.713 1412.63 423.985 1415.09 456.417C1417.54 488.85 1429.1 525.014 1461.98 539.942" stroke="#BDA66B" stroke-opacity="0.2" stroke-miterlimit="10"/>
<path d="M1400.65 178.614C1398.2 159.691 1401.25 137.141 1419.88 127.258C1433.53 120.005 1452.04 122.528 1464.73 131.096C1477.43 139.664 1484.74 153.12 1487.85 166.84C1490.97 180.559 1490.31 194.751 1489.59 208.733C1488.87 223.767 1488.09 238.8 1487.37 253.781C1486 282.061 1456.29 288.999 1437.78 266.134C1418.02 241.691 1404.54 208.155 1400.65 178.614Z" stroke="#BDA66B" stroke-opacity="0.2" stroke-miterlimit="10"/>
<path d="M1398.14 6.83352C1391.19 1.36682 1385.02 -7.46402 1389.69 -14.5077C1393.47 -20.1846 1402.21 -21.2885 1409.7 -20.9731C1422.99 -20.4474 1436.17 -17.3461 1448.03 -11.932C1454.31 -9.09352 1460.42 -5.46657 1464.49 -0.367812C1468.57 4.73094 1470.42 11.5118 1467.91 17.3464C1457.91 40.2645 1410.23 16.4528 1398.08 6.83352H1398.14Z" stroke="#BDA66B" stroke-opacity="0.2" stroke-miterlimit="10"/>
<path d="M1105.33 565.646C1152.65 529.166 1216.13 509.349 1279.08 511.347C1342.02 513.344 1403.71 537.208 1447.85 576.579" stroke="#BDA66B" stroke-opacity="0.2" stroke-miterlimit="10"/>
<path d="M1090.54 -5.30909C1102.88 5.41407 1119.89 10.8282 1136.6 15.0859C1156.42 20.1847 1177.26 24.0745 1197.68 21.1834C1218.11 18.2924 1238.11 7.41152 1245.3 -9.61937C1249.73 -20.0271 1247.63 -33.799 1236.61 -39.3183C1227.81 -43.7337 1216.79 -41.3683 1207.03 -38.9504C1189.84 -34.6401 1172.59 -30.3823 1155.4 -26.0721" stroke="#BDA66B" stroke-opacity="0.2" stroke-miterlimit="10"/>
<path d="M1437.36 74.2738C1414.37 71.225 1391.31 68.1237 1368.31 65.075C1357.17 63.6032 1344.36 62.5519 1336.09 69.2276C1327.41 76.2712 1328.12 88.2559 1329.44 98.6111C1335.19 142.029 1340.94 185.5 1346.69 228.918C1349.39 249.051 1352.2 269.656 1362.68 287.738C1371.37 302.719 1384.84 315.072 1396.82 328.213C1445.09 381.04 1470.84 449.374 1467.91 517.024" stroke="#BDA66B" stroke-opacity="0.2" stroke-width="2.5" stroke-miterlimit="10"/>
<path d="M1444.67 59.1352C1408.74 55.6133 1372.02 51.8812 1339.26 38.4247C1306.5 24.9682 1277.76 -0.210145 1272.13 -31.5386" stroke="#BDA66B" stroke-opacity="0.2" stroke-miterlimit="10"/>
<path d="M556.799 -7.83195C542.785 -8.30503 534.281 7.56944 538.653 19.2388C543.025 30.9081 555.242 38.7927 566.681 45.8364C595.428 63.498 624.176 81.1072 652.923 98.7688C681.491 116.325 713.652 134.67 748.268 130.833C770.847 128.31 790.551 116.483 811.991 109.65C833.432 102.816 861.101 102.448 875.056 118.323C884.279 128.783 888.831 146.34 903.863 146.445C914.763 146.497 921.59 136.615 928.059 128.888C951.536 100.871 996.992 90.7264 1034.84 100.871C1072.75 111.016 1102.52 138.876 1117.55 171.045C1132.58 203.214 1134.26 239.274 1128.57 273.703C1124.98 295.465 1118.57 317.542 1123.24 339.146C1126.65 355.073 1135.94 369.844 1137.85 385.929C1140.67 409.267 1127.43 432.396 1108.63 449.111C1089.82 465.827 1065.87 477.18 1042.21 488.219C1019.45 498.784 996.274 509.403 977.228 524.699C958.183 539.942 943.45 560.705 942.372 583.308" stroke="#BDA66B" stroke-opacity="0.2" stroke-miterlimit="10"/>
<path d="M602.076 -2.26025C609.023 34.7451 634.896 68.6492 671.249 88.4135C707.543 108.178 753.718 113.382 794.563 102.396C814.507 97.0341 834.27 87.8878 854.992 89.9904C870.025 91.5148 883.8 98.9789 898.892 99.9251C916.739 101.029 933.389 92.9866 950.278 87.7827C991.003 75.1147 1037.96 78.9519 1075.33 97.9802C1112.7 117.009 1139.83 150.86 1147.56 188.181C1160.91 252.415 1119.83 322.956 1152.05 381.828C1161.33 398.859 1176.84 415.522 1173.25 434.13C1168.88 456.733 1140.07 467.403 1116.23 476.655C1066.82 495.893 1022.74 525.697 988.967 562.703" stroke="#BDA66B" stroke-opacity="0.2" stroke-miterlimit="10"/>
<path d="M620.522 -2.20801C632.8 29.5409 663.164 60.8168 697.362 75.7451C738.566 93.7222 792.048 85.8901 835.528 80.2657C864.156 76.5861 892.843 72.9066 921.471 69.2271C943.81 66.3361 966.269 63.4976 988.787 64.6014C1029.63 66.6515 1067.6 81.6849 1103.12 98.453C1133.06 112.593 1166.36 124.63 1180.26 154.75C1194.99 186.604 1172.95 221.191 1161.51 254.044C1144.08 304.19 1152.59 360.802 1184.27 405.272C1196.25 422.04 1212.06 440.07 1207.15 459.413C1201.82 480.492 1175.11 490.637 1151.81 497.575C1103.72 511.925 1055.68 526.328 1007.59 540.678" stroke="#BDA66B" stroke-opacity="0.2" stroke-width="2.5" stroke-miterlimit="10"/>
<path d="M635.794 -0.10498C666.398 43.1556 722.935 71.3301 780.968 72.1186C854.573 73.1699 924.645 33.4837 997.771 41.053C1023.28 43.6812 1047.54 52.039 1071.44 60.2916C1113.66 74.9045 1155.88 89.4649 1198.16 104.078C1213.79 109.492 1230.26 115.379 1240.57 127.101C1259.73 148.863 1249.61 181.242 1231.34 203.582C1213.08 225.922 1187.68 243.899 1173.79 268.605C1156.24 299.775 1160.85 339.567 1185.17 367.005C1208.17 392.972 1248.47 411.685 1250.39 444.538C1251.41 461.937 1240.15 478.495 1225.17 489.954C1210.2 501.413 1191.7 508.561 1173.49 515.552C1132.28 531.374 1091.14 547.196 1049.94 563.071" stroke="#BDA66B" stroke-opacity="0.2" stroke-miterlimit="10"/>
<path d="M665.081 -5.57178C672.687 24.8105 704.967 46.9927 739.464 53.9838C773.961 60.9749 810.195 55.2453 844.092 46.2042C877.99 37.1631 910.75 24.8105 945.367 18.2399C979.983 11.6694 1017.65 11.3014 1049.16 25.4938C1071.38 35.4811 1089.4 52.144 1112.58 60.2915C1148.63 72.907 1190.56 62.7095 1227.63 72.7493C1260.03 81.5276 1285.96 106.496 1293.03 135.564C1300.04 164.685 1287.82 196.696 1262.31 216.25C1243.56 230.6 1219 238.117 1200.38 252.625C1169 277.067 1156.3 323.482 1176.54 355.704" stroke="#BDA66B" stroke-opacity="0.2" stroke-miterlimit="10"/>
<path d="M1445.51 47.3608C1434.07 46.5723 1422.63 45.7838 1411.19 44.9954C1389.63 43.5235 1369.99 27.7542 1352.26 16.9259C1334.53 6.09764 1318.96 -8.51528 1311.66 -26.3872" stroke="#BDA66B" stroke-opacity="0.2" stroke-miterlimit="10"/>
<path d="M1350.28 -4.94092C1359.93 13.8246 1381.85 25.967 1404.61 30.8555C1427.36 35.7966 1451.2 34.5876 1474.62 33.326" stroke="#BDA66B" stroke-opacity="0.2" stroke-miterlimit="10"/>
<path d="M1129.77 -7.56922C1143.12 -3.94227 1156.48 -0.315324 1169.84 3.31162C1186.9 7.9373 1206.25 12.4053 1221.94 4.83599C1232.78 -0.420453 1239.37 -10.4077 1245.42 -19.9219" stroke="#BDA66B" stroke-opacity="0.2" stroke-miterlimit="10"/>
<path d="M1446.83 365.113C1376.94 305.136 1340.16 216.67 1349.69 131.306C1351.3 116.64 1354.78 101.081 1366.45 90.4106C1377.71 80.108 1394.9 76.2708 1411.13 76.9541C1427.36 77.6374 1442.93 82.3682 1458.27 87.0465" stroke="#BDA66B" stroke-opacity="0.2" stroke-miterlimit="10"/>
<path d="M1442.81 104.761L1409.88 101.187" stroke="#BDA66B" stroke-opacity="0.2" stroke-miterlimit="10"/>
<path d="M1401.13 100.818C1381.67 110.648 1375.26 132.515 1373.4 152.174C1367.35 217.564 1393.11 284.794 1442.99 333.679" stroke="#BDA66B" stroke-opacity="0.2" stroke-miterlimit="10"/>
<path d="M1450.84 298.881C1405.86 269.813 1379.51 219.877 1383.34 170.992C1384.66 154.014 1389.75 136.615 1402.33 123.684C1414.91 110.701 1436.11 103.289 1454.37 109.019" stroke="#BDA66B" stroke-opacity="0.2" stroke-width="2.5" stroke-miterlimit="10"/>
<path d="M676.759 -4.52078C689.336 22.4974 720.838 40.5795 753.718 44.9424C786.598 49.3578 820.376 41.5257 849.962 28.2269C879.547 14.9281 905.6 -3.62719 931.293 -22.1299" stroke="#BDA66B" stroke-opacity="0.2" stroke-miterlimit="10"/>
<path d="M883.381 -11.4066C855.472 11.4064 818.22 26.8077 780.07 25.4411C741.92 24.0744 703.949 3.83707 690.235 -27.3862" stroke="#BDA66B" stroke-opacity="0.2" stroke-width="2.5" stroke-miterlimit="10"/>
<path d="M728.804 -6.09775C746.831 5.67669 769.889 11.3011 792.228 9.40877C814.567 7.51645 836.007 -1.89259 851.16 -16.4004" stroke="#BDA66B" stroke-opacity="0.2" stroke-miterlimit="10"/>
<path d="M162.782 546.145C160.925 526.485 173.742 507.247 191.828 495.472C209.915 483.698 232.494 478.494 254.833 476.444C282.322 473.921 311.309 476.076 335.206 488.271C359.102 500.466 376.59 524.225 373.176 548.3" stroke="#BDA66B" stroke-opacity="0.2" stroke-miterlimit="10"/>
<path d="M204.585 545.777C214.946 519.705 246.029 501.097 277.531 502.201C309.033 503.305 338.32 523.963 346.285 550.665" stroke="#BDA66B" stroke-opacity="0.2" stroke-miterlimit="10"/>
<path d="M76.4797 -4.36315C95.2254 19.2383 129.243 31.6961 162.003 30.382C194.763 29.0679 225.846 15.1908 249.622 -4.62598" stroke="#BDA66B" stroke-opacity="0.2" stroke-width="2.5" stroke-miterlimit="10"/>
<path d="M205.783 -1.62975C191.229 9.40879 171.166 14.6652 152.121 12.3524C133.076 10.0396 115.408 0.262573 104.808 -13.8247" stroke="#BDA66B" stroke-opacity="0.2" stroke-miterlimit="10"/>
<path d="M15.7512 -4.73073C16.7095 9.93476 28.1485 22.8656 42.1029 30.9606C56.0573 39.0555 72.5271 43.103 88.6376 47.0979C114.151 53.353 140.143 59.6608 166.675 59.03C191.709 58.3992 216.024 51.6184 239.86 44.8901C263.876 38.1093 287.952 31.3285 311.968 24.4951C326.761 20.29 341.853 16.0322 354.49 8.09501C367.127 0.157771 377.248 -12.1423 377.608 -25.8091" stroke="#BDA66B" stroke-opacity="0.2" stroke-miterlimit="10"/>
<path d="M287.353 -5.99219L274.896 10.1451C278.909 11.6169 283.52 10.3554 287.593 9.04126C292.504 7.46432 297.415 5.88739 302.326 4.36302C311.728 1.36684 321.191 -1.62934 330.055 -5.6768" stroke="#BDA66B" stroke-opacity="0.2" stroke-miterlimit="10"/>
<path d="M-14.6731 469.664C6.16869 463.408 19.644 445.221 25.7528 426.666C31.8616 408.111 32.1011 388.451 35.6946 369.371C39.288 350.29 47.0138 330.631 64.0825 318.436C98.1001 294.203 139.424 308.396 176.317 287.685C201.291 273.703 216.623 246.317 231.476 223.82C253.875 190.021 298.912 164.474 342.332 155.801C369.403 150.387 398.629 153.015 423.783 163.265C436.18 168.364 445.823 175.986 456.783 182.767C469.359 190.546 480.14 198.746 488.405 210.363C500.742 227.762 505.533 248.209 506.971 268.447C508.468 289.841 511.822 309.605 517.751 330.525C522.123 346.085 527.273 361.433 533.083 376.625C535.119 381.934 537.275 387.19 539.611 392.394C541.767 397.282 542.965 402.539 545.121 407.48C547.576 413.262 550.99 418.781 552.846 424.826C554.703 430.871 556.14 437.231 557.338 443.487C563.327 475.393 562.848 508.246 555.961 539.995" stroke="#BDA66B" stroke-opacity="0.2" stroke-miterlimit="10"/>
</g>
</g>
<defs>
<clipPath id="clip0_366_539">
<rect width="1440" height="536" fill="white"/>
</clipPath>
</defs>
</svg>
