<svg width="924" height="927" viewBox="0 0 924 927" xmlns="http://www.w3.org/2000/svg">
<path d="M109.89 311.985L110.1 311.38C120.212 315.037 120.485 315.81 125.804 317.662C121.527 328.777 120.685 331.195 116.77 342.437C113.571 351.624 109.314 364.238 108.551 366.818L107.947 366.608C109 360.469 107.566 358.749 99.3457 355.887L34.4328 333.283C24.7624 329.915 23.6054 331.681 20.9071 336.705L20.3027 336.494C21.2654 334.119 22.9017 329.809 25.9324 321.106C32.3728 302.611 35.7403 292.941 37.3927 287.417C38.2389 287.712 40.5777 288.39 42.5118 289.064C45.1712 289.99 49.8434 291.753 52.1714 293.241L51.961 293.845C41.2026 290.099 39.535 293.72 33.3473 311.49C30.99 318.259 30.6846 319.914 30.5367 321.896L66.5591 334.44C74.3043 312.198 74.4835 310.905 66.0489 305.935L66.2594 305.33C69.9646 306.756 72.461 307.761 77.4171 309.487C83.8237 311.718 85.679 312.228 89.8311 313.539L89.6206 314.143C78.5935 312.336 77.9308 313.461 70.1855 335.703L109.472 349.383C110.418 348.222 111.797 345.042 113.775 339.361C120.342 320.504 121.226 317.965 109.89 311.985ZM14.7167 287.924L22.5241 312.6L20.9731 313.551L8.28194 290.834L14.7167 287.924Z" />
<path d="M148.609 233.208L148.931 232.654C152.593 235.523 156.403 237.885 160.387 240.2C159.514 253.165 156.279 263.572 151.391 271.983C134.926 300.315 106.102 303.55 85.407 291.523C65.0439 279.689 52.2953 253.479 68.5669 225.479C75.1913 214.08 84.3639 205.939 90.7757 199.746C93.5245 201.64 97.7763 204.259 101.096 206.188C102.978 207.281 104.591 208.071 105.366 208.521L105.045 209.075C92.6705 203.364 79.877 211.622 71.2589 226.452C61.1615 243.827 64.367 265.824 91.7023 281.709C118.374 297.209 140.245 285.048 149.764 268.669C156.002 257.934 157.968 243.088 148.609 233.208Z" />
<path d="M211.847 193.043L212.422 193.552C211.754 194.499 211.414 194.882 210.395 196.032C201.267 205.559 199.014 205.785 167.815 198.145C164.689 197.427 158.032 195.289 154.344 195.783L148.91 201.914L171.038 221.526C178.701 228.318 180.284 227.497 184 224.462L184.479 224.887C182.6 226.814 179.788 229.794 176.901 233.051C173.76 236.595 171.478 239.362 169.706 241.554L169.227 241.13C171.794 237.076 172.419 235.406 164.755 228.614L113.316 183.023C106.898 177.335 104.324 176.764 100.523 179.895L100.044 179.47C103.123 176.383 104.651 174.659 108.386 170.444C110.933 167.571 115.157 162.42 117.024 160.312C129.929 145.752 145.107 144.837 156.219 154.686C164.266 161.817 167.27 174.058 159.838 187.654C164.95 186.711 200.621 199.341 211.847 193.043ZM146.899 200.131L150.974 195.533C163.2 181.739 159.433 171.901 150.333 163.836C140.179 154.836 127.548 152.877 118.718 162.84C116.766 165.043 115.259 167.128 113.563 170.586L146.899 200.131Z" />
<path d="M230.378 178.997L230.798 179.48C228.688 181.149 225.515 183.743 222.234 186.602C218.663 189.713 216.045 192.163 214.005 194.11L213.585 193.627C216.652 189.937 217.486 188.362 210.759 180.641L165.608 128.814C158.881 121.093 157.206 121.704 153.131 124.236L152.711 123.753C154.918 122 157.704 119.742 161.275 116.631C164.557 113.772 167.561 110.985 169.504 109.123L169.924 109.606C166.857 113.296 166.023 114.871 172.75 122.592L217.901 174.419C224.628 182.14 226.303 181.529 230.378 178.997Z" />
<path d="M265.138 157.855L264.495 158.275L191.438 103.694C184.389 98.5123 182.072 99.4124 177.402 101.39L177.052 100.854C179.373 99.4922 185.232 95.8224 188.877 93.4443C192.843 90.8564 196.954 88.0214 199.243 86.3754L199.592 86.9114C195.691 90.068 195.03 92.3336 196.569 94.692C197.478 96.0856 199.133 97.4511 201.282 99.1055L257.103 141.089L243.545 86.8137C241.255 77.9154 239.785 72.1495 237.897 69.2551C235.868 66.1463 233.244 65.8718 228.858 67.8165L228.508 67.2805C230.936 65.849 236.366 62.4589 240.333 59.871C243.977 57.4929 245.087 56.6163 247.268 55.0403L247.618 55.5763C243.2 60.7514 242.902 65.6833 247.778 86.039L265.138 157.855Z" />
<path d="M336.912 100.394L337.501 100.143C341.606 110.082 341.218 110.804 343.43 115.983C332.332 120.305 329.977 121.31 319.03 125.985C310.083 129.805 297.891 135.151 295.469 136.324L295.218 135.736C300.466 132.381 300.771 130.163 297.353 122.158L270.36 58.9442C266.339 49.5269 264.254 49.8603 258.723 51.248L258.471 50.6594C260.876 49.7718 265.164 48.0799 273.64 44.4607C291.65 36.7699 301.068 32.7485 306.264 30.2511C306.616 31.0751 307.689 33.2615 308.493 35.1449C309.599 37.7347 311.442 42.3759 311.909 45.0993L311.32 45.3506C306.846 34.8738 303.046 36.079 285.742 43.4682C279.15 46.2831 277.72 47.172 276.155 48.3969L291.135 83.4765C312.795 74.2274 313.872 73.4893 311.867 63.9065L312.456 63.6552C313.896 67.3547 314.834 69.877 316.895 74.7034C319.559 80.9424 320.431 82.6579 322.258 86.61L321.669 86.8613C315.581 77.4917 314.303 77.7589 292.643 87.008L308.98 125.266C310.476 125.184 313.755 124.062 319.287 121.7C337.651 113.858 340.123 112.802 336.912 100.394Z" />
<path d="M406.031 82.9268L406.654 82.7778C408.292 89.6245 408.699 92.4227 409.474 95.6593C409.742 96.7797 409.98 97.7756 410.432 99.1151C399.045 101.577 379.222 106.19 360.549 110.659L342.997 114.859L342.848 114.237L379.678 14.6083L358.889 19.5837C335.86 25.0953 328.764 26.7935 329.557 40.5549L328.934 40.7039C327.564 34.9776 326.995 29.8493 325.445 23.3761C336.833 20.9139 356.004 16.3258 374.676 11.8569L391.98 7.71576L392.129 8.33818L355.174 107.997L376.834 102.813C399.864 97.3011 406.556 95.5679 406.031 82.9268Z" />
<path d="M438.849 56.5602L439.193 60.3848C434.974 60.6355 430.64 61.0252 426.433 61.4034C422.226 61.7816 418.019 62.1599 413.823 62.6655L413.479 58.841C417.698 58.5902 421.916 58.3395 426.123 57.9613C430.33 57.5831 434.653 57.0659 438.849 56.5602Z" />
<path d="M532.703 103.978L532.065 103.924L466.474 17.1605L465.498 28.6391C460.078 92.4092 460.27 91.6548 468.694 95.3254L468.64 95.9631C465.844 95.597 462.539 95.1876 457.82 94.7865C453.484 94.4179 450.412 94.2852 447.723 94.1851L447.777 93.5474C456.2 91.1803 456.262 91.9564 461.683 28.1864L464.079 0L464.972 0.0758892L530.34 86.4348L531.305 75.0837C536.791 10.5484 536.322 11.5362 528.142 8.01482L528.197 7.37712C530.992 7.74318 534.297 8.15259 539.016 8.55372C543.352 8.92233 546.934 9.09834 549.623 9.19847L549.569 9.83617C540.785 11.9157 540.617 10.8737 535.196 74.6437L532.703 103.978Z" />
<path d="M585.049 118.912C558.249 109.463 549.578 81.7048 557.408 59.4928C565.452 36.6772 590.19 20.0187 617.593 29.6796C641.254 38.0212 653.802 64.0248 644.694 89.8583C636.012 114.485 610.158 127.764 585.049 118.912ZM586.028 116.135C604.256 122.561 623.502 114.553 633.333 86.6672C644.1 56.1256 631.988 37.7404 615.691 31.9949C599.636 26.3346 579.403 32.9093 568.763 63.0886C558.506 92.1816 568.403 109.921 586.028 116.135Z" />
<path d="M703.186 142.226L725.907 106.922C733.942 94.436 732.505 93.3586 727.047 87.4108L727.394 86.8727C729.692 88.5043 733.067 90.8286 737.05 93.3916C740.71 95.7468 743.793 97.5788 746.122 98.9259L745.776 99.4641C738.602 97.1301 737.102 96.6218 729.205 108.892L707.385 142.798C698.864 156.037 691.494 161.34 684.164 162.559C675.134 164.054 666.738 160.781 661.463 157.387C653.068 151.984 647.749 145.821 645.476 139.182C642.312 130.144 644.97 121.047 652.312 109.638L678.081 69.5974C683.623 60.9865 682.57 59.5478 679.003 56.3389L679.35 55.8007C681.648 57.4323 684.593 59.4796 688.575 62.0426C692.235 64.3978 696.502 66.9918 698.832 68.3388L698.485 68.877C693.834 66.6444 691.588 66.1126 686.046 74.7234L661.039 113.58C654.112 124.344 650.901 132.171 652.498 138.678C654.056 145.009 657.545 149.994 664.111 154.22C670.892 158.584 677.444 159.756 683.105 158.528C690.642 156.986 696.951 151.914 703.186 142.226Z" />
<path d="M711.553 164.71L712.021 165.147C711.141 165.902 710.349 166.563 709.65 167.311C702.487 174.983 705.941 185.913 713.332 192.814C719.788 198.842 729.812 200.671 737.849 192.064C755.32 173.352 726.815 147.614 745.859 127.218C755.293 117.114 768.793 117.285 778.803 126.631C784.23 131.698 786.2 136.34 789.849 139.747C790.41 140.271 790.878 140.707 791.527 141.138C789.505 142.928 787.839 144.525 785.481 147.051C784.171 148.454 781.987 150.793 780.77 152.284L780.209 151.76C785.619 143.152 783.986 135.148 777.156 128.771C771.262 123.268 762.772 121.295 755.871 128.686C739.186 146.556 767.504 172.119 747.499 193.544C736.58 205.239 721.253 204.587 710.306 194.367C704.038 188.514 702.984 184.203 698.494 180.01C697.932 179.486 697.652 179.224 697.003 178.794C697.533 178.413 698.581 177.29 699.368 176.448C701.377 174.297 702.743 171.895 704.927 169.556C706.5 167.872 708.964 165.795 711.553 164.71Z" />
<path d="M789.727 292.426L789.192 292.778C787.822 290.462 785.678 286.969 783.287 283.333C780.685 279.376 778.468 276.238 776.813 273.955L777.348 273.604C779.883 276.992 782.154 277.184 784.186 275.848C785.683 274.863 787.186 272.955 788.903 270.907L804.859 251.375L796.771 239.076C794.239 235.226 791.777 231.483 789.208 227.81L767.663 232.787C764.357 233.583 761.227 234.416 759.195 235.752C756.736 237.37 755.762 239.849 757.725 243.766L757.19 244.118C755.75 241.695 753.466 237.988 750.863 234.031C748.472 230.395 747.451 229.075 745.867 226.9L746.401 226.548C751.272 231.158 753.68 232.025 768.896 228.606L849.066 210.505L849.769 211.574L793.528 280.734C788.197 287.304 787.589 288.01 789.727 292.426ZM807.327 248.372L832.512 217.715L793.297 226.806C795.441 230.299 797.621 233.614 799.872 237.036L807.327 248.372Z" />
<path d="M844.026 339.172L882.932 323.391C896.691 317.81 896.136 316.102 895.099 308.096L895.692 307.856C896.632 310.513 898.053 314.357 899.833 318.746C901.469 322.779 902.935 326.052 904.064 328.495L903.47 328.735C898.949 322.696 898.016 321.417 884.494 326.902L847.13 342.057C832.541 347.975 823.461 348.066 816.767 344.842C808.523 340.865 803.543 333.354 801.185 327.542C797.433 318.29 796.633 310.189 798.597 303.453C801.215 294.241 808.626 288.335 821.199 283.235L865.323 265.337C874.812 261.488 874.78 259.705 873.711 255.028L874.304 254.787C875.244 257.445 876.473 260.814 878.253 265.203C879.889 269.236 881.884 273.814 883.013 276.256L882.42 276.497C879.902 271.993 878.372 270.265 868.883 274.114L826.064 291.483C814.202 296.294 807.07 300.845 804.628 307.084C802.257 313.157 802.239 319.242 805.174 326.477C808.205 333.95 812.886 338.681 818.222 340.937C825.272 344.017 833.351 343.502 844.026 339.172Z" />
<path d="M844.608 391.32L844.691 391.955C843.533 391.978 842.501 391.985 841.485 392.118C831.079 393.488 826.798 404.122 828.118 414.147C829.27 422.904 835.846 430.688 847.522 429.151C872.903 425.811 867.257 387.823 894.923 384.181C908.628 382.377 918.941 391.09 920.729 404.669C921.698 412.029 920.269 416.865 920.92 421.814C921.02 422.576 921.104 423.21 921.331 423.955C918.632 424.052 916.331 424.226 912.905 424.677C911.001 424.927 907.829 425.345 905.942 425.722L905.842 424.961C915.49 421.754 919.317 414.537 918.097 405.273C917.045 397.278 911.745 390.359 901.719 391.678C877.48 394.869 883.092 432.603 854.031 436.428C838.168 438.516 826.749 428.271 824.795 413.423C823.676 404.92 825.602 400.922 824.801 394.831C824.7 394.07 824.65 393.689 824.423 392.944C825.074 392.988 826.597 392.787 827.739 392.637C830.658 392.253 833.24 391.267 836.412 390.85C838.697 390.549 841.919 390.512 844.608 391.32Z" />
<path d="M860.836 510.54L902.767 512.656C917.596 513.404 917.814 511.621 920.253 503.926L920.892 503.958C920.623 506.764 920.288 510.848 920.05 515.578C919.83 519.925 919.778 523.511 919.77 526.202L919.131 526.169C917.581 518.786 917.275 517.232 902.701 516.497L862.433 514.465C846.709 513.672 838.439 509.922 833.731 504.174C827.936 497.089 826.592 488.178 826.908 481.914C827.411 471.942 830.106 464.26 834.729 458.983C840.991 451.737 850.202 449.51 863.753 450.194L911.309 452.594C921.536 453.11 922.259 451.48 923.264 446.789L923.904 446.821C923.634 449.627 923.325 453.2 923.087 457.93C922.867 462.276 922.744 467.269 922.736 469.96L922.097 469.927C921.716 464.782 921.058 462.57 910.831 462.054L864.682 459.725C851.898 459.08 843.512 460.195 838.664 464.82C833.951 469.324 831.366 474.833 830.973 482.631C830.566 490.685 832.814 496.95 836.698 501.247C841.79 507.015 849.331 509.959 860.836 510.54Z" />
<path d="M800.212 515.508L800.865 515.51C800.715 524.622 803.169 526.687 814.46 528.976L902.272 546.783C912.308 548.818 913.571 545.809 915.291 541.195L915.918 541.322C915.233 544.056 914.064 549.174 913.123 553.816C912.258 558.081 911.341 563.25 910.932 565.91L910.305 565.782C910.268 560.812 910.426 558.101 900.39 556.066L823.491 540.473C808.437 537.42 799.063 532.123 800.212 515.508Z" />
<path d="M817.585 609.998L817.382 610.605C807.228 607.065 806.946 606.295 801.607 604.505C805.755 593.341 806.569 590.913 810.353 579.627C813.446 570.404 817.557 557.742 818.29 555.152L818.897 555.356C817.914 561.507 819.369 563.209 827.621 565.976L892.791 587.829C902.5 591.084 903.636 589.305 906.276 584.25L906.883 584.454C905.948 586.84 904.361 591.168 901.432 599.906C895.205 618.474 891.95 628.183 890.362 633.726C889.512 633.441 887.165 632.789 885.224 632.138C882.554 631.243 877.861 629.534 875.516 628.073L875.72 627.466C886.521 631.088 888.146 627.448 894.128 609.608C896.407 602.812 896.693 601.153 896.818 599.169L860.653 587.043C853.166 609.373 853.002 610.668 861.493 615.54L861.29 616.147C857.568 614.764 855.06 613.788 850.085 612.12C843.653 609.963 841.792 609.474 837.625 608.212L837.828 607.605C848.875 609.284 849.525 608.152 857.013 585.822L817.571 572.597C816.638 573.769 815.296 576.964 813.384 582.668C807.036 601.6 806.181 604.149 817.585 609.998Z" />
<path d="M781.931 644.784L781.365 644.486C782.73 642.167 784.752 638.603 786.779 634.752C788.986 630.561 790.542 627.33 791.741 624.779L792.307 625.077C790.78 629.625 790.571 631.396 799.632 636.166L866.796 671.528C876.218 653.633 879.02 648.309 873.561 641.095L873.859 640.529C877.912 643.82 879.682 646.777 886.216 651.953L885.917 652.519C882.114 650.951 880.57 653.609 869.24 675.129C855.763 700.726 853.497 705.03 854.599 709.805L854.241 710.485C852.847 708.738 846.224 702.358 843.971 700.593L844.329 699.914C844.722 700.265 845.342 700.736 845.909 701.035C849.42 702.883 851.828 699.956 862.383 679.909L795.219 644.548C786.158 639.777 784.817 640.951 781.931 644.784Z" />
<path d="M757.304 685.636L757.764 686.082C753.957 691.483 752.36 693.499 759.806 700.714L809.172 748.543C816.526 755.668 819.207 753.454 823.772 750.213L824.232 750.658C822.181 752.592 817.991 756.731 815.587 759.214C809.975 765.005 806.148 769.139 801.606 773.828C777.202 799.016 749.647 802.439 728.227 781.686C710.301 764.318 705.91 738.499 729.513 714.138C734.144 709.357 742.525 701.259 747.869 695.743C751.164 692.342 755.437 687.748 757.304 685.636ZM808.097 760.69L747.791 702.262C742.51 706.057 736.083 711.771 731.808 716.183C716.666 731.811 711.807 750.807 736.26 774.499C758.691 796.231 781.23 790.444 798.865 772.241C802.25 768.748 805.54 764.985 808.097 760.69Z" />
<path d="M659.178 792.979L658.651 793.342C652.653 784.417 652.89 783.633 649.693 778.996C659.712 772.555 661.819 771.102 671.62 764.346C679.629 758.824 690.517 751.163 692.657 749.532L693.02 750.059C688.543 754.39 688.684 756.624 693.625 763.79L732.638 820.382C738.45 828.813 740.427 828.072 745.572 825.613L745.936 826.14C743.755 827.487 739.889 829.997 732.301 835.228C716.177 846.344 707.747 852.156 703.15 855.636C702.641 854.898 701.155 852.968 699.993 851.282C698.394 848.964 695.667 844.781 694.668 842.205L695.195 841.842C701.661 851.221 705.145 849.285 720.637 838.605C726.538 834.537 727.763 833.382 729.053 831.87L707.404 800.466C688.013 813.833 687.104 814.771 690.972 823.764L690.445 824.128C688.299 820.788 686.878 818.502 683.9 814.181C680.049 808.596 678.854 807.088 676.278 803.578L676.805 803.214C684.634 811.188 685.833 810.672 705.224 797.304L681.613 763.054C680.163 763.432 677.172 765.183 672.219 768.597C655.779 779.931 653.566 781.456 659.178 792.979Z" />
<path d="M589.784 803.956L590.503 803.689L649.751 873.014C655.487 879.621 657.945 879.253 662.936 878.352L663.159 878.952C660.595 879.769 654.072 882.059 649.993 883.576C645.554 885.227 640.92 887.088 638.326 888.19L638.102 887.59C642.603 885.369 643.747 883.305 642.765 880.666C642.185 879.106 640.871 877.41 639.139 875.323L593.931 822.08L595.206 878.008C595.482 887.193 595.646 893.141 596.851 896.38C598.145 899.859 600.644 900.704 605.351 899.773L605.574 900.373C602.89 901.235 596.847 903.346 592.408 904.997C588.33 906.515 587.054 907.126 584.58 908.183L584.357 907.583C589.806 903.507 591.181 898.762 590.907 877.832L589.784 803.956Z" />
<path d="M513.144 824.957C541.303 821.143 561.68 841.893 564.841 865.232C568.088 889.205 553.669 915.312 524.876 919.211C500.015 922.578 476.989 905.159 473.312 878.015C469.808 852.139 486.761 828.53 513.144 824.957ZM513.539 827.874C494.386 830.468 480.911 846.373 484.879 875.673C489.225 907.764 508.389 918.602 525.513 916.283C542.383 913.999 557.391 898.92 553.096 867.21C548.956 836.641 532.058 825.366 513.539 827.874Z" />
<path d="M423.462 828.112L423.511 827.474C426.181 827.808 430.255 828.252 434.595 828.587C439.316 828.952 442.9 829.101 445.717 829.19L445.668 829.828C440.887 830.229 439.178 830.739 438.389 840.948L432.539 916.627C452.703 918.185 458.701 918.649 463.161 910.777L463.799 910.827C462.383 915.853 460.37 918.65 458.207 926.699L457.569 926.65C457.502 922.536 454.449 922.172 430.201 920.297C401.359 918.068 396.51 917.693 392.562 920.597L391.796 920.538C392.847 918.565 396.081 909.957 396.808 907.189L397.574 907.248C397.407 907.748 397.22 908.504 397.171 909.142C396.865 913.099 400.506 914.15 423.095 915.897L428.945 840.218C429.734 830.009 428.125 829.242 423.462 828.112Z" />
<path d="M339.58 810.412L339.767 809.667C340.915 809.824 341.412 809.949 342.901 810.323C355.562 814.035 356.802 815.931 364.396 847.141C365.198 850.247 366.369 857.14 368.506 860.185L376.451 862.183L383.662 833.508C386.159 823.577 384.702 822.551 380.296 820.651L380.452 820.03C383.028 820.81 386.969 821.933 391.189 822.994C395.782 824.149 399.289 824.899 402.052 825.462L401.895 826.082C397.115 825.672 395.345 825.887 392.848 835.818L376.085 902.479C373.994 910.796 374.673 913.342 379.203 915.273L379.047 915.894C374.889 914.584 372.654 914.022 367.192 912.649C363.468 911.713 356.951 910.338 354.22 909.651C335.351 904.906 327.546 891.856 331.167 877.457C333.789 867.029 343.269 858.723 358.76 859.054C355.568 854.952 350.342 817.474 339.58 810.412ZM375.796 864.79L369.837 863.292C351.962 858.797 344.966 866.672 342 878.465C338.691 891.623 342.772 903.737 355.683 906.983C358.538 907.701 361.083 908.077 364.932 907.989L375.796 864.79Z" />
<path d="M285.453 803.629L284.866 803.372C289.289 793.571 290.08 793.358 292.336 788.198C303.09 793.316 305.436 794.341 316.344 799.108C325.258 803.003 337.507 808.217 340.021 809.176L339.765 809.762C333.725 808.24 331.901 809.538 328.415 817.514L300.891 880.499C296.791 889.882 298.463 891.171 303.265 894.247L303.008 894.834C300.714 893.691 296.543 891.729 288.098 888.039C270.152 880.197 260.769 876.096 255.389 874.024C255.747 873.203 256.604 870.924 257.424 869.047C258.552 866.466 260.668 861.943 262.331 859.737L262.917 859.993C258.355 870.432 261.838 872.372 279.079 879.907C285.647 882.777 287.275 883.209 289.239 883.509L304.513 848.556C282.932 839.125 281.656 838.847 276.053 846.875L275.466 846.619C277.173 843.034 278.366 840.622 280.468 835.814C283.184 829.597 283.836 827.787 285.461 823.747L286.048 824.004C283.399 834.859 284.469 835.607 306.051 845.038L322.709 806.918C321.623 805.885 318.559 804.267 313.047 801.858C294.749 793.862 292.286 792.786 285.453 803.629Z" />
<path d="M244.883 758.382L245.268 757.871C247.336 759.593 250.527 762.164 254 764.788C257.778 767.643 260.715 769.701 263.039 771.296L262.653 771.807C258.412 769.565 256.698 769.072 250.526 777.243L209.092 832.087C202.92 840.258 204.27 842.08 207.688 845.625L207.302 846.136C205.133 844.336 202.044 841.842 199.286 839.759C193.669 835.515 190.961 833.79 187.08 830.858C169.412 817.51 168.975 803.224 177.462 791.989C185.178 781.776 200.145 777.041 213.524 787.149C216.384 789.309 219.01 792.416 219.818 795.593L218.792 796.102C217.726 793.692 215.583 791.431 213.643 789.965C204.349 782.944 194.402 786.98 187.149 796.58C178.199 808.427 178.335 820.562 188.753 828.432C191 830.13 193.784 831.752 196.674 832.812L242.968 771.533C249.14 763.363 248.199 761.849 244.883 758.382Z" />
<path d="M173.608 691.448L174.164 690.919C175.051 691.665 175.404 692.036 176.463 693.149C185.181 703.051 185.216 705.316 174.958 735.755C173.977 738.809 171.282 745.261 171.462 748.977L177.11 754.911L198.528 734.526C205.945 727.466 205.261 725.82 202.553 721.86L203.016 721.418C204.777 723.454 207.508 726.509 210.508 729.661C213.773 733.092 216.337 735.6 218.371 737.551L217.908 737.993C214.086 735.091 212.475 734.327 205.058 741.387L155.269 788.776C149.057 794.688 148.27 797.204 151.067 801.257L150.604 801.698C147.789 798.369 146.2 796.7 142.317 792.62C139.67 789.839 134.896 785.194 132.954 783.154C119.541 769.061 119.916 753.86 130.672 743.624C138.46 736.211 150.912 734.255 163.828 742.813C163.322 737.64 178.931 703.169 173.608 691.448ZM175.163 756.764L170.927 752.314C158.22 738.963 148.098 741.881 139.29 750.265C129.462 759.619 126.439 772.038 135.616 781.681C137.646 783.813 139.596 785.491 142.897 787.474L175.163 756.764Z" />
<path d="M151.891 654.646C166.72 678.886 155.932 705.893 135.842 718.184C115.205 730.809 85.5022 728.123 70.3389 703.337C57.2465 681.937 63.9196 653.846 87.2858 639.551C109.56 625.924 137.997 631.935 151.891 654.646ZM149.379 656.183C139.293 639.695 119.309 633.765 94.0864 649.195C66.4618 666.095 64.2577 688.001 73.2755 702.741C82.1596 717.263 102.005 724.929 129.302 708.23C155.616 692.131 159.132 672.124 149.379 656.183Z" />
<path d="M151.987 604.194L151.44 604.551C146.559 596.856 143.373 596.48 132.682 600.771L49.5302 634.146C40.0272 637.961 40.6252 641.169 41.7243 645.969L41.1303 646.207C40.2002 643.546 38.3641 638.628 36.6 634.233C34.9789 630.194 32.9052 625.371 31.7852 622.925L32.3791 622.686C35.1412 626.819 36.4989 629.17 46.0019 625.356L118.819 596.128C133.074 590.407 143.817 589.681 151.987 604.194Z" />
<path d="M85.9109 536.331L85.7459 535.713C96.1675 533.065 96.8272 533.551 102.269 532.099C104.967 543.7 105.627 546.173 108.695 557.675C111.203 567.074 114.758 579.903 115.575 582.467L114.957 582.632C112.383 576.96 110.231 576.342 101.822 578.586L35.4088 596.305C25.5149 598.945 25.5482 601.056 26.1344 606.728L25.516 606.893C24.9797 604.387 23.9155 599.902 21.5397 590.997C16.4911 572.075 13.8513 562.181 12.1191 556.682C12.9848 556.451 15.3016 555.7 17.2804 555.172C20.0012 554.446 24.8574 553.283 27.6196 553.209L27.7846 553.827C16.7776 556.764 17.4295 560.697 22.2801 578.877C24.128 585.802 24.8043 587.344 25.794 589.067L62.6487 579.234C56.5772 556.478 55.9999 555.307 46.2294 555.927L46.0644 555.309C49.9313 554.409 52.5614 553.84 57.632 552.487C64.1867 550.738 66.0088 550.12 70.1808 548.874L70.3457 549.493C60.2048 554.185 60.2874 555.488 66.3589 578.244L106.553 567.52C106.685 566.028 106.041 562.622 104.49 556.81C99.3425 537.517 98.6496 534.919 85.9109 536.331Z" />
<path d="M96.5738 488.697L97.2105 488.633C97.354 491.32 97.6393 495.408 98.0778 499.738C98.5549 504.45 99.0433 508.003 99.4544 510.791L98.8176 510.856C97.5764 506.221 96.772 504.63 86.5841 505.662L11.0663 513.309C13.1038 533.43 13.7099 539.416 22.2471 542.411L22.3116 543.047C17.1145 542.544 14.0049 541.058 5.69987 540.355L5.63539 539.719C9.67186 538.924 9.48972 535.855 7.03954 511.658C4.12511 482.878 3.63507 478.038 0.0773747 474.668L0 473.903C2.12785 474.589 11.1728 476.246 14.0261 476.471L14.1035 477.236C13.5812 477.16 12.8042 477.11 12.1674 477.174C8.21962 477.574 7.82951 481.345 10.112 503.885L85.6299 496.238C95.8178 495.206 96.2868 493.486 96.5738 488.697Z" />
</svg>
