<svg width="122" height="121" viewBox="0 0 122 121" fill="none" xmlns="http://www.w3.org/2000/svg">
<path d="M115.435 120.679L115.505 120.699C115.606 120.483 115.526 120.564 115.435 120.679Z" fill="url(#paint0_linear_139_211)"/>
<path d="M0.00100705 33.0728C0.0210634 34.8782 0.326923 36.6685 0.973739 38.3685C2.80889 43.2379 7.13605 46.8937 11.9797 48.7843C16.8283 50.6849 22.1633 50.9858 27.3578 50.6599C23.8279 50.6849 20.2529 50.5044 16.8684 49.4864C13.4889 48.4734 10.2849 46.5477 8.26923 43.6441C4.06743 37.5762 4.58388 26.358 7.52213 21.1125C10.2047 16.3383 14.7524 14.202 20.0874 13.0988C22.3087 16.3985 24.1187 19.9741 25.6781 23.6851C27.8041 28.5244 29.8047 33.4189 31.7702 38.3384C42.1043 63.8589 56.7003 88.0405 78.0703 105.653C78.6118 106.094 79.1533 106.52 79.7049 106.931C90.2094 114.84 104.048 121.62 117.516 119.654C118.81 119.468 119.958 119.032 121.196 118.681C116.985 119.885 112.397 119.559 108.275 118.275C100.012 115.697 92.7816 110.331 88.284 103.065C84.2125 96.6459 81.7155 89.3042 78.8876 82.2433C74.2395 70.639 67.8466 58.4028 56.1587 52.5806C54.5542 51.8133 52.8745 51.1914 51.1597 50.7953C52.2127 50.7702 53.2606 50.6849 54.2985 50.5295C61.4636 49.4864 68.7692 44.9129 70.1731 37.3655C72.7453 26.6689 65.2192 15.7065 54.8049 13.0085C49.6555 11.6093 41.9087 11.6194 36.6189 11.6194C31.2488 11.6194 28.3907 11.5642 23.1711 11.8801C22.9605 11.8902 22.7449 11.9052 22.5293 11.9203C20.283 9.48305 17.6406 7.1662 15.0282 5.22546C12.1401 3.05905 8.94112 1.30386 5.59171 0C8.75058 1.60475 11.6688 3.66584 14.2159 6.12813C16.2166 8.00869 17.9615 10.0648 19.5158 12.2613C17.5854 12.5571 15.6901 13.0235 13.87 13.7356C9.90382 15.2802 6.40901 17.256 3.89194 20.6912C1.43002 24.0461 -0.0441197 28.9607 0.00100705 33.0728ZM115.435 119.674C115.525 119.559 115.606 119.478 115.505 119.694L115.435 119.674ZM23.1611 12.6123C24.3745 12.4719 25.5879 12.3866 26.7762 12.3215C27.6386 12.2763 28.5011 12.2412 29.3585 12.2111C34.9542 12.0155 41.4675 12.166 46.1506 12.6474C48.1462 12.853 50.1268 13.2943 52.0271 13.9312C54.1882 14.6533 56.3142 15.7215 58.029 17.236C62.9077 21.5538 64.6476 28.4291 64.5373 34.7478C64.4671 38.9302 63.3038 43.263 60.1048 46.1064C57.1766 48.7041 53.2957 50.0832 49.4499 50.4743L48.6176 50.5596C48.8632 50.6248 49.114 50.6799 49.3596 50.7752C49.5903 50.8705 49.8159 50.9858 50.0416 51.1012C50.7736 51.4923 51.4856 51.9136 52.1876 52.3549C52.8845 52.8012 53.5665 53.2726 54.2283 53.7641C54.8952 54.2555 55.542 54.7771 56.1738 55.3136C56.8056 55.8502 57.4123 56.4119 58.0089 56.9836C58.6056 57.5603 59.1722 58.152 59.7338 58.7588C68.8293 68.603 72.8607 81.5212 78.4714 93.4565C83.0342 103.276 89.5826 111.349 100.433 116.685C92.4808 113.426 84.8042 107.759 78.5617 101.836C62.6169 86.857 50.6483 68.2419 41.9137 48.323C40.9711 46.1164 39.7276 43.3482 38.8602 41.1217C36.0824 34.6174 33.5553 27.7822 29.7696 21.6541C27.8091 18.5298 25.8285 15.6663 23.4017 12.8781C23.3265 12.7928 23.2463 12.7026 23.1711 12.6123H23.1611Z" fill="url(#paint1_linear_139_211)"/>
<defs>
<linearGradient id="paint0_linear_139_211" x1="115.595" y1="120.425" x2="115.446" y2="121.005" gradientUnits="userSpaceOnUse">
<stop offset="0.2" stop-color="#BDA66B"/>
<stop offset="0.435" stop-color="#FFE7AB"/>
<stop offset="0.63" stop-color="#BDA66B"/>
<stop offset="1" stop-color="#574D31"/>
</linearGradient>
<linearGradient id="paint1_linear_139_211" x1="165.671" y1="-122.972" x2="50.5718" y2="400.228" gradientUnits="userSpaceOnUse">
<stop offset="0.2" stop-color="#BDA66B"/>
<stop offset="0.435" stop-color="#FFE7AB"/>
<stop offset="0.63" stop-color="#BDA66B"/>
<stop offset="1" stop-color="#574D31"/>
</linearGradient>
</defs>
</svg>
