<svg width="61" height="61" viewBox="0 0 61 61" fill="none" xmlns="http://www.w3.org/2000/svg">
<rect y="0.195587" width="60.2535" height="60.2535" fill="#1E1E1E"/>
<rect x="0.364437" y="0.560024" width="59.5246" height="59.5246" stroke="#7D7D7D" stroke-opacity="0.6" stroke-width="0.728873"/>
<path fill-rule="evenodd" clip-rule="evenodd" d="M30.1263 15.7448C26.1671 15.7448 25.6714 15.7623 24.116 15.8323C22.565 15.9037 21.5052 16.1501 20.5781 16.5101C19.605 16.8758 18.7234 17.4494 17.9949 18.1909C17.2535 18.9195 16.6799 19.801 16.3141 20.7741C15.9541 21.7012 15.7077 22.761 15.6363 24.312C15.5649 25.8674 15.5488 26.3631 15.5488 30.3223C15.5488 34.2815 15.5649 34.7772 15.6363 36.3326C15.7077 37.8836 15.9541 38.9434 16.3141 39.8705C16.6799 40.8435 17.2535 41.7251 17.9949 42.4537C18.7235 43.1951 19.605 43.7687 20.5781 44.1344C21.5052 44.4945 22.565 44.7409 24.116 44.8123C25.6714 44.8823 26.1671 44.8998 30.1263 44.8998C34.0855 44.8998 34.5812 44.8823 36.1366 44.8123C37.6876 44.7409 38.7474 44.4945 39.6745 44.1344C40.6476 43.7687 41.5291 43.1951 42.2577 42.4537C42.9991 41.7251 43.5727 40.8436 43.9384 39.8705C44.2985 38.9434 44.5449 37.8836 44.6163 36.3326C44.6863 34.7772 44.7038 34.2815 44.7038 30.3223C44.7038 26.3631 44.6863 25.8674 44.6163 24.312C44.5449 22.761 44.2985 21.7012 43.9384 20.7741C43.5727 19.801 42.9991 18.9195 42.2577 18.1909C41.5291 17.4494 40.6476 16.8758 39.6745 16.5101C38.7474 16.1501 37.6876 15.9037 36.1366 15.8323C34.5812 15.7623 34.0855 15.7448 30.1263 15.7448ZM30.1263 18.3717C34.0185 18.3717 34.4791 18.3863 36.0156 18.4562C37.4383 18.5218 38.2095 18.758 38.7241 18.9577C39.4034 19.223 39.8903 19.5393 40.4005 20.0481C40.9107 20.5583 41.2256 21.0452 41.4909 21.7245C41.6891 22.2391 41.9282 23.0102 41.9923 24.4315C42.0623 25.9695 42.0769 26.4286 42.0769 30.3223C42.0769 34.2145 42.0623 34.6751 41.9923 36.2116C41.9267 37.6343 41.6891 38.4055 41.4909 38.9201C41.2572 39.5533 40.8846 40.1261 40.4005 40.5965C39.8903 41.1067 39.4034 41.4216 38.7241 41.6869C38.2095 41.8851 37.4383 42.1242 36.017 42.1883C34.4806 42.2583 34.0199 42.2729 30.1263 42.2729C26.2341 42.2729 25.772 42.2583 24.237 42.1883C22.8142 42.1227 22.0431 41.8851 21.5285 41.6869C20.8952 41.4533 20.3224 41.0807 19.8521 40.5965C19.3679 40.1262 18.9953 39.5533 18.7617 38.9201C18.562 38.4055 18.3244 37.6343 18.2602 36.213C18.1903 34.6751 18.1757 34.2159 18.1757 30.3223C18.1757 26.4301 18.1903 25.9695 18.2602 24.433C18.3258 23.0102 18.562 22.2391 18.7617 21.7245C19.027 21.0452 19.3433 20.5583 19.8521 20.0481C20.3623 19.5379 20.8492 19.223 21.5285 18.9577C22.0431 18.758 22.8142 18.5204 24.2355 18.4562C25.7735 18.3863 26.2327 18.3717 30.1263 18.3717ZM30.1263 35.181C28.8377 35.181 27.6019 34.6691 26.6907 33.7579C25.7795 32.8467 25.2676 31.6109 25.2676 30.3223C25.2676 29.0337 25.7795 27.7979 26.6907 26.8867C27.6019 25.9755 28.8377 25.4636 30.1263 25.4636C31.4149 25.4636 32.6507 25.9755 33.5619 26.8867C34.4731 27.7979 34.985 29.0337 34.985 30.3223C34.985 31.6109 34.4731 32.8467 33.5619 33.7579C32.6507 34.6691 31.4149 35.181 30.1263 35.181ZM30.1263 22.8368C29.1433 22.8368 28.1699 23.0304 27.2617 23.4066C26.3535 23.7827 25.5283 24.3341 24.8332 25.0292C24.1381 25.7243 23.5867 26.5495 23.2106 27.4577C22.8344 28.3659 22.6408 29.3393 22.6408 30.3223C22.6408 31.3053 22.8344 32.2787 23.2106 33.1869C23.5867 34.0951 24.1381 34.9203 24.8332 35.6154C25.5283 36.3105 26.3535 36.8618 27.2617 37.238C28.1699 37.6142 29.1433 37.8078 30.1263 37.8078C32.1116 37.8078 34.0155 37.0192 35.4194 35.6154C36.8232 34.2115 37.6118 32.3076 37.6118 30.3223C37.6118 28.337 36.8232 26.433 35.4194 25.0292C34.0155 23.6254 32.1116 22.8368 30.1263 22.8368ZM39.657 22.5408C39.657 22.7706 39.6118 22.998 39.5239 23.2103C39.436 23.4225 39.3071 23.6153 39.1447 23.7778C38.9822 23.9402 38.7894 24.0691 38.5772 24.157C38.3649 24.2449 38.1375 24.2901 37.9077 24.2901C37.678 24.2901 37.4505 24.2449 37.2383 24.157C37.0261 24.0691 36.8332 23.9402 36.6708 23.7778C36.5084 23.6153 36.3795 23.4225 36.2916 23.2103C36.2037 22.998 36.1584 22.7706 36.1584 22.5408C36.1584 22.0769 36.3427 21.632 36.6708 21.3039C36.9989 20.9758 37.4438 20.7915 37.9077 20.7915C38.3717 20.7915 38.8166 20.9758 39.1447 21.3039C39.4727 21.632 39.657 22.0769 39.657 22.5408Z" fill="url(#paint0_linear_328_300)"/>
<defs>
<linearGradient id="paint0_linear_328_300" x1="55.4025" y1="-14.133" x2="27.1843" y2="112.868" gradientUnits="userSpaceOnUse">
<stop offset="0.2" stop-color="#BDA66B"/>
<stop offset="0.435" stop-color="#FFE7AB"/>
<stop offset="0.63" stop-color="#BDA66B"/>
<stop offset="1" stop-color="#574D31"/>
</linearGradient>
</defs>
</svg>
