<svg width="182" height="90" viewBox="0 0 182 90" fill="none" xmlns="http://www.w3.org/2000/svg">
<path d="M74.5986 77.9871L74.644 78.0001C74.7088 77.8607 74.657 77.9126 74.5986 77.9871Z" fill="url(#paint0_linear_328_271)"/>
<path d="M0.000650789 21.3728C0.0136119 22.5395 0.211269 23.6964 0.629264 24.7951C1.81521 27.9418 4.61156 30.3044 7.74167 31.5261C10.875 32.7544 14.3227 32.9488 17.6796 32.7382C15.3984 32.7544 13.0881 32.6377 10.9009 31.9798C8.71699 31.3252 6.64646 30.0807 5.34387 28.2043C2.62851 24.283 2.96226 17.0334 4.86107 13.6436C6.59461 10.5584 9.53354 9.17784 12.9812 8.46487C14.4166 10.5973 15.5864 12.908 16.5941 15.3061C17.968 18.4335 19.2609 21.5964 20.531 24.7756C27.2093 41.2679 36.6417 56.8948 50.4518 68.2764C50.8017 68.5616 51.1517 68.837 51.5081 69.1028C58.2965 74.2134 67.2396 78.5949 75.943 77.3246C76.779 77.2047 77.521 76.9227 78.3214 76.6959C75.5995 77.4736 72.6347 77.263 69.9712 76.4334C64.6312 74.7676 59.9587 71.3 57.0522 66.6041C54.4211 62.456 52.8074 57.7115 50.9799 53.1485C47.9762 45.6494 43.8448 37.7419 36.2917 33.9794C35.2549 33.4835 34.1694 33.0817 33.0612 32.8257C33.7416 32.8095 34.4189 32.7544 35.0896 32.6539C39.72 31.9798 44.441 29.0243 45.3483 24.1469C47.0106 17.2344 42.1469 10.1501 35.4169 8.40654C32.0891 7.50236 27.0829 7.50884 23.6644 7.50884C20.1941 7.50884 18.3471 7.4732 14.974 7.67736C14.8379 7.68385 14.6985 7.69357 14.5592 7.70329C13.1076 6.12828 11.3999 4.63105 9.71176 3.37687C7.84536 1.97686 5.77806 0.842598 3.61356 0C5.65493 1.03704 7.54077 2.369 9.18683 3.96021C10.4797 5.1755 11.6073 6.50421 12.6118 7.92366C11.3643 8.11487 10.1395 8.41626 8.96325 8.87645C6.4002 9.8746 4.14172 11.1515 2.51511 13.3714C0.92413 15.5395 -0.0285117 18.7154 0.000650789 21.3728ZM74.5983 77.3375C74.6566 77.263 74.7085 77.2111 74.6437 77.3505L74.5983 77.3375ZM14.9675 8.15052C15.7516 8.05977 16.5358 8.00468 17.3037 7.96255C17.8611 7.93338 18.4184 7.9107 18.9725 7.89125C22.5886 7.76486 26.7977 7.86209 29.8242 8.1732C31.1138 8.30607 32.3937 8.59126 33.6218 9.00284C35.0183 9.46951 36.3922 10.1598 37.5004 11.1385C40.6532 13.9288 41.7775 18.3719 41.7062 22.4552C41.6609 25.158 40.9091 27.958 38.8418 29.7956C36.9495 31.4743 34.4415 32.3655 31.9563 32.6183L31.4184 32.6734C31.5771 32.7155 31.7392 32.7511 31.8979 32.8127C32.047 32.8743 32.1928 32.9488 32.3386 33.0234C32.8117 33.2761 33.2718 33.5484 33.7254 33.8335C34.1758 34.122 34.6165 34.4266 35.0442 34.7442C35.4752 35.0618 35.8932 35.3988 36.3015 35.7456C36.7097 36.0924 37.1018 36.4553 37.4874 36.8248C37.873 37.1975 38.2392 37.5799 38.6021 37.972C44.4799 44.3336 47.0851 52.6818 50.711 60.3948C53.6596 66.7402 57.8914 71.9579 64.9034 75.406C59.7643 73.2995 54.8034 69.6375 50.7693 65.8102C40.4652 56.13 32.7307 44.1003 27.0861 31.228C26.4769 29.802 25.6734 28.0131 25.1128 26.5742C23.3177 22.371 21.6846 17.9538 19.2382 13.9936C17.9712 11.9746 16.6913 10.1241 15.123 8.32228C15.0744 8.26718 15.0226 8.20885 14.974 8.15052H14.9675Z" fill="url(#paint1_linear_328_271)"/>
<path d="M69.1099 39.9024C69.0632 42.8925 68.9139 43.2862 68.9139 44.8515C66.0356 44.7531 64.6688 44.7062 62.1823 44.7062H59.4486C57.9372 44.7062 56.4723 44.7531 55.8379 44.8046V44.6078C57.7412 44.3641 57.7879 43.4314 57.7879 36.8655V25.4959C57.7879 19.6611 57.6899 19.1736 55.8379 18.8315V18.6347C56.6169 18.6816 58.2777 18.7331 60.1297 18.7331C64.6175 18.7331 66.4228 18.7331 68.7647 18.5878C68.7647 18.5878 68.8113 19.3705 68.8113 20.4484C68.8113 21.381 68.7647 22.8011 68.7134 23.34H68.4195C68.4195 20.2047 67.1506 20.0079 63.5398 20.0079C62.4669 20.0079 61.4406 20.0547 61.0021 20.2047V30.6464H62.7095C65.4898 30.6464 66.0263 30.1543 66.4182 27.558H66.6607C66.6141 28.6359 66.5628 29.8122 66.5628 31.2838C66.5628 33.1959 66.6094 33.4396 66.6607 34.6675H66.4182C66.0776 32.4601 65.5411 31.9212 62.7095 31.9212H61.0021V43.244C61.3426 43.3424 62.4156 43.4408 63.5865 43.4408C67.3418 43.4408 68.3215 43.3939 68.8067 39.9118H69.1005L69.1099 39.9024ZM60.9601 16.4226L60.4236 15.9821L65.6951 8.5304L67.3558 10.4894L60.9648 16.4226H60.9601Z" fill="white"/>
<path d="M92.4304 38.4308C92.3838 39.1666 92.2345 40.6381 92.2345 41.3224C92.2345 41.8145 92.2345 42.4003 92.2811 42.8408C89.5988 44.5093 87.159 45.1935 84.6212 45.1935C77.5443 45.1935 73.1079 38.5292 73.1079 31.6633C73.1079 24.7975 77.3531 17.9879 84.4766 17.9879C87.4529 17.9879 90.1352 19.1173 92.2811 19.8016C92.2345 20.7342 92.1832 22.1542 92.1832 23.2837C92.1832 23.8742 92.2298 24.9006 92.2298 25.1443H91.9873C91.3995 21.2732 88.0826 19.0658 84.5699 19.0658C80.3247 19.0658 76.9099 22.7401 76.9099 31.8086C76.9099 40.8772 80.6652 44.064 85.0084 44.064C87.7421 44.064 91.1569 42.1519 92.1785 38.4261H92.4211L92.4304 38.4308Z" fill="white"/>
<path d="M104.284 44.7998C103.454 44.753 102.087 44.7014 100.725 44.7014C99.2601 44.7014 98.0426 44.7483 97.1655 44.7998V44.603C98.7283 44.3077 99.1155 44.064 99.1155 40.1414V23.279C99.1155 19.3563 98.7236 19.1126 97.1655 18.8174V18.6205C98.0426 18.6674 99.2648 18.719 100.725 18.719C102.092 18.719 103.459 18.6721 104.284 18.6205V18.8174C102.722 19.1126 102.334 19.3563 102.334 23.279V40.1414C102.334 44.064 102.726 44.3077 104.284 44.603V44.7998Z" fill="white"/>
<path d="M118.97 44.7999C118.289 44.753 116.922 44.7015 115.797 44.7015C114.58 44.7015 113.26 44.7484 112.579 44.7999V44.5046C114.09 44.2094 114.141 43.7689 114.141 37.3998V20.0969C109.85 20.0969 108.777 20.0969 107.946 22.4027H107.652C107.848 20.9311 108.091 19.8532 108.333 17.5521H108.627C109.066 18.6815 109.602 18.7284 115.359 18.7284C122.044 18.7284 122.725 18.6815 123.607 17.8473H123.901C123.756 18.4847 123.364 21.1795 123.313 21.9668H123.019C123.019 20.1063 122.044 20.1063 117.36 20.1063V37.4092C117.36 43.7829 117.407 44.2235 118.97 44.514V44.8093V44.7999Z" fill="white"/>
<path d="M142.435 44.7999C141.898 44.7999 139.995 44.7015 138.726 44.7015C137.359 44.7015 135.311 44.7999 134.724 44.7999V44.5562C136.137 44.3594 136.674 43.9657 136.674 42.9393C136.674 42.2035 136.431 41.1725 135.992 39.5087L134.775 35.0002C134.187 34.9534 133.016 34.9534 131.897 34.9534C130.777 34.9534 129.555 34.9534 128.967 35.0002L127.941 38.5292C127.404 40.3898 127.012 41.763 127.012 42.7425C127.012 43.7735 127.6 44.4109 128.962 44.5562V44.7999C128.374 44.7999 127.204 44.7015 125.692 44.7015C124.521 44.7015 123.252 44.7999 122.716 44.7999V44.5562C124.227 44.2141 125.104 43.9657 127.008 37.6435L132.862 17.941H133.352L139.841 41.4677C140.522 43.9188 140.965 44.2609 142.426 44.5562V44.7999H142.435ZM131.995 24.4085L129.359 33.6224C129.849 33.6692 130.674 33.6692 131.897 33.6692C133.119 33.6692 133.945 33.6692 134.434 33.6224L131.995 24.4085Z" fill="white"/>
<path d="M158.193 39.9024C158.193 42.8924 158.048 43.2861 158.048 44.8514C154.732 44.753 153.463 44.7061 150.878 44.7061C148.928 44.7061 146.143 44.753 145.364 44.8045V44.6077C147.268 44.364 147.314 42.8924 147.314 40.0992V22.5526C147.314 19.8578 146.974 19.0236 145.364 18.7799V18.5831C146.045 18.6299 147.902 18.7284 149.073 18.7284C150.146 18.7284 151.905 18.6299 152.539 18.5831V18.7799C151.224 18.9767 150.538 19.0752 150.538 22.5526V43.2345C150.878 43.333 151.662 43.4314 152.833 43.4314C156.299 43.4314 157.176 43.3845 157.909 39.9024H158.202H158.193Z" fill="white"/>
<path d="M33.448 56.685H34.9595C36.3357 56.685 36.9515 57.3973 36.9515 58.8689V59.4735C36.9515 60.842 36.6109 61.9293 34.8942 61.9293H34.1571V66.4331H33.4434V56.6803L33.448 56.685ZM34.1618 61.3013H34.8522C36.0698 61.3013 36.2284 60.5327 36.2284 59.4782V58.9252C36.2284 58.0816 36.0278 57.3177 34.9128 57.3177H34.1618V61.306V61.3013Z" fill="white"/>
<path d="M47.5223 61.7512V66.4378H46.8086V56.685H48.2454C49.6916 56.685 50.3027 57.3411 50.3027 58.8549V59.3517C50.3027 60.5561 49.9435 61.2122 49.3137 61.4185C49.9621 61.62 50.2234 62.1261 50.2234 63.4196C50.2234 64.2632 50.2094 65.8051 50.3214 66.4378H49.6169C49.5003 65.8192 49.5143 64.1507 49.5143 63.4852C49.5143 62.1683 49.3184 61.7512 48.2967 61.7512H47.5223ZM47.5223 61.1185H48.3574C49.3697 61.1185 49.5749 60.4202 49.5749 59.3892V58.8877C49.5749 57.9035 49.2717 57.3177 48.2174 57.3177H47.5223V61.1185Z" fill="white"/>
<path d="M63.9809 58.9485V64.1132C63.9809 65.7207 63.3371 66.5596 62.0309 66.5596C60.5801 66.5596 60.1416 65.5566 60.1416 64.1178V58.9626C60.1416 57.4535 60.762 56.5677 62.0822 56.5677C63.4911 56.5677 63.9809 57.641 63.9809 58.9532V58.9485ZM60.8693 58.9673V64.1366C60.8693 65.4301 61.3405 65.9034 62.0682 65.9034C62.796 65.9034 63.2532 65.4348 63.2532 64.071V58.9767C63.2532 57.7628 62.8193 57.2192 62.0542 57.2192C61.2425 57.2192 60.8693 57.7441 60.8693 58.9673Z" fill="white"/>
<path d="M74.0337 56.685H75.5778C77.7004 56.685 77.803 58.1472 77.803 59.5157V63.4431C77.803 64.9428 77.5884 66.4378 75.4705 66.4378H74.0337V56.685ZM74.7474 65.7957H75.4052C76.7114 65.7957 77.0753 65.1068 77.0753 63.6446V59.3845C77.0753 58.1003 76.842 57.3271 75.4285 57.3271H74.7474V65.7957Z" fill="white"/>
<path d="M88.4857 56.685V64.3757C88.4857 65.2474 88.7983 65.8941 89.6333 65.8941C90.4684 65.8941 90.7762 65.3318 90.7762 64.3897V56.6897H91.4993V64.3523C91.4993 65.8379 90.8369 66.5643 89.6147 66.5643C88.3924 66.5643 87.772 65.8613 87.772 64.3897V56.6944H88.4857V56.685Z" fill="white"/>
<path d="M105.085 63.7196V64.0148C105.085 65.3411 104.837 66.555 103.284 66.555C101.731 66.555 101.46 65.3083 101.46 63.9164V58.9252C101.46 57.3271 102.118 56.5585 103.289 56.5585C104.786 56.5585 105.038 57.6879 105.038 58.9111V59.2533H104.301V58.9018C104.301 58.0441 104.203 57.2146 103.265 57.2146C102.388 57.2146 102.192 57.9457 102.192 58.9393V63.9352C102.192 65.149 102.468 65.8942 103.303 65.8942C104.208 65.8942 104.343 65.074 104.343 64.0242V63.7102H105.085V63.7196Z" fill="white"/>
<path d="M115.865 57.3458H114.289V56.685H118.137V57.3458H116.579V66.4378H115.865V57.3458Z" fill="white"/>
<path d="M128.307 56.685V66.4378H127.593V56.685H128.307Z" fill="white"/>
<path d="M142.162 58.9485V64.1132C142.162 65.7207 141.519 66.5596 140.208 66.5596C138.757 66.5596 138.318 65.5566 138.318 64.1178V58.9626C138.318 57.4535 138.939 56.5677 140.264 56.5677C141.673 56.5677 142.162 57.641 142.162 58.9532V58.9485ZM139.051 58.9673V64.1366C139.051 65.4301 139.522 65.9034 140.25 65.9034C140.977 65.9034 141.439 65.4348 141.439 64.071V58.9767C141.439 57.7628 141.005 57.2192 140.24 57.2192C139.429 57.2192 139.055 57.7441 139.055 58.9673H139.051Z" fill="white"/>
<path d="M152.22 66.4378V56.685H153.106C153.722 58.7846 155.206 64.1039 155.402 65.0927H155.43C155.383 63.7055 155.355 62.3323 155.355 60.753V56.685H156.045V66.4378H155.182C154.52 64.146 153.06 58.7705 152.817 57.7395H152.803C152.864 58.9111 152.91 60.6311 152.91 62.3933V66.4378H152.215H152.22Z" fill="white"/>
<defs>
<linearGradient id="paint0_linear_328_271" x1="74.7017" y1="77.8232" x2="74.6053" y2="78.1976" gradientUnits="userSpaceOnUse">
<stop offset="0.2" stop-color="#BDA66B"/>
<stop offset="0.435" stop-color="#FFE7AB"/>
<stop offset="0.63" stop-color="#BDA66B"/>
<stop offset="1" stop-color="#574D31"/>
</linearGradient>
<linearGradient id="paint1_linear_328_271" x1="88.4332" y1="-39.6425" x2="-27.207" y2="134.613" gradientUnits="userSpaceOnUse">
<stop offset="0.2" stop-color="#938151"/>
<stop offset="0.435" stop-color="#DBC99B"/>
<stop offset="0.63" stop-color="#927F4E"/>
<stop offset="1" stop-color="#433A23"/>
</linearGradient>
</defs>
</svg>
