<svg width="1440" height="256" viewBox="0 0 1440 256" fill="none" xmlns="http://www.w3.org/2000/svg">
<g clip-path="url(#clip0_366_715)">
<mask id="mask0_366_715" style="mask-type:luminance" maskUnits="userSpaceOnUse" x="0" y="0" width="1440" height="256">
<path d="M1440 0H0V256H1440V0Z" fill="white"/>
</mask>
<g mask="url(#mask0_366_715)">
<path d="M254.054 254.539C271.482 246.281 292.743 246.027 309.153 256.381C325.563 266.799 335.625 288.588 330.714 308.216C327.48 321.239 318.376 331.974 307.776 339.407C297.175 346.839 285.077 351.476 273.099 355.986C268.667 360.941 260.882 360.878 255.192 357.638C249.503 354.398 245.43 348.808 241.597 343.345C232.494 330.577 214.706 308.788 217.461 291.256C219.977 275.311 241.357 260.447 254.054 254.476V254.539Z" stroke="#BDA66B" stroke-opacity="0.2" stroke-miterlimit="10"/>
<path d="M186.199 311.202C180.749 293.225 179.85 272.96 187.456 255.936C201.171 225.318 237.225 214.201 269.206 214.201C289.629 214.201 310.531 217.504 328.558 227.795C346.584 238.086 361.258 256.19 364.671 277.598C368.744 303.642 355.388 330.068 336.403 347.092C317.358 364.117 293.342 373.391 269.685 381.522C257.588 385.715 244.711 389.717 232.314 386.541C210.514 380.951 192.427 331.466 186.318 311.265L186.199 311.202Z" stroke="#BDA66B" stroke-opacity="0.2" stroke-miterlimit="10"/>
<path d="M201.171 194.318C232.733 181.296 268.188 183.71 301.367 190.825C322.748 195.398 344.249 202.195 361.737 215.98C411.326 255.047 391.263 331.656 353.891 372.121C334.966 392.575 311.01 405.217 284.898 411.569C262.858 416.905 244.771 431.198 222.013 434.628C165.836 443.14 156.673 340.677 152.061 302.563C150.564 290.112 144.335 277.407 144.096 265.02C143.557 233.258 175.957 204.673 201.171 194.318Z" stroke="#BDA66B" stroke-opacity="0.2" stroke-miterlimit="10"/>
<path d="M193.266 162.684C235.548 146.041 282.861 150.869 326.282 163.828C353.352 171.895 380.782 183.901 398.689 206.897C420.669 235.228 423.963 276.328 413.362 311.202C400.665 353.001 371.679 390.67 335.505 412.014C303.703 430.817 269.805 445.618 235.069 457.307C218.959 462.706 199.255 471.599 182.306 472.298C165.357 472.997 164.039 460.038 159.967 442.887C152.54 411.379 145.054 379.871 137.628 348.427C131.279 321.62 120.799 293.162 117.025 266.037C110.617 220.173 156.912 176.914 193.266 162.621V162.684Z" stroke="#BDA66B" stroke-opacity="0.2" stroke-width="2" stroke-miterlimit="10"/>
<path d="M186.139 139.435C212.91 128.318 242.016 125.904 270.704 123.617C301.008 121.203 333.169 116.884 362.635 108.943C386.651 102.464 389.646 121.775 401.923 138.799C432.527 181.17 446.302 236.753 439.175 289.604C432.048 342.456 404.259 391.814 363.713 423.385C332.271 447.905 294.6 461.499 257.588 474.776C224.289 486.718 190.99 498.597 157.631 510.539C143.078 509.396 131.998 495.23 128.225 480.302C124.392 465.374 126.129 449.62 126.668 434.184C127.866 402.486 124.033 370.66 115.588 340.233C107.742 311.965 90.1946 289.096 95.7644 259.431C105.706 206.388 137.807 159.508 186.199 139.435H186.139Z" stroke="#BDA66B" stroke-opacity="0.2" stroke-miterlimit="10"/>
<path d="M85.7029 204.61C94.5067 179.518 103.85 153.6 121.637 134.543C151.223 102.845 196.799 97.1913 238.662 92.8717C280.526 88.5521 326.222 81.7551 354.55 48.7864C360.24 42.1164 365.091 34.5571 371.918 29.2211C378.746 23.8851 388.388 21.2171 395.635 25.7908C402.223 29.9199 404.918 38.4956 407.074 46.309C416.417 80.167 425.759 114.025 435.102 147.883C448.697 197.114 462.412 247.043 463.311 298.307C464.209 349.57 450.793 403.248 416.776 439.71C381.98 476.999 331.432 491.228 283.4 503.996C244.352 514.351 205.304 524.705 166.255 535.059C152.241 538.807 137.149 542.428 123.613 537.029C104.508 529.342 95.1655 505.775 94.5067 484.177C93.8479 462.515 99.7172 441.299 101.095 419.701C103.61 380.951 90.6737 344.044 68.2149 313.934C56.0572 297.608 55.0391 292.336 61.7468 272.707C69.5325 249.966 77.6776 227.351 85.7029 204.673V204.61Z" stroke="#BDA66B" stroke-opacity="0.2" stroke-miterlimit="10"/>
<path d="M35.3352 275.819C56.8957 232.941 78.3963 189.999 99.9567 147.12C111.695 123.744 124.452 99.16 146.012 85.7566C166.555 72.9883 191.529 72.4801 215.006 68.1605C257.767 60.2836 298.133 38.495 329.276 6.35211C338.739 -3.43052 347.483 -14.166 358.563 -21.7253C369.642 -29.2846 383.956 -33.2866 396.174 -27.8871C412.045 -20.836 418.812 -1.33425 423.843 16.1347C433.246 48.8494 442.648 81.564 452.051 114.279C461.394 146.739 470.737 179.327 476.546 212.677C491.758 300.339 481.457 392.766 447.44 474.267" stroke="#BDA66B" stroke-opacity="0.2" stroke-miterlimit="10"/>
<path d="M0 269.975C38.6891 243.613 67.0171 200.734 77.1985 153.155C83.0677 125.65 84.5051 93.9514 104.568 75.3389C123.494 57.7429 151.522 59.1404 176.556 56.2819C235.189 49.6119 290.048 12.5141 320.652 -40.9727C331.672 -60.2839 343.65 -84.4228 364.911 -85.5027C385.453 -86.5826 428.275 -51.1365 434.863 -30.4913C463.251 58.8228 476.307 103.162 492.238 183.456C508.168 263.75 509.127 348.3 487.506 427.133" stroke="#BDA66B" stroke-opacity="0.2" stroke-miterlimit="10"/>
<path d="M-16.8291 262.162C32.4006 237.515 66.8375 182.567 69.2331 124.887C70.1315 103.226 67.2567 79.6585 78.3963 61.4272C91.3326 40.2103 118.223 34.6838 142 34.8743C165.776 35.0649 190.69 38.8128 212.61 29.0937C240.938 16.4525 256.689 -15.0552 270.943 -43.9584C285.197 -72.8616 302.865 -103.861 332.271 -113.39C352.873 -120.06 375.571 -114.47 394.676 -103.798C409.11 -95.7301 422.226 -84.7405 432.287 -71.1465C447.619 -50.5013 455.405 -24.9013 462.951 0.126952C474.091 37.0977 485.23 74.0684 493.675 111.865C516.613 214.011 519.488 321.112 502.239 424.464" stroke="#BDA66B" stroke-opacity="0.2" stroke-miterlimit="10"/>
<path d="M-23.5369 245.646C18.9852 220.808 49.0501 173.356 54.6797 122.219C57.5545 96.0477 55.1589 66.9539 70.371 46.1181C83.0078 28.7762 104.628 22.0427 125.111 19.1206C145.593 16.1985 166.854 15.9444 185.839 7.36876C218.839 -7.49575 237.764 -43.5136 256.39 -76.0377C275.016 -108.498 299.75 -142.483 335.265 -147.819C362.635 -151.885 389.107 -137.656 413.422 -123.744C434.324 -111.738 446.422 -98.5886 457.621 -75.2119C474.75 -39.4481 483.014 8.95686 495.172 46.1817C507.45 83.8512 514.337 127.682 523.56 166.622C541.946 244.312 508.408 327.274 528.411 404.518" stroke="#BDA66B" stroke-opacity="0.2" stroke-miterlimit="10"/>
<path d="M-17.3083 220.745C11.6785 206.261 33.778 177.104 40.9049 144.008C45.8758 120.949 43.8994 96.9371 46.0555 73.4334C48.2115 49.9297 55.7577 24.9649 74.144 11.6249C93.9677 -2.85844 120.259 0.254219 143.976 -4.00186C184.462 -11.18 220.336 -42.7512 234.41 -83.6604C257.707 -134.162 316.759 -171.704 369.582 -167.639C422.406 -163.573 471.156 -122.854 487.267 -69.3041C494.334 -45.8004 495.531 -20.7721 499.903 3.4304C510.504 62.2532 539.671 116.121 548.474 175.262C558.237 240.437 542.665 306.501 527.153 370.343" stroke="#BDA66B" stroke-opacity="0.2" stroke-miterlimit="10"/>
<path d="M-23.8962 165.987C-1.19786 156.713 7.30655 127.428 9.10326 101.701C10.9 75.9743 9.34282 48.2145 22.6384 26.6165C34.6165 7.24176 56.2368 -2.85848 77.3182 -8.95674C98.3995 -15.055 120.559 -18.3582 140.023 -28.9667C176.017 -48.5319 196.56 -88.8694 222.013 -122.219C260.522 -172.721 316.819 -210.835 378.027 -213.82C410.547 -215.408 444.146 -205.816 470.677 -185.87C497.208 -165.923 510.324 -143.627 514.996 -110.467C519.308 -79.9126 515.954 -48.659 518.769 -17.9136C522.003 17.2785 533.142 51.073 544.282 84.4229C555.422 117.773 566.681 151.504 570.095 186.696C573.508 221.888 568.418 259.24 549.193 288.143" stroke="#BDA66B" stroke-opacity="0.2" stroke-width="2" stroke-miterlimit="10"/>
<path d="M-21.6204 24.0755C-20.3028 3.11267 -1.73682 -12.3871 17.2484 -18.3583C36.2336 -24.3295 56.4765 -23.6943 75.8809 -27.8868C123.494 -38.2412 160.805 -76.4824 193.625 -114.533C226.385 -152.584 259.325 -193.62 304.422 -212.804C330.175 -223.794 358.203 -226.843 385.154 -233.894C412.104 -240.881 439.534 -253.078 455.884 -276.899C469.839 -297.29 473.791 -323.208 481.457 -347.093C489.123 -370.978 503.497 -395.561 526.674 -401.151" stroke="#BDA66B" stroke-opacity="0.2" stroke-miterlimit="10"/>
<path d="M579.258 292.59C605.37 221.57 601.477 138.799 568.897 70.8926C559.434 51.1367 547.336 31.3809 547.037 9.2112C546.618 -25.1551 574.946 -55.8369 569.855 -89.822C566.801 -110.086 552.427 -126.158 537.694 -139.561C523.021 -152.964 506.851 -165.733 498.107 -184.027C489.303 -202.322 490.92 -228.367 507.27 -239.293C521.045 -248.504 539.311 -243.676 553.865 -235.863C574.287 -224.873 591.835 -208.738 610.88 -195.208C624.176 -185.743 638.549 -177.548 654.24 -173.927C684.605 -166.876 717.664 -160.651 748.568 -166.813C764.558 -169.989 780.429 -175.96 796.599 -174.181C812.77 -172.403 829.539 -159.19 828.641 -141.975C827.802 -125.586 811.871 -114.66 796.839 -110.658C781.807 -106.656 765.516 -106.402 752.101 -98.0801C736.17 -88.1704 727.846 -69.0498 720.419 -51.1362C711.376 -29.2206 702.153 -6.1615 704.189 17.6598C707.124 52.2802 732.637 79.2142 756.593 102.908C772.284 118.472 791.329 135.178 812.53 131.558C826.604 129.144 838.163 117.837 845.111 104.624C852.058 91.4107 855.052 76.3556 857.927 61.5546C864.395 28.84 870.803 -3.87465 877.272 -36.5893C880.805 -54.4394 885.417 -74.1317 899.671 -84.359C915.721 -95.8568 936.982 -90.8384 956.267 -88.488C975.551 -86.1377 999.567 -90.3938 1006.04 -109.768C1010.11 -122.028 1005.26 -135.305 1001.96 -147.756C998.669 -160.27 997.89 -175.833 1007.35 -184.027C1014.9 -190.634 1026.52 -189.491 1034.9 -184.218C1043.29 -178.946 1049.28 -170.243 1055.03 -161.858C1069.76 -140.26 1085.27 -113.58 1076.17 -88.7421C1070.9 -74.2588 1058.26 -64.222 1051.43 -50.501C1039.99 -27.5054 1046.88 0.508468 1054.67 25.0921C1062.51 49.6757 1071.14 76.5462 1062.69 100.939C1055.03 122.982 1034.96 137.465 1014.6 146.676C994.237 155.887 972.257 161.477 953.152 173.42C928.538 188.792 909.972 214.71 902.545 243.931C895.119 273.152 898.892 305.485 912.906 331.911" stroke="#BDA66B" stroke-opacity="0.2" stroke-miterlimit="10"/>
<path d="M604.232 283.061C622.319 249.648 623.397 208.739 617.887 170.688C612.377 132.637 600.878 95.7938 595.249 57.7432C589.619 19.6926 590.457 -21.1531 608.185 -54.7571C616.33 -70.1933 628.248 -85.2484 627.23 -102.908C626.451 -116.057 618.426 -129.461 623.277 -141.657C627.889 -153.155 641.903 -156.776 653.522 -154.934C684.006 -150.106 706.704 -114.342 699.398 -82.5169C691.492 -47.96 654.959 -22.36 658.612 13.0226C660.709 33.6677 676.28 49.4851 690.833 63.3968C713.113 84.6137 735.392 105.831 757.611 127.111C773.901 142.674 793.545 159.317 815.165 155.315C833.073 152.012 846.009 135.115 853.974 117.773C864.395 95.0951 869.306 70.0668 874.996 45.5467C880.685 21.0266 887.393 -3.81116 900.808 -24.6469C914.224 -45.4826 935.605 -62.0623 959.381 -63.0151C980.103 -63.8409 1000.17 -52.7243 1014.12 -36.4623C1028.08 -20.2002 1036.46 0.635488 1041.61 21.9159C1047.96 48.1511 1049.22 78.0707 1034.48 100.177C1013.7 131.431 971.838 134.099 939.138 150.233C912.128 163.573 890.148 187.839 878.589 216.933C867.03 246.027 866.072 279.695 875.954 309.487" stroke="#BDA66B" stroke-opacity="0.2" stroke-width="2" stroke-miterlimit="10"/>
<path d="M621.96 276.264C638.549 239.421 642.083 196.225 631.782 156.903C628.248 143.373 623.098 130.224 621.121 116.312C619.145 102.4 620.941 87.0275 629.745 76.5461C642.742 60.9193 666.997 61.5545 683.826 72.2265C700.655 82.8984 711.795 101.13 722.216 118.789C732.637 136.449 743.477 154.744 760.007 165.987C781.986 180.979 811.931 181.741 830.258 201.56C841.457 213.693 846.308 231.226 846.608 248.25C846.907 265.275 843.194 281.981 839.541 298.561" stroke="#BDA66B" stroke-opacity="0.2" stroke-width="2" stroke-miterlimit="10"/>
<path d="M650.827 288.778C657.415 250.41 656.277 210.644 647.593 172.784C644.538 159.381 640.466 145.914 641.184 132.129C641.903 118.344 648.791 103.861 661.128 99.4143C670.591 95.984 681.251 99.2237 689.396 105.258C697.541 111.293 703.77 119.869 709.819 128.254C724.192 148.264 738.506 168.274 752.88 188.284C763.001 202.386 773.362 217.06 777.495 234.275C784.083 261.908 771.565 293.352 748.388 307.645" stroke="#BDA66B" stroke-opacity="0.2" stroke-miterlimit="10"/>
<path d="M677.178 269.277C671.968 248.632 668.974 213.058 663.763 187.268C661.188 174.436 658.313 161.604 657.714 148.582C657.594 145.469 657.594 142.357 657.834 139.307C658.193 134.416 658.912 129.588 660.828 125.269C662.745 120.949 665.859 117.011 670.231 115.232C677.119 112.373 685.204 114.787 691.253 119.298C697.302 123.808 701.793 130.287 706.165 136.639C717.724 153.473 729.223 170.37 740.782 187.268C745.753 194.509 750.784 201.878 754.257 210.009C756.353 214.901 757.851 220.109 758.39 225.445C758.749 228.876 758.569 232.306 758.09 235.673C755.994 251.363 740.183 273.469 726.049 278.805" stroke="#BDA66B" stroke-opacity="0.2" stroke-miterlimit="10"/>
<path d="M679.933 201.687C677.598 186.505 675.202 171.323 672.866 156.204C672.148 151.567 671.429 146.802 672.148 142.165C672.866 137.528 675.262 132.891 679.275 130.858C683.647 128.698 689.037 130.096 692.989 133.145C696.942 136.194 699.697 140.514 702.452 144.77C711.196 158.554 719.88 172.275 728.624 186.06C732.218 191.777 735.871 197.558 737.907 204.101C739.943 210.644 740.063 218.076 736.889 224.047C732.876 231.606 712.214 251.235 703.59 249.711C686.641 246.789 682.089 215.344 679.993 201.687H679.933Z" stroke="#BDA66B" stroke-opacity="0.2" stroke-miterlimit="10"/>
<path d="M881.105 94.777C881.763 77.1174 887.154 60.0931 892.723 43.4499C899.731 22.4236 907.396 0.88913 921.77 -15.3729C936.144 -31.6349 958.962 -41.6081 978.666 -33.8583C994.537 -27.633 1005.08 -11.6885 1012.68 4.38293C1023.58 27.442 1029.87 56.7264 1016.04 77.9432C1007.71 90.7115 993.818 97.7626 980.522 104.242C956.387 116.057 932.431 128.508 908.055 139.688C896.496 145.024 893.262 141.276 887.513 129.27C882.482 118.725 880.626 106.529 881.045 94.777H881.105Z" stroke="#BDA66B" stroke-opacity="0.2" stroke-miterlimit="10"/>
<path d="M922.609 45.4825C922.968 38.1773 926.322 31.2532 931.053 25.9172C938.779 17.2145 950.877 12.5137 961.657 15.944C972.437 19.3743 980.343 32.079 977.408 43.5768C971.179 67.7157 920.992 80.8651 922.609 45.4825Z" stroke="#BDA66B" stroke-opacity="0.2" stroke-miterlimit="10"/>
<path d="M735.152 60.7921C722.875 42.8149 715.927 19.4382 721.677 -1.9057C725.749 -16.8337 735.452 -29.2208 745.333 -40.7186C758.809 -56.4725 773.661 -72.0357 792.587 -79.0868C811.512 -86.138 835.468 -82.1995 846.907 -64.7305C856.25 -50.3742 855.052 -31.3171 853.256 -13.9117C851.04 7.05112 848.524 28.0139 845.709 48.9132C844.092 60.9191 842.296 73.0521 837.684 84.1687C833.073 95.2854 825.287 105.386 814.686 109.896C786.059 122.092 749.825 82.3901 735.212 60.9191L735.152 60.7921Z" stroke="#BDA66B" stroke-opacity="0.2" stroke-width="2" stroke-miterlimit="10"/>
<path d="M753.718 -27.1878C763.42 -41.2265 778.153 -53.1054 794.503 -52.3432C815.585 -51.3903 831.396 -29.2841 834.151 -7.11438C836.905 15.0553 829.838 37.1616 822.891 58.3149C816.543 77.6896 807.2 94.3963 785.58 89.6955C773.602 87.0911 767.193 80.9293 759.707 71.2102C736.11 40.6553 730.301 6.60671 753.658 -27.1878H753.718Z" stroke="#BDA66B" stroke-opacity="0.2" stroke-miterlimit="10"/>
<path d="M759.408 37.3518C753.778 24.0753 753.538 8.25795 758.809 -5.14552C762.342 -14.1659 768.451 -22.2334 776.536 -26.9341C784.621 -31.6348 794.803 -32.5877 803.128 -28.4587C812.53 -23.8214 818.579 -13.5306 821.154 -2.85867C824.389 10.4813 822.891 25.0917 816.962 37.4153C812.351 47.0073 798.696 65.4927 787.137 65.048C775.578 64.6034 763.54 47.0073 759.468 37.4153L759.408 37.3518Z" stroke="#BDA66B" stroke-opacity="0.2" stroke-miterlimit="10"/>
<path d="M785.64 34.4302C781.747 28.3954 778.333 21.4078 778.992 14.1026C779.651 6.79741 785.939 -0.253713 792.707 1.20733C799.953 2.7319 802.948 12.8321 800.373 20.1374C797.797 27.4426 791.509 32.4609 785.58 37.0982" stroke="#BDA66B" stroke-opacity="0.2" stroke-miterlimit="10"/>
<path d="M541.048 -395.434C524.938 -384.889 508.348 -373.836 497.628 -357.256C486.907 -340.677 483.613 -316.982 494.992 -300.911C501.041 -292.335 510.324 -287.063 519.308 -282.108C557.578 -260.828 595.848 -239.484 634.117 -218.203C667.416 -199.654 704.129 -180.47 741.081 -188.157C761.145 -192.349 780.07 -204.292 800.432 -203.085C823.49 -201.687 842.475 -183.901 857.747 -165.479C873.019 -147.057 887.393 -126.539 908.295 -116.121C929.196 -105.703 959.141 -110.531 968.125 -133.082C976.33 -153.663 965.61 -178.628 975.971 -198.384C988.368 -221.951 1017.53 -222.396 1037.9 -211.089C1055.62 -201.306 1069.76 -177.675 1080.6 -160.206C1093.95 -138.672 1102.34 -108.943 1096.59 -83.2793C1091.08 -58.7592 1070.78 -39.448 1068.38 -14.3562C1065.87 11.8155 1083.53 35.2557 1087.43 61.1733C1093.24 99.7956 1067.66 136.322 1037.9 159.381C1008.13 182.44 972.976 197.241 944.888 222.587C916.799 247.933 896.496 289.795 910.391 326.003" stroke="#BDA66B" stroke-opacity="0.2" stroke-miterlimit="10"/>
<path d="M551.589 -409.219C525.057 -378.6 525.956 -374.916 518.17 -352.048C514.576 -341.503 518.35 -329.751 526.794 -323.017C546.019 -307.645 565.363 -294.686 584.468 -278.233C609.922 -256.381 635.674 -234.275 665.26 -219.474C694.846 -204.673 729.163 -197.558 760.665 -207.15C785.16 -214.583 810.374 -231.797 834.031 -221.824C864.275 -208.992 869.725 -159.762 904.881 -155.569C910.69 -154.87 916.799 -155.76 921.71 -159.126C934.407 -167.893 934.527 -185.933 939.677 -200.417C948.361 -225 973.695 -240.183 998.429 -240.5C1023.16 -240.818 1046.82 -228.24 1065.45 -210.962C1106.77 -172.53 1125.34 -108.689 1111.56 -52.2163C1106.35 -30.7453 1097.49 -10.2272 1093.89 11.752C1090.3 33.4135 1105.99 50.6284 1111.92 69.4949C1117.85 88.3614 1107.73 117.709 1098.57 134.162C1087.37 154.299 1070.3 170.243 1051.61 182.567C1033.53 194.509 1010.71 200.226 993.578 213.058C977.947 224.747 961.357 237.769 948.361 252.824C937.701 265.148 929.017 280.012 925.184 296.338C921.53 311.71 929.017 324.733 940.516 334.579" stroke="#BDA66B" stroke-opacity="0.2" stroke-miterlimit="10"/>
<path d="M1197.86 -47.6425C1211.76 -65.4926 1235.71 -73.7507 1256.86 -68.0336C1265.72 -65.6197 1274.22 -60.7919 1279.73 -53.042C1286.74 -43.2594 1288.24 -29.9194 1286.2 -17.7864C1281.11 13.3401 1258.77 68.9868 1222.06 50.3743C1185.35 31.7619 1171.69 -14.1656 1197.8 -47.6425H1197.86Z" stroke="#BDA66B" stroke-opacity="0.2" stroke-width="2" stroke-miterlimit="10"/>
<path d="M1329.08 177.421C1328.78 169.29 1330.34 161.159 1331.3 153.092C1333.93 130.096 1331.3 106.402 1323.57 84.7405C1320.82 76.9271 1317.34 68.8596 1318.6 60.6651C1320.88 45.6735 1338.31 38.0507 1352.32 41.2904C1373.04 46.0547 1387.36 67.5892 1391.43 89.6954C1395.5 111.802 1391.43 134.543 1387.3 156.586C1384 174.245 1377.65 197.241 1359.03 203.466C1342.44 208.993 1329.8 194.636 1329.14 177.485L1329.08 177.421Z" stroke="#BDA66B" stroke-opacity="0.2" stroke-miterlimit="10"/>
<path d="M1062.15 -389.082C1066.88 -362.656 1090.96 -344.552 1115.45 -337.691C1139.95 -330.831 1165.76 -332.483 1190.98 -329.751C1225.35 -326.067 1260.45 -313.044 1283.03 -285.285C1299.98 -264.449 1308.3 -237.261 1313.09 -210.2C1320.64 -167.194 1319.92 -122.537 1311.12 -79.7858C1308.6 -67.5257 1305.37 -54.6939 1308.9 -42.688C1312.19 -31.5714 1320.7 -23.2498 1329.08 -15.8175C1354.48 6.66982 1383.04 27.2515 1398.32 58.378C1415.39 93.189 1412.63 134.606 1415.09 173.8C1417.54 212.994 1429.1 256.699 1461.98 274.739" stroke="#BDA66B" stroke-opacity="0.2" stroke-miterlimit="10"/>
<path d="M1105.33 305.803C1152.65 261.717 1216.13 237.769 1279.08 240.183C1342.02 242.597 1403.71 271.437 1447.85 319.016" stroke="#BDA66B" stroke-opacity="0.2" stroke-miterlimit="10"/>
<path d="M1437.36 -288.016C1414.37 -291.7 1391.31 -295.448 1368.31 -299.132C1357.17 -300.911 1344.36 -302.181 1336.09 -294.114C1327.41 -285.602 1328.12 -271.118 1329.44 -258.604C1335.19 -206.134 1340.94 -153.6 1346.69 -101.129C1349.39 -76.7998 1352.2 -51.8986 1362.68 -30.0465C1371.37 -11.9423 1384.84 2.98579 1396.82 18.8667C1445.09 82.7079 1470.84 165.289 1467.91 247.043" stroke="#BDA66B" stroke-opacity="0.2" stroke-width="2" stroke-miterlimit="10"/>
<path d="M556.799 -387.239C542.785 -387.811 534.28 -368.627 538.652 -354.525C543.024 -340.423 555.242 -330.894 566.681 -322.382C595.428 -301.038 624.176 -279.758 652.923 -258.414C681.49 -237.197 713.652 -215.027 748.268 -219.664C770.847 -222.713 790.551 -237.006 811.991 -245.264C833.432 -253.522 861.101 -253.967 875.056 -234.783C884.279 -222.142 888.83 -200.925 903.863 -200.798C914.763 -200.734 921.59 -212.677 928.058 -222.015C951.535 -255.873 996.992 -268.133 1034.84 -255.873C1072.75 -243.613 1102.52 -209.945 1117.55 -171.069C1132.58 -132.192 1134.26 -88.6151 1128.57 -47.0072C1124.98 -20.7084 1118.57 5.97144 1123.24 32.0796C1126.65 51.3273 1135.94 69.1774 1137.85 88.6156C1140.67 116.82 1127.43 144.77 1108.63 164.971C1089.82 185.171 1065.87 198.893 1042.21 212.232C1019.45 225.001 996.273 237.833 977.228 256.318C958.183 274.74 943.45 299.832 942.372 327.147" stroke="#BDA66B" stroke-opacity="0.2" stroke-miterlimit="10"/>
<path d="M602.076 -380.506C609.023 -335.786 634.896 -294.813 671.249 -270.928C707.543 -247.043 753.718 -240.754 794.563 -254.031C814.507 -260.51 834.27 -271.563 854.992 -269.022C870.025 -267.18 883.8 -258.16 898.892 -257.017C916.739 -255.683 933.389 -265.402 950.278 -271.69C991.003 -287 1037.96 -282.362 1075.33 -259.367C1112.7 -236.371 1139.83 -195.462 1147.56 -150.36C1160.91 -72.7346 1119.83 12.514 1152.05 83.6604C1161.33 104.242 1176.84 124.379 1173.25 146.866C1168.88 174.182 1140.07 187.077 1116.23 198.257C1066.82 221.507 1022.74 257.524 988.967 302.245" stroke="#BDA66B" stroke-opacity="0.2" stroke-miterlimit="10"/>
<path d="M620.522 -380.442C632.8 -342.074 663.164 -304.278 697.361 -286.237C738.566 -264.512 792.048 -273.977 835.528 -280.774C864.156 -285.221 892.843 -289.667 921.471 -294.114C943.81 -297.608 966.268 -301.038 988.787 -299.704C1029.63 -297.227 1067.6 -279.059 1103.12 -258.795C1133.06 -241.707 1166.36 -227.16 1180.26 -190.761C1194.99 -152.266 1172.95 -110.467 1161.51 -70.765C1144.08 -10.1635 1152.59 58.2514 1184.27 111.992C1196.25 132.256 1212.06 154.045 1207.15 177.422C1201.82 202.895 1175.11 215.155 1151.81 223.54C1103.72 240.882 1055.68 258.287 1007.59 275.629" stroke="#BDA66B" stroke-opacity="0.2" stroke-width="2" stroke-miterlimit="10"/>
<path d="M635.794 -377.902C666.398 -325.622 722.935 -291.573 780.968 -290.62C854.573 -289.35 924.645 -337.31 997.771 -328.163C1023.28 -324.987 1047.54 -314.886 1071.44 -304.913C1113.66 -287.254 1155.88 -269.658 1198.16 -251.998C1213.79 -245.455 1230.26 -238.341 1240.57 -224.175C1259.73 -197.876 1249.61 -158.746 1231.34 -131.748C1213.08 -104.75 1187.68 -83.0254 1173.79 -53.1693C1156.24 -15.4999 1160.85 32.5875 1185.17 65.7468C1208.16 97.1275 1248.47 119.742 1250.39 159.444C1251.41 180.47 1240.15 200.48 1225.17 214.328C1210.2 228.177 1191.7 236.816 1173.49 245.264C1132.28 264.385 1091.14 283.506 1049.94 302.69" stroke="#BDA66B" stroke-opacity="0.2" stroke-miterlimit="10"/>
<path d="M665.081 -384.508C672.687 -347.792 704.967 -320.985 739.464 -312.536C773.961 -304.087 810.195 -311.012 844.092 -321.938C877.99 -332.864 910.75 -347.792 945.367 -355.732C979.983 -363.673 1017.65 -364.117 1049.16 -346.966C1071.38 -334.896 1089.4 -314.759 1112.58 -304.913C1148.63 -289.668 1190.56 -301.991 1227.63 -289.858C1260.03 -279.25 1285.96 -249.076 1293.03 -213.948C1300.04 -178.755 1287.82 -140.07 1262.31 -116.439C1243.56 -99.0969 1219 -90.013 1200.38 -72.4805C1169 -42.9421 1156.3 13.1492 1176.54 52.0892" stroke="#BDA66B" stroke-opacity="0.2" stroke-miterlimit="10"/>
<path d="M1446.83 63.4602C1376.94 -9.02016 1340.16 -115.93 1349.69 -219.093C1351.3 -236.816 1354.78 -255.619 1366.45 -268.514C1377.71 -280.965 1394.9 -285.602 1411.13 -284.776C1427.36 -283.95 1442.93 -278.233 1458.27 -272.579" stroke="#BDA66B" stroke-opacity="0.2" stroke-miterlimit="10"/>
<path d="M1401.13 -255.937C1381.67 -244.058 1375.26 -217.632 1373.4 -193.874C1367.35 -114.851 1393.11 -33.604 1442.99 25.4729" stroke="#BDA66B" stroke-opacity="0.2" stroke-miterlimit="10"/>
<path d="M162.782 282.235C160.925 258.477 173.741 235.228 191.828 220.999C209.915 206.769 232.494 200.48 254.833 198.003C282.322 194.954 311.309 197.558 335.205 212.296C359.102 227.033 376.59 255.746 373.176 284.84" stroke="#BDA66B" stroke-opacity="0.2" stroke-miterlimit="10"/>
<path d="M204.585 281.727C214.946 250.219 246.029 227.732 277.531 229.066C309.033 230.4 338.32 255.365 346.285 287.635" stroke="#BDA66B" stroke-opacity="0.2" stroke-miterlimit="10"/>
<path d="M-14.6731 189.808C6.1687 182.249 19.644 160.27 25.7528 137.846C31.8616 115.422 32.1012 91.6646 35.6946 68.6055C39.288 45.5465 47.0138 21.7886 64.1424 7.05116C98.16 -22.2332 139.484 -5.08183 176.377 -30.1101C201.351 -47.0074 216.683 -80.1032 231.536 -107.291C253.934 -148.137 298.972 -179.009 342.392 -189.491C369.463 -196.034 398.689 -192.858 423.843 -180.47C436.24 -174.309 445.883 -165.098 456.842 -156.903C469.419 -147.502 480.2 -137.592 488.464 -123.553C500.802 -102.527 505.593 -77.8163 507.03 -53.3597C508.528 -27.5057 511.882 -3.62079 517.811 21.6616C522.183 40.4646 527.333 59.0135 533.143 77.3718C535.179 83.7877 537.335 90.14 539.671 96.4288C541.827 102.337 543.024 108.689 545.181 114.66C547.636 121.648 551.05 128.318 552.906 135.623C554.763 142.928 556.2 150.614 557.398 158.174C563.387 196.733 562.908 236.435 556.021 274.803" stroke="#BDA66B" stroke-opacity="0.2" stroke-miterlimit="10"/>
</g>
</g>
<defs>
<clipPath id="clip0_366_715">
<rect width="1440" height="256" fill="white"/>
</clipPath>
</defs>
</svg>
