<svg width="960" height="597" viewBox="0 0 960 597" fill="none" xmlns="http://www.w3.org/2000/svg">
<g opacity="0.05" clip-path="url(#clip0_366_479)">
<mask id="mask0_366_479" style="mask-type:luminance" maskUnits="userSpaceOnUse" x="0" y="0" width="960" height="597">
<path d="M0 0H960V597H0V0Z" fill="white"/>
</mask>
<g mask="url(#mask0_366_479)">
<path d="M719.518 591.494C703.021 583.713 682.896 583.474 667.363 593.229C651.829 603.045 642.305 623.573 646.954 642.066C650.015 654.336 658.632 664.45 668.666 671.453C678.701 678.455 690.152 682.824 701.49 687.073C705.685 691.742 713.055 691.682 718.441 688.63C723.826 685.577 727.681 680.31 731.31 675.163C739.927 663.134 756.764 642.605 754.156 626.087C751.775 611.064 731.536 597.06 719.518 591.434V591.494Z" stroke="#FFE7AB" stroke-miterlimit="10"/>
<path d="M783.749 644.88C788.908 627.942 789.758 608.85 782.558 592.81C769.576 563.963 735.448 553.489 705.175 553.489C685.844 553.489 666.059 556.601 648.995 566.297C631.931 575.993 618.042 593.05 614.811 613.219C610.956 637.758 623.598 662.655 641.569 678.695C659.596 694.734 682.329 703.472 704.722 711.133C716.173 715.083 728.362 718.854 740.097 715.861C760.732 710.595 777.853 663.972 783.635 644.939L783.749 644.88Z" stroke="#FFE7AB" stroke-miterlimit="10"/>
<path d="M769.576 534.756C739.7 522.487 706.139 524.761 674.732 531.465C654.494 535.774 634.142 542.178 617.588 555.165C570.648 591.973 589.64 664.151 625.015 702.275C642.929 721.547 665.605 733.457 690.322 739.442C711.184 744.469 728.305 757.936 749.848 761.167C803.023 769.187 811.697 672.65 816.062 636.74C817.48 625.01 823.375 613.04 823.602 601.369C824.112 571.444 793.443 544.512 769.576 534.756Z" stroke="#FFE7AB" stroke-miterlimit="10"/>
<path d="M777.059 504.951C737.036 489.271 692.25 493.819 651.149 506.028C625.525 513.629 599.561 524.941 582.61 546.607C561.805 573.299 558.687 612.022 568.721 644.88C580.739 684.261 608.178 719.751 642.419 739.861C672.522 757.576 704.608 771.521 737.489 782.534C752.739 787.621 771.39 796 787.434 796.658C803.477 797.317 804.724 785.107 808.579 768.948C815.609 739.262 822.695 709.577 829.725 679.951C835.734 654.695 845.655 627.882 849.226 602.326C855.292 559.115 811.47 518.357 777.059 504.891V504.951Z" stroke="#FFE7AB" stroke-width="4" stroke-miterlimit="10"/>
<path d="M783.805 483.046C758.465 472.572 730.913 470.298 703.758 468.144C675.073 465.869 644.63 461.8 616.738 454.318C594.005 448.214 591.17 466.408 579.549 482.448C550.58 522.367 537.541 574.736 544.287 624.531C551.033 674.326 577.338 720.829 615.717 750.574C645.48 773.676 681.138 786.484 716.173 798.992C747.693 810.244 779.213 821.436 810.79 832.688C824.566 831.61 835.054 818.264 838.625 804.199C842.253 790.135 840.609 775.292 840.099 760.748C838.965 730.883 842.593 700.899 850.587 672.231C858.013 645.598 874.624 624.052 869.351 596.102C859.941 546.128 829.555 501.959 783.749 483.046H783.805Z" stroke="#FFE7AB" stroke-miterlimit="10"/>
<path d="M878.876 544.452C870.542 520.811 861.698 496.392 844.861 478.438C816.856 448.573 773.714 443.246 734.088 439.176C694.461 435.106 651.206 428.703 624.391 397.641C619.006 391.356 614.414 384.234 607.951 379.207C601.488 374.179 592.361 371.666 585.501 375.975C579.265 379.865 576.714 387.945 574.673 395.306C565.83 427.206 556.986 459.106 548.142 491.006C535.273 537.389 522.291 584.431 521.441 632.73C520.591 681.029 533.289 731.601 565.49 765.955C598.427 801.087 646.274 814.493 691.74 826.523C728.702 836.278 765.664 846.034 802.627 855.789C815.892 859.321 830.178 862.732 842.99 857.645C861.075 850.403 869.919 828.199 870.542 807.85C871.166 787.441 865.61 767.451 864.306 747.103C861.925 710.594 874.17 675.822 895.429 647.453C906.938 632.072 907.901 627.104 901.552 608.61C894.182 587.184 886.472 565.878 878.876 544.512V544.452Z" stroke="#FFE7AB" stroke-miterlimit="10"/>
<path d="M926.552 611.543C906.144 571.145 885.792 530.686 865.383 490.288C854.272 468.263 842.197 445.101 821.788 432.473C802.343 420.443 778.703 419.965 756.48 415.895C716.003 408.473 677.794 387.945 648.315 357.661C639.357 348.444 631.081 338.33 620.593 331.208C610.105 324.085 596.556 320.315 584.991 325.402C569.968 332.045 563.562 350.419 558.8 366.878C549.9 397.701 540.999 428.523 532.099 459.346C523.255 489.929 514.411 520.632 508.912 552.053C494.513 634.645 504.264 721.726 536.464 798.514" stroke="#FFE7AB" stroke-miterlimit="10"/>
<path d="M960 606.037C923.378 581.199 896.563 540.801 886.926 495.973C881.37 470.059 880.009 440.194 861.018 422.658C843.104 406.079 816.573 407.396 792.876 404.703C737.376 398.419 685.447 363.466 656.478 313.073C646.047 294.879 634.709 272.136 614.584 271.118C595.139 270.101 554.605 303.497 548.369 322.948C521.498 407.097 509.139 448.872 494.059 524.522C478.98 600.172 478.072 679.832 498.538 754.105" stroke="#FFE7AB" stroke-miterlimit="10"/>
<path d="M975.93 598.676C929.33 575.454 896.733 523.684 894.465 469.341C893.615 448.932 896.336 426.728 885.792 409.551C873.547 389.561 848.092 384.354 825.586 384.534C803.08 384.713 779.497 388.244 758.748 379.087C731.933 367.177 717.024 337.492 703.531 310.26C690.039 283.029 673.315 253.822 645.48 244.845C625.978 238.561 604.493 243.827 586.408 253.882C572.746 261.483 560.331 271.837 550.807 284.645C536.294 304.096 528.924 328.215 521.781 351.796C511.236 386.628 500.692 421.461 492.699 457.072C470.986 553.31 468.265 654.216 484.592 751.592" stroke="#FFE7AB" stroke-miterlimit="10"/>
<path d="M982.279 583.115C942.029 559.713 913.57 515.006 908.241 466.827C905.52 442.169 907.788 414.758 893.388 395.127C881.427 378.788 860.961 372.444 841.573 369.691C822.185 366.938 802.06 366.698 784.089 358.619C752.852 344.614 734.938 310.679 717.307 280.036C699.676 249.453 676.263 217.433 642.645 212.406C616.738 208.576 591.681 221.982 568.664 235.089C548.879 246.401 537.428 258.789 526.826 280.814C510.613 314.509 502.79 360.115 491.281 395.187C479.66 430.678 473.14 471.974 464.41 508.662C447.006 581.858 478.753 660.021 459.818 732.798" stroke="#FFE7AB" stroke-miterlimit="10"/>
<path d="M976.384 559.653C948.945 546.008 928.026 518.537 921.28 487.355C916.575 465.63 918.446 443.007 916.405 420.862C914.364 398.718 907.221 375.197 889.817 362.628C870.996 349.043 846.108 351.975 823.602 347.965C785.279 341.202 751.322 311.457 737.999 272.914C715.947 225.333 660.05 189.962 610.048 193.793C560.047 197.623 513.901 235.987 498.651 286.44C491.962 308.584 490.828 332.165 486.689 354.968C476.655 410.389 449.047 461.141 440.713 516.861C431.473 578.267 446.212 640.51 460.895 700.659" stroke="#FFE7AB" stroke-miterlimit="10"/>
<path d="M982.62 508.063C961.134 499.325 953.084 471.734 951.383 447.495C949.682 423.256 951.156 397.102 938.571 376.753C927.233 358.439 906.767 348.983 886.812 343.237C866.857 337.492 845.882 334.379 827.457 324.385C793.386 305.951 773.941 267.946 749.848 236.525C713.396 188.945 660.106 153.035 602.168 150.222C571.385 148.726 539.582 157.763 514.468 176.556C489.354 195.349 476.939 216.356 472.517 247.598C468.435 276.385 471.61 305.831 468.945 334.798C465.884 367.955 455.34 399.795 444.795 431.216C434.251 462.637 423.593 494.417 420.361 527.574C417.13 560.731 421.949 595.922 440.146 623.154" stroke="#FFE7AB" stroke-width="4" stroke-miterlimit="10"/>
<path d="M980.465 374.359C979.218 354.609 961.644 340.006 943.73 334.38C925.759 328.754 906.597 329.353 888.23 325.402C843.161 315.647 807.842 279.617 776.776 243.768C745.766 207.918 714.586 169.255 671.898 151.18C647.521 140.826 620.99 137.953 595.479 131.31C569.968 124.727 544.004 113.236 528.527 90.7919C515.318 71.5802 511.577 47.1616 504.32 24.6581C497.064 2.15465 483.458 -21.0072 461.519 -26.2739" stroke="#FFE7AB" stroke-miterlimit="10"/>
<path d="M979.388 306.61C945.204 326.001 902.062 319.238 867.934 299.787C833.807 280.336 806.765 249.752 780.177 219.947C753.589 190.142 726.094 159.978 691.456 141.544C667.759 128.916 641.682 122.392 616.568 113.475C591.397 104.617 566.227 92.7668 548.256 72.1785C530.285 51.5903 520.987 20.5283 531.362 -5.20703" stroke="#FFE7AB" stroke-miterlimit="10"/>
<path d="M981.372 281.413C946.111 300.505 902.232 293.083 867.424 273.034C832.616 252.984 804.894 221.982 777.286 191.937C749.678 161.893 720.765 131.788 684.71 114.372C664.641 104.677 642.986 99.2901 622.01 91.9885C601.035 84.6868 580.172 75.1707 564.356 58.8916C548.539 42.6125 538.618 18.4333 543.494 -4.30957" stroke="#FFE7AB" stroke-miterlimit="10"/>
<path d="M989.082 252.625C953.821 276.266 906.824 278.959 869.295 259.568C804.781 226.112 777.569 139.33 713.509 104.916C692.533 93.6045 669.007 88.8764 646.274 82.4725C623.541 76.0685 600.411 67.3305 583.46 50.0938C566.51 32.8571 557.213 5.02704 566.737 -17.7158" stroke="#FFE7AB" stroke-miterlimit="10"/>
<path d="M972.812 198.102C969.297 224.197 948.038 246.52 923.321 250.052C904.103 252.805 884.658 245.084 868.501 233.773C818.046 198.461 793.669 130.233 741.004 98.6919C720.482 86.4228 697.182 80.6173 674.562 73.7346C651.886 66.8519 628.926 58.2336 611.409 41.6552C593.891 25.0769 582.78 -1.37663 589.64 -25.1968" stroke="#FFE7AB" stroke-width="4" stroke-miterlimit="10"/>
<path d="M985.454 133.465C974.059 132.148 963.515 141.185 958.413 152.018C953.31 162.851 952.347 175.24 950.759 187.21C949.172 199.179 946.451 211.628 938.854 220.665C928.48 232.994 910.679 235.987 895.656 231.558C871.789 224.556 854.895 202.292 842.31 179.788C829.725 157.285 819.35 132.627 801.209 114.851C783.635 97.6146 760.562 88.4576 738.056 79.6597C709.2 68.408 680.402 57.1563 651.546 45.9045C639.811 41.2961 627.849 36.6279 617.928 28.4883C608.064 20.3488 600.411 8.07959 600.694 -5.20703" stroke="#FFE7AB" stroke-miterlimit="10"/>
<path d="M956.032 -4.54887C957.902 10.8923 950.533 26.3934 939.761 37.0466C928.99 47.6998 915.158 54.1636 901.325 59.5501C868.048 72.4177 832.276 79.9588 797.128 75.3504C775.585 72.4776 754.836 65.1759 734.201 57.8743C704.098 47.221 673.995 36.508 643.893 25.8547C635.729 22.982 627.339 19.9296 620.763 14.1242C614.13 8.31879 609.595 -1.07759 611.636 -9.87549" stroke="#FFE7AB" stroke-miterlimit="10"/>
<path d="M628.416 -10.4142C655.798 10.9521 684.37 16.1591 715.72 26.3933C744.632 35.8496 770.993 55.4803 802.003 56.9765C821.334 57.8742 840.156 51.3506 858.524 44.8869C874.85 39.1413 891.347 33.3359 906.087 23.9994C920.827 14.6628 933.979 1.31635 940.215 -15.6211" stroke="#FFE7AB" stroke-miterlimit="10"/>
<path d="M902.969 0.11937C877.232 30.2836 837.662 46.7422 799.339 43.2111C761.016 39.68 724.734 16.2788 704.325 -18.1348" stroke="#FFE7AB" stroke-miterlimit="10"/>
<path d="M756.254 -4.78809C776.379 16.8775 808.012 25.7951 835.677 17.5957C847.752 14.0047 859.487 6.94244 865.95 -4.48884" stroke="#FFE7AB" stroke-miterlimit="10"/>
<path d="M923.038 144.357C921.564 154.532 920.033 164.886 915.668 174.102C911.303 183.319 903.423 191.219 893.785 192.775C887.322 193.793 880.633 191.878 874.907 188.586C861.472 180.925 852.344 165.484 851.607 149.384C850.927 133.285 858.694 117.066 871.449 108.088C881.767 100.846 900.361 96.3577 912.04 102.881C925.759 110.602 924.965 130.711 923.038 144.357Z" stroke="#FFE7AB" stroke-miterlimit="10"/>
<path d="M411.688 627.344C386.971 560.432 390.656 482.448 421.495 418.469C430.452 399.855 441.904 381.242 442.187 360.355C442.584 327.976 415.769 299.069 420.588 267.049C423.479 247.957 437.085 232.815 451.031 220.187C464.92 207.559 480.227 195.529 488.504 178.292C496.837 161.055 495.307 136.517 479.83 126.223C466.791 117.545 449.5 122.093 435.725 129.455C416.393 139.809 399.783 155.011 381.755 167.759C369.17 176.676 355.564 184.397 340.711 187.808C311.969 194.451 280.676 200.317 251.423 194.511C236.287 191.519 221.264 185.893 205.957 187.569C190.651 189.245 174.777 201.693 175.628 217.913C176.421 233.354 191.501 243.648 205.73 247.418C219.96 251.189 235.38 251.428 248.078 259.269C263.158 268.605 271.038 286.62 278.068 303.497C286.628 324.146 295.358 345.871 293.431 368.315C290.653 400.933 266.503 426.309 243.827 448.633C228.974 463.296 210.946 479.036 190.878 475.625C177.555 473.351 166.614 462.698 160.038 450.249C153.462 437.8 150.627 423.616 147.906 409.671C141.783 378.848 135.718 348.026 129.595 317.203C126.25 300.385 121.885 281.832 108.393 272.196C93.1995 261.363 73.0743 266.092 54.8199 268.306C36.5655 270.52 13.8326 266.51 7.70996 248.256C3.85499 236.705 8.44689 224.197 11.5649 212.466C14.6829 200.676 15.4199 186.013 6.46277 178.292C-0.680257 172.068 -11.6783 173.145 -19.615 178.113C-27.5517 183.08 -33.2208 191.279 -38.6631 199.18C-52.609 219.528 -67.2918 244.665 -58.6749 268.067C-53.6861 281.712 -41.7243 291.168 -35.2616 304.096C-24.4337 325.762 -30.9531 352.155 -38.3229 375.317C-45.7494 398.479 -53.9128 423.795 -45.9194 446.777C-38.663 467.545 -19.6717 481.191 -0.396851 489.869C18.878 498.547 39.6835 503.814 57.7679 515.066C81.0677 529.55 98.6418 553.968 105.671 581.499C112.701 609.03 109.13 639.493 95.864 664.391" stroke="#FFE7AB" stroke-miterlimit="10"/>
<path d="M388.048 618.366C370.927 586.885 369.907 548.342 375.122 512.492C380.338 476.642 391.222 441.93 396.551 406.08C401.88 370.23 401.087 331.746 384.306 300.086C376.596 285.542 365.315 271.358 366.278 254.72C367.015 242.331 374.612 229.703 370.02 218.212C365.655 207.379 352.389 203.967 341.391 205.703C312.536 210.252 291.05 243.947 297.966 273.932C305.449 306.49 340.031 330.609 336.573 363.945C334.588 383.397 319.849 398.299 306.073 411.406C284.984 431.396 263.895 451.386 242.863 471.435C227.443 486.099 208.848 501.779 188.383 498.009C171.433 494.896 159.187 478.976 151.648 462.638C141.783 441.271 137.135 417.69 131.749 394.588C126.363 371.487 120.014 348.085 107.315 328.455C94.6167 308.824 74.3781 293.203 51.8719 292.305C32.2569 291.527 13.2656 302.001 0.0566361 317.323C-13.1523 332.644 -21.089 352.275 -25.9644 372.324C-31.9736 397.042 -33.1641 425.231 -19.2182 446.059C0.453506 475.505 40.0803 478.019 71.0334 493.221C96.6009 505.789 117.406 528.652 128.348 556.063C139.289 583.474 140.196 615.194 130.842 643.264" stroke="#FFE7AB" stroke-width="4" stroke-miterlimit="10"/>
<path d="M371.267 611.962C355.564 577.25 352.219 536.552 361.97 499.505C365.315 486.757 370.19 474.368 372.061 461.261C373.932 448.154 372.231 433.67 363.898 423.795C351.596 409.072 328.636 409.671 312.706 419.725C296.776 429.78 286.231 446.957 276.367 463.595C266.503 480.233 256.242 497.47 240.595 508.064C219.79 522.188 191.444 522.906 174.097 541.579C163.496 553.011 158.904 569.529 158.621 585.569C158.337 601.608 161.852 617.349 165.31 632.97" stroke="#FFE7AB" stroke-width="4" stroke-miterlimit="10"/>
<path d="M343.942 623.753C337.706 587.603 338.783 550.137 347.004 514.467C349.895 501.839 353.75 489.151 353.069 476.163C352.389 463.176 345.87 449.53 334.191 445.341C325.234 442.109 315.143 445.161 307.433 450.847C299.723 456.533 293.828 464.612 288.102 472.512C274.496 491.365 260.947 510.218 247.341 529.07C237.761 542.357 227.953 556.182 224.041 572.402C217.805 598.436 229.654 628.062 251.593 641.528" stroke="#FFE7AB" stroke-miterlimit="10"/>
<path d="M318.998 605.319C323.93 585.868 326.765 552.352 331.697 528.053C334.135 515.963 336.856 503.874 337.423 491.605C337.536 488.672 337.536 485.739 337.309 482.867C336.969 478.258 336.289 473.71 334.475 469.64C332.661 465.57 329.713 461.859 325.574 460.184C319.055 457.49 311.402 459.765 305.676 464.014C299.95 468.263 295.698 474.368 291.56 480.353C280.619 496.213 269.734 512.133 258.793 528.053C254.088 534.876 249.325 541.818 246.037 549.479C244.053 554.088 242.636 558.995 242.126 564.023C241.786 567.255 241.956 570.486 242.409 573.658C244.393 588.441 259.36 609.269 272.739 614.296" stroke="#FFE7AB" stroke-miterlimit="10"/>
<path d="M316.39 541.699C318.601 527.395 320.869 513.091 323.08 498.847C323.76 494.478 324.44 489.989 323.76 485.62C323.08 481.251 320.812 476.882 317.014 474.967C312.876 472.932 307.773 474.248 304.032 477.121C300.29 479.994 297.683 484.064 295.075 488.074C286.798 501.061 278.578 513.989 270.301 526.976C266.899 532.362 263.441 537.809 261.514 543.973C259.586 550.138 259.473 557.14 262.478 562.766C266.276 569.888 285.834 588.382 293.998 586.945C310.041 584.192 314.35 554.567 316.334 541.699H316.39Z" stroke="#FFE7AB" stroke-miterlimit="10"/>
<path d="M125.967 440.972C125.343 424.334 120.241 408.294 114.969 392.613C108.336 372.803 101.079 352.514 87.4735 337.193C73.8678 321.871 52.2686 312.475 33.6174 319.777C18.5943 325.642 8.61683 340.664 1.41711 355.806C-8.90059 377.531 -14.8531 405.122 -1.75755 425.112C6.12245 437.142 19.2746 443.785 31.86 449.89C54.7063 461.022 77.3826 472.752 100.456 483.286C111.397 488.313 114.458 484.782 119.901 473.47C124.663 463.535 126.42 452.044 126.023 440.972H125.967Z" stroke="#FFE7AB" stroke-miterlimit="10"/>
<path d="M86.6799 394.529C86.3397 387.646 83.165 381.122 78.6865 376.095C71.3734 367.896 59.9218 363.467 49.7175 366.699C39.5132 369.931 32.0301 381.9 34.8079 392.733C40.7038 415.476 88.2105 427.865 86.6799 394.529Z" stroke="#FFE7AB" stroke-miterlimit="10"/>
<path d="M264.122 408.952C275.744 392.015 282.32 369.99 276.877 349.881C273.022 335.816 263.839 324.145 254.485 313.313C241.729 298.47 227.67 283.807 209.756 277.163C191.841 270.52 169.165 274.231 158.337 290.689C149.493 304.215 150.627 322.17 152.328 338.569C154.426 358.319 156.807 378.07 159.471 397.76C161.002 409.072 162.702 420.503 167.068 430.977C171.433 441.451 178.803 450.967 188.837 455.216C215.935 466.707 250.233 429.301 264.065 409.072L264.122 408.952Z" stroke="#FFE7AB" stroke-width="4" stroke-miterlimit="10"/>
<path d="M246.548 326.06C237.364 312.834 223.418 301.642 207.941 302.36C187.986 303.258 173.02 324.085 170.412 344.973C167.804 365.86 174.494 386.688 181.07 406.618C187.079 424.872 195.923 440.613 216.388 436.184C227.726 433.73 233.792 427.924 240.879 418.767C263.215 389.98 268.714 357.9 246.604 326.06H246.548Z" stroke="#FFE7AB" stroke-miterlimit="10"/>
<path d="M241.162 386.868C246.491 374.359 246.718 359.457 241.729 346.829C238.384 338.33 232.602 330.729 224.948 326.3C217.295 321.871 207.658 320.974 199.778 324.864C190.877 329.233 185.152 338.928 182.714 348.983C179.653 361.552 181.07 375.317 186.682 386.928C191.047 395.965 203.973 413.381 214.914 412.962C225.856 412.543 237.25 395.965 241.105 386.928L241.162 386.868Z" stroke="#FFE7AB" stroke-miterlimit="10"/>
<path d="M216.332 384.115C220.016 378.429 223.248 371.845 222.624 364.963C222.001 358.08 216.048 351.437 209.642 352.813C202.782 354.25 199.948 363.766 202.386 370.649C204.823 377.531 210.776 382.259 216.388 386.628" stroke="#FFE7AB" stroke-miterlimit="10"/>
<path d="M447.856 -20.8877C463.106 -10.9527 478.809 -0.538821 488.957 15.0819C499.105 30.7027 502.223 53.0266 491.451 68.1685C485.726 76.2482 476.939 81.2158 468.435 85.884C432.21 105.934 395.984 126.043 359.759 146.093C328.239 163.569 293.488 181.643 258.509 174.402C239.518 170.452 221.604 159.2 202.329 160.337C180.503 161.654 162.532 178.412 148.076 195.768C133.62 213.124 120.014 232.456 100.229 242.271C80.444 252.086 52.0987 247.538 43.5951 226.291C35.8284 206.9 45.976 183.379 36.1685 164.766C24.4335 142.562 -3.17479 142.143 -22.4496 152.796C-39.2301 162.013 -52.609 184.277 -62.87 200.735C-75.512 221.025 -83.4488 249.034 -78.0065 273.213C-72.791 296.315 -53.5728 314.51 -51.3052 338.15C-48.9242 362.808 -65.648 384.893 -69.3328 409.311C-74.8318 445.7 -50.6249 480.113 -22.4496 501.839C5.72564 523.564 39.0031 537.509 65.591 561.389C92.1789 585.269 111.397 624.71 98.2449 658.824" stroke="#FFE7AB" stroke-miterlimit="10"/>
<path d="M437.879 -33.875C462.993 -5.02748 462.142 -1.5562 469.512 19.9897C472.914 29.9247 469.342 40.9969 461.349 47.3409C443.151 61.8245 424.84 74.0339 406.756 89.5349C382.662 110.123 358.285 130.951 330.28 144.896C302.275 158.841 269.791 165.544 239.972 156.507C216.785 149.504 192.918 133.285 170.526 142.681C141.897 154.771 136.738 201.154 103.46 205.105C97.9614 205.763 92.179 204.925 87.5304 201.753C75.5119 193.494 75.3986 176.496 70.5232 162.851C62.303 139.689 38.3228 125.385 14.9095 125.086C-8.50374 124.786 -30.8965 136.637 -48.5273 152.916C-87.6439 189.125 -105.218 249.274 -92.1792 302.48C-87.2471 322.709 -78.8568 342.041 -75.4554 362.748C-72.0539 383.157 -86.9069 399.376 -92.5193 417.152C-98.1317 434.927 -88.5509 462.578 -79.8772 478.079C-69.2761 497.051 -53.1192 512.073 -35.4318 523.684C-18.3112 534.936 3.288 540.322 19.5015 552.412C34.2978 563.424 50.0011 575.693 62.3029 589.878C72.3939 601.489 80.6141 615.493 84.2423 630.875C87.7004 645.358 80.6141 657.628 69.7295 666.904" stroke="#FFE7AB" stroke-miterlimit="10"/>
<path d="M432.947 -13.1669C446.212 -13.7056 454.262 4.36899 450.124 17.6556C445.985 30.9422 434.421 39.9197 423.593 47.9395C396.381 68.049 369.17 88.0986 341.958 108.208C314.917 128.198 284.474 149.085 251.706 144.716C230.334 141.844 211.683 128.377 191.388 120.597C171.092 112.817 144.901 112.398 131.692 130.472C122.962 142.382 118.653 162.372 104.424 162.492C94.1064 162.552 87.6436 151.3 81.521 142.502C59.2983 110.602 16.2701 99.0511 -19.5584 110.602C-55.4436 122.153 -83.619 153.873 -97.8483 190.501C-112.078 227.129 -113.665 268.186 -108.279 307.388C-104.878 332.165 -98.8121 357.302 -103.234 381.9C-106.465 400.035 -115.252 416.853 -117.066 435.167C-119.731 461.74 -107.202 488.074 -89.4014 507.106C-71.6005 526.138 -48.9243 539.066 -26.5314 551.634C-4.98897 563.664 16.9504 575.753 34.978 593.17C53.0056 610.526 66.9515 634.167 67.9719 659.902" stroke="#FFE7AB" stroke-miterlimit="10"/>
<path d="M390.089 -6.82324C383.513 35.3109 359.022 73.9139 324.611 96.4174C290.256 118.921 246.548 124.846 207.885 112.337C189.007 106.233 170.299 95.8189 150.684 98.2128C136.455 99.9485 123.416 108.447 109.13 109.524C92.2358 110.781 76.4758 101.624 60.489 95.6992C21.9393 81.2754 -22.5062 85.6444 -57.8812 107.31C-93.2562 128.976 -118.937 167.519 -126.25 210.012C-138.892 283.148 -100.002 363.466 -130.502 430.498C-139.289 449.889 -153.972 468.862 -150.57 490.048C-146.432 515.784 -119.164 527.933 -96.6009 538.467C-49.8311 560.372 -8.10677 594.306 23.8668 636.44" stroke="#FFE7AB" stroke-miterlimit="10"/>
<path d="M372.628 -6.76318C361.006 29.386 332.264 64.9965 299.894 81.9938C260.891 102.462 210.266 93.5448 169.108 87.1409C142.01 82.9514 114.855 78.7619 87.7572 74.5725C66.6116 71.2807 45.3526 68.0489 24.0369 69.3057C-14.6262 71.6398 -50.568 88.7568 -84.1856 107.849C-112.531 123.948 -144.051 137.654 -157.203 171.948C-171.149 208.217 -150.287 247.598 -139.459 285.004C-122.962 342.1 -131.012 406.558 -161.002 457.191C-172.34 476.283 -187.306 496.812 -182.657 518.836C-177.612 542.836 -152.328 554.387 -130.275 562.287C-84.7525 578.626 -39.2866 595.025 6.23602 611.364" stroke="#FFE7AB" stroke-width="4" stroke-miterlimit="10"/>
<path d="M358.172 -4.36914C329.203 44.8871 275.687 76.9665 220.753 77.8642C151.081 79.0612 84.7524 33.8748 15.5331 42.4931C-8.61714 45.4856 -31.5768 55.0017 -54.1964 64.3981C-94.1633 81.0363 -134.13 97.6146 -174.154 114.253C-188.95 120.417 -204.54 127.12 -214.291 140.467C-232.432 165.245 -222.851 202.112 -205.561 227.548C-188.27 252.984 -164.233 273.453 -151.081 301.582C-134.47 337.073 -138.836 382.379 -161.852 413.621C-183.621 443.186 -221.774 464.493 -223.588 501.899C-224.552 521.709 -213.894 540.562 -199.721 553.609C-185.549 566.656 -168.031 574.796 -150.797 582.756C-111.794 600.77 -72.8476 618.785 -33.8444 636.86" stroke="#FFE7AB" stroke-miterlimit="10"/>
<path d="M330.45 -10.6533C323.25 23.9398 292.694 49.1963 260.04 57.1563C227.386 65.1163 193.088 58.5927 161.002 48.2986C128.915 38.0044 97.9048 23.9398 65.1375 16.4586C32.3703 8.97735 -3.28804 8.55841 -33.1073 24.7178C-54.1396 36.0892 -71.2035 55.0616 -93.1428 64.3383C-127.271 78.7022 -166.954 67.0913 -202.046 78.5226C-232.715 88.5175 -257.262 116.946 -263.952 150.043C-270.585 183.2 -259.02 219.648 -234.87 241.912C-217.125 258.251 -193.882 266.81 -176.251 283.328C-146.545 311.158 -134.527 364.005 -153.688 400.693" stroke="#FFE7AB" stroke-miterlimit="10"/>
<path d="M319.395 -9.39667C307.49 21.366 277.671 41.9543 246.548 46.9218C215.425 51.9492 183.451 43.0316 155.446 27.8896C127.441 12.7477 102.78 -8.37922 78.4599 -29.4463" stroke="#FFE7AB" stroke-miterlimit="10"/>
<path d="M123.812 -17.2369C150.23 8.73787 185.492 26.2738 221.604 24.7177C257.716 23.1616 293.658 0.119528 306.64 -35.4312" stroke="#FFE7AB" stroke-width="4" stroke-miterlimit="10"/>
<path d="M270.131 -11.1918C253.067 2.21448 231.241 8.61839 210.095 6.4638C188.95 4.30921 168.655 -6.40387 154.312 -22.9224" stroke="#FFE7AB" stroke-miterlimit="10"/>
<path d="M805.915 617.588C807.672 595.204 795.54 573.299 778.42 559.893C761.299 546.487 739.927 540.561 718.781 538.227C692.76 535.355 665.322 537.808 642.702 551.693C620.083 565.579 603.529 592.631 606.76 620.042" stroke="#FFE7AB" stroke-miterlimit="10"/>
<path d="M766.344 617.109C756.537 587.424 727.115 566.237 697.295 567.494C667.476 568.751 639.754 592.272 632.214 622.675" stroke="#FFE7AB" stroke-miterlimit="10"/>
<path d="M887.606 -9.21686C869.862 17.6556 837.661 31.84 806.652 30.3437C775.642 28.8475 746.219 13.0472 723.713 -9.51611" stroke="#FFE7AB" stroke-width="4" stroke-miterlimit="10"/>
<path d="M765.211 -6.10463C778.987 6.46379 797.978 12.4488 816.006 9.81537C834.033 7.18198 850.814 -3.95005 860.848 -19.9897" stroke="#FFE7AB" stroke-miterlimit="10"/>
<path d="M945.09 -9.63605C944.183 7.062 933.355 21.785 920.146 31.0018C906.937 40.2187 891.348 44.8271 876.098 49.3757C851.948 56.4978 827.344 63.6797 802.23 62.9615C778.533 62.2433 755.517 54.5227 732.954 46.862C710.221 39.1414 687.431 31.4208 664.698 23.6403C650.696 18.8524 636.41 14.0046 624.448 4.96726C612.486 -4.07003 602.905 -18.0748 602.565 -33.6357" stroke="#FFE7AB" stroke-miterlimit="10"/>
<path d="M687.998 -11.0723L699.79 7.30157C695.992 8.97736 691.626 7.54097 687.771 6.04473C683.123 4.24924 678.474 2.45375 673.825 0.71811C664.925 -2.69332 655.968 -6.10475 647.578 -10.7132" stroke="#FFE7AB" stroke-miterlimit="10"/>
<path d="M973.889 530.507C954.161 523.385 941.405 502.677 935.623 481.55C929.841 460.423 929.614 438.039 926.212 416.314C922.811 394.588 915.498 372.204 899.341 358.319C867.141 330.729 828.024 346.888 793.103 323.307C769.463 307.387 754.95 276.206 740.89 250.59C719.688 212.107 677.057 183.02 635.956 173.145C610.332 166.98 582.667 169.973 558.857 181.643C547.122 187.449 537.995 196.127 527.62 203.848C515.715 212.705 505.511 222.042 497.687 235.269C486.009 255.079 481.474 278.36 480.113 301.402C478.696 325.761 475.521 348.265 469.909 372.085C465.771 389.8 460.895 407.276 455.396 424.573C453.469 430.618 451.428 436.603 449.217 442.528C447.176 448.094 446.042 454.079 444.001 459.705C441.677 466.288 438.446 472.572 436.688 479.455C434.931 486.338 433.57 493.58 432.437 500.702C426.767 537.03 427.221 574.436 433.74 610.585" stroke="#FFE7AB" stroke-miterlimit="10"/>
</g>
</g>
<defs>
<clipPath id="clip0_366_479">
<rect width="960" height="597" fill="white" transform="matrix(-1 0 0 1 960 0)"/>
</clipPath>
</defs>
</svg>
