<svg width="1440" height="339" viewBox="0 0 1440 339" fill="none" xmlns="http://www.w3.org/2000/svg">
<g opacity="0.05" clip-path="url(#clip0_366_665)">
<mask id="mask0_366_665" style="mask-type:luminance" maskUnits="userSpaceOnUse" x="0" y="0" width="1440" height="339">
<path d="M0 0H1440V339H0V0Z" fill="white"/>
</mask>
<g mask="url(#mask0_366_665)">
<path d="M1185.95 337.065C1168.52 326.13 1147.26 325.793 1130.85 339.505C1114.44 353.3 1104.38 382.153 1109.29 408.146C1112.52 425.39 1121.62 439.606 1132.22 449.448C1142.82 459.29 1154.92 465.431 1166.9 471.403C1171.33 477.965 1179.12 477.881 1184.81 473.59C1190.5 469.3 1194.57 461.898 1198.4 454.664C1207.51 437.756 1225.29 408.903 1222.54 385.686C1220.02 364.572 1198.64 344.888 1185.95 336.981V337.065Z" stroke="#FFE7AB" stroke-miterlimit="10"/>
<path d="M1253.8 412.099C1259.25 388.294 1260.15 361.46 1252.54 338.916C1238.83 298.37 1202.78 283.649 1170.79 283.649C1150.37 283.649 1129.47 288.024 1111.44 301.651C1093.42 315.278 1078.74 339.252 1075.33 367.6C1071.26 402.089 1084.61 437.083 1103.6 459.627C1122.64 482.17 1146.66 494.452 1170.31 505.219C1182.41 510.771 1195.29 516.07 1207.69 511.865C1229.49 504.462 1247.57 438.933 1253.68 412.183L1253.8 412.099Z" stroke="#FFE7AB" stroke-miterlimit="10"/>
<path d="M1238.83 257.32C1207.27 240.076 1171.81 243.272 1138.63 252.694C1117.25 258.75 1095.75 267.751 1078.26 286.005C1028.67 337.738 1048.74 439.186 1086.11 492.77C1105.03 519.856 1128.99 536.596 1155.1 545.008C1177.14 552.074 1195.23 571 1217.99 575.543C1274.16 586.815 1283.33 451.131 1287.94 400.659C1289.44 384.172 1295.66 367.348 1295.9 350.945C1296.44 308.885 1264.04 271.032 1238.83 257.32Z" stroke="#FFE7AB" stroke-miterlimit="10"/>
<path d="M1246.73 215.429C1204.45 193.39 1157.14 199.783 1113.72 216.943C1086.65 227.626 1059.22 243.525 1041.31 273.976C1019.33 311.493 1016.04 365.918 1026.64 412.099C1039.33 467.45 1068.32 517.332 1104.5 545.596C1136.3 570.496 1170.19 590.095 1204.93 605.573C1221.04 612.723 1240.75 624.5 1257.69 625.425C1274.64 626.351 1275.96 609.191 1280.03 586.478C1287.46 544.755 1294.95 503.032 1302.37 461.393C1308.72 425.895 1319.2 388.21 1322.97 352.291C1329.38 291.557 1283.09 234.272 1246.73 215.345V215.429Z" stroke="#FFE7AB" stroke-width="4" stroke-miterlimit="10"/>
<path d="M1253.86 184.641C1227.09 169.92 1197.98 166.723 1169.3 163.695C1138.99 160.499 1106.83 154.779 1077.36 144.264C1053.35 135.683 1050.35 161.256 1038.08 183.8C1007.47 239.907 993.698 313.511 1000.83 383.498C1007.95 453.485 1035.74 518.846 1076.29 560.653C1107.73 593.123 1145.4 611.125 1182.41 628.706C1215.71 644.52 1249.01 660.25 1282.37 676.065C1296.92 674.55 1308 655.792 1311.78 636.024C1315.61 616.256 1313.87 595.394 1313.33 574.953C1312.13 532.978 1315.97 490.834 1324.41 450.541C1332.26 413.108 1349.81 382.825 1344.24 343.542C1334.29 273.302 1302.19 211.222 1253.8 184.641H1253.86Z" stroke="#FFE7AB" stroke-miterlimit="10"/>
<path d="M1354.3 270.948C1345.49 237.721 1336.15 203.4 1318.36 178.164C1288.78 136.189 1243.2 128.702 1201.34 122.982C1159.47 117.262 1113.78 108.261 1085.45 64.6034C1079.76 55.7709 1074.91 45.7607 1068.08 38.6947C1061.25 31.6287 1051.61 28.0957 1044.37 34.1523C1037.78 39.62 1035.08 50.9761 1032.93 61.3228C1023.58 106.158 1014.24 150.994 1004.9 195.829C991.303 261.022 977.588 327.139 976.69 395.023C975.791 462.907 989.207 533.988 1023.22 582.272C1058.02 631.65 1108.57 650.493 1156.6 667.401C1195.65 681.112 1234.7 694.824 1273.74 708.535C1287.76 713.498 1302.85 718.293 1316.39 711.143C1335.49 700.964 1344.83 669.756 1345.49 641.156C1346.15 612.471 1340.28 584.375 1338.91 555.775C1336.39 504.462 1349.33 455.589 1371.79 415.717C1383.94 394.098 1384.96 387.116 1378.25 361.123C1370.47 331.009 1362.32 301.062 1354.3 271.032V270.948Z" stroke="#FFE7AB" stroke-miterlimit="10"/>
<path d="M1404.66 365.245C1383.1 308.465 1361.6 251.6 1340.04 194.82C1328.3 163.864 1315.55 131.31 1293.99 113.561C1273.45 96.6527 1248.47 95.9797 1224.99 90.2596C1182.23 79.8289 1141.87 50.976 1110.72 8.41175C1101.26 -4.5426 1092.52 -18.7587 1081.44 -28.7689C1070.36 -38.7791 1056.04 -44.0786 1043.83 -36.9284C1027.96 -27.5912 1021.19 -1.76667 1016.16 21.3661C1006.75 64.6874 997.352 108.009 987.949 151.33C978.606 194.315 969.263 237.468 963.454 281.631C948.242 397.715 958.543 520.108 992.56 628.033" stroke="#FFE7AB" stroke-miterlimit="10"/>
<path d="M1440 357.506C1401.31 322.596 1372.98 265.816 1362.8 202.811C1356.93 166.387 1355.49 124.412 1335.43 99.7647C1316.51 76.4637 1288.48 78.3143 1263.44 74.5289C1204.81 65.6964 1149.95 16.5709 1119.35 -54.2574C1108.33 -79.8296 1096.35 -111.795 1075.09 -113.225C1054.55 -114.655 1011.73 -67.7165 1005.14 -40.3778C976.749 77.8937 963.693 136.609 947.762 242.935C931.832 349.262 930.873 461.225 952.494 565.616" stroke="#FFE7AB" stroke-miterlimit="10"/>
<path d="M1456.83 347.159C1407.6 314.521 1373.16 241.758 1370.77 165.378C1369.87 136.693 1372.74 105.485 1361.6 81.3428C1348.67 53.247 1321.78 45.9287 1298 46.181C1274.22 46.4334 1249.31 51.3964 1227.39 38.5262C1199.06 21.7865 1183.31 -19.9366 1169.06 -58.2108C1154.8 -96.485 1137.14 -137.535 1107.73 -150.153C1087.13 -158.985 1064.43 -151.583 1045.32 -137.451C1030.89 -126.768 1017.77 -112.215 1007.71 -94.2138C992.381 -66.875 984.595 -32.9751 977.049 0.167876C965.909 49.1252 954.77 98.0825 946.325 148.133C923.387 283.397 920.512 425.222 937.761 562.084" stroke="#FFE7AB" stroke-miterlimit="10"/>
<path d="M1463.54 325.288C1421.01 292.398 1390.95 229.561 1385.32 161.845C1382.45 127.188 1384.84 88.6613 1369.63 61.0703C1356.99 38.1058 1335.37 29.1891 1314.89 25.3197C1294.41 21.4502 1273.15 21.1137 1254.16 9.75762C1221.16 -9.92625 1202.24 -57.6218 1183.61 -100.691C1164.98 -143.676 1140.25 -188.679 1104.73 -195.745C1077.36 -201.129 1050.89 -182.286 1026.58 -163.864C1005.68 -147.966 993.578 -130.553 982.379 -99.5972C965.25 -52.2382 956.986 11.8606 944.828 61.1544C932.55 111.037 925.663 169.079 916.44 220.644C898.054 323.522 931.592 433.381 911.589 535.67" stroke="#FFE7AB" stroke-miterlimit="10"/>
<path d="M1457.31 292.314C1428.32 273.134 1406.22 234.524 1399.1 190.698C1394.12 160.163 1396.1 128.366 1393.94 97.2414C1391.79 66.1174 1384.24 33.0585 1365.86 15.3935C1346.03 -3.78562 1319.74 0.336219 1296.02 -5.29976C1255.54 -14.8052 1219.66 -56.6124 1205.59 -110.785C1182.29 -177.66 1123.24 -227.374 1070.42 -221.991C1017.59 -216.607 968.844 -162.687 952.733 -91.7742C945.666 -60.6501 944.469 -27.5072 940.097 4.54218C929.496 82.4365 900.329 153.769 891.526 232.084C881.763 318.391 897.335 405.874 912.847 490.414" stroke="#FFE7AB" stroke-miterlimit="10"/>
<path d="M1463.9 219.803C1441.2 207.522 1432.69 168.743 1430.9 134.675C1429.1 100.607 1430.66 63.8466 1417.36 35.2461C1405.38 9.58978 1383.76 -3.78515 1362.68 -11.8606C1341.6 -19.936 1319.44 -24.3102 1299.98 -38.3581C1263.98 -64.2668 1243.44 -117.682 1217.99 -161.845C1179.48 -228.72 1123.18 -279.191 1061.97 -283.145C1029.45 -285.248 995.854 -272.546 969.323 -246.132C942.792 -219.719 929.676 -190.193 925.004 -146.283C920.692 -105.822 924.046 -64.435 921.231 -23.7214C917.997 22.8806 906.858 67.632 895.718 111.795C884.578 155.957 873.319 200.624 869.905 247.226C866.492 293.828 871.582 343.29 890.807 381.565" stroke="#FFE7AB" stroke-width="4" stroke-miterlimit="10"/>
<path d="M1461.62 31.8809C1460.3 4.12164 1441.74 -16.4034 1422.75 -24.3106C1403.77 -32.2178 1383.52 -31.3766 1364.12 -36.9285C1316.51 -50.6399 1279.19 -101.28 1246.37 -151.667C1213.62 -202.054 1180.68 -256.395 1135.58 -281.799C1109.83 -296.352 1081.8 -300.39 1054.85 -309.727C1027.9 -318.98 1000.47 -335.131 984.116 -366.675C970.161 -393.678 966.209 -427.998 958.543 -459.627C950.877 -491.256 936.503 -523.81 913.326 -531.212" stroke="#FFE7AB" stroke-miterlimit="10"/>
<path d="M860.742 387.453C834.63 293.407 838.523 183.8 871.103 93.877C880.566 67.7159 892.664 41.5549 892.963 12.1973C893.382 -33.3111 865.054 -73.9406 870.145 -118.944C873.199 -145.778 887.573 -167.06 902.306 -184.81C916.979 -202.559 933.149 -219.467 941.893 -243.693C950.697 -267.919 949.08 -302.408 932.73 -316.877C918.955 -329.074 900.689 -322.681 886.136 -312.334C865.713 -297.782 848.165 -276.415 829.12 -258.498C815.825 -245.964 801.451 -235.113 785.76 -230.318C755.395 -220.981 722.336 -212.737 691.433 -220.897C675.442 -225.103 659.571 -233.01 643.401 -230.655C627.23 -228.299 610.461 -210.802 611.359 -188.006C612.198 -166.303 628.129 -151.835 643.161 -146.535C658.194 -141.236 674.484 -140.899 687.899 -129.88C703.83 -116.757 712.155 -91.4374 719.581 -67.7158C728.624 -38.6947 737.847 -8.15948 735.811 23.3852C732.877 69.2301 707.363 104.897 683.407 136.273C667.716 156.882 648.671 179.005 627.47 174.211C613.396 171.014 601.837 156.041 594.89 138.544C587.942 121.047 584.948 101.111 582.073 81.5115C575.605 38.1901 569.197 -5.1312 562.729 -48.4525C559.195 -72.09 554.583 -98.1669 540.33 -111.71C524.279 -126.936 503.018 -120.29 483.733 -117.178C464.449 -114.065 440.433 -119.701 433.965 -145.358C429.892 -161.593 434.743 -179.174 438.037 -195.661C441.331 -212.232 442.11 -232.842 432.647 -243.693C425.101 -252.441 413.482 -250.927 405.098 -243.945C396.713 -236.963 390.724 -225.439 384.974 -214.335C370.241 -185.735 354.73 -150.405 363.833 -117.514C369.104 -98.3352 381.74 -85.0444 388.568 -66.8746C400.007 -36.4235 393.119 0.673009 385.334 33.2271C377.488 65.7812 368.864 101.364 377.308 133.665C384.974 162.855 405.038 182.034 425.4 194.231C445.763 206.428 467.743 213.831 486.848 229.645C511.463 250.002 530.029 284.323 537.455 323.017C544.881 361.712 541.108 404.529 527.094 439.522" stroke="#FFE7AB" stroke-miterlimit="10"/>
<path d="M835.768 374.834C817.681 330.587 816.603 276.415 822.113 226.027C827.623 175.64 839.122 126.851 844.751 76.4637C850.381 26.0763 849.542 -28.0123 831.815 -72.5113C823.67 -92.9522 811.752 -112.888 812.77 -136.274C813.548 -153.686 821.574 -171.435 816.723 -187.586C812.111 -202.812 798.097 -207.607 786.478 -205.167C755.994 -198.774 733.296 -151.415 740.602 -109.271C748.508 -63.5105 785.041 -29.6105 781.387 17.2438C779.291 44.5825 763.72 65.5282 749.166 83.9503C726.887 112.046 704.608 140.142 682.389 168.322C666.099 188.931 646.455 210.97 624.834 205.671C606.927 201.296 593.991 178.921 586.026 155.956C575.605 125.926 570.694 92.7828 565.004 60.3128C559.314 27.8428 552.607 -5.04775 539.191 -32.6388C525.776 -60.2299 504.395 -82.185 480.619 -83.4468C459.897 -84.5403 439.834 -69.8194 425.879 -48.285C411.925 -26.7505 403.54 0.840592 398.39 29.0205C392.041 63.7617 390.784 103.382 405.517 132.655C426.298 174.042 468.162 177.575 500.862 198.941C527.872 216.606 549.852 248.74 561.411 287.266C572.97 325.793 573.928 370.376 564.046 409.828" stroke="#FFE7AB" stroke-width="4" stroke-miterlimit="10"/>
<path d="M818.04 365.833C801.451 317.044 797.917 259.843 808.218 207.774C811.752 189.856 816.902 172.444 818.879 154.021C820.855 135.599 819.059 115.243 810.255 101.363C797.258 80.6696 773.003 81.5108 756.174 95.6428C739.345 109.775 728.205 133.917 717.784 157.302C707.363 180.687 696.523 204.914 679.993 219.803C658.014 239.655 628.069 240.664 609.742 266.909C598.543 282.976 593.692 306.193 593.392 328.737C593.093 351.281 596.806 373.404 600.459 395.359" stroke="#FFE7AB" stroke-width="4" stroke-miterlimit="10"/>
<path d="M789.173 382.405C782.585 331.597 783.723 278.938 792.407 228.803C795.462 211.054 799.534 193.221 798.815 174.967C798.097 156.713 791.209 137.534 778.872 131.646C769.409 127.103 758.749 131.393 750.604 139.385C742.459 147.376 736.23 158.732 730.181 169.836C715.808 196.333 701.494 222.831 687.12 249.328C676.999 268.003 666.638 287.434 662.505 310.231C655.917 346.822 668.434 388.461 691.612 407.388" stroke="#FFE7AB" stroke-miterlimit="10"/>
<path d="M762.822 356.58C768.032 329.242 771.026 282.135 776.237 247.982C778.812 230.99 781.687 213.998 782.286 196.754C782.406 192.632 782.406 188.51 782.166 184.473C781.807 177.995 781.088 171.602 779.172 165.882C777.255 160.162 774.141 154.947 769.769 152.591C762.881 148.806 754.796 152.003 748.747 157.975C742.698 163.948 738.207 172.528 733.835 180.94C722.276 203.231 710.777 225.607 699.218 247.982C694.247 257.572 689.216 267.33 685.743 278.097C683.647 284.574 682.149 291.472 681.61 298.538C681.251 303.081 681.431 307.623 681.91 312.081C684.006 332.859 699.817 362.132 713.951 369.198" stroke="#FFE7AB" stroke-miterlimit="10"/>
<path d="M760.067 267.077C762.402 246.973 764.798 226.869 767.134 206.848C767.852 200.707 768.571 194.399 767.852 188.258C767.134 182.117 764.738 175.976 760.725 173.285C756.353 170.425 750.963 172.275 747.01 176.313C743.058 180.351 740.303 186.071 737.548 191.707C728.804 209.961 720.12 228.13 711.376 246.384C707.782 253.955 704.129 261.61 702.093 270.274C700.057 278.938 699.937 288.78 703.111 296.687C707.124 306.698 727.786 332.69 736.41 330.672C753.359 326.802 757.91 285.163 760.007 267.077H760.067Z" stroke="#FFE7AB" stroke-miterlimit="10"/>
<path d="M558.895 125.506C558.237 102.121 552.846 79.5768 547.277 57.5376C540.269 29.6941 532.604 1.17775 518.23 -20.3567C503.856 -41.8912 481.038 -55.0979 461.334 -44.8354C445.463 -36.5917 434.923 -15.4778 427.317 5.8043C416.417 36.3395 410.128 75.1185 423.963 103.214C432.287 120.122 446.182 129.459 459.478 138.04C483.613 153.686 507.569 170.173 531.945 184.978C543.504 192.044 546.738 187.081 552.487 171.182C557.518 157.219 559.374 141.068 558.955 125.506H558.895Z" stroke="#FFE7AB" stroke-miterlimit="10"/>
<path d="M517.391 60.2287C517.032 50.555 513.678 41.386 508.947 34.32C501.221 22.7957 489.123 16.5709 478.343 21.1133C467.563 25.6557 459.657 42.4796 462.592 57.7051C468.821 89.6704 519.008 107.083 517.391 60.2287Z" stroke="#FFE7AB" stroke-miterlimit="10"/>
<path d="M704.848 80.5019C717.125 56.6962 724.073 25.7404 718.323 -2.52363C714.251 -22.2916 704.548 -38.6948 694.667 -53.9204C681.191 -74.7819 666.339 -95.3911 647.413 -104.728C628.488 -114.066 604.532 -108.85 593.093 -85.7174C583.75 -66.7065 584.948 -41.4708 586.744 -18.4221C588.96 9.33716 591.476 37.0965 594.291 64.7717C595.908 80.6702 597.704 96.7369 602.316 111.458C606.927 126.179 614.713 139.554 625.314 145.526C653.941 161.677 690.175 109.102 704.788 80.6702L704.848 80.5019Z" stroke="#FFE7AB" stroke-width="4" stroke-miterlimit="10"/>
<path d="M686.282 -36.0031C676.58 -54.5935 661.847 -70.3237 645.497 -69.3143C624.415 -68.0525 608.604 -38.7791 605.849 -9.42151C603.095 19.9361 610.162 49.2095 617.109 77.2212C623.457 102.878 632.8 125.001 654.42 118.776C666.398 115.327 672.807 107.168 680.293 94.2974C703.89 53.8361 709.699 8.74822 686.342 -36.0031H686.282Z" stroke="#FFE7AB" stroke-miterlimit="10"/>
<path d="M680.592 49.4619C686.222 31.881 686.462 10.9353 681.191 -6.8138C677.658 -18.7587 671.549 -29.4418 663.464 -35.6667C655.379 -41.8915 645.197 -43.1533 636.872 -37.6855C627.47 -31.5448 621.421 -17.9175 618.846 -3.78551C615.611 13.8795 617.109 33.2269 623.038 49.546C627.649 62.248 641.304 86.7267 652.863 86.1378C664.422 85.549 676.46 62.248 680.532 49.546L680.592 49.4619Z" stroke="#FFE7AB" stroke-miterlimit="10"/>
<path d="M654.36 45.5925C658.253 37.6012 661.667 28.3481 661.008 18.6744C660.349 9.00072 654.061 -0.336497 647.293 1.59824C640.047 3.6171 637.052 16.992 639.627 26.6657C642.203 36.3394 648.491 42.9848 654.42 49.1255" stroke="#FFE7AB" stroke-miterlimit="10"/>
<path d="M898.952 -523.642C915.062 -509.678 931.652 -495.041 942.372 -473.086C953.093 -451.131 956.387 -419.754 945.008 -398.472C938.959 -387.116 929.676 -380.134 920.692 -373.573C882.422 -345.393 844.152 -317.129 805.883 -288.949C772.584 -264.386 735.871 -238.983 698.919 -249.161C678.855 -254.713 659.93 -270.527 639.568 -268.929C616.51 -267.078 597.525 -243.525 582.253 -219.13C566.981 -194.736 552.607 -167.565 531.705 -153.77C510.804 -139.974 480.859 -146.367 471.875 -176.23C463.67 -203.484 474.39 -236.543 464.029 -262.704C451.632 -293.912 422.466 -294.501 402.103 -279.528C384.375 -266.574 370.241 -235.281 359.401 -212.149C346.046 -183.632 337.661 -144.264 343.41 -110.28C348.92 -77.8103 369.223 -52.2381 371.619 -19.011C374.134 15.646 356.466 46.6859 352.574 81.0065C346.764 132.151 372.337 180.519 402.103 211.055C431.868 241.59 467.024 261.19 495.112 294.753C523.201 328.317 543.504 383.751 529.609 431.699" stroke="#FFE7AB" stroke-miterlimit="10"/>
<path d="M888.411 -541.896C914.943 -501.35 914.044 -496.471 921.83 -466.188C925.424 -452.225 921.65 -436.663 913.206 -427.746C893.981 -407.389 874.637 -390.229 855.532 -368.442C830.078 -339.505 804.326 -310.231 774.74 -290.632C745.154 -271.032 710.837 -261.611 679.335 -274.313C654.84 -284.155 629.626 -306.951 605.969 -293.744C575.725 -276.752 570.275 -211.56 535.119 -206.008C529.31 -205.083 523.201 -206.26 518.29 -210.719C505.593 -222.327 505.473 -246.217 500.323 -265.396C491.639 -297.95 466.305 -318.055 441.571 -318.475C416.836 -318.896 393.179 -302.24 374.553 -279.36C333.229 -228.468 314.663 -143.928 328.438 -69.1461C333.648 -40.7139 342.512 -13.5434 346.106 15.5618C349.699 44.2464 334.008 67.0427 328.079 92.0261C322.15 117.009 332.271 155.873 341.434 177.659C352.634 204.325 369.702 225.439 388.388 241.758C406.475 257.572 429.293 265.143 446.422 282.135C462.053 297.613 478.643 314.858 491.639 334.794C502.299 351.113 510.983 370.797 514.816 392.415C518.47 412.772 510.983 430.017 499.484 443.055" stroke="#FFE7AB" stroke-miterlimit="10"/>
<path d="M242.136 -63.0895C228.242 -86.727 204.285 -97.6625 183.144 -90.0917C174.28 -86.8952 165.776 -80.5022 160.266 -70.2396C153.259 -57.2853 151.762 -39.6203 153.798 -23.5535C158.889 17.6648 181.228 91.3532 217.94 66.7063C254.653 42.0594 268.308 -18.7587 242.196 -63.0895H242.136Z" stroke="#FFE7AB" stroke-width="4" stroke-miterlimit="10"/>
<path d="M110.917 234.944C111.216 224.177 109.659 213.409 108.701 202.726C106.065 172.275 108.701 140.899 116.426 112.214C119.181 101.868 122.655 91.1844 121.397 80.333C119.121 60.4809 101.693 50.3866 87.6791 54.6767C66.9571 60.9856 52.6433 89.502 48.5708 118.775C44.4983 148.049 48.5708 178.164 52.7032 207.353C55.9972 230.738 62.3456 261.189 80.9714 269.433C97.561 276.751 110.198 257.74 110.857 235.028L110.917 234.944Z" stroke="#FFE7AB" stroke-miterlimit="10"/>
<path d="M377.847 -515.23C373.116 -480.236 349.04 -456.262 324.545 -447.178C300.05 -438.093 274.237 -440.28 249.023 -436.663C214.646 -431.784 179.551 -414.539 156.972 -377.779C140.023 -350.188 131.698 -314.185 126.907 -278.351C119.361 -221.402 120.08 -162.266 128.884 -105.654C131.399 -89.4191 134.633 -72.427 131.1 -56.5285C127.806 -41.8076 119.301 -30.788 110.917 -20.9461C85.5232 8.83206 56.9555 36.0867 41.6835 77.3051C24.6148 123.402 27.3698 178.248 24.9143 230.149C22.4588 282.051 10.9 339.925 -21.9798 363.815" stroke="#FFE7AB" stroke-miterlimit="10"/>
<path d="M334.667 404.949C287.353 346.571 223.87 314.858 160.925 318.054C97.9804 321.251 36.2935 359.441 -7.84558 422.446" stroke="#FFE7AB" stroke-miterlimit="10"/>
<path d="M2.63527 -381.397C25.6331 -386.276 48.6908 -391.239 71.6887 -396.118C82.8283 -398.473 95.6448 -400.155 103.91 -389.472C112.594 -378.2 111.875 -359.021 110.557 -342.45C104.808 -272.967 99.0585 -203.401 93.309 -133.918C90.614 -101.701 87.7992 -68.726 77.3184 -39.789C68.6343 -15.8151 55.159 3.95291 43.181 24.9827C-5.09053 109.522 -30.8434 218.877 -27.9088 327.139" stroke="#FFE7AB" stroke-width="4" stroke-miterlimit="10"/>
<path d="M883.201 -512.79C897.215 -513.547 905.72 -488.143 901.348 -469.469C896.976 -450.794 884.758 -438.176 873.319 -426.905C844.572 -398.64 815.825 -370.461 787.077 -342.197C758.51 -314.101 726.349 -284.743 691.732 -290.884C669.153 -294.922 649.45 -313.848 628.009 -324.784C606.568 -335.719 578.899 -336.308 564.944 -310.904C555.721 -294.165 551.17 -266.069 536.137 -265.901C525.237 -265.816 518.41 -281.631 511.942 -293.996C488.465 -338.832 443.008 -355.067 405.157 -338.832C367.247 -322.597 337.481 -278.014 322.449 -226.533C307.417 -175.052 305.74 -117.346 311.429 -62.2481C315.023 -27.4228 321.431 7.90716 316.759 42.4801C313.346 67.9682 304.063 91.6057 302.146 117.346C299.331 154.695 312.567 191.707 331.373 218.457C350.178 245.207 374.134 263.377 397.791 281.042C420.549 297.95 443.727 314.942 462.772 339.421C481.817 363.815 496.55 397.042 497.628 433.213" stroke="#FFE7AB" stroke-miterlimit="10"/>
<path d="M837.924 -503.874C830.977 -444.654 805.104 -390.397 768.751 -358.769C732.457 -327.14 686.282 -318.812 645.437 -336.393C625.493 -344.973 605.73 -359.61 585.008 -356.245C569.975 -353.806 556.2 -341.861 541.108 -340.346C523.261 -338.58 506.611 -351.45 489.722 -359.778C448.997 -380.051 402.043 -373.91 364.671 -343.459C327.3 -313.008 300.17 -258.835 292.444 -199.11C279.088 -96.3169 320.173 16.5709 287.952 110.784C278.669 138.039 263.158 164.705 266.751 194.483C271.123 230.654 299.93 247.73 323.766 262.535C373.176 293.323 417.255 341.018 451.033 400.238" stroke="#FFE7AB" stroke-miterlimit="10"/>
<path d="M819.478 -503.79C807.2 -452.982 776.836 -402.931 742.638 -379.041C701.434 -350.273 647.952 -362.806 604.472 -371.807C575.844 -377.696 547.157 -383.584 518.529 -389.472C496.19 -394.099 473.731 -398.641 451.213 -396.875C410.368 -393.594 372.397 -369.536 336.882 -342.702C306.937 -320.074 273.638 -300.811 259.744 -252.61C245.011 -201.634 267.05 -146.284 278.489 -93.7094C295.917 -13.4598 287.413 77.1364 255.731 148.301C243.753 175.135 227.942 203.988 232.853 234.944C238.183 268.676 264.894 284.911 288.192 296.014C336.283 318.979 384.315 342.028 432.407 364.992" stroke="#FFE7AB" stroke-width="4" stroke-miterlimit="10"/>
<path d="M804.206 -500.425C773.602 -431.195 717.065 -386.107 659.032 -384.845C585.427 -383.163 515.355 -446.673 442.229 -434.56C416.716 -430.354 392.46 -416.979 368.564 -403.772C326.342 -380.387 284.119 -357.086 241.837 -333.701C226.205 -325.036 209.735 -315.615 199.434 -296.857C180.269 -262.031 190.391 -210.214 208.657 -174.463C226.924 -138.713 252.317 -109.944 266.212 -70.4079C283.76 -20.5253 279.148 43.1529 254.833 87.063C231.835 128.618 191.529 158.564 189.612 211.139C188.594 238.982 199.854 265.48 214.826 283.818C229.799 302.156 248.305 313.596 266.511 324.784C307.716 350.103 348.86 375.423 390.065 400.827" stroke="#FFE7AB" stroke-miterlimit="10"/>
<path d="M774.919 -509.173C767.313 -460.552 735.033 -425.054 700.536 -413.866C666.039 -402.678 629.805 -411.847 595.908 -426.316C562.01 -440.784 529.25 -460.552 494.633 -471.067C460.017 -481.582 422.346 -482.171 390.844 -459.458C368.624 -443.476 350.597 -416.81 327.42 -403.772C291.366 -383.583 249.443 -399.902 212.371 -383.835C179.97 -369.788 154.038 -329.831 146.971 -283.313C139.964 -236.711 152.181 -185.483 177.694 -154.19C196.44 -131.226 220.995 -119.197 239.621 -95.9798C271.003 -56.8644 283.7 17.4127 263.457 68.9778" stroke="#FFE7AB" stroke-miterlimit="10"/>
<path d="M-6.82727 84.0351C63.0646 -11.9448 99.8372 -153.517 90.3146 -290.127C88.6976 -313.596 85.224 -338.495 73.5454 -355.571C62.286 -372.059 45.0976 -378.199 28.8673 -377.106C12.6371 -376.012 -2.93442 -368.442 -18.2663 -360.955" stroke="#FFE7AB" stroke-miterlimit="10"/>
<path d="M38.8688 -338.916C58.3331 -323.186 64.7413 -288.192 66.5979 -256.732C72.6468 -152.087 46.8941 -44.4991 -2.99447 33.7317" stroke="#FFE7AB" stroke-miterlimit="10"/>
<path d="M1277.22 373.741C1279.08 342.281 1266.26 311.493 1248.17 292.65C1230.08 273.808 1207.51 265.48 1185.17 262.199C1157.68 258.161 1128.69 261.61 1104.79 281.126C1080.9 300.642 1063.41 338.663 1066.82 377.19" stroke="#FFE7AB" stroke-miterlimit="10"/>
<path d="M1235.42 373.068C1225.05 331.345 1193.97 301.567 1162.47 303.333C1130.97 305.1 1101.68 338.159 1093.71 380.891" stroke="#FFE7AB" stroke-miterlimit="10"/>
<path d="M1454.67 251.348C1433.83 241.338 1420.36 212.232 1414.25 182.538C1408.14 152.844 1407.9 121.384 1404.31 90.8484C1400.71 60.3132 1392.99 28.8526 1375.86 9.33701C1341.84 -29.4419 1300.52 -6.72972 1263.62 -39.8727C1238.65 -62.2483 1223.32 -106.074 1208.46 -142.077C1186.07 -196.166 1141.03 -237.048 1097.61 -250.928C1070.54 -259.592 1041.31 -255.386 1016.16 -238.983C1003.76 -230.823 994.117 -218.626 983.158 -207.774C970.581 -195.325 959.8 -182.202 951.536 -163.612C939.198 -135.768 934.407 -103.046 932.97 -70.6602C931.472 -36.4238 928.118 -4.79499 922.189 28.6844C917.817 53.5837 912.667 78.1465 906.857 102.457C904.821 110.953 902.665 119.365 900.329 127.693C898.173 135.516 896.976 143.928 894.819 151.835C892.364 161.088 888.95 169.92 887.094 179.594C885.237 189.268 883.8 199.446 882.602 209.456C876.613 260.517 877.092 313.091 883.979 363.899" stroke="#FFE7AB" stroke-miterlimit="10"/>
</g>
</g>
<defs>
<clipPath id="clip0_366_665">
<rect width="1440" height="339" fill="white" transform="matrix(-1 0 0 1 1440 0)"/>
</clipPath>
</defs>
</svg>
