<svg width="390" height="781" viewBox="0 0 390 781" fill="none" xmlns="http://www.w3.org/2000/svg">
<mask id="mask0_366_765" style="mask-type:alpha" maskUnits="userSpaceOnUse" x="0" y="0" width="390" height="781">
<mask id="path-1-inside-1_366_765" fill="white">
<path d="M0 0H390V781H0V0Z"/>
</mask>
<path d="M0 0H390V781H0V0Z" fill="url(#paint0_linear_366_765)"/>
<path d="M390 776H0V786H390V776Z" fill="url(#paint1_linear_366_765)" mask="url(#path-1-inside-1_366_765)"/>
</mask>
<g mask="url(#mask0_366_765)">
<path d="M511.877 823.201C485.765 722.391 489.658 604.899 522.238 508.507C531.7 480.464 543.798 452.421 544.098 420.952C544.517 372.17 516.189 328.618 521.28 280.376C524.334 251.612 538.708 228.799 553.441 209.773C568.114 190.747 584.284 172.623 593.028 146.654C601.832 120.685 600.215 83.7151 583.865 68.2058C570.09 55.1311 551.824 61.984 537.27 73.075C516.848 88.6744 499.3 111.578 480.255 130.784C466.959 144.219 452.586 155.851 436.894 160.991C406.53 171 373.471 179.837 342.567 171.09C326.577 166.582 310.706 158.106 294.535 160.63C278.365 163.155 261.596 181.91 262.494 206.347C263.332 229.611 279.263 245.12 294.296 250.801C309.328 256.481 325.618 256.842 339.034 268.654C354.964 282.721 363.289 309.862 370.716 335.29C379.759 366.399 388.982 399.131 386.946 432.945C384.011 482.087 358.498 520.319 334.542 553.953C318.851 576.045 299.806 599.759 278.605 594.62C264.53 591.193 252.971 575.143 246.024 556.388C239.077 537.632 236.082 516.262 233.208 495.252C226.74 448.814 220.331 402.377 213.863 355.939C210.33 330.601 205.718 302.648 191.464 288.131C175.414 271.81 154.153 278.934 134.868 282.27C115.583 285.606 91.5674 279.565 85.0993 252.063C81.0268 234.66 85.8778 215.815 89.1718 198.141C92.4657 180.378 93.2444 158.286 83.7817 146.654C76.2355 137.276 64.6168 138.899 56.2322 146.383C47.8475 153.868 41.8585 166.221 36.1091 178.123C21.3761 208.781 5.86452 246.653 14.9678 281.909C20.2382 302.468 32.875 316.715 39.7025 336.192C51.1415 368.833 44.2541 408.599 36.4684 443.494C28.6228 478.39 19.9986 516.532 28.4431 551.158C36.1091 582.447 56.1723 603.006 76.5349 616.08C96.8976 629.155 118.877 637.09 137.982 654.042C162.597 675.863 181.163 712.653 188.59 754.131C196.016 795.609 192.243 841.506 178.229 879.017" stroke="#FFE7AB" stroke-opacity="0.05" stroke-miterlimit="10"/>
<path d="M486.903 809.675C468.816 762.246 467.738 704.176 473.248 650.164C478.758 596.152 490.256 543.854 495.886 489.842C501.516 435.83 500.677 377.85 482.95 330.15C474.805 308.239 462.887 286.868 463.905 261.801C464.683 243.136 472.709 224.11 467.858 206.797C463.246 190.476 449.232 185.336 437.613 187.951C407.129 194.804 384.43 245.57 391.737 290.746C399.643 339.798 436.176 376.137 432.522 426.362C430.426 455.667 414.855 478.119 400.301 497.867C378.022 527.984 355.743 558.1 333.524 588.307C317.234 610.399 297.59 634.024 275.969 628.343C258.062 623.654 245.126 599.669 237.16 575.052C226.74 542.862 221.829 507.335 216.139 472.529C210.449 437.723 203.742 402.467 190.326 372.891C176.911 343.315 155.53 319.78 131.754 318.428C111.032 317.256 90.9685 333.035 77.014 356.119C63.0596 379.203 54.675 408.778 49.5245 438.985C43.1761 476.226 41.9184 518.696 56.6514 550.075C77.4333 594.439 119.297 598.226 151.997 621.129C179.007 640.065 200.987 674.51 212.546 715.808C224.104 757.106 225.063 804.896 215.181 847.186" stroke="#FFE7AB" stroke-opacity="0.05" stroke-width="4" stroke-miterlimit="10"/>
<path d="M469.175 800.028C452.586 747.729 449.052 686.413 459.353 630.598C462.887 611.391 468.037 592.726 470.014 572.979C471.99 553.232 470.193 531.41 461.389 516.532C448.393 494.35 424.138 495.252 407.309 510.401C390.479 525.549 379.34 551.428 368.919 576.495C358.498 601.563 347.658 627.532 331.128 643.492C309.149 664.772 279.203 665.854 260.877 693.987C249.678 711.21 244.826 736.097 244.527 760.263C244.228 784.428 247.941 808.143 251.594 831.677" stroke="#FFE7AB" stroke-opacity="0.05" stroke-width="4" stroke-miterlimit="10"/>
<path d="M440.308 817.791C433.72 763.329 434.858 706.882 443.542 653.14C446.596 634.115 450.669 614.998 449.95 595.431C449.232 575.865 442.344 555.306 430.007 548.994C420.544 544.125 409.884 548.723 401.739 557.289C393.594 565.856 387.365 578.029 381.316 589.931C366.943 618.335 352.629 646.738 338.255 675.142C328.134 695.16 317.773 715.989 313.64 740.425C307.052 779.649 319.569 824.284 342.747 844.572" stroke="#FFE7AB" stroke-opacity="0.05" stroke-miterlimit="10"/>
<path d="M413.956 790.109C419.167 760.804 422.161 710.309 427.372 673.699C429.947 655.485 432.822 637.271 433.421 618.786C433.54 614.367 433.54 609.949 433.301 605.621C432.941 598.678 432.223 591.825 430.306 585.693C428.39 579.562 425.275 573.971 420.904 571.446C414.016 567.389 405.931 570.815 399.882 577.217C393.833 583.619 389.341 592.817 384.969 601.834C373.411 625.729 361.912 649.714 350.353 673.699C345.382 683.979 340.351 694.439 336.878 705.98C334.781 712.924 333.284 720.318 332.745 727.892C332.386 732.761 332.565 737.63 333.045 742.409C335.141 764.681 350.952 796.061 365.086 803.635" stroke="#FFE7AB" stroke-opacity="0.05" stroke-miterlimit="10"/>
<path d="M411.201 694.168C413.537 672.617 415.933 651.067 418.268 629.606C418.987 623.024 419.706 616.261 418.987 609.679C418.268 603.096 415.873 596.514 411.86 593.628C407.488 590.563 402.098 592.546 398.145 596.874C394.193 601.203 391.438 607.334 388.683 613.376C379.939 632.943 371.255 652.419 362.511 671.986C358.917 680.102 355.264 688.307 353.228 697.595C351.191 706.882 351.072 717.432 354.246 725.908C358.258 736.638 378.921 764.501 387.545 762.337C404.494 758.189 409.045 713.555 411.141 694.168H411.201Z" stroke="#FFE7AB" stroke-opacity="0.05" stroke-miterlimit="10"/>
<path d="M210.03 542.411C209.371 517.343 203.981 493.178 198.411 469.553C191.404 439.707 183.738 409.139 169.365 386.056C154.991 362.972 132.173 348.815 112.469 359.816C96.598 368.653 86.0574 391.285 78.4513 414.098C67.5513 446.83 61.2629 488.399 75.0975 518.516C83.4222 536.64 97.3167 546.649 110.612 555.846C134.748 572.618 158.704 590.291 183.08 606.161C194.638 613.736 197.872 608.415 203.622 591.373C208.653 576.405 210.509 559.092 210.09 542.411H210.03Z" stroke="#FFE7AB" stroke-opacity="0.05" stroke-miterlimit="10"/>
<path d="M168.526 472.439C168.167 462.069 164.813 452.241 160.082 444.667C152.356 432.313 140.258 425.641 129.478 430.51C118.698 435.379 110.792 453.413 113.727 469.734C119.955 503.999 170.143 522.664 168.526 472.439Z" stroke="#FFE7AB" stroke-opacity="0.05" stroke-miterlimit="10"/>
<path d="M355.983 494.17C368.26 468.651 375.207 435.469 369.458 405.172C365.385 383.982 355.683 366.398 345.801 350.078C332.326 327.715 317.473 305.624 298.548 295.615C279.623 285.606 255.667 291.196 244.228 315.993C234.885 336.372 236.082 363.423 237.879 388.129C240.095 417.886 242.61 447.642 245.425 477.308C247.042 494.35 248.839 511.572 253.451 527.352C258.062 543.132 265.848 557.469 276.449 563.871C305.076 581.184 341.31 524.828 355.923 494.35L355.983 494.17Z" stroke="#FFE7AB" stroke-opacity="0.05" stroke-width="4" stroke-miterlimit="10"/>
<path d="M337.417 369.284C327.715 349.356 312.982 332.495 296.632 333.577C275.55 334.929 259.739 366.309 256.984 397.778C254.229 429.247 261.296 460.627 268.244 490.653C274.592 518.155 283.935 541.87 305.555 535.197C317.533 531.5 323.941 522.754 331.428 508.958C355.024 465.586 360.834 417.255 337.477 369.284H337.417Z" stroke="#FFE7AB" stroke-opacity="0.05" stroke-miterlimit="10"/>
<path d="M331.727 460.897C337.357 442.051 337.596 419.599 332.326 400.573C328.792 387.769 322.683 376.317 314.598 369.645C306.513 362.972 296.332 361.619 288.007 367.48C278.604 374.063 272.555 388.67 269.98 403.819C266.746 422.755 268.243 443.494 274.172 460.987C278.784 474.603 292.439 500.842 303.998 500.211C315.557 499.58 327.594 474.603 331.667 460.987L331.727 460.897Z" stroke="#FFE7AB" stroke-opacity="0.05" stroke-miterlimit="10"/>
<path d="M305.495 456.749C309.388 448.183 312.802 438.264 312.143 427.895C311.484 417.525 305.196 407.516 298.428 409.59C291.181 411.754 288.187 426.091 290.762 436.461C293.337 446.831 299.626 453.954 305.555 460.537" stroke="#FFE7AB" stroke-opacity="0.05" stroke-miterlimit="10"/>
<path d="M550.087 -153.433C566.197 -138.464 582.787 -122.775 593.507 -99.2403C604.227 -75.7059 607.521 -42.0723 596.142 -19.2592C590.093 -7.08625 580.81 0.39788 571.827 7.43116C533.557 37.6382 495.287 67.9354 457.017 98.1425C423.718 124.472 387.006 151.704 350.053 140.793C329.99 134.842 311.065 117.89 290.702 119.603C267.645 121.587 248.659 146.834 233.387 172.984C218.115 199.133 203.742 228.258 182.84 243.046C161.938 257.834 131.993 250.981 123.01 218.971C114.805 189.755 125.525 154.319 115.164 126.276C102.767 92.8224 73.6003 92.1912 53.2376 108.242C35.5101 122.128 21.3761 155.671 10.536 180.468C-2.81955 211.036 -11.2043 253.235 -5.4548 289.664C0.0550993 324.47 20.3579 351.882 22.7535 387.499C25.2689 424.649 7.60126 457.922 3.70839 494.711C-2.10096 549.535 23.4722 601.383 53.2376 634.115C83.003 666.846 118.159 687.856 146.247 723.834C174.336 759.812 194.638 819.234 180.744 870.631" stroke="#FFE7AB" stroke-opacity="0.05" stroke-miterlimit="10"/>
<path d="M539.546 -173C566.078 -129.538 565.179 -124.308 572.965 -91.8467C576.558 -76.8785 572.785 -60.197 564.341 -50.6389C545.116 -28.8177 525.771 -10.423 506.666 12.9311C481.213 43.9497 455.46 75.329 425.875 96.3386C396.289 117.348 361.972 127.447 330.469 113.832C305.974 103.282 280.761 78.8456 257.104 93.0023C226.859 111.217 221.409 181.099 186.254 187.05C180.445 188.042 174.336 186.779 169.425 182C156.728 169.557 156.608 143.949 151.458 123.39C142.774 88.4938 117.44 66.9431 92.7053 66.4923C67.9707 66.0414 44.3141 83.8951 25.6883 108.421C-15.636 162.974 -34.202 253.596 -20.4273 333.757C-15.2168 364.235 -6.353 393.36 -2.75959 424.558C0.833823 455.307 -14.8575 479.743 -20.7866 506.523C-26.7157 533.304 -16.5942 574.963 -7.43102 598.317C3.76845 626.901 20.8371 649.533 39.5229 667.026C57.6097 683.978 80.4279 692.094 97.5565 710.308C113.188 726.899 129.777 745.384 142.774 766.755C153.434 784.248 162.118 805.348 165.951 828.521C169.604 850.343 162.118 868.827 150.619 882.804" stroke="#FFE7AB" stroke-opacity="0.05" stroke-miterlimit="10"/>
<path d="M28.9821 -144.416C24.2507 -106.905 0.174908 -81.2066 -24.3202 -71.4683C-48.8153 -61.7299 -74.628 -64.0743 -99.8417 -60.197C-134.219 -54.9671 -169.314 -36.4822 -191.893 2.92224C-208.842 32.4981 -217.167 71.091 -221.958 109.504C-229.504 170.549 -228.785 233.939 -219.981 294.623C-217.466 312.026 -214.232 330.24 -217.766 347.283C-221.06 363.062 -229.564 374.875 -237.949 385.425C-263.342 417.345 -291.91 446.56 -307.182 490.744C-324.25 540.157 -321.495 598.948 -323.951 654.583C-326.406 710.218 -337.965 772.255 -370.845 797.863" stroke="#FFE7AB" stroke-opacity="0.05" stroke-miterlimit="10"/>
<path d="M534.336 -141.801C548.35 -142.612 556.854 -115.381 552.482 -95.363C548.11 -75.3452 535.893 -61.8196 524.454 -49.7368C495.706 -19.4396 466.959 10.7675 438.212 41.0647C409.644 71.1816 377.483 102.651 342.867 96.0686C320.288 91.7404 300.584 71.4521 279.143 59.7299C257.703 48.0078 230.034 47.3766 216.079 74.608C206.856 92.5519 202.304 122.669 187.272 122.849C176.372 122.939 169.544 105.987 163.076 92.7323C139.599 44.6715 94.1427 27.2686 56.2921 44.6715C18.3816 62.0744 -11.3839 109.865 -26.4163 165.049C-41.4488 220.233 -43.1257 282.09 -37.4361 341.151C-33.8427 378.482 -27.4344 416.353 -32.1059 453.413C-35.5196 480.735 -44.8026 506.073 -46.7191 533.665C-49.5339 573.701 -36.2982 613.375 -17.4926 642.05C1.31288 670.724 25.2689 690.201 48.9256 709.136C71.6838 727.261 94.8614 745.475 113.906 771.715C132.952 797.864 147.684 833.481 148.763 872.254" stroke="#FFE7AB" stroke-opacity="0.05" stroke-miterlimit="10"/>
<path d="M489.059 -132.243C482.111 -68.7633 456.239 -10.6035 419.885 23.3006C383.592 57.2046 337.417 66.1314 296.571 47.2859C276.628 38.0885 256.864 22.3989 236.142 26.0057C221.11 28.6206 207.335 41.4248 192.243 43.0479C174.396 44.9415 157.746 31.1454 140.857 22.2185C100.132 0.487495 53.1777 7.06991 15.8062 39.7116C-21.5653 72.3532 -48.6955 130.423 -56.4213 194.444C-69.7769 304.632 -28.6922 425.64 -60.9131 526.631C-70.1961 555.846 -85.7076 584.43 -82.1142 616.351C-77.7422 655.124 -48.9351 673.428 -25.0988 689.298C24.3106 722.301 68.3898 773.427 102.168 836.907" stroke="#FFE7AB" stroke-opacity="0.05" stroke-miterlimit="10"/>
<path d="M470.612 -132.153C458.335 -77.6905 427.971 -24.0392 393.773 1.56917C352.569 32.4074 299.087 18.972 255.607 9.32382C226.979 3.0119 198.292 -3.3 169.664 -9.61192C147.325 -14.5713 124.866 -19.4405 102.348 -17.5469C61.5024 -14.0303 23.5321 11.7584 -11.9828 40.5227C-41.9279 64.7785 -75.2269 85.4275 -89.1214 137.095C-103.854 191.738 -81.8148 251.07 -70.3757 307.427C-52.9477 393.449 -61.4521 490.563 -93.134 566.847C-105.112 595.611 -120.923 626.539 -116.012 659.722C-110.682 695.88 -83.9709 713.283 -60.6736 725.186C-12.5817 749.802 35.4502 774.509 83.542 799.125" stroke="#FFE7AB" stroke-opacity="0.05" stroke-width="4" stroke-miterlimit="10"/>
<path d="M455.34 -128.546C424.737 -54.3358 368.2 -6.00449 310.167 -4.65193C236.562 -2.84853 166.49 -70.9271 93.364 -57.9426C67.8508 -53.434 43.5954 -39.097 19.6992 -24.9402C-22.5234 0.12709 -64.746 25.1043 -107.029 50.1716C-122.66 59.4591 -139.13 69.5582 -149.431 89.6662C-168.596 126.997 -158.474 182.542 -140.208 220.864C-121.941 259.186 -96.5478 290.025 -82.6533 332.405C-65.1054 385.876 -69.7169 454.134 -94.0324 501.203C-117.03 545.747 -157.336 577.848 -159.253 634.204C-160.271 664.051 -149.012 692.454 -134.039 712.112C-119.067 731.769 -100.56 744.032 -82.3538 756.024C-41.1493 783.166 -0.00472706 810.307 41.1997 837.538" stroke="#FFE7AB" stroke-opacity="0.05" stroke-miterlimit="10"/>
<path d="M426.054 -137.924C418.448 -85.8054 386.167 -47.7536 351.671 -35.7609C317.174 -23.7683 280.94 -33.5968 247.042 -49.1061C213.145 -64.6154 180.385 -85.8054 145.768 -97.0767C111.152 -108.348 73.4807 -108.979 41.9784 -84.6332C19.7592 -67.5008 1.73213 -38.9169 -21.4454 -24.9405C-57.4993 -3.2996 -99.4224 -20.7926 -136.494 -3.57012C-168.895 11.4883 -194.827 54.3192 -201.894 104.183C-208.902 154.138 -196.684 209.051 -171.171 242.595C-152.425 267.211 -127.87 280.106 -109.244 304.993C-77.8619 346.922 -65.1652 426.542 -85.4081 481.817" stroke="#FFE7AB" stroke-opacity="0.05" stroke-miterlimit="10"/>
</g>
<defs>
<linearGradient id="paint0_linear_366_765" x1="417.324" y1="-253.506" x2="-12.4621" y2="193.428" gradientUnits="userSpaceOnUse">
<stop stop-color="#5D5757"/>
<stop offset="1" stop-color="#181717"/>
</linearGradient>
<linearGradient id="paint1_linear_366_765" x1="533.115" y1="-800.364" x2="-792.855" y2="2179.7" gradientUnits="userSpaceOnUse">
<stop offset="0.2" stop-color="#BDA66B"/>
<stop offset="0.435" stop-color="#FFE7AB"/>
<stop offset="0.63" stop-color="#BDA66B"/>
<stop offset="1" stop-color="#574D31"/>
</linearGradient>
</defs>
</svg>
