<svg width="61" height="61" viewBox="0 0 61 61" fill="none" xmlns="http://www.w3.org/2000/svg">
<rect x="0.746582" y="0.195587" width="60.2535" height="60.2535" fill="#1E1E1E"/>
<rect x="1.11102" y="0.560024" width="59.5246" height="59.5246" stroke="#7D7D7D" stroke-opacity="0.6" stroke-width="0.728873"/>
<path d="M30.9736 19.6322H31.1466C32.7444 19.6379 40.8403 19.6949 43.0231 20.2694C43.683 20.4448 44.2844 20.7865 44.767 21.2606C45.2497 21.7346 45.5968 22.3243 45.7736 22.9707C45.9699 23.6936 46.1079 24.6505 46.2012 25.6378L46.2207 25.8357L46.2634 26.3303L46.279 26.5281C46.4053 28.2668 46.4209 29.8952 46.4228 30.251V30.3936C46.4209 30.7627 46.4034 32.5014 46.2634 34.3124L46.2479 34.5122L46.2304 34.71C46.1332 35.7982 45.9893 36.8787 45.7736 37.6738C45.5973 38.3206 45.2504 38.9105 44.7677 39.3846C44.2849 39.8588 43.6833 40.2003 43.0231 40.3752C40.7683 40.9687 32.1982 41.0105 31.0106 41.0124H30.7345C30.1339 41.0124 27.6497 41.001 25.0451 40.9135L24.7146 40.9021L24.5455 40.8945L24.2131 40.8812L23.8808 40.8679C21.7232 40.7746 19.6686 40.6244 18.722 40.3733C18.062 40.1986 17.4606 39.8573 16.9778 39.3836C16.4951 38.9098 16.1481 38.3202 15.9715 37.6738C15.7557 36.8806 15.6119 35.7982 15.5147 34.71L15.4992 34.5103L15.4836 34.3124C15.3877 33.0234 15.3345 31.7317 15.3242 30.4393L15.3242 30.2053C15.3281 29.7963 15.3437 28.3829 15.4486 26.823L15.4622 26.627L15.4681 26.5281L15.4836 26.3303L15.5264 25.8357L15.5458 25.6378C15.6391 24.6505 15.7771 23.6917 15.9734 22.9707C16.1497 22.324 16.4966 21.7341 16.9794 21.2599C17.4621 20.7858 18.0637 20.4442 18.7239 20.2694C19.6705 20.0221 21.7251 19.8699 23.8827 19.7748L24.2131 19.7615L24.5475 19.7501L24.7146 19.7444L25.047 19.7311C26.8969 19.6728 28.7476 19.6405 30.5985 19.6341H30.9736V19.6322ZM27.7644 25.7386V34.9041L35.8447 30.3232L27.7644 25.7386Z" fill="url(#paint0_linear_328_305)"/>
<defs>
<linearGradient id="paint0_linear_328_305" x1="57.8348" y1="-2.27822" x2="43.2462" y2="93.2252" gradientUnits="userSpaceOnUse">
<stop offset="0.2" stop-color="#BDA66B"/>
<stop offset="0.435" stop-color="#FFE7AB"/>
<stop offset="0.63" stop-color="#BDA66B"/>
<stop offset="1" stop-color="#574D31"/>
</linearGradient>
</defs>
</svg>
