<svg width="53" height="53" viewBox="0 0 53 53" fill="none" xmlns="http://www.w3.org/2000/svg">
<path fill-rule="evenodd" clip-rule="evenodd" d="M26.1973 13.5211C22.7545 13.5211 22.3235 13.5363 20.971 13.5971C19.6222 13.6593 18.7007 13.8735 17.8945 14.1866C17.0483 14.5046 16.2818 15.0033 15.6483 15.6481C15.0035 16.2816 14.5047 17.0482 14.1867 17.8943C13.8736 18.7005 13.6594 19.6221 13.5973 20.9708C13.5352 22.3233 13.5212 22.7543 13.5212 26.1971C13.5212 29.64 13.5352 30.0709 13.5973 31.4235C13.6594 32.7722 13.8736 33.6938 14.1867 34.5C14.5048 35.3461 15.0036 36.1126 15.6483 36.7462C16.2818 37.3909 17.0484 37.8897 17.8945 38.2077C18.7007 38.5208 19.6222 38.735 20.971 38.7971C22.3235 38.858 22.7545 38.8732 26.1973 38.8732C29.6401 38.8732 30.0711 38.858 31.4236 38.7971C32.7724 38.735 33.6939 38.5208 34.5001 38.2077C35.3462 37.8897 36.1128 37.3909 36.7463 36.7462C37.3911 36.1126 37.8899 35.3461 38.2079 34.5C38.521 33.6938 38.7352 32.7722 38.7973 31.4235C38.8581 30.0709 38.8734 29.64 38.8734 26.1971C38.8734 22.7543 38.8581 22.3233 38.7973 20.9708C38.7352 19.6221 38.521 18.7005 38.2079 17.8943C37.8899 17.0482 37.3911 16.2816 36.7463 15.6481C36.1128 15.0033 35.3463 14.5046 34.5001 14.1866C33.6939 13.8735 32.7724 13.6593 31.4236 13.5971C30.0711 13.5363 29.6401 13.5211 26.1973 13.5211ZM26.1973 15.8053C29.5818 15.8053 29.9824 15.818 31.3184 15.8788C32.5556 15.9359 33.2262 16.1412 33.6736 16.3149C34.2643 16.5456 34.6877 16.8207 35.1314 17.2631C35.575 17.7067 35.8488 18.1301 36.0795 18.7208C36.2519 19.1683 36.4598 19.8388 36.5156 21.0747C36.5764 22.4121 36.5891 22.8114 36.5891 26.1971C36.5891 29.5816 36.5764 29.9822 36.5156 31.3183C36.4586 32.5555 36.2519 33.226 36.0795 33.6735C35.8763 34.2241 35.5523 34.7222 35.1314 35.1312C34.6877 35.5749 34.2643 35.8487 33.6736 36.0794C33.2262 36.2518 32.5556 36.4597 31.3197 36.5155C29.9836 36.5763 29.5831 36.589 26.1973 36.589C22.8128 36.589 22.411 36.5763 21.0762 36.5155C19.839 36.4584 19.1684 36.2518 18.721 36.0794C18.1703 35.8762 17.6722 35.5523 17.2632 35.1312C16.8422 34.7223 16.5182 34.2241 16.315 33.6735C16.1414 33.226 15.9348 32.5555 15.879 31.3195C15.8181 29.9822 15.8055 29.5829 15.8055 26.1971C15.8055 22.8126 15.8181 22.4121 15.879 21.076C15.936 19.8388 16.1414 19.1683 16.315 18.7208C16.5457 18.1301 16.8208 17.7067 17.2632 17.2631C17.7069 16.8194 18.1303 16.5456 18.721 16.3149C19.1684 16.1412 19.839 15.9346 21.0749 15.8788C22.4122 15.818 22.8115 15.8053 26.1973 15.8053ZM26.1973 30.4221C25.0768 30.4221 24.0021 29.9769 23.2098 29.1846C22.4175 28.3923 21.9724 27.3177 21.9724 26.1971C21.9724 25.0766 22.4175 24.002 23.2098 23.2097C24.0021 22.4173 25.0768 21.9722 26.1973 21.9722C27.3178 21.9722 28.3924 22.4173 29.1848 23.2097C29.9771 24.002 30.4222 25.0766 30.4222 26.1971C30.4222 27.3177 29.9771 28.3923 29.1848 29.1846C28.3924 29.9769 27.3178 30.4221 26.1973 30.4221ZM26.1973 19.688C25.3425 19.688 24.4961 19.8564 23.7064 20.1835C22.9166 20.5106 22.1991 20.99 21.5946 21.5945C20.9902 22.1989 20.5107 22.9165 20.1836 23.7062C19.8565 24.4959 19.6881 25.3423 19.6881 26.1971C19.6881 27.0519 19.8565 27.8984 20.1836 28.6881C20.5107 29.4778 20.9902 30.1954 21.5946 30.7998C22.1991 31.4042 22.9166 31.8837 23.7064 32.2108C24.4961 32.5379 25.3425 32.7063 26.1973 32.7063C27.9236 32.7063 29.5793 32.0205 30.8 30.7998C32.0207 29.5791 32.7064 27.9235 32.7064 26.1971C32.7064 24.4708 32.0207 22.8152 30.8 21.5945C29.5793 20.3738 27.9236 19.688 26.1973 19.688ZM34.4849 19.4307C34.4849 19.6304 34.4456 19.8282 34.3691 20.0128C34.2927 20.1973 34.1806 20.365 34.0394 20.5063C33.8981 20.6475 33.7304 20.7596 33.5459 20.836C33.3613 20.9124 33.1635 20.9518 32.9638 20.9518C32.764 20.9518 32.5662 20.9124 32.3817 20.836C32.1971 20.7596 32.0294 20.6475 31.8882 20.5063C31.7469 20.365 31.6349 20.1973 31.5584 20.0128C31.482 19.8282 31.4426 19.6304 31.4426 19.4307C31.4426 19.0272 31.6029 18.6403 31.8882 18.3551C32.1734 18.0698 32.5603 17.9095 32.9638 17.9095C33.3672 17.9095 33.7541 18.0698 34.0394 18.3551C34.3246 18.6403 34.4849 19.0272 34.4849 19.4307Z" fill="#1A1A1A" fill-opacity="0.5"/>
<rect x="0.316901" y="0.316901" width="51.7606" height="51.7606" stroke="#7D7D7D" stroke-opacity="0.6" stroke-width="0.633803"/>
</svg>
