<svg width="53" height="53" viewBox="0 0 53 53" fill="none" xmlns="http://www.w3.org/2000/svg">
<path d="M26.8902 16.9014H27.0406C28.43 16.9063 35.4698 16.956 37.368 17.4555C37.9418 17.608 38.4647 17.9052 38.8844 18.3174C39.3041 18.7296 39.6059 19.2424 39.7597 19.8045C39.9304 20.4331 40.0504 21.2651 40.1315 22.1237L40.1485 22.2957L40.1856 22.7258L40.1992 22.8978C40.309 24.4098 40.3225 25.8258 40.3242 26.1351V26.2592C40.3225 26.5801 40.3073 28.092 40.1856 29.6668L40.1721 29.8405L40.1569 30.0126C40.0724 30.9588 39.9473 31.8983 39.7597 32.5898C39.6064 33.1521 39.3047 33.6652 38.885 34.0774C38.4652 34.4897 37.9421 34.7868 37.368 34.9388C35.4073 35.4549 27.955 35.4913 26.9223 35.4929H26.6823C26.16 35.4929 23.9998 35.483 21.7349 35.4069L21.4476 35.397L21.3005 35.3904L21.0115 35.3788L20.7224 35.3672C18.8463 35.2861 17.0597 35.1555 16.2365 34.9371C15.6627 34.7852 15.1397 34.4885 14.7199 34.0765C14.3002 33.6645 13.9984 33.1518 13.8448 32.5898C13.6572 31.9 13.5321 30.9588 13.4476 30.0126L13.4341 29.8389L13.4206 29.6668C13.3372 28.5459 13.2909 27.4227 13.282 26.2989L13.282 26.0954C13.2854 25.7398 13.2989 24.5107 13.3902 23.1542L13.402 22.9839L13.4071 22.8978L13.4206 22.7258L13.4578 22.2957L13.4747 22.1237C13.5558 21.2651 13.6758 20.4314 13.8465 19.8045C13.9998 19.2421 14.3015 18.7291 14.7212 18.3168C15.141 17.9046 15.6642 17.6075 16.2382 17.4555C17.0614 17.2405 18.848 17.1081 20.7241 17.0254L21.0115 17.0139L21.3022 17.0039L21.4476 16.999L21.7366 16.9874C23.3452 16.9367 24.9545 16.9086 26.5639 16.903H26.8902V16.9014ZM24.0996 22.2113V30.1813L31.1259 26.198L24.0996 22.2113Z" fill="#1A1A1A" fill-opacity="0.5"/>
<rect x="0.922614" y="0.316901" width="51.7606" height="51.7606" stroke="#7D7D7D" stroke-opacity="0.6" stroke-width="0.633803"/>
</svg>
